<svg width="638" height="552" viewBox="0 0 638 552" fill="none" xmlns="http://www.w3.org/2000/svg">
<g opacity="0.8">
<g clip-path="url(#clip0)">
<path d="M197.569 258.196C236.086 258.196 267.31 226.973 267.31 188.457C267.31 149.94 236.086 118.717 197.569 118.717C159.052 118.717 127.828 149.94 127.828 188.457C127.828 226.973 159.052 258.196 197.569 258.196Z" fill="#FF6584"/>
<path d="M769 166.885V350.313C769.001 385.865 761.999 421.069 748.394 453.916C734.789 486.762 714.847 516.606 689.708 541.746C664.568 566.885 634.723 586.826 601.876 600.431C569.03 614.036 533.825 621.038 498.272 621.037H0V437.609C0 339.592 52.0943 253.733 130.115 206.223C143.56 198.029 157.699 191.032 172.369 185.313C181.002 181.94 189.806 179.021 198.744 176.568C198.919 176.51 199.101 176.46 199.276 176.419C201.916 175.696 204.574 175.015 207.248 174.376C207.397 174.334 207.539 174.301 207.688 174.268C224.169 170.341 240.982 167.97 257.906 167.184C259.907 167.093 261.908 167.018 263.926 166.977C264.649 166.952 265.38 166.935 266.119 166.935C267.647 166.902 269.183 166.885 270.728 166.885H769Z" fill="#3F3D56"/>
<path d="M358.756 502.832C161.036 502.832 0.68014 556.147 0.00790405 622H717.504C716.832 556.147 556.475 502.832 358.756 502.832Z" fill="#F2F2F2"/>
<g opacity="0.1">
<path opacity="0.1" d="M435.988 559.902C472.68 559.902 502.424 551.639 502.424 541.447C502.424 531.255 472.68 522.993 435.988 522.993C399.296 522.993 369.552 531.255 369.552 541.447C369.552 551.639 399.296 559.902 435.988 559.902Z" fill="black"/>
</g>
<g opacity="0.1">
<path opacity="0.1" d="M435.988 558.056C469.011 558.056 495.781 550.62 495.781 541.447C495.781 532.274 469.011 524.838 435.988 524.838C402.966 524.838 376.195 532.274 376.195 541.447C376.195 550.62 402.966 558.056 435.988 558.056Z" fill="black"/>
</g>
<path d="M114.603 246.641C117.813 246.641 120.416 244.038 120.416 240.828C120.416 237.617 117.813 235.015 114.603 235.015C111.392 235.015 108.789 237.617 108.789 240.828C108.789 244.038 111.392 246.641 114.603 246.641Z" fill="#F2F2F2"/>
<path d="M614.536 474.182C617.746 474.182 620.349 471.579 620.349 468.369C620.349 465.158 617.746 462.555 614.536 462.555C611.325 462.555 608.722 465.158 608.722 468.369C608.722 471.579 611.325 474.182 614.536 474.182Z" fill="#F2F2F2"/>
<path d="M340.486 287.332C343.696 287.332 346.299 284.73 346.299 281.519C346.299 278.309 343.696 275.706 340.486 275.706C337.275 275.706 334.673 278.309 334.673 281.519C334.673 284.73 337.275 287.332 340.486 287.332Z" fill="#F2F2F2"/>
<path d="M628.653 249.963C630.488 249.963 631.975 248.475 631.975 246.641C631.975 244.806 630.488 243.319 628.653 243.319C626.819 243.319 625.332 244.806 625.332 246.641C625.332 248.475 626.819 249.963 628.653 249.963Z" fill="#FF6584"/>
<path d="M127.89 416.051C129.724 416.051 131.212 414.564 131.212 412.729C131.212 410.894 129.724 409.407 127.89 409.407C126.055 409.407 124.568 410.894 124.568 412.729C124.568 414.564 126.055 416.051 127.89 416.051Z" fill="#FF6584"/>
<path d="M78.0626 482.753H76.5495V481.24H76.2539V482.753H74.7408V483.049H76.2539V484.562H76.5495V483.049H78.0626V482.753Z" fill="#F2F2F2"/>
<path d="M563.878 359.848H562.365V358.335H562.069V359.848H560.556V360.144H562.069V361.657H562.365V360.144H563.878V359.848Z" fill="#F2F2F2"/>
<path d="M419.379 401.37H417.866V399.857H417.57V401.37H416.057V401.666H417.57V403.179H417.866V401.666H419.379V401.37Z" fill="#F2F2F2"/>
<path d="M371.213 445.384H369.7V443.871H369.404V445.384H367.891V445.679H369.404V447.192H369.7V445.679H371.213V445.384Z" fill="#F2F2F2"/>
<path d="M477.511 447.044H475.998V445.531H475.702V447.044H474.189V447.34H475.702V448.853H475.998V447.34H477.511V447.044Z" fill="#F2F2F2"/>
<path d="M79.7235 305.869H78.2105V304.356H77.9148V305.869H76.4017V306.165H77.9148V307.678H78.2105V306.165H79.7235V305.869Z" fill="#F2F2F2"/>
<path d="M564.602 191.574H562.215V239.792H564.602V191.574Z" fill="#E6E6E6"/>
<path d="M508.028 319.758L486.067 370.363L490.364 377.524L488.931 379.911L498.957 385.162V382.298L502.776 381.343L519.009 351.744L508.028 319.758Z" fill="#E6E6E6"/>
<path d="M490.841 379.434C490.841 379.434 474.609 404.736 492.751 408.556C510.892 412.375 496.093 381.821 496.093 381.821L490.841 379.434Z" fill="#E6E6E6"/>
<path d="M514.234 367.976L508.505 386.595L506.118 410.465L501.822 419.059L506.596 457.729L514.234 465.367L517.576 503.56V520.746L526.647 536.501L514.966 553.08C514.415 553.859 514.085 554.773 514.012 555.724C513.939 556.676 514.124 557.629 514.549 558.483C514.974 559.338 515.623 560.061 516.426 560.576C517.229 561.092 518.157 561.38 519.11 561.41C521.689 561.478 525.089 560.749 529.512 558.462C543.357 551.301 542.879 544.617 542.879 544.617C542.879 544.617 551.473 544.617 551.95 537.933C552.428 531.249 546.699 483.509 546.699 483.509L541.447 462.98V407.123H543.357L544.312 454.864L548.608 472.528L549.086 480.167L555.292 556.552C555.292 556.552 582.982 564.191 584.414 557.984C585.847 551.778 573.911 547.959 573.911 547.959L581.073 534.114V507.379L578.685 501.65L574.389 462.98L581.55 455.342L585.369 450.568V412.375L580.595 397.575L579.163 385.163L571.524 366.066C571.524 366.066 536.673 354.608 514.234 367.976Z" fill="white"/>
<path d="M576.298 260.082C576.299 265.824 574.936 271.484 572.322 276.598C569.708 281.711 565.918 286.13 561.263 289.493C556.608 292.856 551.222 295.066 545.546 295.941C539.871 296.817 534.069 296.333 528.617 294.529C523.165 292.725 518.22 289.653 514.186 285.565C510.153 281.478 507.148 276.491 505.418 271.015C503.687 265.54 503.281 259.732 504.233 254.069C505.185 248.406 507.467 243.05 510.892 238.441L510.902 238.431C515.453 232.309 521.818 227.778 529.092 225.48C536.366 223.183 544.179 223.237 551.421 225.634C558.663 228.032 564.964 232.651 569.43 238.835C573.896 245.019 576.3 252.454 576.298 260.082Z" fill="#60B6E9"/>
<g opacity="0.1">
<path opacity="0.1" d="M571.142 245.039L568.182 261.991C545.939 204.254 510.558 239.72 509.947 240.341C513.604 235.423 518.447 231.512 524.024 228.972C529.601 226.432 535.73 225.346 541.84 225.815C547.95 226.284 553.842 228.293 558.966 231.654C564.09 235.016 568.279 239.62 571.142 245.039Z" fill="black"/>
</g>
<path d="M572.097 243.129L569.137 260.082C546.894 202.344 511.513 237.811 510.902 238.431C514.559 233.514 519.401 229.602 524.978 227.062C530.555 224.522 536.685 223.436 542.795 223.905C548.905 224.374 554.797 226.383 559.921 229.745C565.045 233.106 569.234 237.711 572.097 243.129Z" fill="white"/>
<path d="M567.123 235.972L572.097 253.237C572.097 253.237 561.772 284.182 513.894 285.261L512.325 289.681L507.073 291.113L504.686 301.139L511.37 364.634C511.37 364.634 508.505 370.84 513.28 370.363C513.28 370.363 544.789 359.86 572.002 369.408C572.002 369.408 577.731 371.795 576.298 366.544C576.298 366.544 595.395 354.609 593.963 342.196C592.531 329.783 595.395 272.017 595.395 272.017C595.395 272.017 598.26 255.308 589.666 251.488C589.666 251.488 577.045 233.823 567.123 235.972Z" fill="white"/>
<path d="M556.657 356.606C556.657 356.606 526.745 359.61 535.025 376.197C543.305 392.785 558.049 362.204 558.049 362.204L556.657 356.606Z" fill="#E6E6E6"/>
<path d="M572.002 282.52C572.002 282.52 566.75 288.726 568.66 298.752C570.569 308.777 577.731 331.215 577.731 331.215L552.428 354.609L560.066 365.111L594.44 347.447L602.079 342.673C600.179 323.364 595.453 304.438 588.051 286.502L586.802 283.475C586.802 283.475 577.731 279.655 572.002 282.52Z" fill="#E6E6E6"/>
<path d="M569.615 265.572C574.492 265.572 578.447 261.618 578.447 256.74C578.447 251.862 574.492 247.908 569.615 247.908C564.737 247.908 560.782 251.862 560.782 256.74C560.782 261.618 564.737 265.572 569.615 265.572Z" fill="#E6E6E6"/>
<path d="M563.408 197.78C566.968 197.78 569.853 194.894 569.853 191.335C569.853 187.775 566.968 184.89 563.408 184.89C559.849 184.89 556.963 187.775 556.963 191.335C556.963 194.894 559.849 197.78 563.408 197.78Z" fill="#E6E6E6"/>
<path d="M399.448 292.582H397.935V291.069H397.639V292.582H396.126V292.878H397.639V294.391H397.935V292.878H399.448V292.582Z" fill="#F2F2F2"/>
<path d="M535.643 246.078H534.129V244.565H533.834V246.078H532.321V246.373H533.834V247.886H534.129V246.373H535.643V246.078Z" fill="#F2F2F2"/>
<path d="M520.694 260.195H519.181V258.682H518.886V260.195H517.373V260.491H518.886V262.004H519.181V260.491H520.694V260.195Z" fill="#F2F2F2"/>
<path d="M461.732 225.049C463.567 225.049 465.054 223.562 465.054 221.728C465.054 219.893 463.567 218.406 461.732 218.406C459.898 218.406 458.41 219.893 458.41 221.728C458.41 223.562 459.898 225.049 461.732 225.049Z" fill="#F2F2F2"/>
<path d="M298.098 245.142C298.098 476.871 268.958 476.871 233.024 476.871C214.445 476.871 197.685 476.871 185.833 444.861C182.425 435.661 179.415 423.799 176.891 408.529C171.208 374.205 167.95 322.623 167.95 245.141C167.95 215.347 171.477 186.139 176.891 158.858C179.494 145.724 182.534 133.047 185.833 120.956C189.866 106.153 194.287 92.2347 198.748 79.4983C201.739 70.9345 204.759 62.8973 207.69 55.4759C221.231 21.2207 233.024 0 233.024 0C233.024 0 298.098 117.161 298.098 245.142Z" fill="#F2F2F2"/>
<g opacity="0.1">
<path opacity="0.1" d="M207.69 55.4758V459.485H198.748V79.4982C201.739 70.9344 204.759 62.8972 207.69 55.4758Z" fill="black"/>
</g>
<path d="M231.037 195.716C250.79 195.716 266.803 179.703 266.803 159.95C266.803 140.198 250.79 124.185 231.037 124.185C211.284 124.185 195.271 140.198 195.271 159.95C195.271 179.703 211.284 195.716 231.037 195.716Z" fill="#3F3D56"/>
<path d="M309.523 455.014C301.571 435.439 291.36 432.062 284.686 432.356V429.184H180.368V432.356C173.694 432.062 163.483 435.439 155.531 455.014C142.616 486.806 163.479 541.447 163.479 541.447C163.479 541.447 152.329 465.24 189.354 464.739C192.561 468.921 196.496 472.491 200.97 475.277V495.773H260.762V477.143C266.607 474.178 271.712 469.939 275.7 464.739C312.725 465.24 301.575 541.447 301.575 541.447C301.575 541.447 322.438 486.806 309.523 455.014Z" fill="#60B6E9"/>
<path d="M231.037 187.768C246.4 187.768 258.855 175.314 258.855 159.951C258.855 144.587 246.4 132.133 231.037 132.133C215.673 132.133 203.219 144.587 203.219 159.951C203.219 175.314 215.673 187.768 231.037 187.768Z" fill="#60B6E9"/>
</g>
</g>
<defs>
<clipPath id="clip0">
<rect width="769" height="622" fill="white"/>
</clipPath>
</defs>
</svg>
