<svg width="398" height="882" viewBox="0 0 398 882" fill="none" xmlns="http://www.w3.org/2000/svg">
<path fill-rule="evenodd" clip-rule="evenodd" d="M-129.049 49.3958L-99.0504 134.116C-69.0517 218.836 -6.91759 388.562 93.6753 563.427C196.405 738.578 339.73 919.153 256.575 1069.46C173.42 1219.77 -134.077 1340.1 -176.636 1495.84C-219.196 1651.57 -485.19 1690.43 -374 1786L-319 1986.5L-753 1903.08L-742.404 1823.79C-731.807 1744.49 -710.614 1585.9 -689.42 1427.31C-668.227 1268.72 -647.034 1110.13 -625.841 951.541C-604.647 792.951 -583.454 634.361 -562.261 475.771C-541.068 317.18 -519.874 158.59 -509.278 79.295L-498.681 -6.79331e-05L-129.049 49.3958Z" fill="url(#paint0_linear)" fill-opacity="0.3"/>
<defs>
<linearGradient id="paint0_linear" x1="-6.19464" y1="65.8133" x2="-260.514" y2="1968.9" gradientUnits="userSpaceOnUse">
<stop stop-color="#72C6EF"/>
<stop offset="1" stop-color="#004E8F"/>
</linearGradient>
</defs>
</svg>
