<svg width="80" height="60" viewBox="0 0 80 60" fill="none" xmlns="http://www.w3.org/2000/svg">
<path d="M75 60C75 60 80 60 80 55C80 50 75 35 55 35C35 35 30 50 30 55C30 60 35 60 35 60H75ZM35.11 55C35.0731 54.9949 35.0364 54.9882 35 54.98C35.005 53.66 35.835 49.83 38.8 46.38C41.56 43.145 46.41 40 55 40C63.585 40 68.435 43.15 71.2 46.38C74.165 49.83 74.99 53.665 75 54.98L74.96 54.99C74.9368 54.9939 74.9134 54.9973 74.89 55H35.11ZM55 25C57.6522 25 60.1957 23.9464 62.0711 22.0711C63.9464 20.1957 65 17.6522 65 15C65 12.3478 63.9464 9.8043 62.0711 7.92893C60.1957 6.05357 57.6522 5 55 5C52.3478 5 49.8043 6.05357 47.9289 7.92893C46.0536 9.8043 45 12.3478 45 15C45 17.6522 46.0536 20.1957 47.9289 22.0711C49.8043 23.9464 52.3478 25 55 25ZM70 15C70 16.9698 69.612 18.9204 68.8582 20.7403C68.1044 22.5601 66.9995 24.2137 65.6066 25.6066C64.2137 26.9995 62.5601 28.1044 60.7402 28.8582C58.9204 29.612 56.9698 30 55 30C53.0302 30 51.0796 29.612 49.2598 28.8582C47.4399 28.1044 45.7863 26.9995 44.3934 25.6066C43.0005 24.2137 41.8956 22.5601 41.1418 20.7403C40.388 18.9204 40 16.9698 40 15C40 11.0218 41.5803 7.20644 44.3934 4.3934C47.2064 1.58035 51.0218 0 55 0C58.9782 0 62.7936 1.58035 65.6066 4.3934C68.4196 7.20644 70 11.0218 70 15ZM34.68 36.4C32.6799 35.7702 30.6182 35.3562 28.53 35.165C27.3567 35.0534 26.1786 34.9984 25 35C5 35 0 50 0 55C0 58.335 1.665 60 5 60H26.08C25.3388 58.4391 24.9691 56.7277 25 55C25 49.95 26.885 44.79 30.45 40.48C31.665 39.01 33.08 37.635 34.68 36.4ZM24.6 40C21.6408 44.4464 20.0422 49.6591 20 55H5C5 53.7 5.82 49.85 8.8 46.38C11.525 43.2 16.26 40.1 24.6 40.005V40ZM7.5 17.5C7.5 13.5218 9.08035 9.70644 11.8934 6.8934C14.7064 4.08035 18.5218 2.5 22.5 2.5C26.4782 2.5 30.2936 4.08035 33.1066 6.8934C35.9196 9.70644 37.5 13.5218 37.5 17.5C37.5 21.4782 35.9196 25.2936 33.1066 28.1066C30.2936 30.9196 26.4782 32.5 22.5 32.5C18.5218 32.5 14.7064 30.9196 11.8934 28.1066C9.08035 25.2936 7.5 21.4782 7.5 17.5ZM22.5 7.5C19.8478 7.5 17.3043 8.55357 15.4289 10.4289C13.5536 12.3043 12.5 14.8478 12.5 17.5C12.5 20.1522 13.5536 22.6957 15.4289 24.5711C17.3043 26.4464 19.8478 27.5 22.5 27.5C25.1522 27.5 27.6957 26.4464 29.5711 24.5711C31.4464 22.6957 32.5 20.1522 32.5 17.5C32.5 14.8478 31.4464 12.3043 29.5711 10.4289C27.6957 8.55357 25.1522 7.5 22.5 7.5Z" fill="white"/>
</svg>
