<svg width="1713" height="83" viewBox="0 0 1713 83" fill="none" xmlns="http://www.w3.org/2000/svg">
<line x1="8.74228e-08" y1="41" x2="1713" y2="41.0001" stroke="black" stroke-opacity="0.6" stroke-width="2"/>
<rect x="80" width="139" height="83" fill="white"/>
<path d="M88.9062 57V21.9902H93.4473V52.8984H104.897V57H88.9062ZM107.363 45.6475C107.363 43.9548 107.616 42.376 108.12 40.9111C108.625 39.43 109.349 38.1605 110.293 37.1025C111.237 36.0283 112.401 35.1982 113.784 34.6123C115.168 34.0101 116.763 33.709 118.569 33.709C120.034 33.709 121.41 33.9694 122.695 34.4902C123.981 34.9948 125.096 35.7191 126.04 36.6631C126.984 37.5908 127.725 38.6813 128.262 39.9346C128.799 41.1715 129.067 42.5062 129.067 43.9385C129.067 44.264 129.059 44.6628 129.043 45.1348C129.027 45.6068 128.97 46.1602 128.872 46.7949H111.66C111.693 47.7552 111.847 48.6667 112.124 49.5293C112.417 50.3757 112.84 51.1243 113.394 51.7754C113.947 52.4264 114.655 52.9473 115.518 53.3379C116.38 53.7122 117.446 53.8994 118.716 53.8994C120.409 53.8994 121.694 53.5413 122.573 52.8252C123.468 52.109 124.095 51.2708 124.453 50.3105H128.872C128.677 51.2708 128.311 52.1823 127.773 53.0449C127.236 53.9076 126.528 54.6725 125.649 55.3398C124.787 56.0072 123.77 56.5443 122.598 56.9512C121.442 57.3581 120.148 57.5615 118.716 57.5615C116.812 57.5615 115.143 57.2441 113.711 56.6094C112.279 55.9746 111.09 55.1283 110.146 54.0703C109.219 52.9961 108.519 51.7347 108.047 50.2861C107.591 48.8213 107.363 47.2751 107.363 45.6475ZM111.709 43.499H124.868C124.868 41.4971 124.258 39.9264 123.037 38.7871C121.833 37.6315 120.311 37.0537 118.472 37.0537C116.502 37.0537 114.899 37.6152 113.662 38.7383C112.425 39.8451 111.774 41.432 111.709 43.499ZM133.535 45.6475C133.535 44.0524 133.82 42.5306 134.39 41.082C134.959 39.6335 135.749 38.3558 136.758 37.249C137.783 36.1423 139.012 35.2796 140.444 34.6611C141.877 34.0264 143.455 33.709 145.181 33.709C146.841 33.709 148.395 34.1077 149.844 34.9053C151.309 35.7028 152.407 36.8014 153.14 38.2012V34.2949H157.437V57H153.14V53.0449C152.407 54.4447 151.317 55.5514 149.868 56.3652C148.42 57.1628 146.857 57.5615 145.181 57.5615C143.455 57.5615 141.877 57.2441 140.444 56.6094C139.012 55.9746 137.783 55.112 136.758 54.0215C135.749 52.9147 134.959 51.6452 134.39 50.2129C133.82 48.7643 133.535 47.2425 133.535 45.6475ZM137.832 45.6475C137.832 46.7542 138.011 47.7878 138.369 48.748C138.743 49.7083 139.256 50.5547 139.907 51.2871C140.558 52.0033 141.348 52.5811 142.275 53.0205C143.203 53.4437 144.253 53.6553 145.425 53.6553C146.597 53.6553 147.655 53.4437 148.599 53.0205C149.559 52.5811 150.373 52.0033 151.04 51.2871C151.707 50.5547 152.22 49.7083 152.578 48.748C152.952 47.7878 153.14 46.7542 153.14 45.6475C153.14 44.5407 152.952 43.5072 152.578 42.5469C152.22 41.5866 151.707 40.7402 151.04 40.0078C150.373 39.2754 149.559 38.6895 148.599 38.25C147.655 37.8105 146.597 37.5908 145.425 37.5908C144.253 37.5908 143.203 37.8105 142.275 38.25C141.348 38.6895 140.558 39.2754 139.907 40.0078C139.256 40.7402 138.743 41.5947 138.369 42.5713C138.011 43.5316 137.832 44.557 137.832 45.6475ZM163.369 45.6475C163.369 44.0524 163.654 42.5306 164.224 41.082C164.793 39.6335 165.583 38.3558 166.592 37.249C167.617 36.1423 168.846 35.2796 170.278 34.6611C171.711 34.0264 173.289 33.709 175.015 33.709C176.675 33.709 178.229 34.1077 179.678 34.9053C181.143 35.7028 182.241 36.8014 182.974 38.2012V21.9902H187.271V57H182.974V53.0449C182.241 54.4447 181.151 55.5514 179.702 56.3652C178.254 57.1628 176.691 57.5615 175.015 57.5615C173.289 57.5615 171.711 57.2441 170.278 56.6094C168.846 55.9746 167.617 55.112 166.592 54.0215C165.583 52.9147 164.793 51.6452 164.224 50.2129C163.654 48.7643 163.369 47.2425 163.369 45.6475ZM167.666 45.6475C167.666 46.7542 167.845 47.7878 168.203 48.748C168.577 49.7083 169.09 50.5547 169.741 51.2871C170.392 52.0033 171.182 52.5811 172.109 53.0205C173.037 53.4437 174.087 53.6553 175.259 53.6553C176.431 53.6553 177.489 53.4437 178.433 53.0205C179.393 52.5811 180.207 52.0033 180.874 51.2871C181.541 50.5547 182.054 49.7083 182.412 48.748C182.786 47.7878 182.974 46.7542 182.974 45.6475C182.974 44.5407 182.786 43.5072 182.412 42.5469C182.054 41.5866 181.541 40.7402 180.874 40.0078C180.207 39.2754 179.393 38.6895 178.433 38.25C177.489 37.8105 176.431 37.5908 175.259 37.5908C174.087 37.5908 173.037 37.8105 172.109 38.25C171.182 38.6895 170.392 39.2754 169.741 40.0078C169.09 40.7402 168.577 41.5947 168.203 42.5713C167.845 43.5316 167.666 44.557 167.666 45.6475ZM193.154 49.3584H197.402C197.402 51.0837 197.907 52.3044 198.916 53.0205C199.941 53.7367 201.219 54.0947 202.749 54.0947C204.149 54.0947 205.256 53.8424 206.069 53.3379C206.899 52.8171 207.314 51.987 207.314 50.8477C207.314 50.2129 207.144 49.7083 206.802 49.334C206.476 48.9434 206.004 48.6016 205.386 48.3086C204.767 47.9993 204.002 47.7227 203.091 47.4785C202.196 47.2181 201.187 46.8926 200.063 46.502C199.201 46.2415 198.387 45.9648 197.622 45.6719C196.873 45.3626 196.222 44.972 195.669 44.5C195.132 44.028 194.701 43.4583 194.375 42.791C194.066 42.1237 193.911 41.2773 193.911 40.252C193.911 39.1777 194.123 38.2337 194.546 37.4199C194.985 36.6061 195.588 35.9225 196.353 35.3691C197.118 34.8158 198.013 34.4007 199.038 34.124C200.08 33.8473 201.187 33.709 202.358 33.709C203.595 33.709 204.743 33.8962 205.801 34.2705C206.875 34.6286 207.803 35.1494 208.584 35.833C209.365 36.5166 209.976 37.3223 210.415 38.25C210.871 39.1777 211.099 40.2113 211.099 41.3506H206.899C206.899 40.016 206.509 38.9906 205.728 38.2744C204.946 37.5583 203.807 37.2002 202.31 37.2002C201.105 37.2002 200.104 37.4688 199.307 38.0059C198.509 38.543 198.11 39.3242 198.11 40.3496C198.11 40.9193 198.249 41.3913 198.525 41.7656C198.802 42.1237 199.225 42.4411 199.795 42.7178C200.365 42.9782 201.048 43.2386 201.846 43.499C202.643 43.7432 203.579 44.028 204.653 44.3535C205.516 44.6139 206.354 44.8988 207.168 45.208C207.998 45.501 208.722 45.8835 209.341 46.3555C209.976 46.8112 210.48 47.389 210.854 48.0889C211.245 48.7887 211.44 49.6758 211.44 50.75C211.44 51.8893 211.213 52.8822 210.757 53.7285C210.317 54.5749 209.699 55.2829 208.901 55.8525C208.104 56.4222 207.16 56.8454 206.069 57.1221C204.995 57.415 203.823 57.5615 202.554 57.5615C201.284 57.5615 200.08 57.3906 198.94 57.0488C197.817 56.7233 196.825 56.2188 195.962 55.5352C195.116 54.8516 194.432 53.9971 193.911 52.9717C193.407 51.93 193.154 50.7256 193.154 49.3584Z" fill="black"/>
</svg>
