<svg width="1089" height="519" viewBox="0 0 1089 519" fill="none" xmlns="http://www.w3.org/2000/svg">
<path opacity="0.1" d="M1079.2 423.779C1073.63 434.537 1065.78 443.954 1056.2 451.379C1054.84 452.469 1053.45 453.519 1052.04 454.549C1050.14 455.883 1048.2 457.193 1046.2 458.479C1030.71 468.309 1012.57 475.029 994.865 479.929C990.038 481.263 985.195 482.516 980.335 483.689C976.235 484.683 972.131 485.609 968.025 486.469C966.464 486.809 964.905 487.129 963.345 487.469C961.785 487.809 959.995 488.139 958.345 488.469L955.974 488.919C910.154 497.369 863.735 498.979 816.975 496.859L814.755 496.749L811.205 496.569C801.711 496.076 792.208 495.446 782.695 494.679L779.095 494.389L777.505 494.259C772.171 493.813 766.838 493.323 761.505 492.789C754.478 492.123 747.441 491.386 740.395 490.579L739.485 490.479L738.745 490.389C713.595 487.559 688.385 484.159 663.145 480.669L659.575 480.169L653.165 479.279L647.765 478.529L646.165 478.309C637.645 477.116 629.125 475.936 620.605 474.769L619.225 474.579C603.225 472.389 587.135 470.279 571.095 468.359L569.005 468.109C562.438 467.329 555.875 466.586 549.315 465.879L544.315 465.349L537.665 464.679C519.235 462.849 500.815 461.389 482.435 460.479C473.595 460.039 464.735 459.706 455.855 459.479C448.521 459.313 441.188 459.216 433.855 459.189C423.908 459.143 413.941 459.199 403.955 459.359H401.695C387.625 459.589 373.525 459.989 359.415 460.469L356.875 460.549H356.035C326.035 461.609 296.035 463.019 266.115 464.029L258.805 464.269H257.745C247.345 464.603 236.955 464.859 226.575 465.039H223.825H223.735H220.395L215.755 465.099C210.935 465.146 206.125 465.173 201.325 465.179H195.435C177.815 465.129 160.265 464.739 142.825 463.829L140.885 463.719C106.995 461.889 73.4846 458.109 40.5746 451.239C37.1679 450.526 33.7679 449.779 30.3746 448.999C7.63364 443.901 -14.695 437.112 -36.4254 428.689C-46.6654 424.689 -56.9654 420.069 -64.7554 412.249C-84.5154 392.249 -77.0954 353.079 -51.3854 341.689C-31.2754 332.779 -7.71544 340.029 13.9146 336.009C15.2436 335.756 16.556 335.422 17.8446 335.009C20.5943 334.123 23.2694 333.019 25.8446 331.709C26.7246 331.269 27.6046 330.799 28.4946 330.309C30.4946 329.219 32.4946 328.009 34.4146 326.689C37.5533 324.602 40.5591 322.32 43.4146 319.859C44.6812 318.779 45.9146 317.659 47.1146 316.499C51.2674 312.598 54.934 308.21 58.0346 303.429C59.1635 301.621 60.1659 299.736 61.0346 297.789C61.5046 296.789 61.9246 295.709 62.2746 294.669C62.7972 293.165 63.1952 291.619 63.4646 290.049C64.7245 282.629 62.6846 275.389 55.5846 269.269C54.9486 268.727 54.2808 268.222 53.5846 267.759C52.2091 266.805 50.7575 265.966 49.2446 265.249C48.6346 264.959 48.0046 264.679 47.3646 264.409C38.2246 260.559 26.4346 259.079 16.4946 256.409C13.4653 255.641 10.5078 254.614 7.65456 253.339C5.84457 252.499 4.04456 251.619 2.27456 250.699L1.80456 250.439C-13.3095 242.647 -26.6013 231.741 -37.1954 218.439C-39.829 215.078 -42.2536 211.558 -44.4554 207.899C-45.1254 206.799 -45.7754 205.669 -46.3954 204.539C-63.9654 172.839 -65.7754 132.219 -47.4954 101.049C-45.2747 97.2677 -42.8025 93.6396 -40.0954 90.1893C-39.2154 89.0493 -38.3054 87.9294 -37.3654 86.8294C-19.9654 66.2994 5.03456 52.3893 30.2746 42.0893C64.1546 28.2693 99.6246 19.5393 135.775 13.7893C143.108 12.6227 150.441 11.576 157.775 10.6493C188.475 6.72934 219.535 4.64934 250.375 3.06934C279.221 1.60934 308.195 0.666008 337.295 0.239341C347.155 0.106008 357.025 0.0493428 366.905 0.0693428C389.165 0.0693428 411.425 0.499336 433.685 1.35934C441.018 1.63934 448.351 1.97267 455.685 2.35934C474.491 3.33267 493.261 4.666 511.995 6.35934C520.995 7.17267 529.975 8.06934 538.935 9.04934C607.175 16.5093 674.425 29.1594 739.355 48.8294C746.721 51.056 754.055 53.3894 761.355 55.8294C788.66 64.8193 815.491 75.1893 841.745 86.8993C844.225 88.0127 846.698 89.1327 849.165 90.2593C865.558 97.7793 881.718 105.883 897.645 114.569C918.663 125.881 938.908 138.575 958.245 152.569C965.791 158.103 973.125 163.876 980.245 169.889C992.831 180.505 1004.57 192.087 1015.35 204.529C1016.31 205.643 1017.26 206.763 1018.2 207.889C1023.08 213.749 1027.72 219.819 1032.1 226.099C1053.5 256.859 1067.86 292.039 1078.46 327.979C1087.81 359.339 1094.03 394.549 1079.2 423.779Z" fill="#5CB2F0"/>
<path opacity="0.1" d="M1065.75 316.5H980.324V207.83H1018.32C1017.38 206.703 1016.43 205.583 1015.47 204.47H980.364V169.83C973.258 163.83 965.924 158.057 958.364 152.51V204.51H761.414V90.19H849.224C846.751 89.0633 844.278 87.9434 841.804 86.83H761.414V55.76C754.081 53.34 746.748 51.0067 739.414 48.76V86.76H458.334L457.664 86.12L538.974 8.94C530.014 7.95334 521.034 7.05667 512.034 6.25L455.724 59.69V2.29001C448.391 1.90334 441.058 1.57001 433.724 1.29001V63.38L366.944 0C357.071 0 347.201 0.0566648 337.334 0.169998L427.894 86.12L427.224 86.76H157.794V10.69C150.461 11.6167 143.128 12.6633 135.794 13.83V86.83H-37.3655C-38.3055 87.93 -39.2155 89.05 -40.0955 90.19H135.774V204.47H-46.4355C-45.8155 205.6 -45.1655 206.73 -44.4955 207.83H135.774V316.5H47.1045C45.9045 317.66 44.6711 318.78 43.4044 319.86H135.774V431.06C143.108 432.107 150.441 433.2 157.774 434.34V319.86H433.704V459.19C441.038 459.19 448.371 459.287 455.704 459.48V319.86H739.394V490.43L740.304 490.53C747.344 491.317 754.381 492.053 761.414 492.74V319.86H958.304V488.42C959.984 488.11 961.664 487.78 963.304 487.42C964.944 487.06 966.424 486.79 967.984 486.42C972.091 485.547 976.194 484.62 980.294 483.64V319.86H1066.41C1066.19 318.74 1065.97 317.62 1065.75 316.5ZM433.704 316.5H157.794V207.83H433.704V316.5ZM433.704 204.5H157.794V90.19H429.794L433.674 93.25L433.704 204.5ZM739.394 316.5H455.724V207.83H739.394V316.5ZM739.394 204.5H455.724V90.19H739.394V204.5ZM958.304 316.5H761.414V207.83H958.304V316.5Z" fill="#5CB2F0"/>
<path d="M221.185 469.93C221.185 470.04 221.105 470.15 221.075 470.26C221.075 470.15 221.145 470.04 221.195 469.93H221.185Z" fill="#EAECF0"/>
<path d="M226.405 465.139H223.655H223.565H220.225L215.585 465.199L215.075 459.929L214.605 454.929L212.425 432.119L212.355 431.419V431.109L211.745 424.689L221.085 421.189L222.225 430.499L222.305 431.189V431.269L224.615 450.169L225.325 455.969L225.735 459.339L226.085 462.229V462.329L226.405 465.139Z" fill="#EAECF0"/>
<path d="M259.934 469.92L260.044 470.25H259.304L259.194 469.92H259.934Z" fill="#3A3768"/>
<path d="M404.775 338.169C404.775 338.369 404.775 338.479 404.775 338.479V338.599C404.775 338.599 396.055 362.429 393.215 382.769C393.021 384.103 392.861 385.436 392.735 386.769C392.595 388.179 392.485 389.559 392.425 390.899C392.345 392.469 392.325 393.989 392.365 395.439C392.365 395.769 392.365 396.109 392.365 396.439C392.365 397.109 392.435 397.799 392.475 398.509C392.515 399.219 392.575 399.929 392.635 400.669C392.695 401.409 392.755 402.059 392.825 402.769C394.975 424.769 403.145 456.979 403.145 456.979C403.145 456.979 403.415 457.849 403.765 459.329H401.505C387.435 459.559 373.335 459.959 359.225 460.439L356.685 460.519H355.845C325.845 461.579 295.845 462.989 265.925 463.999L258.615 464.239H257.555C247.155 464.573 236.765 464.829 226.385 465.009H223.635C224.34 464.015 225.151 463.099 226.055 462.279C226.814 461.575 227.634 460.939 228.505 460.379C233.257 457.416 238.433 455.194 243.855 453.789C244.998 453.477 246.18 453.332 247.365 453.359L254.365 453.499H255.445L266.185 453.709L358.305 455.539H358.535L359.185 455.409C360.254 455.143 361.295 454.775 362.295 454.309C364.025 453.579 365.538 452.415 366.687 450.93C367.836 449.444 368.583 447.688 368.855 445.829C368.855 445.519 368.935 445.189 368.955 444.829C368.985 444.343 368.985 443.856 368.955 443.369C368.955 443.029 368.955 442.669 368.875 442.299C368.795 441.929 368.775 441.559 368.705 441.179C366.485 428.769 362.705 390.569 362.705 390.569V390.689C362.705 390.689 362.705 389.059 362.795 386.319C362.795 386.109 362.795 385.879 362.795 385.649V385.059C362.795 384.449 362.865 383.789 362.905 383.059C362.905 382.629 362.965 382.189 362.995 381.729C363.045 381.059 363.105 380.369 363.165 379.649C363.16 379.606 363.16 379.563 363.165 379.519C363.205 379.066 363.245 378.606 363.285 378.139C363.285 378.139 363.285 378.039 363.285 377.989C364.775 363.239 369.465 339.889 384.285 331.239C391.235 327.169 395.835 326.349 398.865 327.149C403.285 328.309 404.395 332.909 404.635 335.899C404.635 336.099 404.635 336.289 404.635 336.479C404.714 337.04 404.761 337.604 404.775 338.169Z" fill="#3A3768"/>
<path opacity="0.1" d="M221.185 469.93C221.185 470.04 221.105 470.15 221.075 470.26C221.075 470.15 221.145 470.04 221.195 469.93H221.185Z" fill="black"/>
<path opacity="0.1" d="M259.934 469.92L260.044 470.25H259.304L259.194 469.92H259.934Z" fill="black"/>
<path opacity="0.1" d="M404.775 338.17C404.775 338.37 404.775 338.48 404.775 338.48C404.775 338.48 397.585 358.13 394.155 376.97C393.915 378.303 393.695 379.593 393.495 380.84C393.395 381.48 393.305 382.12 393.215 382.76C393.021 384.093 392.861 385.426 392.735 386.76C392.595 388.17 392.485 389.55 392.425 390.89C392.345 392.46 392.325 393.98 392.365 395.43C392.365 395.76 392.365 396.1 392.365 396.43C392.365 397.1 392.435 397.79 392.475 398.5C392.515 399.21 392.575 399.93 392.635 400.66C392.695 401.39 392.755 402.05 392.825 402.76C392.895 403.47 392.965 404.15 393.045 404.85C393.365 407.68 393.765 410.65 394.225 413.67C397.355 434.04 403.145 456.86 403.145 456.86C403.145 456.86 403.435 457.78 403.785 459.32H401.525C387.455 459.55 373.355 459.95 359.245 460.43L356.705 460.51H355.865C325.865 461.57 295.865 462.98 265.945 463.99L258.635 464.23H257.575C247.175 464.563 236.785 464.82 226.405 465H223.655H223.565C224.291 463.967 225.13 463.018 226.065 462.17C226.822 461.454 227.646 460.811 228.525 460.25C233.281 457.294 238.456 455.073 243.875 453.66C245.019 453.355 246.201 453.214 247.385 453.24L254.385 453.38H255.465L266.235 453.59L358.425 455.41H358.585C358.585 455.41 358.855 455.41 359.305 455.26C360.384 454.992 361.433 454.613 362.435 454.13C364.127 453.403 365.607 452.26 366.739 450.807C367.87 449.354 368.615 447.638 368.905 445.82C368.905 445.51 368.985 445.18 369.005 444.82C369.035 444.333 369.035 443.846 369.005 443.36C369.005 443.02 369.005 442.66 368.925 442.29C368.845 441.92 368.825 441.48 368.755 441.06C366.535 428.65 362.755 390.45 362.755 390.45C362.755 390.45 362.755 388.82 362.845 386.08C362.845 385.87 362.845 385.64 362.845 385.41V384.82C362.845 384.21 362.915 383.55 362.955 382.82C362.955 382.39 363.015 381.95 363.045 381.49C363.095 380.82 363.155 380.13 363.215 379.41C363.21 379.366 363.21 379.323 363.215 379.28C363.255 378.826 363.295 378.366 363.335 377.9C363.335 377.9 363.335 377.8 363.335 377.75C363.515 375.91 363.755 373.93 364.055 371.86C366.135 357.38 371.335 338.47 384.295 330.86C391.065 326.86 395.595 326.02 398.635 326.71C403.315 327.78 404.425 332.6 404.635 335.64C404.635 335.84 404.635 336.03 404.635 336.22C404.725 336.866 404.771 337.517 404.775 338.17Z" fill="black"/>
<path d="M221.185 469.93C221.185 470.04 221.105 470.15 221.075 470.26C221.075 470.15 221.145 470.04 221.195 469.93H221.185Z" fill="#3A3768"/>
<path d="M259.934 469.92L260.044 470.25H259.304L259.194 469.92H259.934Z" fill="#3A3768"/>
<path d="M402.214 337.32C402.214 337.32 389.164 372.98 389.794 394.32C390.424 415.66 400.614 455.76 400.614 455.76C400.614 455.76 401.054 457.17 401.524 459.42C387.454 459.65 373.354 460.05 359.244 460.53L356.704 460.61H355.864C325.864 461.67 295.864 463.08 265.944 464.09L258.634 464.33H257.574C247.174 464.664 236.784 464.92 226.404 465.1H223.654H223.564H220.224C221.601 462.791 223.477 460.819 225.714 459.33L225.984 459.14C230.746 456.234 235.917 454.059 241.324 452.69C242.469 452.386 243.651 452.244 244.834 452.27L254.074 452.45H255.154L266.284 452.67L356.034 454.46C357.318 454.219 358.565 453.812 359.744 453.25C360.136 453.07 360.517 452.866 360.884 452.64C362.011 451.991 363.024 451.164 363.884 450.19C365.774 448.04 367.034 444.84 366.194 440.19C363.964 427.78 360.194 389.58 360.194 389.58C360.194 389.58 359.554 343.1 381.834 330.05C390.834 324.78 395.894 324.96 398.724 327.05C398.809 327.104 398.889 327.164 398.964 327.23C402.864 330.37 402.214 337.32 402.214 337.32Z" fill="#3A3768"/>
<path d="M43.1145 424.819L42.7545 428.549L40.5745 451.439C37.1678 450.726 33.7678 449.979 30.3745 449.199L32.9245 428.389L33.7845 421.319L43.1145 424.819Z" fill="#EAECF0"/>
<path d="M-20.8855 417.42L33.5745 301.51L252.945 318.62L273.165 417.42H-20.8855Z" fill="#EFC6CD"/>
<path d="M-20.8855 427.53V417.42H273.165V432.2L-20.8855 427.53Z" fill="#D48A9B"/>
<path d="M62.0345 400.49L193.594 403.169C193.886 403.176 194.175 403.113 194.436 402.985C194.698 402.857 194.925 402.667 195.099 402.433C195.272 402.199 195.387 401.927 195.433 401.639C195.479 401.351 195.456 401.056 195.364 400.78L174.855 345.46L86.2445 343.77L60.0345 397.43C59.8879 397.762 59.8266 398.125 59.8563 398.487C59.8859 398.849 60.0055 399.198 60.2042 399.502C60.4029 399.806 60.6744 400.056 60.994 400.228C61.3137 400.401 61.6713 400.49 62.0345 400.49Z" fill="#DFE6F5"/>
<path opacity="0.15" d="M62.0345 400.49L193.594 403.169C193.886 403.176 194.175 403.113 194.436 402.985C194.698 402.857 194.925 402.667 195.099 402.433C195.272 402.199 195.387 401.927 195.433 401.639C195.479 401.351 195.456 401.056 195.364 400.78L174.855 345.46L86.2445 343.77L60.0345 397.43C59.8879 397.762 59.8266 398.125 59.8563 398.487C59.8859 398.849 60.0055 399.198 60.2042 399.502C60.4029 399.806 60.6744 400.056 60.994 400.228C61.3137 400.401 61.6713 400.49 62.0345 400.49Z" fill="black"/>
<path d="M60.9745 398.179L193.894 400.979L175.824 346.249C175.533 345.362 174.973 344.588 174.223 344.033C173.472 343.477 172.568 343.169 171.634 343.149L86.2145 341.529L60.9745 398.179Z" fill="#DFE6F5"/>
<path d="M71.9545 385.79L87.8845 350.74C88.2232 350 88.7669 349.374 89.4511 348.934C90.1353 348.495 90.9313 348.261 91.7445 348.26H131.335C132.456 348.26 133.532 348.705 134.326 349.499C135.119 350.292 135.565 351.368 135.565 352.49V390.36C135.564 390.933 135.447 391.5 135.221 392.027C134.995 392.554 134.664 393.029 134.249 393.424C133.834 393.82 133.343 394.127 132.806 394.327C132.269 394.527 131.697 394.617 131.125 394.59L75.5945 391.76C74.9061 391.725 74.2366 391.523 73.6443 391.17C73.052 390.818 72.5548 390.326 72.196 389.737C71.8372 389.149 71.6276 388.481 71.5855 387.793C71.5434 387.105 71.6701 386.418 71.9545 385.79Z" fill="#4C4C56"/>
<path d="M150.034 381.35L150.714 361.35C150.733 360.549 151.063 359.788 151.634 359.227C152.206 358.667 152.974 358.352 153.774 358.35H165.474C166.193 358.353 166.888 358.61 167.436 359.074C167.985 359.539 168.352 360.181 168.474 360.89L171.914 380.78C171.99 381.218 171.969 381.668 171.853 382.098C171.738 382.527 171.53 382.927 171.245 383.268C170.959 383.61 170.603 383.885 170.201 384.075C169.798 384.265 169.359 384.366 168.914 384.37L153.084 384.51C152.675 384.509 152.27 384.425 151.893 384.265C151.516 384.104 151.176 383.869 150.891 383.575C150.607 383.28 150.384 382.931 150.237 382.549C150.09 382.167 150.021 381.759 150.034 381.35Z" fill="#D1D9EC"/>
<path d="M-4.96551 251.269L39.1445 247.589C39.789 247.504 40.4437 247.631 41.01 247.95C41.5763 248.269 42.0235 248.764 42.2845 249.359L83.9945 343.769L60.7145 396.029C61.4445 394.389 61.9845 407.149 56.7145 396.089L-9.57551 257.799C-10.4655 255.949 -7.03551 251.529 -4.96551 251.269Z" fill="#4C4C56"/>
<path opacity="0.15" d="M-4.96551 251.269L39.1445 247.589C39.789 247.504 40.4437 247.631 41.01 247.95C41.5763 248.269 42.0235 248.764 42.2845 249.359L83.9945 343.769L60.7145 396.029C61.4445 394.389 61.9845 407.149 56.7145 396.089L-9.57551 257.799C-10.4655 255.949 -7.03551 251.529 -4.96551 251.269Z" fill="black"/>
<path d="M-4.96549 251.27L41.3845 245.35C42.029 245.265 42.6837 245.392 43.25 245.711C43.8163 246.03 44.2636 246.525 44.5245 247.12L86.2445 341.53L61.0045 398.18L-7.3355 255.56C-7.54492 255.128 -7.64752 254.652 -7.63467 254.172C-7.62182 253.691 -7.4939 253.221 -7.26167 252.801C-7.02943 252.381 -6.69967 252.022 -6.3001 251.756C-5.90054 251.489 -5.44284 251.323 -4.96549 251.27Z" fill="#4C4C56"/>
<path d="M6.6045 257.91L40.1145 252.69C40.7845 252.584 41.4705 252.709 42.0607 253.043C42.651 253.377 43.1105 253.901 43.3645 254.53L78.4645 340.39C78.6083 340.741 78.6773 341.118 78.6669 341.496C78.6566 341.875 78.5672 342.248 78.4045 342.59L62.3345 376.17C62.1162 376.637 61.7693 377.032 61.3345 377.309C60.8997 377.585 60.3949 377.732 59.8795 377.732C59.3641 377.732 58.8593 377.585 58.4245 377.309C57.9897 377.032 57.6428 376.637 57.4245 376.17L4.3345 262.17C4.13226 261.746 4.03232 261.281 4.04273 260.812C4.05314 260.342 4.1736 259.882 4.39442 259.467C4.61524 259.053 4.93026 258.696 5.31411 258.426C5.69797 258.155 6.13995 257.979 6.6045 257.91Z" fill="#5CB2F0"/>
<path d="M364.155 451.37C364.155 451.37 363.465 452.51 362.455 454.37L362.365 454.54C361.465 456.14 360.365 458.24 359.245 460.54L356.705 460.62H355.865C325.865 461.68 295.865 463.09 265.945 464.1L258.635 464.34H257.575C247.175 464.673 236.785 464.93 226.404 465.11H223.654H223.564H220.225L215.584 465.17C210.764 465.216 205.955 465.243 201.155 465.25H195.435C177.814 465.2 160.265 464.81 142.825 463.9L140.885 463.79C144.315 456.33 150.445 444.1 155.425 440.19C159.275 437.19 186.925 433.86 212.355 431.42L215.035 431.16H215.095L222.195 430.5C231.924 429.61 240.754 428.89 247.054 428.4L247.635 428.35L244.355 417.35L239.605 401.35L240.955 387.91L241.064 386.83H240.915C239.56 386.974 238.191 386.803 236.915 386.33L189.425 384.69H188.565L170.325 384.04C160.545 383.69 153.595 383.43 153.325 383.38C153.037 383.332 152.756 383.255 152.485 383.15C152.059 382.988 151.666 382.751 151.325 382.45C150.926 382.109 150.588 381.703 150.325 381.25H150.125H149.685L147.105 381.42L145.795 381.51C145.745 381.37 145.705 381.23 145.655 381.1C145.535 380.71 145.415 380.34 145.305 379.96H144.615L135.615 379.77H135.455C135.455 379.77 112.235 381.54 100.105 377.12C95.6545 375.5 92.6945 373.05 92.9245 369.38C92.975 368.545 93.1503 367.722 93.4445 366.94C89.5445 359.65 108.595 346.35 123.115 350.02C127.038 351.141 131.172 351.313 135.175 350.52C137.347 350.05 139.393 349.119 141.175 347.79C141.355 347.66 141.515 347.53 141.665 347.4C141.425 347.25 141.175 347.12 140.945 347C139.949 346.476 138.881 346.105 137.775 345.9L141.715 344.75H141.775C141.775 344.75 155.775 343.47 164.885 342.96H164.945C167.655 342.82 169.944 342.73 171.304 342.77C177.304 342.94 188.994 338.65 189.494 337.33C189.994 336.01 195.334 337.33 195.334 337.33L200.005 335.51C204.675 333.7 207.345 331.23 207.345 329.41C207.345 327.59 211.515 325.62 211.515 325.62C213.395 322.46 217.085 319.07 220.955 316.07C224.305 313.48 227.784 311.17 230.364 309.56C231.365 303.082 232.7 296.66 234.364 290.32C236.134 284.41 241.624 280.03 243.594 278.61L244.314 278.13C243.762 275.639 243.027 273.192 242.114 270.81C242.048 270.61 241.968 270.41 241.874 270.21C241.674 269.74 241.465 269.28 241.255 268.85L240.945 268.25C240.435 268.35 239.944 268.44 239.404 268.51C237.749 268.752 236.078 268.876 234.404 268.88C226.906 268.907 219.605 266.478 213.619 261.963C207.632 257.448 203.289 251.097 201.255 243.88C201.255 243.88 201.255 243.88 201.255 243.82C200.452 240.887 200.049 237.86 200.054 234.82C200.05 231.902 200.433 228.996 201.195 226.18C201.345 225.58 201.524 224.99 201.715 224.4C201.733 224.332 201.757 224.265 201.785 224.2C201.875 223.93 201.965 223.65 202.065 223.38C200.584 223.605 199.091 223.735 197.595 223.77H196.595C193.739 223.876 190.892 223.403 188.225 222.38C187.578 222.104 186.959 221.77 186.375 221.38C186.344 221.366 186.317 221.345 186.295 221.32C185.535 220.876 184.841 220.327 184.235 219.69C185.347 218.837 186.28 217.773 186.979 216.557C187.677 215.342 188.128 214 188.304 212.61C188.574 210.45 188.215 208.04 189.505 206.28C190.165 205.485 190.956 204.808 191.845 204.28C197.165 200.65 201.385 195.67 206.195 191.38C211.005 187.09 216.825 183.38 223.295 183.18C231.975 182.91 239.614 188.95 248.214 190.09C250.854 190.44 253.564 190.32 256.144 190.98C259.036 191.884 261.756 193.262 264.195 195.06C266.397 196.312 268.344 197.968 269.934 199.94C271.039 201.65 271.831 203.543 272.274 205.53C273.388 209.718 274.059 214.011 274.274 218.34C274.504 222.87 274.275 227.43 274.755 231.93C275.094 235.838 276.415 239.598 278.594 242.86H278.725C279.104 243.393 279.518 243.901 279.964 244.38C279.114 244.65 278.264 244.89 277.394 245.1C275.948 245.47 274.483 245.761 273.005 245.97C272.327 246.081 271.641 246.138 270.955 246.14C270.478 246.152 270.001 246.108 269.535 246.01L270.415 246.6L272.855 248.24L273.774 248.85L275.624 250.08C276.044 248.85 276.625 248.52 277.295 248.6C278.655 247.32 280.684 250.09 280.684 250.09C281.874 252.37 285.074 254.64 287.904 256.32C289.568 257.299 291.28 258.194 293.035 259C330.404 281.27 328.035 314.59 330.235 317.23C332.435 319.87 332.575 329.43 332.575 329.43C332.575 329.43 338.085 361.92 340.575 364.73C343.065 367.54 340.734 368.52 342.904 371.66C345.074 374.8 344.575 383.2 344.575 383.2C344.575 383.2 346.075 402.99 351.415 407.28C356.205 411.13 362.605 443.52 363.875 450.14L364.155 451.37Z" fill="url(#paint0_linear)"/>
<path d="M145.124 347.13C145.124 347.13 139.934 355.3 125.234 351.54C110.534 347.78 91.0845 362 96.6345 369.02C102.184 376.04 137.974 367.02 137.974 367.02L151.704 364.24L150.804 352.81L145.124 347.13Z" fill="#D38884"/>
<path opacity="0.1" d="M145.124 347.13C145.124 347.13 139.934 355.3 125.234 351.54C110.534 347.78 91.0845 362 96.6345 369.02C102.184 376.04 137.974 367.02 137.974 367.02L151.704 364.24L150.804 352.81L145.124 347.13Z" fill="black"/>
<path d="M149.904 346.689L143.535 346.359L139.615 347.499C139.615 347.499 152.035 349.299 148.615 366.129L162.005 365.319L149.904 346.689Z" fill="#A36468"/>
<path opacity="0.1" d="M149.904 346.689L143.535 346.359L139.615 347.499C139.615 347.499 152.035 349.299 148.615 366.129L162.005 365.319L149.904 346.689Z" fill="black"/>
<path d="M234.225 309.05C234.225 309.05 216.745 319.05 211.835 327.36C211.835 327.36 207.755 329.36 207.755 331.12C207.755 332.88 205.135 335.36 200.565 337.12L195.985 338.92C195.985 338.92 190.755 337.61 190.265 338.92C189.775 340.23 178.345 344.47 172.455 344.31C166.565 344.15 143.535 346.31 143.535 346.31C147.752 348.224 151.196 351.513 153.303 355.638C155.41 359.763 156.056 364.48 155.135 369.02L209.555 366.74L230.135 362.16L242.235 350.07L234.225 309.05Z" fill="#444053"/>
<path opacity="0.1" d="M234.225 309.05C234.225 309.05 216.745 319.05 211.835 327.36C211.835 327.36 207.755 329.36 207.755 331.12C207.755 332.88 205.135 335.36 200.565 337.12L195.985 338.92C195.985 338.92 190.755 337.61 190.265 338.92C189.775 340.23 178.345 344.47 172.455 344.31C166.565 344.15 143.535 346.31 143.535 346.31C147.752 348.224 151.196 351.513 153.303 355.638C155.41 359.763 156.056 364.48 155.135 369.02L209.555 366.74L230.135 362.16L242.235 350.07L234.225 309.05Z" fill="black"/>
<path d="M154.034 381.35L146.334 381.2L137.334 381.01C137.334 381.01 94.8345 384.28 95.6645 370.69C96.4945 357.1 129.184 352.33 133.734 356.23C137.184 359.18 145.164 361.56 148.804 362.53C149.964 362.84 150.674 363.01 150.674 363.01L154.034 381.35Z" fill="#D38884"/>
<path opacity="0.1" d="M154.035 381.35L146.335 381.2C143.265 370.65 146.825 364.84 148.845 362.56C150.005 362.87 150.715 363.04 150.715 363.04L154.035 381.35Z" fill="black"/>
<path d="M159.225 381.93L151.225 382.49L147.425 382.75C142.195 367.39 150.645 361.34 150.645 361.34H153.145L157.235 361.83L159.225 381.93Z" fill="#A36468"/>
<path d="M256.125 279.97L246.645 297.97C246.645 297.97 245.195 279.74 240.975 271.15C239.895 268.95 238.635 267.39 237.165 266.92C233.165 265.66 256.165 240.45 256.165 240.45C256.935 240.61 261.335 243.45 266.725 247.12C272.655 251.12 279.795 256 284.595 259.12C293.705 264.93 256.125 279.97 256.125 279.97Z" fill="#D38884"/>
<path d="M243.965 280.31C243.965 280.31 236.345 285.2 234.225 292.39C232.105 299.58 230.135 312.49 230.135 312.49C230.135 312.49 233.575 343.37 235.365 344.84C237.155 346.31 243.965 377.19 243.965 377.19L250.565 372.78L241.905 333.89C241.905 333.89 247.665 283.92 243.965 280.31Z" fill="#444053"/>
<path opacity="0.1" d="M243.965 280.31C243.965 280.31 236.345 285.2 234.225 292.39C232.105 299.58 230.135 312.49 230.135 312.49C230.135 312.49 233.575 343.37 235.365 344.84C237.155 346.31 243.965 377.19 243.965 377.19L250.565 372.78L241.905 333.89C241.905 333.89 247.665 283.92 243.965 280.31Z" fill="black"/>
<path d="M277.125 349.199H239.035L245.205 289.109H277.125V349.199Z" fill="#A36468"/>
<path d="M188.874 469.93H189.334L188.474 470.26L188.874 469.93Z" fill="#67647E"/>
<path d="M260.534 442.559L253.084 445.419L252.084 445.789L225.264 456.099L215.034 460.029L201.114 465.379H195.434C177.814 465.329 160.264 464.939 142.824 464.029C146.204 456.619 152.114 444.759 156.934 440.929C160.694 437.929 187.594 434.689 212.424 432.249C215.524 431.949 218.584 431.659 221.564 431.389L222.274 431.319C232.134 430.419 241.054 429.689 247.274 429.189L248.274 429.109L256.094 428.509L256.914 427.689L257.914 431.969L258.744 435.389L260.534 442.559Z" fill="#67647E"/>
<path opacity="0.1" d="M188.874 469.93H189.334L188.474 470.26L188.874 469.93Z" fill="black"/>
<path opacity="0.1" d="M260.534 442.559L253.084 445.419L252.084 445.789L225.264 456.099L215.034 460.029L201.114 465.379H195.434C177.814 465.329 160.264 464.939 142.824 464.029C146.204 456.619 152.114 444.759 156.934 440.929C160.694 437.929 187.594 434.689 212.424 432.249C215.524 431.949 218.584 431.659 221.564 431.389L222.274 431.319C232.134 430.419 241.054 429.689 247.274 429.189L248.274 429.109L256.094 428.509L256.914 427.689L257.914 431.969L258.744 435.389L260.534 442.559Z" fill="black"/>
<path d="M188.874 469.93H189.334L188.474 470.26L188.874 469.93Z" fill="#67647E"/>
<path d="M221.185 469.93C221.185 470.04 221.105 470.15 221.075 470.26C221.075 470.15 221.145 470.04 221.195 469.93H221.185Z" fill="#67647E"/>
<path d="M260.044 470.25H259.304L259.194 469.92H259.934L260.044 470.25Z" fill="#67647E"/>
<path d="M266.904 432.109L266.284 452.69V453.799V453.909L265.974 464.099L258.664 464.34H257.604C247.204 464.673 236.814 464.929 226.434 465.109H223.684H223.594H220.254L215.614 465.169C210.794 465.216 205.984 465.243 201.184 465.25H195.434C200.634 462.03 207.364 458.48 214.604 454.93C217.854 453.33 221.224 451.739 224.604 450.169C233.604 445.989 242.714 442.04 250.144 438.89L251.094 438.49C253.974 437.27 256.584 436.18 258.814 435.26C263.634 433.26 266.694 432.059 266.904 431.979V432.109Z" fill="#67647E"/>
<path opacity="0.1" d="M200.114 347.53C201.984 351.43 203.914 355.41 207.004 358.45C207.494 358.93 208.344 359.37 208.784 358.84C208.923 358.618 208.989 358.36 208.974 358.099C208.879 356.261 208.254 354.49 207.174 352.999C206.174 351.459 204.994 350.06 204.104 348.46C203.214 346.86 202.194 343.779 200.194 343.359C197.624 342.819 199.544 346.35 200.114 347.53Z" fill="black"/>
<path opacity="0.1" d="M266.685 247.09C266.545 247.59 266.395 248.09 266.235 248.57C264.389 254.224 261.08 259.288 256.643 263.249C252.207 267.21 246.801 269.925 240.975 271.12C239.895 268.92 238.635 267.36 237.165 266.89C233.165 265.63 256.165 240.42 256.165 240.42C256.895 240.58 261.295 243.47 266.685 247.09Z" fill="black"/>
<path d="M267.884 237.479C267.884 244.137 265.91 250.645 262.212 256.18C258.513 261.715 253.256 266.03 247.106 268.577C240.955 271.125 234.187 271.791 227.658 270.493C221.128 269.194 215.131 265.988 210.423 261.281C205.716 256.573 202.51 250.576 201.211 244.046C199.912 237.517 200.579 230.749 203.127 224.598C205.674 218.448 209.989 213.191 215.524 209.492C221.059 205.794 227.567 203.819 234.224 203.819C238.647 203.81 243.029 204.675 247.117 206.363C251.204 208.051 254.919 210.53 258.046 213.658C261.174 216.785 263.653 220.499 265.341 224.587C267.029 228.675 267.894 233.057 267.884 237.479Z" fill="#D38884"/>
<path d="M247.135 287.479C247.135 287.479 240.135 295.979 241.255 301.539H249.745L255.955 294.539L247.135 287.479Z" fill="#67647E"/>
<path opacity="0.1" d="M272.034 251.59L245.334 288.3C245.334 288.3 252.194 298.11 255.464 298.6C258.734 299.09 277.384 255.18 277.384 255.18L272.034 251.59Z" fill="black"/>
<path d="M272.375 250.93L245.665 287.69C245.665 287.69 252.525 297.49 255.795 297.98C259.065 298.47 277.715 254.57 277.715 254.57L272.375 250.93Z" fill="#A36468"/>
<path d="M242.235 297.95C242.235 297.95 240.925 318.53 239.615 322.62C238.305 326.71 239.615 364.28 239.615 364.28L251.875 359.22L249.745 301.54L242.235 297.95Z" fill="#67647E"/>
<path opacity="0.1" d="M259.934 469.92L260.044 470.25H259.304L259.194 469.92H259.934Z" fill="black"/>
<path opacity="0.1" d="M360.375 452.2C360.375 452.2 360.145 452.58 359.765 453.2C359.385 453.82 358.975 454.59 358.445 455.57C358.418 455.607 358.394 455.648 358.375 455.69C357.635 457.06 356.755 458.74 355.865 460.57C325.865 461.63 295.865 463.04 265.945 464.05L258.635 464.29H257.575L254.435 453.69V453.58L254.105 452.46L252.105 445.8L250.105 439.03L248.035 431.81L247.275 429.19L247.075 428.53L243.815 417.43L239.395 402.36L240.825 387.98L240.925 386.89L242.215 374.01L242.395 370.19L242.495 368.19V367.62L242.715 362.98L243.375 349.18L243.715 342.12L243.775 341.05L244.455 326.88L246.385 321.09L247.385 318.21L249.605 311.52L250.085 309.87C250.785 307.36 252.195 302.4 253.515 297.63L253.635 297.22L253.725 296.91L254.665 293.52L255.835 289.17C256.275 287.5 256.565 286.31 256.635 285.9C256.745 285.19 258.635 282.05 261.115 277.9C266.115 269.63 273.635 257.46 274.495 253.38C274.498 253.346 274.498 253.313 274.495 253.28C274.546 253.031 274.616 252.787 274.705 252.55C275.115 251.33 275.705 251 276.325 251.08C276.607 251.125 276.876 251.231 277.115 251.39C277.717 251.796 278.245 252.303 278.675 252.89C279.845 255.14 282.975 257.39 285.745 259.06L286.285 259.37L286.605 259.56C288.905 260.87 290.765 261.71 290.765 261.71C327.365 283.77 325.085 316.78 327.205 319.39C329.325 322 329.495 331.49 329.495 331.49C329.495 331.49 334.885 363.68 337.335 366.49C339.785 369.3 337.505 370.25 339.625 373.36C341.745 376.47 341.255 384.69 341.255 384.69C341.255 384.69 342.725 404.29 347.955 408.54C353.185 412.79 360.375 452.2 360.375 452.2Z" fill="black"/>
<path d="M361.355 451.88L360.915 452.64C360.565 453.26 360.005 454.24 359.335 455.47L359.265 455.609C358.505 457.019 357.605 458.729 356.715 460.609H355.875C325.875 461.669 295.875 463.08 265.955 464.09L258.645 464.33L255.515 453.689V453.58L255.185 452.46L253.115 445.46L251.115 438.659L249.115 431.869L248.325 429.15L244.905 417.47L240.385 402.08L241.635 389.57L241.805 387.9L243.185 373.69L243.715 362.609L244.365 349.22L244.535 345.71L244.725 341.65L244.805 339.94L245.455 326.56L247.385 320.78L248.215 318.289L250.155 312.44L250.565 311.2C250.565 311.2 252.435 304.629 254.245 298.119C254.315 297.879 254.385 297.639 254.445 297.399C254.605 296.839 254.755 296.28 254.915 295.73C255.075 295.17 255.225 294.62 255.365 294.07C255.875 292.25 256.365 290.549 256.705 289.149C257.195 287.319 257.525 285.989 257.595 285.559C257.705 284.849 259.595 281.62 262.165 277.42C266.895 269.6 273.795 258.42 275.255 253.78C275.333 253.54 275.4 253.296 275.455 253.049C275.543 252.312 275.846 251.617 276.325 251.049C277.665 249.759 279.655 252.53 279.655 252.53C280.825 254.78 283.955 257.04 286.725 258.7C288.343 259.671 290.012 260.556 291.725 261.35C328.325 283.41 326.045 316.419 328.165 319.039C330.285 321.659 330.455 331.13 330.455 331.13C330.455 331.13 335.845 363.32 338.295 366.13C340.745 368.94 338.465 369.889 340.585 372.989C342.705 376.089 342.215 384.429 342.215 384.429C342.215 384.429 343.685 404.039 348.915 408.289C354.145 412.539 361.355 451.88 361.355 451.88Z" fill="#444053"/>
<path opacity="0.1" d="M286.725 259.339C283.135 264.559 277.285 273.739 275.725 280.339C275.725 280.339 270.005 286.229 267.875 285.899C265.745 285.569 269.875 290.309 269.875 290.309L247.405 321.449L250.595 311.879C250.595 311.879 257.295 288.349 257.595 286.229C257.895 284.109 274.165 259.819 275.455 253.709C276.455 248.819 279.655 253.219 279.655 253.219C280.815 255.419 283.945 257.689 286.725 259.339Z" fill="black"/>
<path d="M286.725 258.69C283.135 263.9 277.285 273.09 275.725 279.64C275.725 279.64 270.005 285.52 267.875 285.2C265.745 284.88 269.875 289.61 269.875 289.61L247.405 320.75L250.595 311.18C250.595 311.18 257.295 287.65 257.595 285.52C257.895 283.39 274.165 259.12 275.455 253.01C276.455 248.11 279.655 252.52 279.655 252.52C280.815 254.77 283.945 257.02 286.725 258.69Z" fill="#444053"/>
<path opacity="0.1" d="M316.904 323.209C317.074 330.349 306.614 340.099 306.124 340.669C305.634 341.239 273.604 367.669 273.604 367.669L250.604 385.309C248.012 387.447 244.912 388.88 241.604 389.469L243.174 373.689L244.724 341.689C248.314 337.689 251.794 333.489 251.874 332.149C252.034 329.379 257.874 326.429 257.874 326.429C257.874 326.429 261.964 322.999 261.304 321.039C260.644 319.079 263.474 309.689 263.474 309.689C264.944 283.049 292.394 280.439 292.394 280.439C292.394 280.439 305.634 285.669 314.944 291.219C324.254 296.769 316.744 316.079 316.904 323.209Z" fill="black"/>
<path opacity="0.1" d="M159.225 381.93L151.225 382.49C147.845 376.74 152.495 361.34 152.495 361.34H153.145L157.235 361.83L159.225 381.93Z" fill="black"/>
<path d="M292.394 278.819C292.394 278.819 264.944 281.439 263.474 308.069C263.474 308.069 260.694 317.389 261.344 319.349C261.994 321.309 257.914 324.739 257.914 324.739C257.914 324.739 252.034 327.679 251.914 330.459C251.794 333.239 236.914 348.399 236.914 348.399C236.914 348.399 230.714 355.459 216.334 356.199C201.954 356.939 195.254 361.339 195.254 361.339C195.254 361.339 188.254 356.439 183.154 357.909C178.054 359.379 153.254 361.339 153.254 361.339C153.254 361.339 146.664 383.179 154.884 384.549C155.884 384.709 236.784 387.489 236.784 387.489C236.784 387.489 242.314 390.099 250.644 383.729C258.974 377.359 273.644 366.079 273.644 366.079C273.644 366.079 305.644 339.609 306.164 339.079C306.684 338.549 317.164 328.749 316.944 321.619C316.724 314.489 324.304 295.199 314.944 289.619C305.584 284.039 292.394 278.819 292.394 278.819Z" fill="#444053"/>
<path opacity="0.1" d="M267.885 237.479C267.888 241.021 267.331 244.541 266.235 247.909C265.779 247.371 265.364 246.8 264.995 246.199C263.435 243.799 261.871 241.399 260.305 238.999C259.087 236.839 257.468 234.932 255.535 233.379C253.535 231.959 250.695 231.379 248.535 232.639C246.635 233.759 245.705 236.049 245.535 238.249C245.476 240.457 245.533 242.667 245.705 244.869C245.785 245.713 245.569 246.557 245.095 247.259C244.385 247.895 243.468 248.251 242.515 248.259L239.515 248.669C239.244 248.765 238.956 248.805 238.67 248.787C238.383 248.769 238.103 248.694 237.845 248.567C237.588 248.439 237.359 248.261 237.172 248.043C236.984 247.826 236.842 247.573 236.755 247.299C234.265 242.789 232.545 237.189 227.875 235.019C224.995 233.679 221.195 233.769 219.345 231.189C218.085 229.429 218.255 227.039 218.625 224.899C219.032 222.486 219.617 220.106 220.375 217.779C220.905 216.139 222.085 212.869 219.465 212.539C217.685 212.309 215.225 214.199 214.325 215.539C213.425 216.879 213.205 218.669 212.565 220.199C211.338 222.832 209.131 224.881 206.415 225.909C205.055 226.468 203.63 226.854 202.175 227.059C204.634 219.421 209.741 212.913 216.575 208.708C223.409 204.503 231.521 202.878 239.448 204.125C247.374 205.373 254.595 209.411 259.807 215.512C265.019 221.613 267.88 229.375 267.875 237.399L267.885 237.479Z" fill="black"/>
<path d="M214.335 214.689C213.425 216.079 213.215 217.809 212.575 219.339C211.35 221.97 209.147 224.018 206.435 225.049C203.739 226.059 200.882 226.567 198.005 226.549C193.345 226.689 188.145 225.979 185.145 222.409C186.238 221.563 187.155 220.509 187.841 219.307C188.527 218.106 188.97 216.782 189.145 215.409C189.405 213.269 189.055 210.879 190.325 209.129C190.972 208.364 191.742 207.711 192.605 207.199C197.825 203.599 201.945 198.659 206.665 194.419C211.385 190.179 217.075 186.489 223.415 186.289C231.905 186.029 239.415 192.009 247.815 193.139C250.395 193.489 253.055 193.369 255.575 194.019C258.41 194.901 261.078 196.253 263.465 198.019C265.624 199.271 267.533 200.912 269.095 202.859C270.172 204.56 270.947 206.434 271.385 208.399C272.49 212.549 273.16 216.802 273.385 221.089C273.615 225.569 273.385 230.089 273.865 234.549C274.345 239.009 275.765 243.549 278.815 246.849C276.59 247.553 274.313 248.078 272.005 248.419C270.561 248.762 269.047 248.643 267.675 248.079C266.563 247.373 265.654 246.391 265.035 245.229L260.345 238.029C259.127 235.869 257.508 233.962 255.575 232.409C253.575 230.989 250.735 230.409 248.575 231.669C246.675 232.789 245.755 235.079 245.575 237.279C245.516 239.488 245.573 241.697 245.745 243.899C245.825 244.743 245.609 245.588 245.135 246.289C244.422 246.927 243.501 247.282 242.545 247.289L239.545 247.699C239.274 247.795 238.986 247.835 238.7 247.817C238.413 247.8 238.133 247.725 237.875 247.597C237.618 247.469 237.389 247.291 237.202 247.074C237.014 246.856 236.872 246.603 236.785 246.329C234.295 241.809 232.575 236.219 227.905 234.049C225.025 232.709 221.225 232.799 219.375 230.219C218.115 228.459 218.285 226.069 218.655 223.929C219.062 221.516 219.647 219.136 220.405 216.809C220.935 215.169 222.115 211.899 219.495 211.559C217.695 211.369 215.235 213.259 214.335 214.689Z" fill="#444053"/>
<path opacity="0.1" d="M290.474 293.76C293.004 293.41 295.664 293.18 298.034 294.15C291.864 291.62 281.824 292.59 276.204 296.07C276.714 297.24 288.514 294.03 290.474 293.76Z" fill="black"/>
<path opacity="0.1" d="M293.424 301.96C299.574 302.37 305.924 303.23 311.754 301.23C306.874 299.55 301.504 300.61 296.364 300.1C292.264 299.69 288.094 298.27 284.094 299.31C282.424 299.74 276.274 302.57 276.694 304.64C281.946 302.316 287.71 301.393 293.424 301.96Z" fill="black"/>
<path opacity="0.1" d="M277.135 315.4C278.422 315.264 279.723 315.4 280.955 315.8C285.568 316.885 290.296 317.406 295.035 317.35C298.655 317.35 302.555 316.8 305.195 314.35L277.135 315.4Z" fill="black"/>
<path opacity="0.1" d="M257.325 346.69C261.625 348.665 266.354 349.524 271.075 349.19C275.776 348.844 280.42 347.951 284.915 346.53C286.915 345.94 289.095 345.2 290.265 343.46L257.325 346.69Z" fill="black"/>
<path opacity="0.1" d="M301.594 351.09C310.951 356.441 321.371 359.667 332.114 360.54C326.694 358.367 321.234 356.31 315.734 354.37C310.109 352.399 304.342 350.854 298.484 349.75C299.598 349.99 300.655 350.446 301.594 351.09Z" fill="black"/>
<path opacity="0.1" d="M316.705 345.36C318.584 345.673 320.492 345.777 322.395 345.67C323.395 345.67 324.585 345.53 325.175 344.67C320.885 344.85 316.655 343.75 312.465 342.8C311.275 342.52 309.135 341.86 308.135 342.57C310.035 343.93 314.305 344.88 316.705 345.36Z" fill="black"/>
<path opacity="0.1" d="M342.495 434.689C344.745 438.549 347.025 442.449 350.135 445.689C351.932 447.456 353.846 449.1 355.865 450.609C352.155 441.149 348.385 431.609 342.445 423.339C340.945 421.259 338.705 418.279 335.975 417.899C335.195 420.209 337.165 424.299 338.115 426.469C339.419 429.29 340.881 432.034 342.495 434.689Z" fill="black"/>
<path opacity="0.1" d="M233.165 363.95C232.995 365.55 232.865 367.32 233.795 368.63C234.255 369.276 234.927 369.74 235.695 369.94C235.215 369.82 234.695 365.12 234.575 364.48C234.355 363.17 234.575 360.72 233.645 359.75C233.405 361.13 233.315 362.55 233.165 363.95Z" fill="black"/>
<path opacity="0.1" d="M238.365 362.11C238.695 363.518 239.309 364.845 240.168 366.009C241.028 367.173 242.115 368.15 243.365 368.88C241.615 366.72 241.045 363.88 239.525 361.51C239.035 360.75 238.465 359.66 237.525 359.51C237.761 360.39 238.042 361.258 238.365 362.11Z" fill="black"/>
<path opacity="0.1" d="M233.964 333.31C232.489 334.187 230.848 334.751 229.145 334.966C227.441 335.181 225.712 335.043 224.064 334.56C223.314 334.34 221.564 333.56 221.984 332.46C222.404 331.36 224.434 332.12 225.264 332.22L229.614 332.77C230.414 332.87 233.314 333.69 233.964 333.31Z" fill="black"/>
<path opacity="0.1" d="M219.245 340.43C221.295 340.17 223.135 341.59 225.055 342.36C227.179 343.068 229.419 343.366 231.655 343.24C232.775 343.24 234.045 343.15 234.735 342.24C229.525 341.05 224.655 339.74 219.245 340.43Z" fill="black"/>
<path d="M243.964 280.3H244.294L246.744 289.11L243.964 292.07V280.3Z" fill="#A36468"/>
<path opacity="0.1" d="M189.784 210.45C189.481 211.88 189.33 213.338 189.334 214.8C189.459 214.341 189.549 213.873 189.604 213.4C189.724 212.44 189.714 211.43 189.784 210.45Z" fill="black"/>
<path opacity="0.1" d="M219.615 211.59C219.857 211.604 220.094 211.668 220.311 211.779C220.527 211.889 220.718 212.043 220.872 212.231C221.026 212.419 221.14 212.636 221.206 212.87C221.271 213.104 221.288 213.349 221.255 213.59C221.725 211.93 221.985 209.89 219.945 209.59C218.165 209.37 215.705 211.26 214.805 212.64C213.905 214.02 213.685 215.77 213.045 217.3C211.822 219.932 209.618 221.982 206.905 223.01C204.209 224.019 201.352 224.527 198.475 224.51C194.235 224.64 189.545 224.05 186.475 221.25C186.107 221.641 185.709 222.002 185.285 222.33C188.285 225.9 193.485 226.61 198.155 226.47C201.029 226.486 203.883 225.978 206.575 224.97C209.289 223.939 211.496 221.891 212.725 219.26C213.365 217.73 213.565 216 214.475 214.61C215.385 213.22 217.835 211.37 219.615 211.59Z" fill="black"/>
<path opacity="0.1" d="M272.434 246.45C270.991 246.792 269.477 246.673 268.104 246.11C266.996 245.4 266.087 244.419 265.464 243.26C263.904 240.86 262.341 238.46 260.774 236.06C259.563 233.898 257.947 231.99 256.014 230.44C254.014 229.01 251.164 228.44 249.014 229.7C247.104 230.82 246.184 233.11 245.964 235.31C245.964 235.4 245.964 235.49 245.964 235.58C246.327 233.966 247.307 232.559 248.694 231.66C250.824 230.4 253.694 230.98 255.694 232.4C257.625 233.955 259.244 235.862 260.464 238.02C262.024 240.42 263.588 242.82 265.154 245.22C265.771 246.384 266.681 247.366 267.794 248.07C269.163 248.633 270.674 248.752 272.114 248.41C274.426 248.067 276.706 247.542 278.934 246.84C278.495 246.364 278.087 245.86 277.714 245.33C275.98 245.814 274.216 246.188 272.434 246.45Z" fill="black"/>
<path opacity="0.1" d="M245.544 244.32C244.831 244.949 243.916 245.304 242.964 245.32L239.964 245.73C239.694 245.825 239.406 245.865 239.12 245.847C238.833 245.83 238.553 245.755 238.295 245.627C238.038 245.5 237.809 245.322 237.622 245.104C237.434 244.886 237.292 244.633 237.204 244.36C234.714 239.84 232.994 234.25 228.324 232.08C225.444 230.74 221.654 230.83 219.804 228.25C218.865 226.675 218.548 224.806 218.914 223.01C218.864 223.32 218.794 223.62 218.744 223.92C218.384 226.06 218.204 228.45 219.474 230.21C221.324 232.79 225.124 232.7 227.994 234.04C232.674 236.21 234.394 241.8 236.884 246.32C237.111 246.888 237.515 247.368 238.034 247.69C238.554 247.863 239.112 247.887 239.644 247.76L242.644 247.35C243.597 247.341 244.515 246.986 245.224 246.35C245.704 245.65 245.92 244.803 245.834 243.96C245.747 244.087 245.65 244.207 245.544 244.32Z" fill="black"/>
<path d="M659.435 480.12L653.025 479.23V384.6L654.335 385L658.335 386.23V389.38V391.75V395.34L658.385 399.45L658.475 407.91V408.76V409.89V412.29V413.74V417.25V419.45L658.955 462.06V463.2L659.125 478.2V478.43L659.435 480.12Z" fill="#EAECF0"/>
<path d="M663.034 480.62L659.464 480.12V478.41V478.18L659.294 463.18V462.04L658.814 419.43V417.23V413.72V412.27V409.87V408.74V407.89L658.724 399.43L658.674 395.32V391.73V389.36V386.21H662.524V389.69V392.07V394.81V398.44L662.604 407.58V409.58V411.67V413.13V414.92V417.25L662.974 461.97V463.12L663.094 477.99V478.23L663.034 480.62Z" fill="#D3DAE1"/>
<path d="M1052.03 372.87V454.55C1050.13 455.883 1048.19 457.193 1046.19 458.48L1046.11 390.48V383.26L1052.03 372.87Z" fill="#EAECF0"/>
<path d="M1056.19 371.689V451.389C1054.83 452.479 1053.44 453.529 1052.03 454.559V372.869L1056.19 371.689Z" fill="#D3DAE1"/>
<path d="M963.335 487.44C960.875 487.94 958.405 488.44 955.935 488.87L955.845 414.96V411.76L962.974 408.76V415.54L963.335 487.44Z" fill="#EAECF0"/>
<path d="M968.035 406.42V486.42C966.475 486.76 964.914 487.08 963.354 487.42L963.025 415.55V408.77L963.495 408.55L968.035 406.42Z" fill="#D3DAE1"/>
<path d="M544.184 465.299L537.534 464.629L536.684 381.289V378.909V377.319H543.214V379.469V381.849L544.184 465.299Z" fill="#EAECF0"/>
<path d="M549.134 465.829L544.134 465.299L543.134 381.849V379.469V377.319H548.184V379.909V382.289L549.134 465.829Z" fill="#D3DAE1"/>
<path opacity="0.1" d="M963.444 408.56L968.015 406.41V416.5L963.564 417.99L963.444 408.56Z" fill="black"/>
<path opacity="0.1" d="M1056.18 371.67V387.11L1052.03 388.5L1046.1 390.47L1046.09 383.25L1052.03 372.86L1056.18 371.67Z" fill="black"/>
<path d="M1056.18 341.989V384.739L963.564 415.609L962.964 369.889L1056.18 341.989Z" fill="#D48A9B"/>
<path d="M535.454 339.019L657.174 315.859L1056.18 341.989L962.964 369.889L535.454 339.019Z" fill="#EFC6CD"/>
<path opacity="0.1" d="M548.224 377.319L548.265 382.279L543.224 381.839L536.674 381.279L536.645 377.319H548.224Z" fill="black"/>
<path opacity="0.1" d="M662.275 392.08L658.424 391.74L653.025 391.28V384.6L658.365 386.22H662.224L662.275 392.08Z" fill="black"/>
<path d="M535.454 339.02V378.8L963.564 415.61L962.964 369.89L535.454 339.02Z" fill="#D48A9B"/>
<path d="M874.895 386.319H818.974V366.029L874.895 369.969V386.319Z" fill="#D48A9B"/>
<path opacity="0.1" d="M874.895 386.319H818.974V366.029L874.895 369.969V386.319Z" fill="black"/>
<path opacity="0.1" d="M743.865 361.58V393.64L958.515 409.97V375.83L874.794 371.08L866.474 378.5L832.335 376.13L820.164 367.22L743.865 361.58Z" fill="black"/>
<path d="M742.674 360.39V392.46L957.324 408.78V374.64L873.604 369.89L865.294 377.32L831.144 374.94L818.974 366.03L742.674 360.39Z" fill="white"/>
<path d="M610.265 351.779L661.034 355.349L660.445 371.479H627.294L605.125 362.769L610.265 351.779Z" fill="#D48A9B"/>
<path opacity="0.1" d="M610.265 351.779L661.034 355.349L660.445 371.479H627.294L605.125 362.769L610.265 351.779Z" fill="black"/>
<path opacity="0.1" d="M542.585 347.33V376.13L737.335 391.57V360.99L662.225 356.53L654.205 362.47L623.925 360.69L611.455 352.97L542.585 347.33Z" fill="black"/>
<path d="M541.395 346.14V374.94L736.145 390.38V359.8L661.034 355.35L653.025 361.28L622.734 359.5L610.265 351.78L541.395 346.14Z" fill="white"/>
<path opacity="0.1" d="M958.535 346.25L985.835 348.04L940.605 361.58L917.565 359.92L958.535 346.25Z" fill="black"/>
<path d="M958.535 345.069L985.835 346.849L940.605 360.389L917.565 358.729L958.535 345.069Z" fill="white"/>
<path d="M955.275 348.14C956.355 347.67 957.505 348.54 958.655 348.76C959.305 348.89 959.985 348.76 960.655 348.89C961.995 349.07 963.315 349.96 964.595 349.51L955.275 348.14Z" fill="#D3DAE1"/>
<path d="M953.865 348.95C954.935 348.49 956.085 349.36 957.235 349.58C957.895 349.7 958.575 349.58 959.235 349.7C960.565 349.88 961.895 350.78 963.175 350.33L953.865 348.95Z" fill="#D3DAE1"/>
<path d="M950.624 350.589C951.694 350.129 952.844 350.989 953.994 351.209C954.654 351.339 955.324 351.209 955.994 351.339C957.334 351.519 958.664 352.419 959.934 351.959L950.624 350.589Z" fill="#D3DAE1"/>
<path opacity="0.1" d="M774.345 331.27L835.215 335.26L822.245 353.89L755.325 346.74L774.345 331.27Z" fill="black"/>
<path d="M773.154 330.08L834.025 334.06L821.055 352.7L754.125 345.55L773.154 330.08Z" fill="#3A3768"/>
<path d="M775.835 331.45L828.924 334.7L817.615 349.88L759.245 344.05L775.835 331.45Z" fill="#D5E1F4"/>
<path d="M740.234 483.69C740.234 483.97 740.234 484.26 740.184 484.54C740.134 484.82 740.184 485.04 740.104 485.29C739.892 487.052 739.402 488.77 738.654 490.38C713.504 487.55 688.294 484.15 663.054 480.66L659.484 480.16L653.074 479.27L647.674 478.52C641.764 478.371 635.87 477.82 630.034 476.87C626.358 476.326 622.718 475.558 619.134 474.57C603.134 472.38 587.044 470.27 571.004 468.35L568.914 468.1C569.294 466.4 569.614 465.37 569.614 465.37C569.614 465.37 573.054 451.85 575.914 436.74C576.544 433.46 577.144 430.12 577.664 426.81C578.084 424.16 578.464 421.54 578.784 419.02C578.964 417.63 579.114 416.27 579.244 414.94C579.314 414.28 579.374 413.62 579.424 412.94C579.474 412.26 579.534 411.52 579.584 410.83C579.634 410.14 579.654 409.53 579.684 408.9V407.96C579.684 406.61 579.684 405.2 579.634 403.75C579.128 396.527 577.991 389.363 576.234 382.34C575.954 381.14 575.664 379.94 575.364 378.77C575.274 378.39 575.174 378.02 575.074 377.65C571.844 365.14 568.074 354.92 568.074 354.92C568.07 354.863 568.07 354.806 568.074 354.75C568.079 354.71 568.079 354.67 568.074 354.63C568.079 354.546 568.079 354.463 568.074 354.38C568.074 354.06 568.074 353.57 568.074 352.98C568.074 352.86 568.074 352.73 568.074 352.6C568.148 351.551 568.329 350.512 568.614 349.5C568.723 349.14 568.85 348.786 568.994 348.44C569.352 347.434 569.948 346.529 570.731 345.805C571.515 345.08 572.464 344.557 573.494 344.28C576.324 343.55 580.604 344.28 587.064 348.11C588.117 348.717 589.12 349.406 590.064 350.17C590.544 350.55 591.064 350.95 591.464 351.38C598.864 358.27 602.804 369.64 604.904 380.02C604.984 380.39 605.054 380.76 605.124 381.13C605.374 382.41 605.584 383.66 605.774 384.89C606.114 387.05 606.384 389.13 606.584 391.06C606.584 391.58 606.694 392.06 606.744 392.59C606.794 393.12 606.844 393.59 606.874 394.07C607.004 395.63 607.094 397.07 607.154 398.29C607.324 401.53 607.294 403.52 607.294 403.52V403.62C607.294 403.62 607.294 403.77 607.244 404.05C607.239 404.076 607.239 404.103 607.244 404.13C607.244 404.25 607.244 404.4 607.244 404.57C607.244 404.74 607.244 404.86 607.244 405.03C607.204 405.45 607.154 405.94 607.094 406.5C607.004 407.36 606.904 408.37 606.784 409.5C606.704 410.34 606.604 411.25 606.504 412.21C606.284 414.21 606.044 416.53 605.784 418.97C605.724 419.43 605.674 419.89 605.624 420.35C605.394 422.44 605.154 424.62 604.904 426.82C604.634 429.32 604.334 431.82 604.044 434.29C603.974 434.83 603.904 435.37 603.844 435.9C603.104 441.9 602.364 447.35 601.764 450.74C601.67 451.242 601.604 451.75 601.564 452.26C601.555 452.433 601.555 452.607 601.564 452.78C601.534 453.233 601.534 453.687 601.564 454.14C602.054 462.68 611.284 464.14 611.284 464.14L653.194 463.31L659.414 463.19L663.034 463.12L695.704 462.47L698.704 462.41L714.954 462.09C716.057 462.064 717.158 462.195 718.224 462.48C723.242 463.828 728.028 465.921 732.424 468.69C733.798 469.571 735.034 470.649 736.094 471.89C736.146 471.938 736.193 471.992 736.234 472.05C738.451 474.706 739.82 477.967 740.164 481.41C740.164 481.64 740.164 481.87 740.164 482.1C740.244 482.58 740.244 483.12 740.234 483.69Z" fill="#3A3768"/>
<path opacity="0.1" d="M740.234 483.69C740.234 483.97 740.235 484.26 740.185 484.54C740.135 484.82 740.184 485.04 740.104 485.29C739.866 487.053 739.36 488.769 738.604 490.38C713.454 487.55 688.244 484.15 663.004 480.66L659.435 480.16L653.024 479.27L647.625 478.52C641.714 478.371 635.82 477.82 629.984 476.87C626.308 476.326 622.668 475.558 619.084 474.57C603.084 472.38 586.994 470.27 570.954 468.35L568.865 468.1C569.245 466.34 569.584 465.27 569.584 465.27C569.584 465.27 572.395 454.27 575.065 440.94C575.255 440.02 575.435 439.1 575.615 438.17L575.884 436.76C576.504 433.49 577.104 430.13 577.634 426.83C578.054 424.18 578.434 421.56 578.754 419.04C578.934 417.65 579.084 416.29 579.214 414.96C579.284 414.3 579.344 413.64 579.394 412.96C579.444 412.28 579.505 411.54 579.555 410.85C579.605 410.16 579.624 409.55 579.654 408.92V407.98C579.654 406.63 579.654 405.22 579.604 403.77C579.113 396.548 577.986 389.383 576.234 382.36C575.954 381.146 575.665 379.956 575.365 378.79C575.265 378.41 575.174 378.04 575.074 377.67C571.834 365.12 568.074 354.84 568.074 354.84C568.077 354.816 568.077 354.793 568.074 354.77C568.079 354.73 568.079 354.69 568.074 354.65C568.079 354.566 568.079 354.483 568.074 354.4C568.074 354.08 568.074 353.59 568.074 353C568.074 352.88 568.074 352.75 568.074 352.62C568.138 351.572 568.309 350.533 568.584 349.52C568.694 349.17 568.814 348.81 568.954 348.46C569.314 347.398 569.938 346.446 570.767 345.692C571.597 344.938 572.604 344.407 573.694 344.15C576.524 343.49 580.754 344.31 587.074 348.01C588.17 348.653 589.213 349.382 590.194 350.19C590.664 350.58 591.115 350.97 591.555 351.39C598.895 358.32 602.804 369.67 604.884 380.02C604.964 380.39 605.034 380.77 605.104 381.14C605.354 382.41 605.564 383.67 605.754 384.89C606.094 387.05 606.355 389.12 606.555 391.04C606.605 391.57 606.664 392.09 606.704 392.59C606.744 393.09 606.804 393.59 606.834 394.07C606.964 395.63 607.055 397.07 607.115 398.29C607.285 401.53 607.254 403.52 607.254 403.52V403.86C607.254 403.92 607.254 403.98 607.254 404.05C607.249 404.076 607.249 404.103 607.254 404.13C607.254 404.25 607.254 404.4 607.254 404.57C607.254 404.74 607.254 404.86 607.254 405.03C607.214 405.45 607.164 405.94 607.104 406.5C607.014 407.36 606.914 408.37 606.794 409.5C606.694 410.33 606.604 411.24 606.504 412.21C606.284 414.21 606.044 416.53 605.784 418.97C605.724 419.43 605.675 419.89 605.625 420.35C605.395 422.44 605.144 424.64 604.904 426.84C604.614 429.34 604.324 431.84 604.024 434.3C603.954 434.84 603.894 435.38 603.824 435.91C603.094 441.91 602.364 447.28 601.764 450.65C601.666 451.189 601.599 451.733 601.565 452.28C601.555 452.453 601.555 452.626 601.565 452.8C601.534 453.252 601.534 453.707 601.565 454.16C602.135 462.6 611.284 464.01 611.284 464.01L653.194 463.19L659.404 463.06L663.034 462.99L695.764 462.35L698.824 462.29L715.014 461.97C716.118 461.934 717.22 462.065 718.284 462.36C723.34 463.67 728.165 465.744 732.594 468.51C733.991 469.403 735.246 470.502 736.315 471.77C736.366 471.818 736.413 471.872 736.454 471.93C738.669 474.598 740.022 477.876 740.334 481.33C740.334 481.56 740.334 481.79 740.334 482.02C740.244 482.58 740.244 483.12 740.234 483.69Z" fill="black"/>
<path d="M740.305 490.53L738.654 490.34C713.505 487.51 688.295 484.109 663.055 480.619L659.485 480.119L653.074 479.229L647.675 478.479C641.764 478.331 635.87 477.78 630.035 476.83C626.358 476.286 622.718 475.517 619.134 474.53C603.134 472.34 587.044 470.229 571.004 468.309C571.265 466.906 571.599 465.518 572.004 464.15C572.004 464.15 581.505 426.739 582.095 406.849C582.305 399.739 580.895 390.939 578.985 382.549C578.705 381.339 578.425 380.14 578.125 378.96L577.855 377.84C574.465 364.69 570.435 353.689 570.435 353.689C570.34 352.329 570.417 350.961 570.665 349.619C570.726 349.259 570.807 348.902 570.904 348.549C571.288 346.874 572.191 345.362 573.485 344.229C573.544 344.177 573.607 344.13 573.675 344.09C576.305 342.09 581.025 341.949 589.425 346.869C591.126 347.874 592.701 349.079 594.115 350.46C594.515 350.84 594.915 351.24 595.295 351.65C602.045 358.96 605.624 370.159 607.504 380.179L607.714 381.289C607.934 382.539 608.125 383.77 608.305 384.96C608.305 384.96 608.305 385.029 608.305 385.059C608.535 386.639 608.724 388.15 608.884 389.59C609.353 393.83 609.593 398.093 609.605 402.359C609.605 402.359 609.215 406.309 608.605 411.999C608.375 414.229 608.105 416.729 607.815 419.369C607.815 419.499 607.815 419.63 607.815 419.77L607.665 421.169C607.155 425.779 606.594 430.7 606.024 435.26C605.964 435.82 605.894 436.369 605.824 436.909C605.184 442.039 604.544 446.6 604.014 449.57C601.934 461.15 613.514 462.929 613.514 462.929L653.055 462.15L659.254 462.03L662.884 461.95H664.404H664.894L696.254 461.33H699.254L717.254 460.97C718.358 460.942 719.46 461.076 720.524 461.369C725.581 462.679 730.41 464.75 734.844 467.51C736.088 468.312 737.22 469.274 738.214 470.369C738.276 470.431 738.333 470.498 738.384 470.57C740.735 473.286 742.183 476.667 742.527 480.243C742.871 483.82 742.094 487.414 740.305 490.53Z" fill="#3A3768"/>
<path d="M881.664 309.77L893.895 335.97H891.844L877.505 310.08L881.664 309.77Z" fill="#4C4C56"/>
<path opacity="0.1" d="M881.664 309.77L893.895 335.97H891.844L877.505 310.08L881.664 309.77Z" fill="black"/>
<path d="M881.664 335.97H893.894V338.71L881.664 339.02V335.97Z" fill="#4C4C56"/>
<path opacity="0.1" d="M881.664 335.97H893.894V338.71L881.664 339.02V335.97Z" fill="black"/>
<path d="M786.535 213.359V304.849C786.535 306.65 787.25 308.377 788.523 309.651C789.797 310.924 791.524 311.639 793.325 311.639H945.825C946.722 311.64 947.61 311.461 948.438 311.113C949.266 310.766 950.016 310.257 950.644 309.617C951.273 308.976 951.767 308.216 952.099 307.382C952.43 306.548 952.592 305.657 952.575 304.759L950.845 213.189C950.811 211.422 950.084 209.738 948.822 208.5C947.56 207.262 945.863 206.569 944.095 206.569H793.325C792.433 206.569 791.55 206.745 790.726 207.086C789.902 207.427 789.154 207.928 788.523 208.558C787.893 209.189 787.393 209.937 787.051 210.761C786.71 211.585 786.535 212.468 786.535 213.359Z" fill="#4C4C56"/>
<path opacity="0.1" d="M786.535 213.359V304.849C786.535 306.65 787.25 308.377 788.523 309.651C789.797 310.924 791.524 311.639 793.325 311.639H945.825C946.722 311.64 947.61 311.461 948.438 311.113C949.266 310.766 950.016 310.257 950.644 309.617C951.273 308.976 951.767 308.216 952.099 307.382C952.43 306.548 952.592 305.657 952.575 304.759L950.845 213.189C950.811 211.422 950.084 209.738 948.822 208.5C947.56 207.262 945.863 206.569 944.095 206.569H793.325C792.433 206.569 791.55 206.745 790.726 207.086C789.902 207.427 789.154 207.928 788.523 208.558C787.893 209.189 787.393 209.937 787.051 210.761C786.71 211.585 786.535 212.468 786.535 213.359Z" fill="black"/>
<path d="M781.035 213.359V304.849C781.035 306.65 781.75 308.377 783.023 309.651C784.297 310.924 786.024 311.639 787.825 311.639H940.325C941.222 311.64 942.11 311.461 942.937 311.113C943.764 310.766 944.513 310.257 945.141 309.616C945.768 308.975 946.262 308.216 946.592 307.382C946.923 306.548 947.083 305.656 947.065 304.759L945.335 213.189C945.301 211.424 944.576 209.741 943.316 208.504C942.056 207.266 940.361 206.572 938.595 206.569H787.865C786.97 206.564 786.082 206.736 785.254 207.075C784.425 207.414 783.672 207.913 783.037 208.544C782.403 209.175 781.899 209.925 781.555 210.752C781.211 211.578 781.035 212.464 781.035 213.359Z" fill="#4C4C56"/>
<path d="M787.035 219.08V299.63C787.035 301.431 787.75 303.158 789.023 304.431C790.297 305.705 792.024 306.42 793.825 306.42H935.035C936.825 306.42 938.542 305.709 939.807 304.443C941.073 303.177 941.785 301.46 941.785 299.67V219.03C941.782 217.242 941.07 215.527 939.804 214.264C938.538 213 936.823 212.29 935.035 212.29H793.825C792.024 212.29 790.297 213.005 789.023 214.279C787.75 215.552 787.035 217.279 787.035 219.08Z" fill="#5CB2F0"/>
<path d="M848.135 310.14L861.545 335.97H891.845L876.695 306.42L848.135 310.14Z" fill="#4C4C56"/>
<path d="M837.455 335.97L835.214 338.71H881.664V335.97H837.455Z" fill="#4C4C56"/>
<path d="M638.452 228.043C639.271 232.471 640.092 236.905 641.594 241.13C641.603 241.159 641.613 241.187 641.625 241.218C641.64 241.26 641.657 241.306 641.674 241.37C641.485 241.302 641.312 241.196 641.164 241.06C640.869 240.745 640.653 240.364 640.534 239.95C639.007 235.692 638.174 231.236 637.343 226.79C636.329 221.368 635.318 215.961 633.055 210.95C632.399 209.655 631.828 208.318 631.344 206.95C631.253 206.66 631.176 206.367 631.115 206.07L631.344 205.93L631.594 205.83L631.844 205.76L632.094 205.7C632.149 206.584 632.303 207.46 632.555 208.31C633.035 209.677 633.599 211.012 634.245 212.31C636.461 217.286 637.456 222.66 638.452 228.043Z" fill="url(#paint1_linear)"/>
<path d="M675.034 246.39C673.46 248.163 672.165 250.166 671.194 252.33C671.044 252.66 670.894 252.98 670.754 253.33C666.334 263.33 664.834 277.48 664.834 277.48C664.834 277.48 662.094 276.25 658.214 274.33C650.984 270.75 639.824 264.79 635.314 260.04C633.314 257.89 632.594 255.99 634.254 254.66C634.614 254.37 634.984 254.04 635.354 253.66C636.633 252.381 637.801 250.996 638.844 249.52C640.284 247.52 641.704 245.29 643.044 243C643.834 241.66 644.584 240.31 645.284 239L645.564 238.48C648.564 232.79 650.754 227.93 650.754 227.93C650.754 227.93 651.754 228.25 653.374 228.82C660.844 231.49 681.414 239.6 675.034 246.39Z" fill="#EFB7B9"/>
<path d="M811.915 478.08C811.915 478.08 813.135 487.14 814.685 496.7L811.134 496.52C801.641 496.026 792.138 495.396 782.625 494.63C777.225 482.12 771.625 467.27 771.625 467.04C771.625 466.81 771.454 461.92 771.264 456.46C771.204 454.54 771.134 452.56 771.074 450.7C770.974 447.88 770.884 445.34 770.834 443.76C770.834 442.68 770.774 442.04 770.774 442.04C770.774 442.04 765.634 442.94 761.014 443.57L758.964 443.84C757.905 443.97 756.965 444.07 756.115 444.13C755.382 444.241 754.637 444.241 753.905 444.13C752.325 443.52 755.605 428.13 755.605 428.13L763.764 408.38L766.045 402.88L767.045 402.63C767.535 402.51 768.195 402.37 768.985 402.22C776.775 400.79 797.585 398.97 801.115 419.51C805.485 444.88 806.115 450.58 806.115 450.58L811.915 478.08Z" fill="#EFB7B9"/>
<path opacity="0.05" d="M811.915 478.08C811.915 478.08 813.135 487.14 814.685 496.7L811.134 496.52C801.641 496.026 792.138 495.396 782.625 494.63C777.225 482.12 771.625 467.27 771.625 467.04C771.625 466.81 771.454 461.92 771.264 456.46C771.204 454.54 771.134 452.56 771.074 450.7C770.974 447.88 770.884 445.34 770.834 443.76C770.834 442.68 770.774 442.04 770.774 442.04C770.774 442.04 765.634 442.94 761.014 443.57L758.964 443.84C757.905 443.97 756.965 444.07 756.115 444.13C755.382 444.241 754.637 444.241 753.905 444.13C752.325 443.52 755.605 428.13 755.605 428.13L763.764 408.38L766.045 402.88L767.045 402.63C767.535 402.51 768.195 402.37 768.985 402.22C776.775 400.79 797.585 398.97 801.115 419.51C805.485 444.88 806.115 450.58 806.115 450.58L811.915 478.08Z" fill="black"/>
<path d="M811.135 496.519C801.641 496.026 792.138 495.396 782.625 494.629L779.025 494.339L777.435 494.209C772.955 483.399 768.975 472.829 768.975 472.639C768.975 472.449 768.805 467.519 768.615 462.059C768.385 455.239 768.125 447.639 768.125 447.639L767.455 447.749L767.175 447.799H767.055H766.815L765.205 448.069L764.325 448.209C762.735 448.469 760.815 448.759 758.935 449.029L758.515 449.089L757.415 449.229L756.415 449.349C755.645 449.449 754.915 449.529 754.255 449.589L753.445 449.659C752.713 449.776 751.967 449.776 751.235 449.659C749.655 449.049 752.935 433.659 752.935 433.659L763.375 408.409L763.735 408.309C764.285 408.169 765.445 407.899 767.015 407.629C767.605 407.529 768.255 407.429 768.955 407.339C778.015 406.179 795.255 406.509 798.445 425.039C802.815 450.409 803.445 456.109 803.445 456.109L809.275 483.689C809.275 483.689 810.035 489.389 811.135 496.519Z" fill="#EFB7B9"/>
<path opacity="0.1" d="M768.615 462.06C768.385 455.24 768.125 447.63 768.125 447.63C768.125 447.63 758.124 449.38 753.464 449.72L754.404 446.54C754.404 446.54 771.524 441.81 771.884 444.48C772.144 446.35 769.945 456.29 768.615 462.06Z" fill="black"/>
<path opacity="0.1" d="M768.974 402.17V409.4C768.974 409.4 768.124 422.4 761.444 442.29C761.304 442.72 761.154 443.14 760.994 443.56C760.294 445.474 759.465 447.338 758.514 449.14C756.634 449.4 754.814 449.62 753.464 449.72C752.732 449.832 751.987 449.832 751.254 449.72C749.674 449.11 752.944 433.72 752.944 433.72L763.384 408.48L763.754 408.38L766.024 402.87C766.024 402.87 767.144 402.51 768.974 402.17Z" fill="black"/>
<path d="M767.034 401.029V409.399C767.034 409.399 766.184 422.399 759.504 442.299C759.334 442.819 759.144 443.299 758.954 443.829C758.764 444.359 758.514 444.989 758.264 445.549C757.714 446.879 757.094 448.169 756.444 449.409C751.214 459.319 743.245 466.409 738.185 470.309C737.445 470.879 736.755 471.379 736.185 471.799H736.134C735.134 472.479 734.414 472.969 733.954 473.259C733.494 473.549 733.454 473.569 733.454 473.569C728.714 470.659 715.245 470.169 715.245 470.169L683.805 475.879C676.932 477.063 669.997 477.851 663.034 478.239L659.464 478.409C657.404 478.489 655.264 478.539 653.074 478.549C651.304 478.549 649.505 478.549 647.675 478.479C641.764 478.331 635.87 477.78 630.034 476.829C626.825 476.302 623.646 475.598 620.514 474.719C618.281 474.1 616.082 473.366 613.925 472.519C591.925 463.879 597.655 443.389 601.365 434.519C601.565 434.049 601.755 433.619 601.935 433.219C602.755 431.409 603.365 430.349 603.365 430.349L604.824 426.819L607.214 421.029L607.745 419.759L607.894 419.389L609.664 415.099L634.664 411.859L653.034 409.479L658.625 408.759L662.414 408.269L669.644 407.329L672.365 406.979C674.042 406.719 675.737 406.585 677.435 406.579C678.352 406.536 679.269 406.672 680.134 406.979C682.134 407.889 697.375 405.399 697.375 405.399C697.375 405.399 709.264 401.759 719.704 402.969C724.867 403.326 730.047 403.359 735.214 403.069L736.495 403.009L738.154 402.939H738.514C752.034 402.309 767.034 401.029 767.034 401.029Z" fill="#444053"/>
<path opacity="0.1" d="M677.084 426.15C677.084 426.15 665.084 453.46 664.584 453.94C664.084 454.42 664.104 462.94 664.584 462.44C665.064 461.94 681.704 425.06 681.704 425.06L677.084 426.15Z" fill="black"/>
<path opacity="0.1" d="M735.224 403.05C735.224 403.05 729.154 406.97 727.334 410.13C725.514 413.29 708.884 444.72 704.764 449.33C701.343 453.454 698.257 457.844 695.534 462.46C695.054 463.29 695.054 468.51 697.964 463.53C700.874 458.55 700.154 457.71 705.854 451.53C711.554 445.35 717.854 431.38 720.294 428.59C722.734 425.8 726.125 417.42 730.375 412.44L738.514 402.93L735.224 403.05Z" fill="black"/>
<path opacity="0.1" d="M736.684 456.979C736.684 456.979 732.434 454.069 728.434 459.039C724.434 464.009 736.684 456.979 736.684 456.979Z" fill="black"/>
<path opacity="0.1" d="M741.904 458.479C741.904 458.479 738.384 464.619 736.684 465.109C734.984 465.599 741.904 458.479 741.904 458.479Z" fill="black"/>
<path opacity="0.1" d="M736.685 460.01C736.685 460.01 733.894 464.87 731.464 464.38L736.685 460.01Z" fill="black"/>
<path d="M717.034 328.8C717.034 328.8 742.765 327.71 745.315 326.86C747.865 326.01 770.435 323.1 770.435 323.1C770.435 323.1 837.314 327.83 818.264 333.54C799.214 339.25 773.354 336.81 773.354 336.81C773.354 336.81 748.104 343.37 744.224 346.81C740.344 350.25 711.694 350.33 711.694 350.33L717.034 328.8Z" fill="#EFB7B9"/>
<path opacity="0.05" d="M717.034 328.8C717.034 328.8 742.765 327.71 745.315 326.86C747.865 326.01 770.435 323.1 770.435 323.1C770.435 323.1 837.314 327.83 818.264 333.54C799.214 339.25 773.354 336.81 773.354 336.81C773.354 336.81 748.104 343.37 744.224 346.81C740.344 350.25 711.694 350.33 711.694 350.33L717.034 328.8Z" fill="black"/>
<path d="M625.504 270.18C625.504 270.18 601.954 278.18 613.364 298.58C624.774 318.98 639.464 328.58 639.464 328.58L677.334 354.8C677.334 354.8 693.234 363.9 700.514 360.14L712.404 359.14L714.404 327.94C714.404 327.94 704.404 335.71 693.524 324.94C682.644 314.17 669.244 306.85 668.154 301.03C667.064 295.21 639.214 265.2 625.504 270.18Z" fill="#A36468"/>
<path d="M699.904 336.209C699.904 336.209 712.164 340.579 711.684 340.819C711.204 341.059 699.904 345.309 699.904 345.309L700.754 361.939L717.384 361.029C717.384 361.029 723.454 330.749 718.234 327.709L699.904 326.859V336.209Z" fill="#67647E"/>
<path opacity="0.1" d="M699.904 336.209C699.904 336.209 712.164 340.579 711.684 340.819C711.204 341.059 699.904 345.309 699.904 345.309L700.754 361.939L717.384 361.029C717.384 361.029 723.454 330.749 718.234 327.709L699.904 326.859V336.209Z" fill="black"/>
<path opacity="0.1" d="M675.035 246.39C673.46 248.163 672.165 250.166 671.195 252.33C671.045 252.66 670.895 252.98 670.755 253.33C661.825 253.33 655.405 246.39 649.925 240.18C648.925 239.03 646.395 240.77 645.565 239.48C645.475 239.33 645.385 239.18 645.285 239.03L645.565 238.51C648.565 232.82 650.755 227.96 650.755 227.96C650.755 227.96 651.755 228.28 653.375 228.85C660.845 231.49 681.415 239.6 675.035 246.39Z" fill="black"/>
<path d="M701.034 222.24C701.032 230.173 697.898 237.784 692.314 243.419C686.73 249.054 679.147 252.256 671.214 252.33H670.924C666.652 252.333 662.428 251.424 658.534 249.665C654.641 247.906 651.167 245.337 648.344 242.13C647.335 240.984 646.412 239.764 645.584 238.48C643.057 234.542 641.482 230.069 640.985 225.416C640.488 220.764 641.082 216.059 642.72 211.676C644.358 207.293 646.995 203.352 650.422 200.165C653.849 196.979 657.971 194.635 662.461 193.32C666.952 192.005 671.687 191.755 676.292 192.589C680.896 193.423 685.243 195.318 688.986 198.125C692.73 200.932 695.768 204.573 697.86 208.759C699.951 212.945 701.038 217.561 701.034 222.24Z" fill="#EFB7B9"/>
<path opacity="0.1" d="M670.415 408.91C670.415 408.91 668.125 411.71 665.595 414.32C663.685 416.32 661.645 418.15 660.335 418.62C657.335 419.72 643.585 430.15 643.585 430.15C643.585 430.15 632.665 437.56 629.875 439.74C627.085 441.92 617.005 440.59 617.005 440.59C617.005 440.59 607.305 438.47 601.295 434.59C601.879 433.165 602.546 431.776 603.295 430.43L609.605 415.13L634.605 411.9L670.415 408.91Z" fill="black"/>
<path d="M669.924 406.97C669.924 406.97 667.645 409.77 665.115 412.38C663.204 414.38 661.114 416.21 659.854 416.68C656.854 417.77 643.104 428.21 643.104 428.21C643.104 428.21 632.174 435.62 629.384 437.8C626.594 439.98 616.524 438.65 616.524 438.65C616.524 438.65 602.684 435.65 597.824 430.15C594.424 426.32 597.944 419.22 600.344 415.31C601.344 413.64 602.194 412.55 602.194 412.55L669.924 406.97Z" fill="#67647E"/>
<path d="M687.894 312.9C679.634 312.17 652.444 278.9 652.444 278.9L653.065 278.05L658.764 270.16H672.094L673.565 277.44C683.705 291.66 689.674 301.55 691.294 307.21C692.464 311.33 691.354 313.21 687.894 312.9Z" fill="#67647E"/>
<path opacity="0.1" d="M687.894 312.9C679.634 312.17 652.444 278.9 652.444 278.9L653.065 278.05C657.938 282.523 662.518 287.306 666.774 292.37C686.674 315.79 690.614 309.25 691.294 307.21C692.464 311.33 691.354 313.21 687.894 312.9Z" fill="black"/>
<path opacity="0.1" d="M669.924 406.97C669.924 406.97 667.645 409.77 665.115 412.38C663.78 412.897 662.373 413.2 660.944 413.28C657.784 413.16 650.504 418.14 650.504 418.14C650.504 418.14 637.644 417.41 635.214 418.74C632.784 420.07 623.435 420.32 623.435 420.32C606.325 425.2 601.594 417.79 600.344 415.32C601.344 413.65 602.194 412.56 602.194 412.56L669.924 406.97Z" fill="black"/>
<path d="M699.645 334.69C699.645 335.16 699.555 335.63 699.495 336.08C699.435 336.53 699.375 336.99 699.305 337.42C698.981 339.89 698.241 342.288 697.115 344.51C694.935 348.15 688.255 362.35 688.255 362.35L687.805 364.97L687.575 366.34L687.335 367.69L685.705 377.26L684.975 388.31C684.975 388.31 680.975 393.89 679.275 396.31C677.575 398.73 677.815 402.26 678.425 404.81C679.035 407.36 672.845 407.72 672.845 407.72C672.845 407.72 664.105 411.97 660.945 411.85C657.785 411.73 650.505 416.69 650.505 416.69C650.505 416.69 637.645 415.96 635.215 417.3C632.785 418.64 623.435 418.88 623.435 418.88C605.115 424.09 600.985 415.23 600.135 413.41C599.285 411.59 603.775 404.19 603.775 404.19C603.775 404.19 604.775 394.84 606.685 394.11C608.595 393.38 610.935 381.01 610.935 381.01C610.935 381.01 610.205 377.24 611.785 375.18C613.365 373.12 613.245 367.29 615.305 364.5C617.365 361.71 613.125 352.36 613.855 349.93C614.585 347.5 611.545 337.67 611.785 335.12C612.025 332.57 611.185 330.51 609.235 325.41C607.575 321.06 608.045 301.73 608.235 296.19C608.235 295.25 608.285 294.71 608.285 294.71C608.285 294.71 609.985 289.24 614.475 278.32C617.875 270.05 625.525 266.92 629.035 265.9C629.636 265.719 630.247 265.569 630.865 265.45C631.745 265.577 632.609 265.795 633.445 266.1C636.985 267.29 644.065 270.66 654.165 280.1C658.633 284.287 662.851 288.735 666.795 293.42C689.565 320.18 691.425 307.69 691.425 307.69C691.425 307.69 692.425 309.97 697.115 319.07C699.625 323.91 700.085 329.69 699.645 334.69Z" fill="#A36468"/>
<path opacity="0.1" d="M662.154 268.69L639.314 250.47C639.314 250.47 631.084 251.47 627.684 265.29L651.194 285.88L662.154 268.69Z" fill="black"/>
<path d="M662.154 268.69L658.154 274.28L654.094 280.01L651.034 284.5L632.264 268.69L629.034 265.89L627.224 264.35C629.054 256.88 632.304 253.15 634.894 251.35C636.071 250.45 637.44 249.837 638.894 249.56L662.154 268.69Z" fill="#67647E"/>
<path d="M819.224 340.82C800.164 346.52 774.315 344.1 774.315 344.1C774.315 344.1 749.065 350.65 745.185 354.1C742.685 356.29 729.915 357.1 721.185 357.43C716.335 357.61 712.704 357.62 712.704 357.62L718.034 336.09L721.115 335.95C728.025 335.63 744.315 334.81 746.315 334.14C748.865 333.29 771.435 330.38 771.435 330.38C771.435 330.38 838.274 335.11 819.224 340.82Z" fill="#EFB7B9"/>
<path opacity="0.1" d="M699.305 337.369C698.981 339.84 698.241 342.237 697.115 344.459C694.935 348.099 688.254 362.299 688.254 362.299L687.334 367.689C684.235 366.538 681.226 365.154 678.334 363.549L640.435 337.299C640.435 337.299 625.744 327.709 614.334 307.299C602.924 286.889 626.475 278.899 626.475 278.899C640.185 273.899 667.984 303.899 669.074 309.729C670.164 315.559 683.524 322.839 694.444 333.639C695.884 335.101 697.52 336.357 699.305 337.369Z" fill="black"/>
<path opacity="0.1" d="M699.644 334.689C699.554 335.639 699.445 336.549 699.305 337.419C698.981 339.89 698.241 342.287 697.115 344.509C694.935 348.149 688.254 362.349 688.254 362.349L687.805 364.969C684.527 363.787 681.35 362.342 678.305 360.649L640.435 334.389C640.435 334.389 625.744 324.799 614.334 304.389C602.924 283.979 626.475 275.979 626.475 275.979C640.185 270.979 667.984 300.979 669.074 306.809C670.164 312.639 683.524 319.919 694.444 330.729C695.97 332.302 697.723 333.637 699.644 334.689Z" fill="black"/>
<path d="M715.324 335.239L713.384 366.429L701.485 367.429C701.224 367.566 700.953 367.683 700.675 367.779C693.095 370.559 678.305 362.089 678.305 362.089L640.435 335.839C640.435 335.839 625.744 326.249 614.334 305.839C602.924 285.429 626.475 277.439 626.475 277.439C640.185 272.439 667.984 302.439 669.074 308.269C670.164 314.099 683.524 321.379 694.444 332.179C696.045 333.789 697.887 335.139 699.905 336.179C702.316 337.446 705.027 338.028 707.746 337.862C710.464 337.697 713.085 336.789 715.324 335.239Z" fill="#A36468"/>
<path opacity="0.1" d="M715.324 335.239L713.384 366.429L701.484 367.429C701.224 367.566 700.953 367.683 700.674 367.779L699.904 352.619C699.904 352.619 711.194 348.369 711.684 348.129C712.174 347.889 699.904 343.519 699.904 343.519V336.269C702.323 337.523 705.04 338.09 707.758 337.908C710.477 337.726 713.094 336.803 715.324 335.239Z" fill="black"/>
<path opacity="0.1" d="M721.134 357.38C716.284 357.56 712.654 357.57 712.654 357.57L718.034 336.09L721.114 335.95C723.094 339.36 722.244 349.38 721.134 357.38Z" fill="black"/>
<path d="M700.875 343.49C700.875 343.49 713.134 347.86 712.654 348.1C712.174 348.34 700.875 352.59 700.875 352.59L701.724 369.22L718.354 368.31C718.354 368.31 724.424 338.03 719.204 334.99L700.875 334.14V343.49Z" fill="#67647E"/>
<path opacity="0.1" d="M628.174 363.399C628.174 363.399 624.044 367.279 620.644 368.309L628.174 363.399Z" fill="black"/>
<path opacity="0.1" d="M618.344 374.93C618.344 374.93 628.415 374.56 629.625 372.5C630.835 370.44 618.344 374.93 618.344 374.93Z" fill="black"/>
<path opacity="0.1" d="M613.365 389.37C613.975 389.37 626.104 387.67 626.594 386.09L613.365 389.37Z" fill="black"/>
<path opacity="0.1" d="M609.604 398.599C613.974 398.469 621.375 393.739 621.375 393.739L609.604 398.599Z" fill="black"/>
<path opacity="0.1" d="M637.884 401.02C637.884 401.02 664.224 401.02 665.434 396.17C666.644 391.32 637.884 401.02 637.884 401.02Z" fill="black"/>
<path opacity="0.1" d="M657.664 333.17C658.154 333.17 678.424 333.17 680.364 330.38C682.304 327.59 657.664 333.17 657.664 333.17Z" fill="black"/>
<path opacity="0.1" d="M635.344 253.69C635.509 254.681 635.596 255.684 635.604 256.69C635.605 257.806 635.504 258.921 635.305 260.02C634.903 262.106 634.273 264.142 633.424 266.09L633.214 266.58C632.914 267.28 632.594 267.96 632.264 268.64C630.779 271.67 629.025 274.561 627.024 277.28C622.46 283.341 617.182 288.831 611.305 293.63C610.285 294.49 609.254 295.34 608.214 296.18C608.214 295.24 608.264 294.7 608.264 294.7C608.264 294.7 609.964 289.23 614.454 278.31C617.854 270.04 625.504 266.91 629.014 265.89L627.204 264.35C629.034 256.88 632.285 253.15 634.875 251.35C635.035 252.09 635.224 252.87 635.344 253.69Z" fill="black"/>
<path opacity="0.1" d="M696.635 206.61C696.327 206.686 696.031 206.804 695.755 206.959C693.855 208.009 693.305 210.5 691.755 212.07C689.965 213.92 687.165 214.199 684.615 214.519C682.065 214.839 679.215 215.47 677.865 217.66C676.865 219.29 676.955 221.34 676.595 223.22C676.556 223.557 676.42 223.877 676.205 224.14C675.861 224.418 675.427 224.561 674.985 224.54C669.985 224.89 666.345 223.169 661.665 221.959C659.465 221.399 656.905 221.469 655.225 222.959C653.705 224.329 653.285 226.569 653.325 228.619V228.799C653.54 230.792 653.6 232.798 653.505 234.799C653.274 236.348 652.68 237.819 651.771 239.094C650.862 240.368 649.664 241.408 648.275 242.13C647.107 242.756 645.817 243.124 644.495 243.209C643.984 243.263 643.468 243.187 642.995 242.989C643.885 241.469 644.735 239.99 645.515 238.48C643.345 235.125 641.864 231.372 641.159 227.44C640.454 223.508 640.539 219.474 641.408 215.575C642.278 211.675 643.914 207.988 646.223 204.728C648.531 201.467 651.466 198.699 654.855 196.583C658.244 194.468 662.02 193.048 665.963 192.407C669.907 191.766 673.938 191.916 677.823 192.848C681.708 193.78 685.368 195.476 688.591 197.837C691.814 200.198 694.534 203.177 696.595 206.6L696.635 206.61Z" fill="black"/>
<path d="M704.874 202.769C704.508 203.588 703.932 204.295 703.204 204.819C700.924 206.299 697.654 204.669 695.274 205.989C693.364 207.039 692.824 209.529 691.274 211.099C689.494 212.949 686.694 213.229 684.134 213.549C681.574 213.869 678.744 214.499 677.384 216.689C676.384 218.319 676.484 220.359 676.114 222.249C676.08 222.588 675.944 222.909 675.724 223.169C675.379 223.446 674.946 223.588 674.504 223.569C669.504 223.919 665.864 222.189 661.184 220.989C658.994 220.429 656.434 220.499 654.754 221.989C653.074 223.479 652.814 225.609 652.844 227.659C653.052 229.706 653.116 231.764 653.034 233.819C652.688 236.025 651.614 238.051 649.983 239.575C648.352 241.099 646.258 242.033 644.034 242.229C643.71 242.278 643.38 242.262 643.062 242.181C642.744 242.1 642.446 241.957 642.184 241.759C641.896 241.447 641.687 241.07 641.574 240.659C638.244 231.299 638.274 220.909 634.234 211.829C633.583 210.535 633.018 209.199 632.544 207.829C632.464 207.549 632.384 207.259 632.324 206.969C632.205 206.392 632.125 205.807 632.084 205.219C631.671 205.278 631.279 205.44 630.944 205.689C630.825 205.79 630.718 205.905 630.624 206.029C630.052 206.986 629.761 208.085 629.784 209.199C629.037 221.701 630.252 234.243 633.384 246.369C634.34 249.397 634.921 252.53 635.114 255.699C635.003 259.126 634.186 262.493 632.714 265.589C626.444 280.049 613.844 290.639 601.314 300.209C602.602 298.829 603.596 297.202 604.235 295.426C604.875 293.651 605.147 291.763 605.034 289.879C604.819 290.599 604.408 291.244 603.849 291.745C603.29 292.247 602.603 292.584 601.864 292.719C600.383 292.971 598.867 292.947 597.394 292.649C599.314 292.019 600.064 289.759 600.544 287.799C601.524 283.799 602.434 279.763 603.274 275.689C604.169 271.802 604.758 267.849 605.034 263.869C605.184 260.489 604.924 257.099 604.784 253.709C604.488 244.414 604.822 235.109 605.784 225.859C606.524 217.859 607.864 209.209 613.734 203.749C616.268 201.608 619.097 199.844 622.134 198.509C622.134 197.509 629.464 195.509 630.434 195.369C630.837 195.291 631.245 195.244 631.654 195.229C632.178 195.153 632.713 195.245 633.182 195.491C633.65 195.737 634.029 196.125 634.264 196.599C634.624 195.949 635.024 195.309 635.444 194.699C636.022 193.86 636.657 193.061 637.344 192.309C641.154 188.109 646.094 185.149 650.504 181.589C652.123 180.137 653.878 178.845 655.744 177.729C658.185 176.502 660.864 175.82 663.594 175.729C668.109 175.474 672.625 176.183 676.844 177.809C682.924 180.149 688.234 184.349 694.524 186.049C696.077 186.386 697.61 186.81 699.114 187.319C700.557 187.89 701.865 188.757 702.952 189.864C704.04 190.97 704.884 192.292 705.431 193.744C705.977 195.197 706.213 196.747 706.124 198.297C706.035 199.846 705.623 201.359 704.914 202.739L704.874 202.769Z" fill="#444053"/>
<path opacity="0.1" d="M603.604 292.339C604.334 290.463 604.645 288.449 604.514 286.439C604.296 287.159 603.884 287.804 603.323 288.305C602.762 288.806 602.074 289.143 601.334 289.279C600.954 289.371 600.566 289.428 600.174 289.449C599.674 291.049 598.884 292.589 597.354 293.089C598.827 293.391 600.342 293.418 601.824 293.169C602.467 293.013 603.072 292.731 603.604 292.339Z" fill="black"/>
<path opacity="0.1" d="M705.594 194.8C705.52 196.381 705.111 197.928 704.394 199.34C704.016 200.14 703.437 200.829 702.714 201.34C700.444 202.82 697.164 201.2 694.785 202.51C692.884 203.56 692.334 206.06 690.785 207.62C688.994 209.47 686.194 209.76 683.644 210.07C681.094 210.38 678.244 211.07 676.894 213.21C675.894 214.84 675.985 216.89 675.625 218.77C675.617 218.967 675.568 219.16 675.48 219.337C675.393 219.513 675.269 219.67 675.117 219.795C674.965 219.921 674.788 220.013 674.598 220.065C674.408 220.118 674.209 220.13 674.014 220.1C669.014 220.45 665.374 218.72 660.694 217.51C658.494 216.95 655.934 217.02 654.254 218.51C652.734 219.89 652.315 222.12 652.355 224.18C652.564 226.223 652.624 228.278 652.535 230.33C652.2 232.541 651.13 234.575 649.497 236.103C647.864 237.631 645.763 238.563 643.535 238.75C643.21 238.797 642.88 238.78 642.563 238.699C642.245 238.618 641.947 238.476 641.685 238.28C641.396 237.964 641.187 237.583 641.074 237.17C637.744 227.81 637.765 217.42 633.725 208.35C633.082 207.053 632.521 205.717 632.045 204.35C631.79 203.5 631.632 202.625 631.574 201.74C631 201.807 630.476 202.098 630.115 202.55C629.552 203.511 629.262 204.607 629.274 205.72C628.809 213.733 629.144 221.773 630.274 229.72C629.552 223.032 629.388 216.295 629.785 209.58C629.761 208.465 630.052 207.367 630.625 206.41C630.8 206.182 631.019 205.993 631.271 205.853C631.522 205.714 631.799 205.628 632.084 205.6C632.139 206.484 632.294 207.36 632.545 208.21C633.023 209.578 633.587 210.914 634.235 212.21C638.235 221.29 638.234 231.67 641.574 241.03C641.692 241.443 641.904 241.823 642.194 242.14C642.447 242.352 642.741 242.511 643.058 242.605C643.374 242.7 643.707 242.729 644.035 242.69C646.258 242.494 648.352 241.559 649.983 240.035C651.614 238.511 652.688 236.485 653.035 234.28C653.116 232.225 653.052 230.166 652.844 228.12C652.844 226.06 653.234 223.83 654.754 222.45C656.434 220.93 658.995 220.87 661.185 221.45C665.865 222.65 669.484 224.38 674.504 224.03C674.946 224.048 675.379 223.906 675.725 223.63C675.944 223.365 676.08 223.042 676.115 222.7C676.485 220.82 676.374 218.77 677.384 217.15C678.744 214.96 681.584 214.32 684.134 214C686.684 213.68 689.494 213.41 691.285 211.56C692.794 209.99 693.335 207.5 695.285 206.44C697.655 205.13 700.934 206.76 703.214 205.28C703.942 204.756 704.519 204.049 704.884 203.23C706.2 200.617 706.454 197.596 705.594 194.8Z" fill="black"/>
<path opacity="0.1" d="M634.634 252.29C634.524 255.716 633.711 259.082 632.245 262.18C626.635 275.11 615.955 284.95 604.805 293.72C604.333 296.337 603.126 298.765 601.324 300.72C613.844 291.16 626.464 280.57 632.724 266.11C634.196 263.014 635.013 259.647 635.125 256.22C635.1 254.757 634.929 253.299 634.615 251.87C634.625 251.97 634.634 252.13 634.634 252.29Z" fill="black"/>
<path opacity="0.1" d="M635.884 194.689C634.984 198.829 633.745 204.209 632.815 206.979C632.7 206.401 632.62 205.817 632.574 205.229C632.164 205.289 631.776 205.45 631.444 205.699C631.444 202.789 631.794 198.459 632.094 195.219C632.62 195.143 633.156 195.234 633.627 195.48C634.097 195.726 634.478 196.114 634.714 196.589C635.034 195.949 635.464 195.309 635.884 194.689Z" fill="black"/>
<path d="M635.404 194.689C634.504 198.829 633.264 204.209 632.334 206.979C632.215 206.402 632.135 205.818 632.094 205.229C631.681 205.288 631.289 205.45 630.954 205.699C630.954 202.789 631.305 198.459 631.615 195.219C632.138 195.143 632.673 195.235 633.142 195.481C633.611 195.727 633.99 196.115 634.224 196.589C634.584 195.949 635.034 195.309 635.404 194.689Z" fill="#67647E"/>
<defs>
<linearGradient id="paint0_linear" x1="50766.4" y1="150706" x2="124355" y2="150706" gradientUnits="userSpaceOnUse">
<stop stop-color="#808080" stop-opacity="0.25"/>
<stop offset="0.54" stop-color="#808080" stop-opacity="0.12"/>
<stop offset="1" stop-color="#808080" stop-opacity="0.1"/>
</linearGradient>
<linearGradient id="paint1_linear" x1="-227513" y1="95864" x2="-227513" y2="52158.1" gradientUnits="userSpaceOnUse">
<stop stop-color="#808080" stop-opacity="0.25"/>
<stop offset="0.54" stop-color="#808080" stop-opacity="0.12"/>
<stop offset="1" stop-color="#808080" stop-opacity="0.1"/>
</linearGradient>
</defs>
</svg>
