<svg width="952" height="732" viewBox="0 0 952 732" fill="none" xmlns="http://www.w3.org/2000/svg">
<path d="M450.434 689.714C476.918 686.26 502.381 683.323 526.825 680.904L517.422 665.14C520.69 664.23 534.841 673.356 534.841 673.356L522.89 627.766C539.224 629.599 546.818 676.098 546.818 676.098L565.341 660.611L556.217 678.152C631.014 671.618 695.555 669.604 749.808 670.108L741.76 656.615C745.027 655.706 759.179 664.831 759.179 664.831L747.228 619.241C763.561 621.074 771.156 667.573 771.156 667.573L789.678 652.086L780.015 670.665C825.483 671.932 862.531 674.942 891.112 678.223C883.086 657.254 855.027 637.084 855.027 637.084C876.608 642.718 887.832 651.884 893.639 660.377C894.794 616.962 886.857 573.786 870.336 533.621C870.336 533.621 913.846 615.696 907.279 670.391L906.444 680.106C944.337 685.079 963.35 690.025 963.35 690.025L450.434 689.714Z" fill="#3F3D56"/>
<path d="M487.457 732C756.672 732 974.915 715.026 974.915 694.087C974.915 673.148 756.672 656.174 487.457 656.174C218.242 656.174 0 673.148 0 694.087C0 715.026 218.242 732 487.457 732Z" fill="#3F3D56"/>
<path d="M499.644 87.4736C499.644 87.4736 510.476 113.201 486.103 125.387C461.73 137.573 551.097 160.592 560.576 130.803C560.576 130.803 536.203 121.325 547.035 92.8898L499.644 87.4736Z" fill="#FFB9B9"/>
<path d="M528.756 618.938L527.402 647.372L550.42 651.435V623L528.756 618.938Z" fill="#FFB9B9"/>
<path d="M442.097 618.938L443.451 647.372L420.432 651.435V623L442.097 618.938Z" fill="#FFB9B9"/>
<path d="M526.048 103.044C546.987 103.044 563.961 86.0701 563.961 65.1311C563.961 44.1922 546.987 27.2178 526.048 27.2178C505.109 27.2178 488.134 44.1922 488.134 65.1311C488.134 86.0701 505.109 103.044 526.048 103.044Z" fill="#FFB9B9"/>
<path d="M578.856 340.003L577.501 350.835L584.272 376.562L593.75 353.544L578.856 340.003Z" fill="#FFB9B9"/>
<path d="M428.556 344.065L420.432 440.202C420.432 440.202 410.954 457.805 416.37 472.7C416.37 472.7 408.245 493.01 410.954 499.781C413.662 506.551 415.016 513.321 412.308 516.029C409.599 518.737 408.245 594.564 412.308 601.334C416.37 608.104 419.078 624.353 419.078 624.353C419.078 624.353 442.097 629.769 447.513 614.875C452.929 599.98 450.221 598.626 455.637 594.564C461.053 590.502 461.053 533.632 461.053 533.632C461.053 533.632 454.283 526.862 458.345 524.153C462.407 521.445 465.115 524.153 461.053 517.383C456.991 510.613 450.221 510.613 456.991 507.905C460.764 506.443 464.39 504.63 467.823 502.489L507.091 399.581C507.091 399.581 521.985 514.675 524.694 520.091C527.402 525.507 531.464 518.737 527.402 525.507C523.339 532.278 521.985 528.216 523.339 532.278C524.694 536.34 515.215 594.564 520.631 606.75C523.793 613.794 526.506 621.03 528.756 628.415C528.756 628.415 550.42 637.893 553.129 631.123C555.837 624.353 554.483 612.167 558.545 610.813C562.607 609.458 566.669 606.75 566.669 595.918C566.669 585.086 574.793 532.278 574.793 532.278C574.793 532.278 565.315 528.216 568.023 521.445C570.731 514.675 570.731 516.029 569.377 510.613C568.023 505.197 565.315 503.843 568.023 499.781C570.731 495.718 570.731 483.532 570.731 483.532L586.98 376.562L574.432 340.003L428.556 344.065Z" fill="#2F2E41"/>
<path d="M530.11 640.602C530.11 640.602 526.048 636.54 524.694 640.602C523.34 644.664 523.34 682.577 523.34 682.577C523.34 682.577 534.172 690.701 534.172 694.764C534.172 698.826 542.296 712.366 561.253 709.658C561.443 709.631 561.63 709.603 561.816 709.573C564.56 709.128 567.163 708.051 569.42 706.427C571.676 704.802 573.524 702.675 574.817 700.214C576.11 697.753 576.812 695.024 576.869 692.245C576.926 689.465 576.336 686.71 575.145 684.198L555.837 643.31C555.837 643.31 542.296 629.769 530.11 640.602Z" fill="#2F2E41"/>
<path d="M440.743 640.602C440.743 640.602 444.805 636.54 446.159 640.602C447.513 644.664 447.513 682.577 447.513 682.577C447.513 682.577 436.68 690.701 436.68 694.764C436.68 698.826 428.556 712.366 409.599 709.658C409.41 709.631 409.222 709.603 409.037 709.573C406.292 709.128 403.689 708.051 401.433 706.427C399.176 704.802 397.329 702.675 396.036 700.214C394.743 697.753 394.04 695.024 393.983 692.245C393.926 689.465 394.516 686.71 395.707 684.198L415.016 643.31C415.016 643.31 428.556 629.769 440.743 640.602Z" fill="#2F2E41"/>
<path d="M497.152 24.0651L490.378 21.3532C490.378 21.3532 504.541 5.75999 524.247 7.11599L518.705 1.01421C518.705 1.01421 532.253 -4.40947 544.569 9.82777C551.043 17.312 558.534 26.1093 563.204 36.0194H570.458L567.43 42.686L578.027 49.3526L567.151 48.1551C568.181 53.9106 567.828 59.8286 566.122 65.4211L566.413 70.6904C566.413 70.6904 553.806 51.1837 553.806 48.4718V55.2515C553.806 55.2515 547.032 49.1498 547.032 45.082L543.337 49.8278L541.49 42.3701L518.705 49.8278L522.4 43.7261L508.236 45.76L513.778 38.3023C513.778 38.3023 497.768 47.1159 497.152 54.5736C496.536 62.0311 488.53 71.5227 488.53 71.5227L484.836 64.743C484.836 64.743 479.293 34.2346 497.152 24.0651Z" fill="#2F2E41"/>
<path d="M584.272 149.082H599.358C600.466 149.081 601.542 149.458 602.408 150.15C603.274 150.842 603.878 151.809 604.122 152.89C606.45 163.198 612.448 192.418 611.353 215.43C609.999 243.865 612.707 264.176 611.353 268.238C609.999 272.3 611.353 273.654 611.353 277.717C611.353 281.779 615.415 279.071 611.353 284.487C607.291 289.903 607.291 288.549 607.291 292.611C607.291 296.673 593.75 358.959 593.75 358.959C593.75 358.959 584.441 343.66 574.201 346.57L576.147 291.257L578.856 268.238L574.793 227.617L584.272 149.082Z" fill="#3F3D56"/>
<path d="M518.6 134.865C518.6 134.865 495.582 134.028 488.134 124.291C488.134 124.291 440.066 140.281 434.649 153.821C429.233 167.362 453.606 228.294 453.606 228.294C453.606 228.294 411.631 352.866 431.941 352.866C452.252 352.866 498.29 369.115 525.371 359.637C542.151 353.817 559.353 349.29 576.824 346.096C576.824 346.096 579.532 309.537 576.824 302.767C574.116 295.996 567.346 300.059 571.408 290.58C575.47 281.102 574.116 279.748 572.762 275.686C571.408 271.624 575.47 266.207 575.47 260.791C575.47 255.375 574.116 243.189 574.116 243.189C574.116 243.189 610.676 157.884 602.551 149.759C594.427 141.635 553.072 125.981 553.072 125.981C553.072 125.981 541.619 140.281 518.6 134.865Z" fill="#3F3D56"/>
<path d="M823.261 547.85C839.713 547.85 853.05 534.513 853.05 518.061C853.05 501.609 839.713 488.271 823.261 488.271C806.809 488.271 793.472 501.609 793.472 518.061C793.472 534.513 806.809 547.85 823.261 547.85Z" fill="#5CB2F0"/>
<path d="M802.95 532.955C806.69 532.955 809.721 526.287 809.721 518.061C809.721 509.835 806.69 503.166 802.95 503.166C799.211 503.166 796.18 509.835 796.18 518.061C796.18 526.287 799.211 532.955 802.95 532.955Z" fill="white"/>
<path d="M727.124 356.929C743.576 356.929 756.913 343.592 756.913 327.14C756.913 310.688 743.576 297.351 727.124 297.351C710.672 297.351 697.335 310.688 697.335 327.14C697.335 343.592 710.672 356.929 727.124 356.929Z" fill="#3F3D56"/>
<path d="M719.18 316.173C725.842 311.348 729.465 304.981 727.271 301.953C725.078 298.925 717.899 300.382 711.237 305.208C704.575 310.033 700.953 316.4 703.146 319.428C705.34 322.456 712.519 320.999 719.18 316.173Z" fill="white"/>
<path d="M802.95 181.864C813.203 181.864 821.515 173.553 821.515 163.3C821.515 153.047 813.203 144.735 802.95 144.735C792.698 144.735 784.386 153.047 784.386 163.3C784.386 173.553 792.698 181.864 802.95 181.864Z" fill="#3F3D56"/>
<path d="M798 156.466C802.152 153.458 804.409 149.491 803.042 147.604C801.675 145.716 797.202 146.625 793.05 149.632C788.898 152.639 786.641 156.607 788.008 158.494C789.375 160.381 793.849 159.473 798 156.466Z" fill="white"/>
<path d="M663.484 659.844C673.736 659.844 682.048 651.532 682.048 641.279C682.048 631.026 673.736 622.715 663.484 622.715C653.231 622.715 644.919 631.026 644.919 641.279C644.919 651.532 653.231 659.844 663.484 659.844Z" fill="#3F3D56"/>
<path d="M658.533 634.445C662.685 631.438 664.942 627.47 663.575 625.583C662.208 623.696 657.735 624.604 653.583 627.611C649.431 630.619 647.174 634.586 648.541 636.474C649.908 638.361 654.382 637.453 658.533 634.445Z" fill="white"/>
<path d="M820.553 412.444C837.005 412.444 850.342 399.107 850.342 382.655C850.342 366.203 837.005 352.866 820.553 352.866C804.101 352.866 790.764 366.203 790.764 382.655C790.764 399.107 804.101 412.444 820.553 412.444Z" fill="#3F3D56"/>
<path d="M800.242 397.55C803.982 397.55 807.013 390.881 807.013 382.655C807.013 374.429 803.982 367.761 800.242 367.761C796.503 367.761 793.472 374.429 793.472 382.655C793.472 390.881 796.503 397.55 800.242 397.55Z" fill="white"/>
<path d="M724.416 221.523C740.868 221.523 754.205 208.186 754.205 191.734C754.205 175.282 740.868 161.945 724.416 161.945C707.964 161.945 694.627 175.282 694.627 191.734C694.627 208.186 707.964 221.523 724.416 221.523Z" fill="#5CB2F0"/>
<path d="M716.472 180.769C723.134 175.943 726.757 169.577 724.563 166.549C722.37 163.521 715.191 164.978 708.529 169.803C701.867 174.629 698.245 180.996 700.438 184.024C702.632 187.052 709.811 185.595 716.472 180.769Z" fill="white"/>
<path d="M800.242 46.4599C810.495 46.4599 818.807 38.1483 818.807 27.8955C818.807 17.6426 810.495 9.33105 800.242 9.33105C789.99 9.33105 781.678 17.6426 781.678 27.8955C781.678 38.1483 789.99 46.4599 800.242 46.4599Z" fill="#5CB2F0"/>
<path d="M795.292 21.0614C799.444 18.0541 801.701 14.0864 800.334 12.1993C798.967 10.3122 794.494 11.2202 790.342 14.2276C786.19 17.2349 783.933 21.2027 785.3 23.0898C786.667 24.9769 791.141 24.0688 795.292 21.0614Z" fill="white"/>
<path d="M660.775 524.438C671.028 524.438 679.34 516.127 679.34 505.874C679.34 495.621 671.028 487.31 660.775 487.31C650.522 487.31 642.211 495.621 642.211 505.874C642.211 516.127 650.522 524.438 660.775 524.438Z" fill="#3F3D56"/>
<path d="M655.825 499.04C659.977 496.033 662.234 492.065 660.867 490.178C659.5 488.291 655.026 489.199 650.875 492.206C646.723 495.213 644.466 499.181 645.833 501.068C647.2 502.955 651.673 502.047 655.825 499.04Z" fill="white"/>
<path d="M442.774 383.922H67.7024V611.577H442.774V383.922Z" fill="#F2F2F2"/>
<path d="M412.308 353.544C412.308 353.544 400.121 417.184 420.432 411.768C440.743 406.352 431.264 353.544 431.264 353.544H412.308Z" fill="#FFB9B9"/>
<path d="M443.451 149.082L438.642 151.486C436.77 152.422 435.14 153.779 433.88 155.45C432.62 157.121 431.763 159.06 431.377 161.117L412.308 262.822C412.308 262.822 406.891 275.008 406.891 276.363C406.891 277.717 409.6 277.717 406.891 281.779C404.183 285.841 400.121 284.487 402.829 287.195C404.375 288.6 405.341 290.531 405.537 292.611L408.246 358.959C408.246 358.959 431.264 352.189 438.035 358.959C438.035 358.959 431.264 338.649 435.326 331.878C439.389 325.108 439.389 315.63 439.389 315.63C439.389 315.63 436.681 315.63 443.451 308.86C450.221 302.089 451.575 299.381 450.221 298.027C448.867 296.673 447.513 284.487 447.513 283.133C447.513 281.779 461.053 191.057 461.053 191.057L443.451 149.082Z" fill="#3F3D56"/>
<path d="M259.903 574.257C305.249 574.257 342.008 537.497 342.008 492.152C342.008 446.807 305.249 410.047 259.903 410.047C214.558 410.047 177.798 446.807 177.798 492.152C177.798 537.497 214.558 574.257 259.903 574.257Z" fill="#5CB2F0"/>
<path d="M331.396 543.702C315.632 543.703 280.82 527.511 249.86 508.548C211.442 485.017 174.13 454.26 180.653 443.61C182.496 440.6 187.066 439.813 194.626 441.201L194.084 444.152C188.23 443.075 184.268 443.451 183.211 445.176C181.669 447.694 185.069 455.002 199.235 467.964C212.144 479.778 230.679 493.282 251.428 505.99C272.175 518.698 292.627 529.074 309.015 535.206C326.999 541.937 335.054 541.643 336.595 539.127C337.654 537.399 336.183 533.695 332.559 528.963L334.941 527.139C339.62 533.249 340.998 537.683 339.154 540.694C337.887 542.762 335.194 543.702 331.396 543.702Z" fill="#3F3D56"/>
<path d="M249.769 466.743C259.044 466.743 266.563 459.224 266.563 449.949C266.563 440.673 259.044 433.154 249.769 433.154C240.493 433.154 232.974 440.673 232.974 449.949C232.974 459.224 240.493 466.743 249.769 466.743Z" fill="white"/>
<path d="M254.633 553.211C260.816 553.211 265.829 548.198 265.829 542.015C265.829 535.831 260.816 530.818 254.633 530.818C248.449 530.818 243.437 535.831 243.437 542.015C243.437 548.198 248.449 553.211 254.633 553.211Z" fill="white"/>
<path d="M293.187 514.827C299.371 514.827 304.384 509.814 304.384 503.631C304.384 497.447 299.371 492.435 293.187 492.435C287.004 492.435 281.991 497.447 281.991 503.631C281.991 509.814 287.004 514.827 293.187 514.827Z" fill="white"/>
</svg>
