<svg width="623" height="446" viewBox="0 0 623 446" fill="none" xmlns="http://www.w3.org/2000/svg">
<path d="M484.942 202.025C483.777 199.029 485.442 197.531 486.107 194.868C486.773 192.205 484.609 183.884 484.609 183.884C484.609 183.884 477.62 155.092 475.456 149.434C474.54 147.039 472.552 145.392 470.563 144.286C470.428 143.552 470.233 143.078 469.964 142.943C468.036 141.979 463.234 139.885 460.033 139.306C459.435 138.277 458.725 137.317 457.917 136.444C458.479 135.365 458.739 134.155 458.671 132.941C458.467 129.801 456.089 126.987 456.399 123.856C456.633 121.481 458.37 119.53 459.04 117.24C459.32 116.211 459.387 115.136 459.235 114.08C459.083 113.025 458.715 112.012 458.155 111.105C458.648 111.628 459.14 112.152 459.632 112.676C460.302 111.672 460.624 110.477 460.55 109.272C460.476 108.068 460.009 106.921 459.22 106.008C457.662 104.286 455.055 103.64 453.846 101.657C452.603 99.619 453.27 96.8501 452.095 94.7726C449.216 89.6833 441.846 93.291 437.431 91.5147C435.617 90.7847 434.238 89.9814 432.197 90.0391C430.462 90.1386 428.746 90.459 427.091 90.9925C424.718 91.6793 422.653 93.1599 421.24 95.1868C421.38 95.0281 421.532 94.8819 421.697 94.7498C422.767 93.9116 424.643 93.9813 425.208 95.2174C425.343 95.5281 425.399 95.8671 425.373 96.2048C425.28 97.6949 423.978 98.8077 422.685 99.5534C421.391 100.299 419.936 100.923 419.092 102.154C417.699 104.187 418.518 106.914 418.519 109.378C418.507 110.944 418.145 112.487 417.458 113.894C416.771 115.301 415.777 116.537 414.55 117.509L419.246 115.589C417.004 119.514 415.532 123.831 414.909 128.307L421.259 123.062C418.907 126.805 417.478 131.053 417.088 135.456L422.185 130.233C422.417 130.641 422.533 131.105 422.521 131.574L421.99 133.624C421.802 134.031 421.594 134.428 421.366 134.814C420.546 136.222 419.698 137.956 420.465 139.393L420.469 139.392C419.662 142.108 418.444 144.826 415.734 146.147C418.739 146.462 421.876 144.959 423.233 142.567C423.454 142.998 423.722 143.403 424.03 143.775C424.118 143.885 424.204 143.993 424.29 144.102L423.541 144.601L421.534 145.939C421.534 145.939 408.386 148.602 409.218 153.595C409.253 153.8 409.294 154.045 409.34 154.32L405.557 160.751L400.065 179.391C400.065 179.391 397.236 185.382 397.735 187.878C398.234 190.375 397.735 191.373 397.735 195.867C397.735 200.36 395.572 202.191 397.735 205.852C399.899 209.514 406.389 220.165 406.389 220.165L407.815 221.234C407.745 221.876 407.77 222.525 407.887 223.161C409.218 229.818 421.7 293.559 421.7 293.559C421.7 293.559 415.376 343.986 428.191 347.148C429.798 347.544 431.377 347.904 432.91 348.225L434.848 360.961L433.683 377.105C433.683 377.105 424.862 397.076 441.006 398.241C457.149 399.406 449.826 380.932 449.826 380.932C450.678 379.355 451.027 377.554 450.825 375.773C450.66 374.292 449.275 366.582 447.916 359.167C454.042 358.433 452.896 351.931 452.079 349.072C452.433 348.866 452.697 348.536 452.822 348.146C453.006 347.483 452.577 344.871 451.798 341.211C451.163 337.573 450.079 331.683 449.339 327.693L453.321 328.342L470.13 229.818C470.13 229.818 470.241 228.249 470.191 225.955C472.489 224.767 474.859 223.722 477.287 222.828C482.779 220.664 484.942 212.676 486.773 209.347C488.604 206.019 486.107 205.02 484.942 202.025ZM425.261 139.294C425.805 138.919 426.443 138.703 427.102 138.67C426.96 139.444 425.629 139.67 424.512 140.075C424.717 139.775 424.97 139.511 425.261 139.294ZM416.874 188.877C418.222 191.092 415.781 197.095 413.581 201.858C412.321 200.772 411.005 201.115 412.547 198.03C413.599 196.076 414.223 193.92 414.378 191.706C414.378 191.326 414.573 188.53 416.213 187.368C416.385 187.891 416.607 188.396 416.874 188.877ZM411.823 207.996C412.586 207.685 413.742 207.208 415.302 206.678C414.554 207.659 413.701 208.828 412.843 210.104C412.518 209.858 412.257 209.539 412.08 209.172C411.903 208.806 411.815 208.403 411.823 207.996ZM465.803 210.179C464.791 209.104 463.974 208.143 463.301 207.282C464.556 207.613 465.834 207.968 467.135 208.349C467.783 208.445 468.444 208.401 469.074 208.22C469.132 209.37 469.132 211.012 469.132 211.012L467.309 212.274C466.893 211.517 466.388 210.814 465.803 210.179V210.179ZM470.968 204.408C470.949 204.424 470.928 204.444 470.908 204.462C470.818 203.804 470.669 203.155 470.463 202.524C469.373 199.084 468.79 192.981 468.48 187.772L471.628 198.363C471.628 198.363 471.795 203.689 470.968 204.408Z" fill="#D0CDE1"/>
<path d="M406.321 160.663C406.321 160.663 389.247 131.317 388.713 128.115C388.179 124.914 379.642 119.045 379.642 119.045C376.725 116.128 371.94 115.205 366.903 115.253C368.8 113.684 362.028 112.629 361.501 111.575C360.967 110.507 359.367 110.507 357.232 108.907C355.098 107.306 349.771 108.64 349.77 108.64C348.969 106.955 348.412 105.164 348.115 103.322C350.389 100.632 351.634 97.2224 351.63 93.7C351.63 93.6617 351.627 93.624 351.627 93.5858C351.763 93.7972 351.899 94.0098 352.035 94.229C353.034 88.2418 354.799 83.2651 351.436 77.8035C349.052 73.9325 345.321 71.08 340.96 69.795L337.757 72.3573L339.002 69.3687C337.955 69.2089 336.895 69.1477 335.837 69.1857L332.955 72.8909L334.148 69.3126C331.647 69.6234 329.238 70.4489 327.073 71.7371C324.907 73.0253 323.032 74.7482 321.565 76.7972C317.897 82.0858 318.143 89.4372 321.75 94.7672C321.762 94.7298 321.772 94.6933 321.784 94.656C321.943 97.1495 322.725 99.5631 324.059 101.676C325.393 103.789 327.235 105.533 329.417 106.75L330.323 113.999C329.508 114.756 328.462 115.218 327.353 115.31C325.752 115.31 324.151 119.578 324.151 119.578C324.151 119.578 323.244 120.036 322.266 122.197C319.747 123.912 312.064 129.298 309.214 133.062C307.527 133.892 305.716 135.738 306.01 139.854C306.543 147.324 306.01 182.006 306.01 182.006C306.01 182.006 301.208 211.352 302.808 213.486C304.409 215.62 302.275 222.557 302.275 222.557L303.876 222.913V224.691C303.876 224.691 299.061 247.01 306.543 246.034C318.816 244.433 309.745 226.292 309.745 226.292V224.217L311.879 224.691C311.879 224.691 312.946 217.221 315.081 216.688C315.823 216.502 316.694 214.508 317.515 211.987C317.994 215.919 318.282 218.288 318.282 218.288L321.621 217.546L322.551 220.956C322.78 221.085 323.02 221.193 323.268 221.281L322.551 225.225C322.551 225.225 322.017 229.493 322.551 232.161C322.82 233.507 332.724 262.265 342.477 290.445L342.293 297.256C342.293 297.256 337.49 302.592 338.558 306.327C339.625 310.062 335.89 341.009 335.89 341.009L332.688 356.483L333.494 356.73L332.754 359.442C332.117 359.763 331.551 360.208 331.088 360.751C326.819 365.553 321.483 379.426 321.483 379.426C321.483 379.426 311.879 393.832 326.819 393.299C341.759 392.765 342.826 387.43 342.826 387.43C342.826 387.43 344.96 373.557 344.96 373.023C344.96 372.49 343.893 367.005 343.893 367.005L343.479 366.548L343.768 359.892L346.561 360.751C346.561 360.751 349.229 346.878 351.363 345.278C352.109 344.718 354.094 338.486 356.36 330.482C358.675 337.15 360.918 360.209 361.646 362.302C361.388 362.654 361.161 363.028 360.967 363.419C358.569 368.022 355.896 372.476 352.964 376.758C352.964 376.758 335.89 386.896 352.964 389.564C352.964 389.564 362.568 390.097 367.37 386.896C372.172 383.695 384.978 378.892 384.978 377.825C384.978 376.758 381.777 361.071 378.575 362.779L376.431 357.846L378.575 357.016L365.067 296.382C365.386 295.089 365.621 293.777 365.77 292.454C365.77 289.66 372.678 235.253 374.437 221.453C382.174 223.645 389.247 207.617 389.247 207.617L391.001 204.46L393.515 206.016C393.515 206.016 395.649 200.681 398.851 200.147C402.052 199.613 407.921 171.334 407.921 167.599C407.873 165.201 407.328 162.84 406.321 160.663ZM381.461 202.467C380.936 201.634 380.326 200.856 379.642 200.147C381.037 196.514 382.109 192.764 382.844 188.942C383.911 183.073 381.243 163.864 381.243 163.864L381.196 162.56C383.815 165.998 387.112 170.581 387.112 171.868C387.112 172.489 387.257 173.102 387.535 173.657C387.813 174.213 388.216 174.696 388.713 175.069L385.512 186.274C385.512 186.274 383.377 191.61 382.844 194.278C382.524 195.859 382.345 197.466 382.31 199.08L383.067 199.548L381.461 202.467Z" fill="#D0CDE1"/>
<path d="M162.051 170.54L164.898 169.899L153.159 136.818L127.815 127.48C127.815 127.48 127.718 127.588 127.539 127.774C125.377 125.681 124.459 122.646 124.076 120.256C126.114 119.433 127.945 118.17 129.439 116.557C130.933 114.944 132.052 113.022 132.717 110.927C133.382 108.832 133.577 106.615 133.287 104.437C132.997 102.258 132.229 100.17 131.039 98.3215C133.128 97.8202 133.873 95.9256 134.574 93.6664C134.14 93.5383 133.697 93.4419 133.25 93.378C133.578 92.6415 133.906 91.905 134.235 91.1686C133.658 91.1167 133.08 91.0649 132.503 91.0131C132.651 90.3246 132.798 89.6362 132.946 88.9477C132.21 89.4558 131.474 89.964 130.738 90.4722C130.988 89.7494 131.05 88.9749 130.918 88.2215C130.787 87.4681 130.466 86.7605 129.986 86.1653C129.008 84.9841 127.733 84.0851 126.292 83.5611C123.474 82.4524 120.406 82.1417 117.423 82.663C114.44 83.1844 111.658 84.5176 109.383 86.5164L109.224 85.8946C104.719 89.3574 101.771 94.4654 101.027 100.098C100.321 105.666 102.995 111.336 106.472 115.742C106.443 115.55 106.412 115.358 106.38 115.166C106.53 115.373 106.685 115.576 106.845 115.775L107.273 132.016L106.202 132.933C106.2 132.934 88.2433 141.058 87.5433 150.762L87.5412 150.769C86.4634 155.493 85.9298 180.037 85.9298 180.037H87.4074L85.9298 189.641L76.3256 226.991C76.3256 226.991 64.0535 242.998 74.7249 246.199C81.3561 248.189 83.2481 240.495 83.7305 234.384C84.1147 235.899 85.2638 236.923 87.5305 237.129C87.7089 237.145 87.8994 237.158 88.0836 237.173C83.0378 250.213 86.4634 292.62 86.4634 292.62C83.7955 297.956 115.276 334.772 115.276 334.772L117.172 333.761L117.582 334.581C116.527 334.682 115.81 334.772 115.81 334.772V351.312C115.81 351.312 111.008 367.853 117.41 371.055C119.067 371.883 120.795 371.28 122.447 369.935C122.131 375.039 121.679 382.656 121.679 384.394C121.679 387.062 128.615 391.864 128.615 391.864C128.615 391.864 130.216 397.733 143.022 397.733C155.827 397.733 146.223 382.259 146.223 382.259L139.287 366.786C139.287 366.786 138.768 367.04 137.197 365.761L137.76 359.574L140.887 359.85L145.156 297.422C145.156 297.422 148.891 241.931 149.424 233.394C149.549 230.657 149.485 227.914 149.232 225.186L164.898 192.843L162.051 170.54ZM150.492 191.242L148.891 196.82V184.483L150.492 191.242ZM83.8793 230.811C83.8926 228.855 83.7955 227.525 83.7955 227.525L94.2268 206.662L93.9333 213.118C93.9333 213.118 85.5792 223.686 83.8793 230.811ZM108.34 291.019L118.478 255.27L124.347 298.489L123.926 314.201C123.211 312.757 122.637 311.248 122.213 309.694C120.612 303.291 108.34 291.019 108.34 291.019Z" fill="#D0CDE1"/>
<path d="M252.73 375.939C247.731 373.881 238.026 369.469 236.85 367.117C235.674 364.764 229.792 346.531 229.792 346.531L228.278 346.642C228.082 338.359 227.248 306.257 225.969 302.42C225.969 302.42 232.145 251.544 219.794 231.253L217.568 222.262C218.298 218.658 218.205 210.312 217.735 208.903C217.147 207.138 224.499 201.551 222.44 198.022C220.382 194.493 214.794 182.435 214.794 182.435C214.794 182.435 215.382 174.789 207.442 167.731C207.442 167.731 205.122 154.595 194.666 154.4C193.252 151.933 191.274 148.01 191.856 146.264C192.479 144.394 194.863 138.564 196.209 135.301C196.924 134.978 197.611 134.596 198.262 134.159C206.578 130.433 212.44 121.476 212.44 111.013C212.44 99.8126 205.724 90.3336 196.47 87.1551C196.882 86.0686 197.051 84.9048 196.964 83.7461C196.877 82.5873 196.536 81.4618 195.967 80.449C195.397 79.4362 194.612 78.5609 193.667 77.8849C192.721 77.2088 191.639 76.7486 190.497 76.5367C189.354 76.3249 188.179 76.3664 187.054 76.6586C185.93 76.9507 184.883 77.4863 183.988 78.2274C183.093 78.9686 182.371 79.8972 181.875 80.9478C181.378 81.9983 181.118 83.1451 181.113 84.3071C180.604 83.1008 180.402 81.7872 180.524 80.4836C180.647 79.1801 181.09 77.9271 181.815 76.8366C182.539 75.746 183.523 74.8519 184.677 74.234C185.831 73.616 187.121 73.2936 188.43 73.2953C188.945 73.296 189.459 73.3467 189.965 73.4467C188.221 72.6175 186.235 72.4526 184.379 72.9828C182.523 73.513 180.923 74.7019 179.881 76.3268C178.838 77.9516 178.424 79.9009 178.716 81.8094C179.007 83.7178 179.985 85.4543 181.465 86.6936C181.557 86.984 181.665 87.2688 181.789 87.5467C173.081 91.0606 166.87 100.241 166.87 111.013C166.87 121.006 172.216 129.625 179.94 133.626C179.899 136.877 179.093 142.357 174.61 145.696C172.294 144.638 169.081 143.477 167.019 144.004C165.953 143.172 164.344 142.898 162.154 145.087C157.743 149.499 153.92 160.968 153.92 168.026C153.92 175.083 154.802 215.96 154.802 215.96C154.802 215.96 150.097 217.725 153.332 220.372C154 220.928 154.838 221.24 155.708 221.254L158.919 245.074C158.919 245.074 156.861 268.012 164.801 268.306C165.423 268.341 166.042 268.189 166.578 267.87L160.684 294.479C160.684 294.479 147.156 303.302 136.569 320.652C131.116 329.589 128.398 335.087 127.04 338.323L125.1 337.121L118.336 350.06C118.336 350.06 103.338 359.177 106.573 365.941C109.808 372.704 112.749 374.469 112.749 374.469L114.807 373.587L118.63 380.645C118.63 380.645 128.629 395.054 144.803 387.702C145.563 386.682 145.972 385.445 145.972 384.174C145.972 382.902 145.563 381.665 144.803 380.645C142.157 376.822 135.393 368.587 135.393 368.587L139.804 346.237L138.891 345.671L166.859 311.83C166.859 311.83 175.094 306.831 178.034 302.42C180.975 298.008 199.208 252.426 199.208 252.426L209.501 300.067C209.501 300.067 208.913 317.418 211.559 328.593C213.002 334.861 213.943 341.235 214.373 347.653L213.618 347.708L215.382 360.941C215.382 360.941 207.736 379.762 213.03 381.233C216.796 382.206 220.63 382.894 224.499 383.291L225.087 381.233C225.087 381.233 247.731 393.584 255.965 384.468C255.965 384.468 257.73 377.998 252.73 375.939ZM172.153 231.547C173.035 232.429 172.741 236.546 172.741 236.546L170.976 248.015L169.214 255.97C168.97 252.212 168.479 248.474 167.742 244.78L166.928 222.801C167.088 222.902 167.263 222.975 167.447 223.018C168.036 223.018 167.742 218.019 167.742 218.019C167.742 218.019 168.085 217.126 168.513 215.717C169.656 219.14 171.052 221.373 172.741 221.842L173.035 225.665C173.035 225.665 169.212 227.429 172.741 227.429C172.946 227.422 173.149 227.392 173.347 227.339L173.035 228.9C173.035 228.9 171.271 230.664 172.153 231.547Z" fill="#D0CDE1"/>
<path d="M247.704 389.639C378.263 389.639 484.101 387.894 484.101 385.742C484.101 383.59 378.263 381.846 247.704 381.846C117.145 381.846 11.3062 383.59 11.3062 385.742C11.3062 387.894 117.145 389.639 247.704 389.639Z" fill="#3F3D56"/>
<path d="M330.441 405.876C474.055 405.876 590.477 401.369 590.477 395.81C590.477 390.25 474.055 385.743 330.441 385.743C186.828 385.743 70.4055 390.25 70.4055 395.81C70.4055 401.369 186.828 405.876 330.441 405.876Z" fill="#3F3D56"/>
<path d="M282.449 420.812C352.929 420.812 410.065 416.306 410.065 410.746C410.065 405.187 352.929 400.68 282.449 400.68C211.969 400.68 154.833 405.187 154.833 410.746C154.833 416.306 211.969 420.812 282.449 420.812Z" fill="#3F3D56"/>
<path d="M466.891 427.956C498.275 427.956 523.717 425.629 523.717 422.76C523.717 419.891 498.275 417.564 466.891 417.564C435.507 417.564 410.065 419.891 410.065 422.76C410.065 425.629 435.507 427.956 466.891 427.956Z" fill="#3F3D56"/>
<path d="M388.958 445.492C403.843 445.492 415.91 443.166 415.91 440.296C415.91 437.427 403.843 435.101 388.958 435.101C374.073 435.101 362.006 437.427 362.006 440.296C362.006 443.166 374.073 445.492 388.958 445.492Z" fill="#3F3D56"/>
<path d="M169.446 423.411C184.331 423.411 196.398 421.085 196.398 418.215C196.398 415.346 184.331 413.02 169.446 413.02C154.561 413.02 142.494 415.346 142.494 418.215C142.494 421.085 154.561 423.411 169.446 423.411Z" fill="#3F3D56"/>
<path d="M302.582 359.441L305.18 377.625L318.168 376.326L316.87 357.492L302.582 359.441Z" fill="#FFB8B8"/>
<path d="M240.885 359.441L238.287 377.625L225.298 376.326L226.597 357.492L240.885 359.441Z" fill="#FFB8B8"/>
<path d="M222.051 171.101C222.051 171.101 210.361 184.739 212.958 206.171C215.556 227.603 220.102 276.311 220.102 276.311L223.35 362.687L244.132 361.388L247.379 288.001L257.77 228.901L285.696 297.742C285.696 297.742 299.334 362.037 299.984 362.037C300.633 362.037 319.467 360.089 319.467 360.089L310.375 284.104C310.375 284.104 296.087 173.699 287.645 171.75C279.202 169.802 222.051 171.101 222.051 171.101Z" fill="#2F2E41"/>
<path d="M319.467 373.728C319.467 373.728 307.777 365.935 303.231 375.027C298.685 384.119 302.582 390.613 302.582 390.613C302.582 390.613 306.478 393.211 304.53 395.809C302.582 398.407 301.932 415.292 318.818 412.694C335.703 410.097 327.261 392.562 327.261 392.562L319.467 373.728Z" fill="#2F2E41"/>
<path d="M223.999 373.728C223.999 373.728 235.689 365.935 240.235 375.027C244.781 384.119 240.885 390.613 240.885 390.613C240.885 390.613 236.988 393.211 238.936 395.809C240.885 398.407 241.534 415.292 224.648 412.694C207.763 410.097 216.206 392.562 216.206 392.562L223.999 373.728Z" fill="#2F2E41"/>
<path d="M237.962 44.7843C237.962 44.7843 243.807 61.0204 239.261 70.1126C234.715 79.2049 246.405 89.596 246.405 89.596C246.405 89.596 276.929 74.0093 273.032 66.216C269.135 58.4227 262.641 48.0315 263.94 41.5371L237.962 44.7843Z" fill="#FFB8B8"/>
<path d="M249.327 50.9541C260.805 50.9541 270.11 41.6496 270.11 30.1719C270.11 18.6942 260.805 9.38965 249.327 9.38965C237.85 9.38965 228.545 18.6942 228.545 30.1719C228.545 41.6496 237.85 50.9541 249.327 50.9541Z" fill="#FFB8B8"/>
<path d="M234.39 69.1387C234.39 69.1387 255.243 86.4907 270.794 61.9033L286.995 71.087L295.438 169.802C295.438 169.802 248.029 197.079 225.298 173.699L228.545 82.1276L234.39 69.1387Z" fill="#D0CDE1"/>
<path d="M240.938 59.4189L211.66 78.8808L222.051 126.94L208.412 201.626L230.493 168.504L240.938 59.4189Z" fill="#575A89"/>
<path d="M266.815 54.001L274.006 58.7474L303.231 69.1385L298.685 149.67L311.025 201.625L293.49 210.717C293.49 210.717 290.242 186.038 270.11 173.699C249.977 161.36 262.222 57.6973 266.815 54.001Z" fill="#575A89"/>
<path d="M218.154 180.193L226.597 186.038C226.597 186.038 215.881 197.404 213.933 195.455C213.369 194.914 212.931 194.255 212.65 193.526C212.37 192.796 212.253 192.014 212.309 191.234L210.361 186.688L218.154 180.193Z" fill="#FFB8B8"/>
<path d="M274.279 178.93L271.408 183.44C271.408 183.44 262.966 187.337 264.914 189.935C266.862 192.533 283.098 198.378 286.346 192.533L289.593 186.688L274.279 178.93Z" fill="#FFB8B8"/>
<path d="M215.556 78.2314L211.01 78.8809L203.542 127.264C203.542 127.264 200.619 136.032 203.866 156.814C207.114 177.596 210.329 191.129 210.329 191.129L224.648 180.844L218.154 163.958L226.597 102.261L215.556 78.2314Z" fill="#575A89"/>
<path d="M292.84 67.8398L303.231 69.1387C303.231 69.1387 314.921 81.4782 316.869 94.467C318.818 107.456 318.168 144.474 318.168 144.474L288.294 191.884L272.058 180.194L294.788 139.928L283.748 91.8693L292.84 67.8398Z" fill="#575A89"/>
<path d="M269.145 11.3756C266.003 6.27231 261.084 2.51174 255.335 0.817672L251.112 4.19563L252.754 0.255622C251.373 0.0450181 249.976 -0.0357355 248.581 0.0144192L244.781 4.89905L246.354 0.181735C243.057 0.59141 239.881 1.6797 237.026 3.37798C234.171 5.07626 231.699 7.34768 229.765 10.049C224.93 17.0212 224.114 26.7172 228.87 33.7439C230.175 29.7319 231.76 25.9673 233.066 21.9553C234.092 22.0951 235.131 22.1002 236.159 21.9703L237.747 18.2642L238.191 21.8136C243.114 21.3846 250.416 20.443 255.083 19.5802L254.629 16.8573L257.345 19.12C258.775 18.7908 259.624 18.4923 259.553 18.2642C263.025 23.8601 266.464 27.4343 269.935 33.0301C271.253 25.137 273.579 18.5759 269.145 11.3756Z" fill="#2F2E41"/>
<path d="M267.995 32.3325C268.772 32.3325 269.401 31.0728 269.401 29.5188C269.401 27.9648 268.772 26.7051 267.995 26.7051C267.218 26.7051 266.588 27.9648 266.588 29.5188C266.588 31.0728 267.218 32.3325 267.995 32.3325Z" fill="#FFB8B8"/>
<path d="M492.783 396.836C493.382 417.331 481.406 424.842 466.378 425.281C466.029 425.291 465.681 425.297 465.335 425.3C464.638 425.305 463.948 425.293 463.265 425.265C449.673 424.7 438.914 417.486 438.357 398.425C437.781 378.7 462.265 353.07 464.101 351.175L464.105 351.173C464.175 351.101 464.21 351.064 464.21 351.064C464.21 351.064 492.185 376.342 492.783 396.836Z" fill="#60B6E9"/>
<path d="M465.296 422.174L474.842 407.977L465.315 423.702L465.335 425.299C464.638 425.305 463.948 425.293 463.265 425.264L463.738 404.729L463.725 404.571L463.743 404.54L463.788 402.6L453.333 387.421L463.776 401.148L463.813 401.558L464.17 386.043L455.14 370.306L464.196 383.317L464.101 351.174L464.102 351.067L464.105 351.173L464.704 376.506L472.934 366.215L464.731 378.688L464.911 392.566L472.484 379.022L464.939 394.606L465.039 402.323L476.052 383.456L465.072 405.015L465.296 422.174Z" fill="#3F3D56"/>
<path d="M144.681 366.311C145.28 386.806 133.304 394.317 118.276 394.756C117.927 394.767 117.579 394.773 117.233 394.775C116.536 394.78 115.846 394.769 115.163 394.74C101.571 394.176 90.8118 386.961 90.2552 367.901C89.6791 348.175 114.163 322.546 115.999 320.65L116.003 320.648C116.072 320.576 116.108 320.54 116.108 320.54C116.108 320.54 144.083 345.817 144.681 366.311Z" fill="#60B6E9"/>
<path d="M117.194 391.651L126.74 377.454L117.213 393.178L117.233 394.776C116.536 394.781 115.846 394.77 115.163 394.741L115.636 374.206L115.623 374.048L115.641 374.017L115.686 372.077L105.231 356.897L115.674 370.624L115.711 371.034L116.068 355.519L107.038 339.782L116.094 352.794L116 320.651L116 320.544L116.003 320.649L116.602 345.982L124.832 335.692L116.629 348.165L116.809 362.042L124.382 348.498L116.837 364.083L116.937 371.799L127.95 352.932L116.97 374.491L117.194 391.651Z" fill="#3F3D56"/>
<path d="M404.795 425.73C405.146 437.76 398.117 442.169 389.296 442.427C389.091 442.433 388.887 442.436 388.684 442.438C388.275 442.441 387.87 442.434 387.468 442.417C379.49 442.086 373.175 437.851 372.848 426.663C372.51 415.085 386.881 400.041 387.96 398.928L387.962 398.927C388.003 398.885 388.024 398.863 388.024 398.863C388.024 398.863 404.444 413.701 404.795 425.73Z" fill="#60B6E9"/>
<path d="M388.661 440.603L394.264 432.27L388.672 441.5L388.684 442.438C388.275 442.441 387.87 442.434 387.468 442.417L387.746 430.364L387.739 430.271L387.749 430.253L387.776 429.114L381.639 420.204L387.768 428.261L387.79 428.502L388 419.395L382.7 410.158L388.015 417.795L387.96 398.928L387.96 398.865L387.962 398.927L388.313 413.797L393.144 407.757L388.329 415.078L388.435 423.224L392.88 415.274L388.451 424.421L388.51 428.951L394.974 417.877L388.529 430.531L388.661 440.603Z" fill="#3F3D56"/>
<path d="M622.943 33.245C622.962 33.1858 622.981 33.1258 623 33.0664C622.992 33.0924 622.982 33.1175 622.974 33.1436L622.943 33.245Z" fill="#2F2E41"/>
<path d="M532.188 377.854L580.291 306.32L532.286 385.549L532.387 393.599C528.875 393.625 525.397 393.567 521.954 393.423L524.34 289.954L524.274 289.156L524.362 289.001L524.591 279.224L471.912 202.741L524.529 271.907L524.715 273.973L526.517 195.798L481.017 116.503L526.647 182.065L526.171 20.1064L526.172 19.5674L526.187 20.0975L529.208 147.743L570.675 95.8931L529.343 158.739L530.248 228.665L568.407 160.42L530.389 238.945L530.892 277.827L586.386 182.763L531.061 291.392L532.188 377.854Z" fill="#3F3D56"/>
<path d="M41.0158 375.082L73.7485 326.405L41.0827 380.318L41.151 385.796C38.7614 385.814 36.395 385.774 34.0518 385.676L35.6753 315.269L35.6308 314.725L35.6907 314.62L35.8461 307.967L0 255.923L35.8038 302.988L35.9309 304.394L37.1571 251.198L6.19573 197.24L37.2453 241.853L36.9212 131.645L36.9219 131.278L36.9325 131.639L38.9878 218.498L67.2054 183.216L39.0801 225.981L39.696 273.563L65.662 227.124L39.7914 280.558L40.1342 307.017L77.8958 242.328L40.249 316.247L41.0158 375.082Z" fill="#3F3D56"/>
</svg>
