<svg width="45" height="45" viewBox="0 0 45 45" fill="none" xmlns="http://www.w3.org/2000/svg">
<path d="M44.988 44.9993V44.9975H44.9992V28.494C44.9992 20.4204 43.2611 14.2012 33.8225 14.2012C29.2851 14.2012 26.2402 16.6911 24.9971 19.0517H24.8658V14.9549H15.9166V44.9975H25.2352V30.1215C25.2352 26.2047 25.9777 22.4173 30.8282 22.4173C35.6075 22.4173 35.6788 26.8872 35.6788 30.3727V44.9993H44.988Z" fill="white"/>
<path d="M0.742615 14.957H10.0724V44.9996H0.742615V14.957Z" fill="white"/>
<path d="M5.40365 0C2.42058 0 0 2.42058 0 5.40365C0 8.38672 2.42058 10.8579 5.40365 10.8579C8.38672 10.8579 10.8073 8.38672 10.8073 5.40365C10.8054 2.42058 8.38484 0 5.40365 0V0Z" fill="white"/>
</svg>
