<svg width="709" height="494" viewBox="0 0 709 494" fill="none" xmlns="http://www.w3.org/2000/svg">
<path d="M618.533 325.795C614.755 358.164 606.905 384.152 596.129 404.878C581.791 432.493 557.266 443.62 535.357 455.262C529.026 458.62 522.444 461.482 515.67 463.822C475.803 477.659 431.182 473.988 396.132 466.683C371.549 461.554 346.595 458.399 321.509 457.248C314.354 456.925 307.192 456.765 300.023 456.768C288.968 456.782 89.918 460.56 41.4547 362.444C29.4895 338.241 21.288 308.675 18.3415 272.636C10.0038 170.749 55.8288 103.832 114.938 60.0932C226.755 -22.6456 380.023 -19.1757 490.191 65.7425C563.574 122.307 632.283 207.913 618.533 325.795Z" fill="#3F3D56"/>
<path d="M596.129 404.877C581.791 432.493 562.284 450.788 540.375 462.431C534.044 465.789 527.462 468.651 520.689 470.991C480.821 484.827 436.201 481.157 401.151 473.851C376.568 468.723 351.614 465.568 326.528 464.417C319.373 464.094 312.211 463.934 305.042 463.936C293.987 463.951 282.934 464.362 271.885 465.17C200.071 470.446 89.918 460.56 41.4548 362.443L162.713 127.583L207.843 243.45L222.246 280.436L261.941 225.965L282.438 197.84L375.779 304.854L402.162 246.59L584.817 395.651L595.004 403.96L596.129 404.877Z" fill="#F2F2F2"/>
<path opacity="0.1" d="M145.507 202.859L164.147 161.995L189.956 221.499L167.732 178.484L145.507 202.859Z" fill="black"/>
<path opacity="0.1" d="M326.528 464.417C319.373 464.094 312.211 463.934 305.042 463.936L222.246 280.436L326.528 464.417Z" fill="black"/>
<path opacity="0.1" d="M261.942 225.965L282.437 210.028L375.636 317.565L281.004 225.8L261.942 225.965Z" fill="black"/>
<path opacity="0.1" d="M540.375 462.432C534.044 465.79 527.462 468.652 520.689 470.992L375.779 304.854L540.375 462.432Z" fill="black"/>
<path d="M274.551 75.2482C275.739 75.2482 276.702 74.2853 276.702 73.0975C276.702 71.9097 275.739 70.9468 274.551 70.9468C273.364 70.9468 272.401 71.9097 272.401 73.0975C272.401 74.2853 273.364 75.2482 274.551 75.2482Z" fill="#F2F2F2"/>
<path d="M215.048 149.091C216.236 149.091 217.199 148.128 217.199 146.94C217.199 145.752 216.236 144.789 215.048 144.789C213.86 144.789 212.897 145.752 212.897 146.94C212.897 148.128 213.86 149.091 215.048 149.091Z" fill="#F2F2F2"/>
<path d="M360.581 161.278C361.373 161.278 362.015 160.636 362.015 159.844C362.015 159.052 361.373 158.41 360.581 158.41C359.789 158.41 359.147 159.052 359.147 159.844C359.147 160.636 359.789 161.278 360.581 161.278Z" fill="#F2F2F2"/>
<path d="M59.478 193.539C60.2698 193.539 60.9118 192.897 60.9118 192.105C60.9118 191.313 60.2698 190.671 59.478 190.671C58.6861 190.671 58.0441 191.313 58.0441 192.105C58.0441 192.897 58.6861 193.539 59.478 193.539Z" fill="#F2F2F2"/>
<path d="M369.184 72.3808C369.976 72.3808 370.618 71.7389 370.618 70.947C370.618 70.1551 369.976 69.5132 369.184 69.5132C368.392 69.5132 367.75 70.1551 367.75 70.947C367.75 71.7389 368.392 72.3808 369.184 72.3808Z" fill="#F2F2F2"/>
<path d="M458.081 141.205C458.873 141.205 459.515 140.563 459.515 139.771C459.515 138.979 458.873 138.337 458.081 138.337C457.289 138.337 456.647 138.979 456.647 139.771C456.647 140.563 457.289 141.205 458.081 141.205Z" fill="#F2F2F2"/>
<path d="M545.544 250.175C546.336 250.175 546.978 249.533 546.978 248.741C546.978 247.95 546.336 247.308 545.544 247.308C544.752 247.308 544.11 247.95 544.11 248.741C544.11 249.533 544.752 250.175 545.544 250.175Z" fill="#F2F2F2"/>
<path d="M148.375 86.9054H146.396V84.9268H145.335V86.9054H143.357V87.9672H145.335V89.9451H146.396V87.9672H148.375V86.9054Z" fill="#F2F2F2"/>
<path d="M536.941 304.13H534.962V302.151H533.901V304.13H531.923V305.192H533.901V307.17H534.962V305.192H536.941V304.13Z" fill="#F2F2F2"/>
<path d="M709 440.157C709 452.035 534.391 493.208 319 493.208C103.609 493.208 -71 452.035 -71 440.157C-71 428.279 103.609 450.194 319 450.194C534.391 450.194 709 428.279 709 440.157Z" fill="#3F3D56"/>
<path opacity="0.1" d="M709 440.157C709 452.035 534.391 493.208 319 493.208C103.609 493.208 -71 452.035 -71 440.157C-71 428.279 103.609 450.194 319 450.194C534.391 450.194 709 428.279 709 440.157Z" fill="black"/>
<path d="M319 461.664C534.391 461.664 709 452.035 709 440.157C709 428.279 534.391 418.649 319 418.649C103.609 418.649 -71 428.279 -71 440.157C-71 452.035 103.609 461.664 319 461.664Z" fill="#3F3D56"/>
<path d="M336.206 410.046C336.206 433.803 325.614 427.252 312.548 427.252C299.482 427.252 288.89 433.803 288.89 410.046C288.89 386.29 312.548 341.223 312.548 341.223C312.548 341.223 336.206 386.29 336.206 410.046Z" fill="#FF6584"/>
<path opacity="0.1" d="M323.301 419.136C323.301 429.934 318.487 426.957 312.548 426.957C306.609 426.957 301.794 429.934 301.794 419.136C301.794 408.338 312.548 387.853 312.548 387.853C312.548 387.853 323.301 408.338 323.301 419.136Z" fill="black"/>
<path d="M339.073 433.704H286.022C282.459 433.704 279.57 436.593 279.57 440.156C279.57 443.72 282.459 446.609 286.022 446.609H339.073C342.637 446.609 345.526 443.72 345.526 440.156C345.526 436.593 342.637 433.704 339.073 433.704Z" fill="#2F2E41"/>
<path d="M339.073 420.8H286.022C282.459 420.8 279.57 423.689 279.57 427.252C279.57 430.815 282.459 433.704 286.022 433.704H339.073C342.637 433.704 345.526 430.815 345.526 427.252C345.526 423.689 342.637 420.8 339.073 420.8Z" fill="#2F2E41"/>
<path d="M27.2169 351.666C27.2169 391.342 52.1077 423.448 82.8679 423.448L27.2169 351.666Z" fill="#3F3D56"/>
<path d="M82.8679 423.448C82.8679 383.326 110.645 350.859 144.971 350.859L82.8679 423.448Z" fill="#60B6E9"/>
<path d="M47.3803 355.262C47.3803 392.95 63.2527 423.447 82.8679 423.447L47.3803 355.262Z" fill="#60B6E9"/>
<path d="M82.8679 423.447C82.8679 372.18 114.973 330.695 154.65 330.695L82.8679 423.447Z" fill="#3F3D56"/>
<path d="M71.1604 423.953C71.1604 423.953 79.0526 423.71 81.4311 422.016C83.8097 420.323 93.5714 418.3 94.1614 421.017C94.7515 423.733 106.022 434.526 97.1117 434.598C88.2014 434.67 76.4082 433.21 74.0342 431.764C71.6603 430.318 71.1604 423.953 71.1604 423.953Z" fill="#A8A8A8"/>
<path opacity="0.2" d="M97.2706 433.652C88.3603 433.724 76.5671 432.264 74.1931 430.818C72.3852 429.717 71.6648 425.765 71.4237 423.942C71.2568 423.95 71.1603 423.953 71.1603 423.953C71.1603 423.953 71.6601 430.318 74.0341 431.764C76.408 433.21 88.2013 434.67 97.1116 434.598C99.6836 434.577 100.572 433.662 100.523 432.307C100.166 433.126 99.185 433.637 97.2706 433.652Z" fill="black"/>
<path d="M446.201 377.856C446.201 405.12 463.304 427.181 484.441 427.181L446.201 377.856Z" fill="#3F3D56"/>
<path d="M484.441 427.182C484.441 399.612 503.528 377.303 527.116 377.303L484.441 427.182Z" fill="#60B6E9"/>
<path d="M460.056 380.328C460.056 406.226 470.963 427.181 484.441 427.181L460.056 380.328Z" fill="#60B6E9"/>
<path d="M484.441 427.181C484.441 391.953 506.503 363.447 533.766 363.447L484.441 427.181Z" fill="#3F3D56"/>
<path d="M476.396 427.529C476.396 427.529 481.82 427.362 483.454 426.198C485.088 425.034 491.796 423.645 492.202 425.511C492.607 427.378 500.352 434.794 494.229 434.844C488.106 434.893 480.002 433.89 478.371 432.897C476.74 431.903 476.396 427.529 476.396 427.529Z" fill="#A8A8A8"/>
<path opacity="0.2" d="M494.338 434.195C488.215 434.244 480.112 433.241 478.48 432.247C477.238 431.491 476.743 428.775 476.577 427.522C476.463 427.527 476.396 427.53 476.396 427.53C476.396 427.53 476.74 431.903 478.371 432.897C480.002 433.891 488.106 434.894 494.229 434.844C495.996 434.83 496.607 434.201 496.573 433.27C496.328 433.833 495.654 434.184 494.338 434.195Z" fill="black"/>
<path d="M569.785 443.553C569.785 443.553 577.929 442.313 580.18 440.261C582.432 438.209 592.289 434.893 593.24 437.632C594.191 440.372 607.215 450.141 597.996 451.33C588.776 452.52 576.379 452.484 573.739 451.283C571.099 450.083 569.785 443.553 569.785 443.553Z" fill="#A8A8A8"/>
<path opacity="0.2" d="M598.042 450.332C588.823 451.521 576.425 451.485 573.786 450.285C571.775 449.37 570.534 445.368 570.057 443.51C569.885 443.538 569.785 443.553 569.785 443.553C569.785 443.553 571.099 450.083 573.739 451.284C576.379 452.485 588.776 452.521 597.996 451.331C600.657 450.988 601.463 449.929 601.243 448.531C600.975 449.424 600.023 450.076 598.042 450.332Z" fill="black"/>
<path d="M369.37 442.964C369.37 442.964 376.243 441.918 378.143 440.186C380.043 438.454 388.363 435.655 389.165 437.967C389.968 440.279 400.96 448.524 393.179 449.528C385.398 450.532 374.935 450.501 372.707 449.488C370.479 448.475 369.37 442.964 369.37 442.964Z" fill="#A8A8A8"/>
<path opacity="0.2" d="M393.218 448.684C385.437 449.688 374.974 449.658 372.746 448.645C371.05 447.873 370.003 444.495 369.599 442.927C369.454 442.951 369.37 442.964 369.37 442.964C369.37 442.964 370.479 448.475 372.707 449.488C374.935 450.501 385.398 450.531 393.179 449.527C395.425 449.238 396.105 448.344 395.919 447.164C395.693 447.918 394.89 448.468 393.218 448.684Z" fill="black"/>
<path d="M16.7421 439.532C16.7421 439.532 22.0927 438.718 23.572 437.37C25.0513 436.021 31.5278 433.842 32.1527 435.642C32.7776 437.442 41.3346 443.86 35.2771 444.642C29.2197 445.424 21.0744 445.4 19.3401 444.611C17.6057 443.822 16.7421 439.532 16.7421 439.532Z" fill="#A8A8A8"/>
<path opacity="0.2" d="M35.3076 443.985C29.2501 444.767 21.1048 444.743 19.3705 443.954C18.0497 443.354 17.2345 440.724 16.9206 439.503C16.8076 439.522 16.7421 439.532 16.7421 439.532C16.7421 439.532 17.6057 443.822 19.3401 444.611C21.0744 445.4 29.2197 445.423 35.2771 444.642C37.0257 444.416 37.555 443.72 37.4104 442.802C37.2345 443.389 36.6091 443.817 35.3076 443.985Z" fill="black"/>
<path opacity="0.1" d="M204.076 431.092C204.076 452.757 173.877 446.056 136.902 446.056C99.9263 446.056 70.176 452.757 70.176 431.092C70.176 409.427 100.371 404.715 137.346 404.715C174.322 404.715 204.076 409.427 204.076 431.092Z" fill="black"/>
<path d="M204.076 425.758C204.076 447.424 173.877 440.722 136.902 440.722C99.9263 440.722 70.176 447.424 70.176 425.758C70.176 404.093 100.371 399.381 137.346 399.381C174.322 399.381 204.076 404.093 204.076 425.758Z" fill="#3F3D56"/>
<path d="M209.833 326.497C208.052 327.407 206.358 328.48 204.774 329.703C203.184 330.935 201.966 332.583 201.257 334.466C200.365 332.379 199.637 330.227 199.078 328.027C197.822 324.081 196.336 320.211 194.628 316.438C197.432 315.37 199.864 313.506 201.623 311.074C205.064 314.5 208.601 318.073 210.313 322.616C210.608 323.399 211.466 324.233 211.665 324.934C211.947 325.926 210.585 326.083 209.833 326.497Z" fill="#FFBFC5"/>
<path d="M242.213 410.007C245.971 411.194 249.476 413.07 252.549 415.538C252.781 415.683 252.949 415.91 253.019 416.174C253.097 416.769 252.302 417.012 251.725 417.178C250.028 417.667 248.944 419.261 247.695 420.508C246.445 421.756 244.438 422.734 242.98 421.738C242.597 421.445 242.263 421.093 241.99 420.695L235.832 412.657C237.92 411.49 240.115 410.526 242.388 409.779" fill="#F1F1F1"/>
<path d="M253.283 411.68C254.098 412.512 254.452 413.708 255.252 414.555C255.79 415.068 256.405 415.494 257.074 415.819L261.786 418.412C262.51 418.84 263.272 419.2 264.062 419.488C264.95 419.735 265.853 419.924 266.766 420.052C268.072 420.297 269.349 420.674 270.579 421.177C271.503 421.556 272.533 422.208 272.528 423.206C272.491 423.694 272.292 424.155 271.963 424.518C270.105 426.858 266.817 427.376 263.846 427.691C257.414 428.371 250.832 428.88 244.545 427.364C243.317 427.138 242.158 426.636 241.153 425.896C239.255 424.324 238.878 421.46 239.586 419.1C239.787 418.195 240.322 417.4 241.084 416.872C242.08 416.302 243.321 416.567 244.465 416.478C245.683 416.312 246.862 415.937 247.952 415.368C248.67 415.044 249.498 414.626 249.652 413.771C249.795 412.977 248.863 412.183 249.059 411.474C249.494 409.904 252.532 410.913 253.283 411.68Z" fill="#575A89"/>
<path opacity="0.1" d="M253.283 411.68C254.098 412.512 254.452 413.708 255.252 414.555C255.79 415.068 256.405 415.494 257.074 415.819L261.786 418.412C262.51 418.84 263.272 419.2 264.062 419.488C264.95 419.735 265.853 419.924 266.766 420.052C268.072 420.297 269.349 420.674 270.579 421.177C271.503 421.556 272.533 422.208 272.528 423.206C272.491 423.694 272.292 424.155 271.963 424.518C270.105 426.858 266.817 427.376 263.846 427.691C257.414 428.371 250.832 428.88 244.545 427.364C243.317 427.138 242.158 426.636 241.153 425.896C239.255 424.324 238.878 421.46 239.586 419.1C239.787 418.195 240.322 417.4 241.084 416.872C242.08 416.302 243.321 416.567 244.465 416.478C245.683 416.312 246.862 415.937 247.952 415.368C248.67 415.044 249.498 414.626 249.652 413.771C249.795 412.977 248.863 412.183 249.059 411.474C249.494 409.904 252.532 410.913 253.283 411.68Z" fill="black"/>
<path d="M264.214 437.415C264.875 437.85 265.534 438.285 266.193 438.721C266.8 439.045 267.3 439.537 267.632 440.14C268.061 441.149 267.48 442.29 266.835 443.176C264.898 445.824 262.254 447.873 259.206 449.087C258.15 449.527 257.033 449.805 255.893 449.913C255.633 449.954 255.366 449.92 255.123 449.816C254.52 449.498 254.607 448.635 254.599 447.953C254.578 445.973 253.083 444.366 251.74 442.912C250.396 441.458 249.026 439.667 249.334 437.711C249.613 436.56 250.203 435.507 251.039 434.669C251.784 433.735 252.657 432.911 253.633 432.222C255.031 431.307 255.524 431.8 256.839 432.638C259.309 434.212 261.768 435.804 264.214 437.415Z" fill="#F1F1F1"/>
<path d="M257.782 447.06C258.32 447.196 258.883 447.203 259.425 447.081C259.967 446.958 260.472 446.71 260.9 446.357C261.749 445.64 262.439 444.754 262.924 443.754C263.405 442.864 263.824 441.942 264.178 440.994C264.591 439.884 264.975 438.657 265.95 437.984C267.132 437.168 268.797 437.487 269.998 438.275C271.131 439.158 272.171 440.155 273.102 441.248C275.598 443.576 278.624 445.259 281.917 446.153C285.196 447.038 288.521 447.749 291.875 448.282C292.546 448.371 293.195 448.58 293.792 448.898C295.14 449.721 295.59 451.557 295.215 453.092C294.739 454.606 293.885 455.974 292.733 457.066C291.827 458.141 290.703 459.011 289.435 459.619C288.363 460.011 287.235 460.225 286.094 460.252C280.569 460.628 275.019 460.193 269.62 458.962C267.636 458.423 265.618 458.02 263.58 457.756C262.337 457.647 261.086 457.682 259.842 457.597C257.368 457.427 254.949 456.789 252.713 455.716C252.168 455.517 251.709 455.136 251.413 454.638C251.252 454.179 251.219 453.686 251.316 453.21L252.142 445.983C252.214 445.354 252.423 444.572 253.049 444.474C253.644 444.38 254.077 444.99 254.451 445.462C255.177 446.332 256.172 446.935 257.28 447.178C258.387 447.42 259.543 447.287 260.566 446.799" fill="#575A89"/>
<path d="M209.934 355.937C213.56 355.528 217.765 355.46 220.217 358.162C221.72 359.82 222.177 362.141 222.697 364.318C223.511 367.972 224.833 371.495 226.626 374.782C227.779 376.818 229.177 378.729 230.062 380.896C230.969 383.116 231.303 385.519 231.833 387.858C233.959 397.101 239.147 405.354 246.556 411.276C245.248 414.834 241.464 416.866 237.785 417.775C237.004 418.106 236.136 418.165 235.318 417.942C234.501 417.719 233.782 417.228 233.278 416.547C231.556 414.688 229.952 412.724 228.476 410.665C223.171 403.581 217.786 396.349 214.897 387.984C213.883 385.049 212.869 381.623 210.016 380.396C208.389 379.697 206.529 379.915 204.783 380.211C200.881 380.873 197.041 381.859 193.303 383.159C189.317 384.545 184.754 386.251 181.106 384.13C178.924 382.86 177.625 380.423 177.145 377.944C176.785 375.441 176.781 372.9 177.135 370.396C177.159 369.263 177.431 368.149 177.932 367.132C178.436 366.372 179.084 365.717 179.838 365.203C183.095 362.729 186.718 360.777 190.577 359.418C194.262 358.119 198.224 357.678 202.069 357.036C204.68 356.6 207.302 356.234 209.934 355.937Z" fill="#575A89"/>
<path opacity="0.1" d="M209.934 355.937C213.56 355.528 217.765 355.46 220.217 358.162C221.72 359.82 222.177 362.141 222.697 364.318C223.511 367.972 224.833 371.495 226.626 374.782C227.779 376.818 229.177 378.729 230.062 380.896C230.969 383.116 231.303 385.519 231.833 387.858C233.959 397.101 239.147 405.354 246.556 411.276C245.248 414.834 241.464 416.866 237.785 417.775C237.004 418.106 236.136 418.165 235.318 417.942C234.501 417.719 233.782 417.228 233.278 416.547C231.556 414.688 229.952 412.724 228.476 410.665C223.171 403.581 217.786 396.349 214.897 387.984C213.883 385.049 212.869 381.623 210.016 380.396C208.389 379.697 206.529 379.915 204.783 380.211C200.881 380.873 197.041 381.859 193.303 383.159C189.317 384.545 184.754 386.251 181.106 384.13C178.924 382.86 177.625 380.423 177.145 377.944C176.785 375.441 176.781 372.9 177.135 370.396C177.159 369.263 177.431 368.149 177.932 367.132C178.436 366.372 179.084 365.717 179.838 365.203C183.095 362.729 186.718 360.777 190.577 359.418C194.262 358.119 198.224 357.678 202.069 357.036C204.68 356.6 207.302 356.234 209.934 355.937Z" fill="black"/>
<path d="M230.691 382.083C232.373 382.932 233.918 384.029 235.273 385.338C236.672 386.986 237.734 388.893 238.401 390.949C238.699 391.635 238.882 392.366 238.942 393.112C238.969 393.485 238.911 393.86 238.772 394.208C238.633 394.556 238.417 394.867 238.14 395.119C237.468 395.55 236.672 395.745 235.877 395.672C234.826 395.68 233.775 395.653 232.724 395.59C232.086 395.585 231.453 395.465 230.857 395.236C230.311 394.957 229.819 394.584 229.402 394.135C227.554 392.418 226.041 390.374 224.938 388.106C224.177 386.428 222.924 382.559 224.122 380.813C225.356 379.013 229.386 381.343 230.691 382.083Z" fill="#FFBFC5"/>
<path d="M179.853 381.485C185.215 383.203 190.924 383.399 196.53 383.923C205.961 384.805 215.277 386.647 224.334 389.419C226.225 389.88 228.006 390.709 229.576 391.86C230.788 392.98 231.815 394.286 232.617 395.728C234.09 397.973 235.425 400.306 236.612 402.715C237.631 404.891 238.407 407.172 239.355 409.381C242.539 416.774 247.573 423.222 253.973 428.104C255.142 428.994 256.444 429.962 256.745 431.4C256.88 432.326 256.729 433.271 256.312 434.108C254.93 437.328 252.06 439.67 249.049 441.463C247.754 442.234 246.329 443.016 245.693 444.382C241.116 442.493 237.714 438.464 234.882 434.403C232.049 430.341 229.537 425.976 225.908 422.608C224.309 421.124 222.492 419.832 221.235 418.05C219.316 415.329 218.797 411.607 216.213 409.508C213.611 407.393 209.878 407.681 206.54 408.008C189.448 409.682 172.224 409.496 155.171 407.452C151.626 407.027 147.984 406.486 144.913 404.664C141.842 402.843 139.451 399.425 139.886 395.881C140.294 392.564 143.056 389.934 146.136 388.635C149.216 387.337 152.62 387.104 155.941 386.73C164.091 385.935 172.118 384.174 179.853 381.485Z" fill="#575A89"/>
<path d="M130.819 388.373C131.24 385.56 132.332 382.896 133.018 380.136C133.361 378.399 133.796 376.682 134.321 374.991C134.338 374.943 134.357 374.897 134.375 374.849C134.55 374.835 134.718 374.782 134.87 374.695C135.022 374.609 135.153 374.49 135.254 374.347C135.347 374.1 135.373 373.833 135.328 373.574C135.314 373.298 135.322 373.022 135.352 372.748C136.474 370.868 137.7 369.051 139.023 367.307C141.345 364.017 143.357 360.52 145.365 357.029C147.011 354.168 148.659 351.3 150.022 348.293C151.044 346.038 151.903 343.709 153.032 341.506C157.053 333.665 164.279 327.89 172.052 323.74C179.508 319.759 187.569 317.075 195.408 313.91C195.609 314.108 195.792 314.324 195.955 314.555C200.19 320.345 200.647 327.953 202.39 334.912C203.094 337.721 204.035 340.521 204.033 343.417C204.03 347.692 201.987 351.67 199.956 355.432C198.141 359.027 195.998 362.447 193.555 365.649C192.355 367.133 191.034 368.516 189.828 369.995C184.886 376.055 182.033 383.505 179.259 390.815C177.653 395.048 175.028 398.802 173.262 402.971C172.584 404.572 172.192 406.3 171.34 407.816C170.488 409.333 169.005 410.667 167.265 410.675C166.756 410.661 166.251 410.582 165.762 410.44C159.465 408.819 154.191 404.653 148.957 400.794C148.023 400.105 147.084 399.422 146.104 398.801C145.114 398.174 144.086 397.61 143.058 397.047C142.28 396.62 141.501 396.194 140.722 395.767C138.171 394.369 135.615 392.969 132.957 391.786C132.158 391.465 131.39 391.071 130.663 390.609C130.655 389.86 130.707 389.113 130.819 388.373Z" fill="#60B6E9"/>
<path d="M213.155 326.016C221.168 326.016 227.665 319.52 227.665 311.506C227.665 303.492 221.168 296.996 213.155 296.996C205.141 296.996 198.645 303.492 198.645 311.506C198.645 319.52 205.141 326.016 213.155 326.016Z" fill="#FFBFC5"/>
<path d="M222.915 304.717C223.266 305.33 223.797 305.82 224.437 306.121C225.076 306.421 225.792 306.518 226.488 306.397C227.181 306.258 227.835 305.974 228.41 305.564C228.985 305.154 229.466 304.627 229.823 304.018C230.529 302.793 230.951 301.425 231.059 300.016C231.172 299.475 231.176 298.916 231.073 298.373C230.969 297.83 230.759 297.313 230.454 296.852C229.913 296.328 229.292 295.893 228.614 295.565C227.679 294.981 226.894 294.186 226.322 293.244C225.916 292.573 225.625 291.84 225.259 291.146C223.939 288.639 221.372 286.601 218.54 286.693C217.18 286.738 215.884 287.255 214.543 287.49C210.045 288.279 205.155 285.899 200.982 287.755C199.955 288.255 199.001 288.891 198.145 289.647C196.97 290.616 195.841 291.637 194.757 292.709C193.816 293.512 193.104 294.548 192.692 295.715C192.125 297.843 193.473 300.222 192.616 302.251C192.322 302.832 191.972 303.383 191.57 303.894C190.623 305.283 191.652 310.703 191.547 312.381C191.426 313.202 191.635 314.037 192.128 314.705C192.812 315.468 193.963 315.535 194.988 315.547L196.872 315.57C197.153 315.589 197.436 315.56 197.708 315.484C198.077 315.319 198.402 315.069 198.656 314.753C200.222 313.102 200.562 307.704 202.837 307.723C203.183 307.704 203.526 307.793 203.819 307.978C204.231 308.28 204.353 308.835 204.645 309.255C204.979 309.649 205.431 309.926 205.935 310.043C206.438 310.161 206.966 310.113 207.44 309.908C208.38 309.473 209.198 308.813 209.82 307.985C210.44 307.159 211.192 306.44 212.045 305.859C213.258 305.152 214.629 304.844 215.809 304.045C216.795 303.376 217.356 302.407 218.242 301.669C218.596 301.364 219.04 301.184 219.507 301.158C219.973 301.132 220.436 301.261 220.821 301.525C222.217 302.253 222.279 303.448 222.915 304.717Z" fill="#2F2E41"/>
<path opacity="0.1" d="M189.39 330.282C192.778 329.801 196.232 330.078 199.5 331.094C200.591 331.343 201.577 331.928 202.318 332.766C202.74 333.401 203.014 334.122 203.121 334.877C203.788 338.347 203.36 341.938 201.898 345.154C201.793 345.315 201.724 345.496 201.695 345.686C201.666 345.875 201.677 346.069 201.728 346.253C201.876 346.477 202.068 346.667 202.293 346.813C202.497 347.009 202.657 347.245 202.762 347.508C202.867 347.77 202.916 348.051 202.905 348.334C202.893 348.616 202.822 348.893 202.696 349.145C202.569 349.398 202.391 349.621 202.172 349.8C201.902 349.997 201.547 350.169 201.494 350.5C201.436 350.861 201.775 351.143 202.038 351.396C202.425 351.774 202.71 352.244 202.867 352.761C203.024 353.278 203.049 353.827 202.938 354.356C202.796 354.782 202.698 355.222 202.647 355.668C202.702 356.214 202.862 356.744 203.12 357.228C203.561 358.321 203.712 359.509 203.558 360.676C203.417 361.228 203.404 361.805 203.518 362.363C203.677 362.732 203.893 363.074 204.158 363.376C205.201 364.783 205.43 367.136 203.917 368.018C204.565 368.35 205.092 368.876 205.427 369.522C205.761 370.169 205.885 370.903 205.782 371.624C206.685 371.141 207.78 371.758 208.533 372.453C209.285 373.147 210.054 373.997 211.077 374.048C211.79 374.084 212.541 373.714 213.192 374.007C214.182 374.454 214.148 376.058 215.121 376.539C215.975 376.961 217.163 376.273 217.891 376.887C218.144 377.101 218.273 377.432 218.517 377.656C219.069 378.161 219.931 377.946 220.679 377.916C221.566 377.941 222.431 378.198 223.189 378.66C223.946 379.123 224.569 379.775 224.997 380.552C225.832 382.118 226.336 383.839 226.477 385.608C226.669 386.57 226.649 387.561 226.421 388.514C226.299 388.989 226.04 389.416 225.676 389.744C225.312 390.072 224.859 390.286 224.375 390.359C215.47 390.935 206.683 388.8 198.013 386.689C195.466 386.069 192.876 385.343 190.752 383.807C188.822 382.411 187.403 380.437 186.019 378.499C183.467 374.926 180.899 371.325 179.073 367.332C176.723 362.193 175.675 356.57 174.647 351.013C174.294 349.524 174.168 347.989 174.274 346.461C174.582 344.674 175.266 342.973 176.279 341.47C177.504 339.476 178.859 337.565 180.335 335.75C182.579 332.877 185.802 330.931 189.39 330.282Z" fill="black"/>
<path d="M189.977 329.695C193.366 329.213 196.819 329.491 200.088 330.507C201.178 330.756 202.164 331.34 202.905 332.178C203.327 332.813 203.601 333.534 203.708 334.289C204.375 337.759 203.947 341.35 202.485 344.567C202.38 344.727 202.311 344.908 202.282 345.098C202.253 345.287 202.264 345.481 202.316 345.665C202.463 345.889 202.655 346.08 202.88 346.225C203.084 346.421 203.244 346.657 203.349 346.92C203.455 347.182 203.503 347.463 203.492 347.746C203.48 348.028 203.409 348.305 203.283 348.557C203.157 348.81 202.978 349.033 202.759 349.212C202.489 349.41 202.134 349.581 202.081 349.912C202.023 350.273 202.362 350.555 202.625 350.808C203.012 351.186 203.297 351.656 203.454 352.173C203.611 352.69 203.636 353.239 203.525 353.768C203.383 354.195 203.285 354.634 203.234 355.081C203.289 355.626 203.449 356.156 203.708 356.64C204.149 357.733 204.299 358.921 204.145 360.088C204.004 360.64 203.991 361.217 204.105 361.775C204.264 362.144 204.48 362.486 204.746 362.788C205.788 364.195 206.017 366.548 204.504 367.43C205.152 367.762 205.68 368.288 206.014 368.934C206.348 369.581 206.472 370.316 206.369 371.036C207.272 370.553 208.367 371.17 209.12 371.865C209.872 372.56 210.641 373.409 211.664 373.46C212.377 373.496 213.129 373.126 213.779 373.42C214.769 373.866 214.735 375.47 215.708 375.951C216.562 376.373 217.75 375.685 218.478 376.299C218.731 376.513 218.86 376.844 219.104 377.068C219.656 377.573 220.519 377.358 221.267 377.329C222.153 377.354 223.018 377.61 223.776 378.072C224.533 378.535 225.156 379.187 225.584 379.965C226.419 381.53 226.923 383.251 227.064 385.02C227.256 385.982 227.237 386.973 227.009 387.926C226.886 388.401 226.627 388.829 226.263 389.157C225.899 389.485 225.446 389.698 224.962 389.771C216.057 390.347 207.27 388.212 198.6 386.101C196.053 385.481 193.463 384.755 191.339 383.219C189.409 381.823 187.99 379.85 186.606 377.911C184.054 374.338 181.487 370.737 179.66 366.744C177.31 361.605 176.262 355.983 175.234 350.426C174.881 348.936 174.755 347.401 174.861 345.873C175.17 344.086 175.853 342.385 176.866 340.882C178.091 338.888 179.446 336.977 180.923 335.162C183.166 332.289 186.389 330.343 189.977 329.695Z" fill="#60B6E9"/>
</svg>
