<svg width="359" height="334" viewBox="0 0 359 334" fill="none" xmlns="http://www.w3.org/2000/svg">
<path fill-rule="evenodd" clip-rule="evenodd" d="M247.164 244.084C275.088 303.017 215.58 367.094 189.638 426.925C169.528 473.304 147.566 517.412 112.757 554.069C78.4875 590.159 35.0109 611.771 -8.62002 635.714C-66.3177 667.376 -119.933 731.389 -184.156 717.002C-247.406 702.833 -266.656 621.943 -304.621 569.407C-339.945 520.524 -393.128 479.468 -399.172 419.462C-405.193 359.679 -374.935 300.465 -336.348 254.407C-302.086 213.511 -244.326 206.988 -198.407 179.825C-153.163 153.06 -121.131 97.9626 -68.5982 96.0196C-15.8186 94.0675 20.0715 147.552 67.8909 169.975C127.647 197.996 218.905 184.441 247.164 244.084Z" fill="url(#paint0_linear)" fill-opacity="0.2"/>
<defs>
<linearGradient id="paint0_linear" x1="-164.187" y1="131.097" x2="50.4512" y2="635.601" gradientUnits="userSpaceOnUse">
<stop stop-color="#FFE259"/>
<stop offset="1" stop-color="#FFA751"/>
</linearGradient>
</defs>
</svg>
