<svg width="223" height="2139" viewBox="0 0 223 2139" fill="none" xmlns="http://www.w3.org/2000/svg">
<path fill-rule="evenodd" clip-rule="evenodd" d="M-5.26916 120.586L7.61818 209.532C20.5055 298.477 48.3199 477.066 112.851 668.201C179.421 860.033 284.747 1065.11 173.856 1196.3C62.9649 1327.49 -262.104 1385.49 -334.239 1529.93C-406.374 1674.36 -221.496 1906.62 -131.097 2022.05L-38.6579 2138.18L-979 1816.85L-953.131 1741.15C-927.263 1665.45 -875.525 1514.04 -823.788 1362.64C-772.051 1211.23 -720.314 1059.83 -668.576 908.426C-616.839 757.021 -565.102 605.617 -513.364 454.213C-461.627 302.809 -409.89 151.404 -384.021 75.7021L-358.152 7.16994e-06L-5.26916 120.586Z" fill="url(#paint0_linear)" fill-opacity="0.3"/>
<defs>
<linearGradient id="paint0_linear" x1="112.019" y1="160.665" x2="-508.829" y2="1977.52" gradientUnits="userSpaceOnUse">
<stop stop-color="#72C6EF"/>
<stop offset="1" stop-color="#004E8F"/>
</linearGradient>
</defs>
</svg>
