<svg width="1503" height="1241" viewBox="0 0 1503 1241" fill="none" xmlns="http://www.w3.org/2000/svg">
<path opacity="0.1" d="M154.298 617.378C202.514 671.86 187.161 755.901 159.803 823.933C150.657 846.739 140.252 870.892 145.153 894.575C151.183 923.535 178.907 943.486 207.641 953.341C260.044 971.286 321.798 963.143 368.421 932.123C408.712 905.322 436.843 863.684 477.885 837.971C546.507 794.941 636.032 805.17 712.847 828.356C767.208 844.728 826.756 866.689 879.486 843.83C916.589 827.75 941.446 792.04 954.436 754.891C960.707 736.954 965.052 717.657 977.641 703.048C985.124 694.353 995.059 687.956 1005.26 682.448C1098.46 632.235 1218.8 650.237 1309.12 595.225C1370.14 558.109 1407.82 492.027 1423.28 424.382C1438.73 356.737 1434.44 286.893 1427.77 218.419C1423.03 169.781 1415.65 117.919 1382.12 81.9568C1346.63 43.8769 1287.44 32.1167 1234.61 42.457C1181.79 52.7973 1134.56 82.2796 1093.24 116.256C1041.64 158.77 994.183 210.832 929.772 230.319C885.906 243.599 839.193 240.025 793.526 240.314C717.177 240.814 641.143 252.515 565.602 264.928C493.278 276.813 420.455 289.535 352.033 315.922C303.621 334.589 265.325 365.906 219.772 388.767C190.079 403.668 157.373 409.088 129.376 427.516C94.9138 450.265 63.8731 488.303 74.243 530.398C84.1331 570.463 128.726 588.472 154.298 617.378Z" fill="#00B0FF"/>
<path d="M1023.77 499.537C1017.38 482.862 1000.88 443.669 990.018 451.445C976.294 461.273 1003.74 504.691 1003.74 504.691C1004.52 512.661 989.089 529.247 980.819 537.517C980.819 536.857 980.819 536.483 980.819 536.483C980.74 536.797 980.619 537.1 980.46 537.382L979.77 537.007C979.586 537.668 979.253 538.278 978.797 538.79C978.797 537.667 978.722 537.007 978.722 537.007C977.134 543.734 949.417 552.259 949.417 552.259C949.417 552.259 948.668 552.259 947.379 552.259C939.678 552.259 919.632 550.521 910.343 535.659C905.539 527.608 899.393 520.438 892.17 514.459C889.697 512.521 886.692 511.382 883.555 511.193C857.891 509.545 837.111 496.556 832.961 493.784L832.197 493.26L832.032 493.739C831.058 492.346 830.114 490.862 829.23 489.334L828.781 488.51C834.993 485.392 840.22 480.614 843.883 474.706C847.546 468.798 849.501 461.991 849.531 455.04C849.531 454.786 849.531 454.516 849.531 454.261C851.789 450.359 852.977 445.93 852.977 441.422V436.927L858.835 431.713C861.517 429.331 864.288 426.814 865.652 423.533C866.199 422.205 866.445 420.772 866.371 419.338C866.502 418.109 866.318 416.867 865.836 415.729C865.353 414.592 864.589 413.596 863.614 412.836C859.119 409.734 851.628 412.836 848.377 408.521C846.879 406.573 847.149 403.921 846.415 401.629C844.916 396.97 839.523 394.453 834.534 394.378C829.545 394.303 824.766 396.116 819.971 397.479C809.899 400.339 799.387 401.324 788.958 400.386C786.137 399.884 783.242 399.986 780.463 400.685C778.766 401.387 777.258 402.478 776.061 403.87C774.864 405.263 774.011 406.918 773.572 408.701C773.201 410.04 772.98 411.417 772.912 412.806C768.733 417.52 766.42 423.6 766.41 429.9V441.422C766.419 447.572 768.624 453.517 772.628 458.187C773.1 463.608 774.749 468.861 777.458 473.58C780.167 478.299 783.871 482.372 788.314 485.514C788.314 485.813 788.314 486.118 788.314 486.428L788.509 486.548C788.267 490.119 787.715 493.663 786.861 497.14V496.376C786.861 496.376 765.886 507.538 743.413 507.807H740.941C736.508 507.658 732.197 509.274 728.955 512.302C722.303 518.564 710.647 528.468 703.485 528.468C701.987 528.468 664.172 535.854 657.91 537.082L646.209 525.621L645.849 526.295L645.16 525.621C643.881 525.72 642.609 525.905 641.355 526.175C635.362 519.074 623.376 502.563 620.604 480.405C620.604 480.405 646.479 450.935 636.965 423.473C628.845 400.071 606.476 450.231 600.124 465.348C599.013 467.986 598.875 470.933 599.734 473.663L620.754 541.412C618.753 546.662 618.179 552.349 619.091 557.892H618.852L634.163 577.534C634.163 577.534 645.684 582.448 663.708 582.358C676.918 582.38 690.009 579.867 702.272 574.957H705.823L705.148 575.212H723.382L734.978 610.285C734.588 613.476 728.985 658.018 724.49 667.981C723.157 671.31 722.554 674.886 722.722 678.468C722.958 685.351 724.081 692.174 726.063 698.769L736.221 698.395L735.832 699.189C727.232 716.822 712.864 748.24 704.369 777.605L689.582 807.569L700.669 941.958H701.118L701.972 942.093C703.171 942.273 704.969 942.543 707.336 942.842L706.467 944.341L682.031 984.792C682.031 984.792 664.607 1020.46 703.156 1013.74C703.156 1013.74 717.404 1009.6 723.217 985.272L748.567 961.495C748.567 961.495 749.75 945.704 742.574 939.397C742.124 932.1 740.986 910.796 742.739 905.672C744.851 899.469 733.749 828.139 733.749 828.139C733.749 828.139 773.871 744.914 798.172 742.846C799.954 742.721 801.742 742.956 803.431 743.536C823.402 750.038 847.598 798.325 854.715 813.352L855.044 814.041V814.176L855.314 814.76V814.925L855.554 815.435V815.569L855.764 816.034V816.139L855.943 816.513V816.663L856.078 816.948V817.068L856.168 817.277V817.397V817.532L856.243 817.712L859.404 911.275L859.719 911.44H859.869L859.599 913.373L858.221 923.036C858.221 923.036 875.645 959.742 874.581 964.387C873.517 969.031 886.192 987.654 904.141 982.485C922.089 977.316 911.407 948.176 911.407 948.176L894.118 912.549L893.354 910.961C895.076 909.904 896.7 908.695 898.208 907.35C898.208 907.35 892.934 869.101 898.208 860.83C903.482 852.56 905.07 814.82 905.07 814.82C905.07 814.82 901.369 788.976 895.032 777.605L868.483 682.843C876.439 690.244 882.626 693.136 887.795 692.941H888.649C890.921 692.984 893.164 692.426 895.152 691.323C896.218 690.721 897.222 690.013 898.148 689.21C898.325 689.058 898.49 688.893 898.642 688.716C906.028 682.513 890.192 658.213 881.218 643.77C872.573 629.836 884.484 591.977 885.383 589.16C886.183 588.573 887.041 588.071 887.945 587.662C889.803 586.866 891.797 586.433 893.818 586.388C902.418 586.688 912.995 591.632 926.09 594.119C935.19 595.667 944.412 596.384 953.642 596.262H954.181C957.852 596.262 961.178 596.187 963.874 596.082C966.335 595.985 968.742 595.335 970.916 594.179C972.78 593.092 974.467 591.728 975.92 590.134L998.903 564.17L998.303 564.455C999.417 561.51 999.417 558.26 998.303 555.315L1022.59 513.366C1023.82 511.299 1024.56 508.981 1024.76 506.587C1024.97 504.192 1024.63 501.782 1023.77 499.537Z" fill="url(#paint0_linear)"/>
<path d="M750.919 957.944L726.453 981.391C720.85 1005.36 707.081 1009.42 707.081 1009.42C669.881 1016.05 686.691 980.957 686.691 980.957L710.287 941.03L713.194 936.101C713.194 936.101 730.019 931.007 741.225 934.063C742.64 934.451 743.947 935.158 745.046 936.131C752.073 942.228 750.919 957.944 750.919 957.944Z" fill="#444176"/>
<path d="M901.773 978.844C884.439 983.938 872.214 965.6 873.307 961.001C874.401 956.401 857.471 920.279 857.471 920.279L858.79 910.751L860.018 901.926L888.484 903.964L891.166 909.597L907.856 944.73C907.856 944.73 919.108 973.751 901.773 978.844Z" fill="#444176"/>
<path opacity="0.1" d="M745.315 940.116C742.634 944.715 720.895 942.393 710.302 940.955L713.209 936.026C713.209 936.026 730.034 930.932 741.24 933.988C742.655 934.376 743.962 935.083 745.061 936.056C745.21 938.543 745.315 940.116 745.315 940.116Z" fill="black"/>
<path opacity="0.1" d="M891.196 909.567C876.618 919.276 861.097 911.934 858.76 910.721L859.988 901.896L888.454 903.934L891.196 909.567Z" fill="black"/>
<path d="M895.151 858.568C890.057 866.718 895.151 904.443 895.151 904.443C878.326 919.74 858.46 908.519 858.46 908.519L855.464 816.274C855.464 816.274 822.338 740.329 798.891 742.367C775.444 744.405 736.716 826.462 736.716 826.462C736.716 826.462 747.413 896.788 745.375 902.87C743.338 908.953 745.375 938.543 745.375 938.543C741.809 944.655 704.609 938.543 704.609 938.543L693.912 806.026L708.115 776.451C716.28 747.506 730.153 716.523 738.453 699.144C742.574 690.499 745.33 685.225 745.33 685.225L772.448 679.577L860.468 661.329L892.095 776.451C898.208 787.658 901.773 813.142 901.773 813.142C901.773 813.142 900.245 850.418 895.151 858.568Z" fill="#565387"/>
<g opacity="0.1">
<path opacity="0.1" d="M866.61 908.518L863.614 816.274C863.614 816.274 830.488 740.329 807.041 742.367C805.993 742.469 804.961 742.701 803.97 743.056C826.833 750.652 855.463 816.274 855.463 816.274L858.46 908.518C864.711 911.703 871.757 912.989 878.731 912.219C874.504 911.711 870.4 910.458 866.61 908.518Z" fill="black"/>
<path opacity="0.1" d="M712.699 938.587L702.002 806.071L716.265 776.451C724.43 747.506 738.303 716.523 746.604 699.144C750.724 690.499 753.48 685.225 753.48 685.225L780.598 679.577L860.947 662.872L860.512 661.269L772.448 679.577L745.33 685.225C745.33 685.225 742.573 690.499 738.453 699.144C730.123 716.523 716.28 747.566 708.115 776.451L693.852 806.011L704.549 938.528C704.549 938.528 724.865 941.869 736.91 941.134C728.802 940.694 720.721 939.844 712.699 938.587Z" fill="black"/>
</g>
<path d="M650.719 528.063C650.719 528.063 621.668 529.561 625.743 560.17L633.894 561.188L646.119 547.944L652.232 536.738V534.191L650.719 528.063Z" fill="#CED2DF"/>
<path opacity="0.1" d="M650.719 528.063C650.719 528.063 621.668 529.561 625.743 560.17L633.894 561.188L646.119 547.944L652.232 536.738V534.191L650.719 528.063Z" fill="black"/>
<path d="M973.897 539.27C973.897 539.27 997.869 552.004 991.741 566.792L984.1 569.788L973.912 564.185L972.414 550.941L973.433 541.772L973.897 539.27Z" fill="#CED2DF"/>
<path opacity="0.1" d="M973.897 539.27C973.897 539.27 997.869 552.004 991.741 566.792L984.1 569.788L973.912 564.185L972.414 550.941L973.433 541.772L973.897 539.27Z" fill="black"/>
<path d="M819.986 407.772H799.595C782.145 407.772 767.998 421.918 767.998 439.369C767.998 456.82 782.145 470.966 799.595 470.966H819.986C837.437 470.966 851.583 456.82 851.583 439.369C851.583 421.918 837.437 407.772 819.986 407.772Z" fill="#88455E"/>
<path d="M650.524 532.393L632.68 560.859L631.182 555.795L606.941 476.809C606.112 474.117 606.244 471.22 607.315 468.614C613.443 453.722 635.047 404.191 642.883 427.338C652.052 454.306 627.077 483.401 627.077 483.401C629.923 507.013 643.182 524.123 648.396 530.056C649.715 531.599 650.524 532.393 650.524 532.393Z" fill="#EC8C9C"/>
<path d="M970.077 544.618C970.077 544.618 998.109 518.115 997.045 507.418C997.045 507.418 970.542 464.614 983.801 454.98C994.288 447.309 1010.21 485.963 1016.39 502.399C1017.2 504.588 1017.53 506.929 1017.35 509.258C1017.16 511.587 1016.47 513.848 1015.32 515.882L981.823 575.197L970.077 544.618Z" fill="#EC8C9C"/>
<path d="M788.628 470.726C788.628 470.726 793.722 503.343 778.95 515.583C764.178 527.823 821.26 527.748 821.26 527.748L841.65 508.886C841.65 508.886 818.203 486.967 825.335 470.667L788.628 470.726Z" fill="#EC8C9C"/>
<path opacity="0.1" d="M787.61 507.927C787.61 507.927 809.529 524.243 831.433 505.89L867.105 579.796L865.067 670.004C865.067 670.004 791.161 708.223 760.582 684.791C730.004 661.359 755.488 649.119 755.488 649.119L748.357 579.811L755.998 534.955C755.998 534.955 769.751 513.545 770.785 513.545C771.819 513.545 787.61 507.927 787.61 507.927Z" fill="black"/>
<path d="M787.61 506.908C787.61 506.908 809.529 523.254 831.448 504.871L867.12 578.778L865.083 668.985C865.083 668.985 791.176 707.204 760.597 683.772C730.019 660.34 755.503 648.1 755.503 648.1L748.372 578.793L756.013 533.936C756.013 533.936 769.766 512.527 770.8 512.527C771.834 512.527 787.61 506.908 787.61 506.908Z" fill="#EBF1F6"/>
<path opacity="0.1" d="M787.61 499.282C787.61 499.282 766.83 511.118 744.267 510.534C742.15 510.468 740.042 510.823 738.064 511.579C736.086 512.335 734.278 513.477 732.745 514.939C726.318 521.111 715.066 530.88 708.1 530.88C706.602 530.88 663.243 539.539 663.243 539.539L651.782 528.078C651.782 528.078 634.703 561.458 626.552 559.93L641.34 579.302C641.34 579.302 669.371 591.527 706.062 576.755H727.472L738.678 611.409C738.678 611.409 733.075 658.302 728.49 668.49C723.906 678.678 729.989 698.559 729.989 698.559L770.246 697.061C770.246 697.061 772.283 677.18 775.339 674.588C778.396 671.996 764.642 584.381 764.642 584.381C764.642 584.381 755.473 534.94 789.108 517.111L787.61 499.282Z" fill="black"/>
<path opacity="0.1" d="M772.433 679.637C770.951 685.683 769.894 691.826 769.272 698.02L738.454 699.189C742.574 690.544 745.33 685.27 745.33 685.27L772.433 679.637Z" fill="black"/>
<path opacity="0.1" d="M650.523 532.393L632.68 560.859L631.182 555.795C637.729 549.293 645.4 535.704 648.456 530.041C649.714 531.599 650.523 532.393 650.523 532.393Z" fill="black"/>
<path d="M787.61 499.282C787.61 499.282 765.796 511.118 743.248 510.534C741.131 510.468 739.023 510.823 737.045 511.579C735.067 512.335 733.259 513.477 731.726 514.939C725.299 521.111 714.047 530.88 707.081 530.88C705.583 530.88 662.224 539.539 662.224 539.539L650.718 528.063C650.718 528.063 633.639 561.443 625.488 559.915L640.276 579.287C640.276 579.287 668.307 591.512 704.998 576.74H726.408L737.614 611.379C737.614 611.379 732.011 658.273 727.427 668.46C722.842 678.648 728.925 698.529 728.925 698.529L769.182 697.031C769.182 697.031 771.219 677.15 774.275 674.558C777.332 671.966 763.578 584.351 763.578 584.351C763.578 584.351 754.409 534.91 788.044 517.081L787.61 499.282Z" fill="#CED2DF"/>
<path opacity="0.1" d="M831.448 496.196C831.448 496.196 852.243 512.047 880.004 513.875C883.042 514.065 885.946 515.191 888.32 517.096C895.321 523.036 901.255 530.13 905.864 538.071C917.07 556.424 944.592 554.387 944.592 554.387C944.592 554.387 971.35 545.982 972.879 539.404C972.879 539.404 973.643 575.361 990.468 566.672L968.339 592.171C966.944 593.782 965.234 595.09 963.315 596.015C961.395 596.94 959.306 597.463 957.177 597.55C948.862 597.88 934.419 597.984 922.224 595.617C903.871 592.052 890.627 583.392 880.948 591.033C880.948 591.033 868.214 630.78 876.873 645.058C885.533 659.336 900.845 683.278 893.698 689.405C886.552 695.533 877.892 695.009 863.629 680.236C849.366 665.464 847.823 640.489 847.823 640.489L851.389 576.275C851.389 576.275 837.635 527.853 824.421 518.175L831.448 496.196Z" fill="black"/>
<path opacity="0.1" d="M992.49 566.028L970.301 591.632C968.827 593.331 967.002 594.69 964.953 595.617C963.131 596.44 961.167 596.902 959.17 596.981C950.855 597.325 936.412 597.43 924.217 595.048C907.047 591.707 894.342 583.916 884.844 589.175C884.17 589.546 883.529 589.972 882.926 590.448C882.926 590.448 870.191 630.196 878.851 644.474C887.51 658.752 902.822 682.693 895.676 688.821C894.479 689.873 893.137 690.746 891.69 691.413C885.278 694.304 877.323 691.802 865.607 679.652C851.344 664.865 849.8 639.904 849.8 639.904L853.366 575.691C853.366 575.691 839.613 527.269 826.398 517.59L832.226 496.69C836.242 499.417 856.288 512.227 881.068 513.86C884.106 514.051 887.01 515.176 889.383 517.081C896.384 523.022 902.317 530.116 906.927 538.056C918.134 556.409 945.656 554.372 945.656 554.372C952.254 552.267 958.697 549.703 964.938 546.701C968.848 544.783 972.294 542.685 973.927 540.708C974.386 540.191 974.719 539.576 974.901 538.91C974.901 538.91 975.68 574.687 992.49 566.028Z" fill="black"/>
<path d="M991.472 566.537L969.298 592.172C968.079 593.578 966.617 594.756 964.983 595.647C962.889 596.784 960.562 597.425 958.181 597.52C949.866 597.865 935.424 597.97 923.228 595.587C906.673 592.366 894.253 584.995 884.889 589.205C883.819 589.671 882.812 590.27 881.892 590.988C881.892 590.988 869.158 630.735 877.817 645.013C886.477 659.291 901.789 683.233 894.642 689.36C893.718 690.156 892.714 690.854 891.646 691.443C885.054 695.084 876.903 692.941 864.543 680.191C850.28 665.404 848.737 640.444 848.737 640.444L852.303 576.231C852.303 576.231 838.549 527.808 825.335 518.13L831.448 496.211L832.182 496.721C836.197 499.447 856.243 512.257 881.023 513.89C884.061 514.081 886.965 515.206 889.339 517.111C896.339 523.052 902.273 530.146 906.883 538.086C918.089 556.439 945.611 554.402 945.611 554.402C952.209 552.297 958.652 549.734 964.893 546.731C969.523 544.364 973.298 541.772 973.883 539.405C973.883 539.405 973.883 539.869 973.883 540.693C974.332 546.881 976.579 574.193 991.472 566.537Z" fill="#CED2DF"/>
<path opacity="0.1" d="M825.784 471.491H788.329C789.153 477.446 789.389 483.468 789.033 489.469C794.751 493.493 801.456 495.883 808.43 496.385C815.403 496.886 822.381 495.48 828.616 492.316C825.02 485.664 822.833 478.113 825.784 471.491Z" fill="black"/>
<path d="M811.057 495.687C831.602 495.687 848.258 479.031 848.258 458.486C848.258 437.941 831.602 421.286 811.057 421.286C790.512 421.286 773.856 437.941 773.856 458.486C773.856 479.031 790.512 495.687 811.057 495.687Z" fill="#EC8C9C"/>
<path opacity="0.1" d="M803.326 451.864C807.476 451.37 811.626 449.901 815.716 450.725C819.432 451.475 822.593 454.037 826.308 454.816C833.47 456.314 840.122 451.04 845.531 446.126L857.217 435.489C859.808 433.137 862.475 430.664 863.809 427.428C865.142 424.192 864.678 419.937 861.831 417.9C857.561 414.903 850.205 417.9 847.119 413.645C845.725 411.727 845.935 409.15 845.216 406.858C843.718 402.273 838.564 399.771 833.74 399.711C828.915 399.652 824.301 401.419 819.686 402.708C809.965 405.528 799.801 406.498 789.722 405.569C787.002 405.071 784.206 405.169 781.527 405.854C779.878 406.558 778.417 407.639 777.262 409.01C776.106 410.382 775.289 412.005 774.875 413.75C772.568 421.9 776.508 435.039 780.463 442.336C784.419 449.632 795.43 452.838 803.326 451.864Z" fill="black"/>
<path d="M803.326 450.845C807.476 450.351 811.626 448.883 815.716 449.707C819.432 450.456 822.593 453.018 826.308 453.797C833.47 455.295 840.122 450.021 845.531 445.107L857.217 434.47C859.808 432.118 862.475 429.646 863.809 426.41C865.142 423.173 864.678 418.918 861.831 416.881C857.561 413.884 850.205 416.881 847.119 412.626C845.725 410.708 845.935 408.131 845.216 405.839C843.718 401.255 838.564 398.753 833.74 398.693C828.915 398.633 824.301 400.401 819.686 401.689C809.965 404.509 799.801 405.48 789.722 404.551C787.002 404.053 784.206 404.15 781.527 404.835C779.878 405.539 778.417 406.62 777.262 407.992C776.106 409.363 775.289 410.986 774.875 412.731C772.568 420.881 776.508 434.02 780.463 441.317C784.419 448.613 795.43 451.744 803.326 450.845Z" fill="#88455E"/>
<path opacity="0.1" d="M738.438 611.648C738.438 611.648 746.589 612.667 750.664 617.761C754.739 622.855 761.87 624.383 761.87 624.383" fill="black"/>
<path opacity="0.1" d="M665.041 544.364C665.041 544.364 671.693 559.211 667.588 560.709C663.483 562.207 665.041 572.935 665.041 572.935" fill="black"/>
<g opacity="0.1">
<path opacity="0.1" d="M667.334 539.27C667.334 539.27 710.647 530.61 712.145 530.61C719.127 530.61 730.363 520.842 736.791 514.669C738.745 512.796 741.15 511.46 743.772 510.789H743.218C741.101 510.722 738.993 511.078 737.015 511.834C735.037 512.59 733.229 513.732 731.697 515.193C725.269 521.366 714.018 531.134 707.051 531.134C705.838 531.134 678.121 536.633 666.869 538.865L667.334 539.27Z" fill="black"/>
<path opacity="0.1" d="M787.67 501.425V499.522C777.25 504.835 766.038 508.422 754.469 510.145C765.947 509.123 777.171 506.175 787.67 501.425Z" fill="black"/>
<path opacity="0.1" d="M734.109 698.275C734.109 698.275 727.996 678.393 732.61 668.206C737.225 658.018 742.798 611.124 742.798 611.124L731.622 576.47H710.152L708.849 576.98H726.453L737.615 611.648C737.615 611.648 732.011 658.542 727.427 668.73C722.842 678.918 728.925 698.799 728.925 698.799L769.182 697.301V696.986L734.109 698.275Z" fill="black"/>
</g>
<g opacity="0.1">
<path opacity="0.1" d="M895.151 681.21C894.227 682.006 893.223 682.703 892.155 683.292C885.563 686.933 877.412 684.791 865.052 672.041C853.726 660.31 850.43 642.077 849.546 635.17L849.246 640.444C849.246 640.444 850.744 665.419 865.052 680.191C877.412 692.986 885.563 695.083 892.155 691.443C893.223 690.854 894.227 690.156 895.151 689.36C897.294 687.517 897.413 684.057 896.29 679.742C896.011 680.302 895.624 680.801 895.151 681.21Z" fill="black"/>
<path opacity="0.1" d="M984.265 567.301L969.837 583.976C968.618 585.383 967.156 586.56 965.522 587.452C963.428 588.589 961.101 589.23 958.72 589.325C950.405 589.669 935.962 589.774 923.767 587.392C907.212 584.171 894.792 576.8 885.428 581.01C884.358 581.475 883.351 582.074 882.431 582.792C882.431 582.792 874.206 608.472 875.465 625.956C876.439 609.61 882.431 590.943 882.431 590.943C883.351 590.225 884.358 589.626 885.428 589.16C894.807 584.95 907.212 592.321 923.767 595.542C935.962 597.909 950.39 597.805 958.72 597.475C961.101 597.38 963.428 596.739 965.522 595.602C967.153 594.724 968.614 593.562 969.837 592.171L992.026 566.567C990.877 567.282 989.578 567.72 988.232 567.848C986.885 567.975 985.527 567.788 984.265 567.301Z" fill="black"/>
</g>
<path d="M332.708 750.817C332.886 750.989 333.114 751.1 333.36 751.132C333.606 751.165 333.855 751.117 334.071 750.997C333.611 751.005 333.151 750.944 332.708 750.817Z" fill="url(#paint1_linear)"/>
<path d="M485.391 502.638C482.694 501.859 478.844 500.586 474.214 498.968C479.025 492.778 482.545 485.687 484.567 478.113L484.177 478.263C484.312 477.798 484.447 477.349 484.567 476.869C475.682 480.48 465.854 474.367 459.592 466.517C453.329 458.666 449.104 448.928 442.242 441.706C439.383 438.833 436.307 436.184 433.043 433.781C431.021 432.282 428.848 430.59 426.376 430.515C422.376 430.395 419.245 434.32 415.394 435.474C412.861 436.044 410.223 435.946 407.739 435.189C397.805 432.912 388.262 428.702 378.119 427.593C372.692 426.923 367.184 427.544 362.043 429.406C356.949 431.339 354.627 435.189 350.507 438.275C346.012 441.586 337.233 441.511 332.004 442.096C325.659 442.82 319.27 443.086 312.887 442.89C309.219 442.572 305.525 442.708 301.89 443.294C294.294 444.957 288.196 450.995 282.503 456.778C280.949 458.086 279.831 459.837 279.297 461.797C279.224 462.349 279.224 462.908 279.297 463.46C279.24 464.971 279.5 466.476 280.061 467.88C281.814 473.08 284.29 478.008 287.417 482.517C289.74 485.843 292.451 488.975 293.77 492.915C294.395 494.852 294.723 496.873 294.744 498.908C294.679 501.069 294.454 503.222 294.069 505.35C293.064 511.233 291.411 516.986 289.14 522.505C287.731 525.338 286.761 528.369 286.264 531.494C286.221 532.132 286.221 532.773 286.264 533.412C285.889 543.3 295.867 550.416 297.8 560.245C297.959 561.06 298.054 561.887 298.085 562.717C297.875 568.844 294.384 574.837 289.23 577.219C289.68 577.399 290.144 577.549 290.609 577.699C290.165 577.977 289.705 578.227 289.23 578.448C290.174 578.807 291.133 579.122 292.107 579.377C286.249 584.478 281.326 590.562 277.559 597.355C260.225 629.627 142.825 692.836 142.825 692.836L144.563 693.825L143.155 694.739C132.997 701.496 109.16 721.197 130.705 746.113C130.705 746.113 147.529 719.564 159.32 708.253C159.845 707.743 160.369 707.279 160.819 706.845C161.078 707.243 161.251 707.692 161.329 708.161C161.406 708.63 161.385 709.11 161.268 709.571L238.456 666.198C238.456 666.198 265.888 646.991 273.544 642.661C278.932 639.304 284.796 636.779 290.938 635.17L290.039 635.545C292.925 634.751 295.901 634.328 298.894 634.286C312.557 634.496 327.36 644.504 332.229 684.132C338.761 737.198 335.735 746.772 333.637 748.075C333.378 748.056 333.123 748.011 332.873 747.94C332.938 747.997 333.008 748.047 333.083 748.09C332.799 748.07 332.517 748.02 332.244 747.94C332.395 748.079 332.579 748.176 332.778 748.224C332.977 748.271 333.185 748.266 333.382 748.21C333.524 748.253 333.673 748.266 333.82 748.248C333.968 748.23 334.109 748.181 334.236 748.105C334.581 748.125 334.926 748.125 335.27 748.105C335.27 748.595 335.235 749.094 335.165 749.603C335.06 749.603 334.551 749.888 335.165 749.918C335 752.914 335.015 756.166 335.165 759.567C328.378 759.941 321.592 760.346 315.689 760.705L316.213 757.903L316.453 756.645C321.666 756.225 326.61 754.697 327.195 750.472C328.468 741.183 315.719 736.224 304.871 735.61C294.024 734.996 228.972 739.326 228.972 739.326C228.972 739.326 219.219 751.956 250.157 755.806C251.076 756.285 252.03 756.785 253.018 757.304C265.139 764.211 281.574 776.931 289.455 783.193L290.549 784.062L287.013 786.939C306.145 791.269 324.648 864.381 334.851 897.806C345.053 931.231 367.377 930.018 385.88 925.059C403.214 920.414 405.356 870.075 405.641 863.752V863.108L436.474 901.192L438.811 904.084C439.71 904.553 440.599 904.993 441.478 905.402C464.82 916.504 490.605 895.214 483.278 870.943C475.862 846.478 464.356 810.296 456.685 794.999C450.258 782.189 441.958 760.915 436.924 747.596C437.577 747.333 438.213 747.028 438.826 746.682C438.826 746.682 438.707 746.083 438.512 744.989L438.826 744.824C438.826 744.824 431.335 706.29 431.006 678.903C431.006 678.423 431.006 677.924 431.006 677.405C431.006 677.105 431.006 676.805 431.006 676.521C436.579 675.247 440.115 674.753 440.115 674.753L440.22 673.554L439.576 673.689L442.677 638.197C442.677 638.197 454.063 613.97 445.344 603.887C442.693 600.939 440.923 597.305 440.235 593.4C438.737 584.126 440.235 568.65 460.535 555.795C491.788 535.974 503.984 519.838 503.984 519.838C503.984 519.838 504.523 508.272 485.391 502.638ZM423.32 527.269V510.864C429.118 510.579 435.036 511.253 440.864 510.864C443.725 510.664 446.56 510.187 449.329 509.44L450.737 510.414C442.211 516.973 433.022 522.622 423.32 527.269ZM334.701 784.422C336.993 786.01 339.3 787.658 341.563 789.321C342.971 797.411 344.214 803.119 344.304 803.524C341.719 796.865 338.503 790.469 334.701 784.422Z" fill="url(#paint2_linear)"/>
<path d="M384.232 770.938L382.883 778.264L381.85 783.868L379.962 794.115L361.654 806.925C361.654 806.925 360.006 805.517 357.279 803.284C349.788 797.112 334.012 784.587 322.43 777.815C319.454 775.914 316.234 774.428 312.857 773.395L384.232 770.938Z" fill="#FFBDC6"/>
<path opacity="0.1" d="M384.232 770.938L382.883 778.264C378.848 778.489 374.8 778.283 370.808 777.65L328.094 778.264C326.071 778.144 324.183 777.98 322.415 777.8C319.439 775.899 316.219 774.413 312.842 773.38L384.232 770.938Z" fill="black"/>
<path d="M370.808 776.451C370.808 776.451 392.172 780.107 393.386 770.953C394.599 761.799 382.404 756.975 372.051 756.286C361.699 755.596 299.418 759.971 299.418 759.971C299.418 759.971 288.436 774.609 328.094 777.051L370.808 776.451Z" fill="#7679B4"/>
<path opacity="0.1" d="M384.232 770.938L382.883 778.264L381.85 783.868L379.962 794.115L361.654 806.925C361.654 806.925 360.006 805.517 357.279 803.284C349.788 797.112 334.012 784.587 322.43 777.815C319.454 775.914 316.234 774.428 312.857 773.395L384.232 770.938Z" fill="black"/>
<path opacity="0.1" d="M384.232 770.938L382.883 778.264C378.848 778.489 374.8 778.283 370.808 777.65L328.094 778.264C326.071 778.144 324.183 777.98 322.415 777.8C319.439 775.899 316.219 774.413 312.842 773.38L384.232 770.938Z" fill="black"/>
<path opacity="0.1" d="M370.808 776.451C370.808 776.451 392.172 780.107 393.386 770.953C394.599 761.799 382.404 756.975 372.051 756.286C361.699 755.596 299.418 759.971 299.418 759.971C299.418 759.971 288.436 774.609 328.094 777.051L370.808 776.451Z" fill="black"/>
<path d="M417.477 475.596H305.815V608.007H417.477V475.596Z" fill="#A66477"/>
<path opacity="0.1" d="M417.477 475.596H305.815V608.007H417.477V475.596Z" fill="black"/>
<path d="M174.932 702.29C173.089 702.754 170.752 704.522 168.13 707.099C156.848 718.246 140.758 744.39 140.758 744.39C120.142 719.849 142.96 700.447 152.743 693.78C155.11 692.162 156.699 691.293 156.699 691.293L174.932 702.29Z" fill="#FFBDC6"/>
<path d="M383.018 517.396C383.018 517.396 388.516 555.84 407.424 564.994C426.331 574.148 383.018 591.228 383.018 591.228L323.824 569.264C323.824 569.264 357.384 558.282 350.672 525.936L383.018 517.396Z" fill="#FFBDC6"/>
<path d="M319.614 748.66L318.266 755.986L317.232 761.589L315.344 771.837L297.036 784.647C297.036 784.647 295.388 783.238 292.661 781.006C285.17 774.833 269.394 762.308 257.813 755.536C254.837 753.636 251.616 752.149 248.239 751.117L319.614 748.66Z" fill="#FFBDC6"/>
<path opacity="0.1" d="M319.614 748.66L318.265 755.986C314.23 756.21 310.182 756.004 306.19 755.372L263.476 755.986C261.453 755.866 259.566 755.701 257.798 755.521C254.822 753.621 251.601 752.134 248.224 751.102L319.614 748.66Z" fill="black"/>
<path d="M306.13 754.158C306.13 754.158 327.494 757.814 328.708 748.66C329.922 739.505 317.726 734.621 307.344 734.022C296.961 733.423 234.725 737.678 234.725 737.678C234.725 737.678 223.743 752.315 263.401 754.757L306.13 754.158Z" fill="#7679B4"/>
<path opacity="0.1" d="M317.172 761.604L315.284 771.852L296.976 784.662C296.976 784.662 295.328 783.253 292.601 781.021L316.812 761.17L317.172 761.604Z" fill="black"/>
<path d="M437.972 901.297C437.133 900.888 436.284 900.453 435.425 899.994L433.193 897.147L403.708 859.692V860.351C403.514 866.569 401.386 916.159 384.816 920.729C367.122 925.613 345.758 926.827 336.004 893.881C326.251 860.935 308.542 788.931 290.234 784.662L317.381 762.383C317.381 762.383 335.36 783.358 342.701 803.554C342.432 802.266 330.011 744.27 340.259 734.022H429.343C429.343 734.022 443.066 773.185 452.535 792.602C459.876 807.674 470.888 843.301 478.005 867.408C485.046 891.259 460.446 912.234 437.972 901.297Z" fill="#7679B4"/>
<path opacity="0.1" d="M435.485 744.989C421.747 753.124 361.339 749.813 341.652 748.495L336.304 748.105C335.719 748.105 336.394 747.775 336.394 747.775L336.948 742.232L351.585 705.017L430.002 659.591C428.414 664.37 427.874 671.696 428.009 680.101C428.399 707.039 435.485 744.989 435.485 744.989Z" fill="black"/>
<path d="M435.485 743.176C421.747 751.311 361.339 748 341.652 746.682L336.304 746.292H335.42L336.394 746.038L341.218 744.764L351.586 703.264L430.002 657.808C428.414 662.587 427.874 669.914 428.009 678.319C428.399 705.211 435.485 743.176 435.485 743.176Z" fill="#F2F1F2"/>
<path opacity="0.1" d="M428.009 678.259C412.068 681.929 376.98 692.731 363.496 718.71C354.507 736.06 347.016 743.506 341.667 746.622L336.319 746.233L336.409 745.903L341.233 744.629L351.601 703.129L430.017 657.673C428.399 662.587 427.874 669.854 428.009 678.259Z" fill="black"/>
<path opacity="0.1" d="M156.624 691.308L174.932 702.29C173.089 702.754 170.752 704.522 168.13 707.099C166.632 702.605 157.013 696.432 152.668 693.795C155.036 692.177 156.624 691.308 156.624 691.308Z" fill="black"/>
<path opacity="0.1" d="M333.098 746.997C332.894 747.11 332.659 747.156 332.427 747.126C332.195 747.097 331.979 746.993 331.81 746.832C332.229 746.95 332.663 747.006 333.098 746.997Z" fill="black"/>
<path d="M374.463 562.552C374.463 562.552 357.983 564.38 346.387 552.184C346.387 552.184 297.575 566.223 281.095 597.955C264.615 629.687 152.339 691.922 152.339 691.922C152.339 691.922 171.816 702.904 170.033 708.403L243.865 665.689C243.865 665.689 270.098 646.766 277.424 642.496C284.751 638.227 325.023 611.993 333.562 683.383C342.102 754.772 333.562 746.307 333.562 746.307C333.562 746.307 345.773 750.577 363.527 716.343C381.28 682.109 436.145 674.244 436.145 674.244L439.141 638.286C439.141 638.286 450.033 614.435 441.688 604.487C439.143 601.56 437.454 597.988 436.804 594.164C435.411 585.025 436.804 569.788 456.281 557.128C486.245 537.652 497.781 521.741 497.781 521.741C497.781 521.741 498.395 510.145 480.087 504.661C461.779 499.178 387.333 469.273 387.333 469.273L384.891 479.641L443.471 521.141C443.471 521.141 414.181 544.933 391.034 544.334C390.944 544.229 395.214 561.938 374.463 562.552Z" fill="#565388"/>
<path opacity="0.1" d="M385.775 534.131C384.332 529.214 383.206 524.21 382.404 519.149L350.057 527.748C351.473 533.921 351.22 540.359 349.323 546.401C355.934 548.165 362.918 547.94 369.401 545.755C375.885 543.57 381.58 539.521 385.775 534.116V534.131Z" fill="black"/>
<path d="M358.912 545.772C378.125 545.772 393.7 530.197 393.7 510.984C393.7 491.77 378.125 476.195 358.912 476.195C339.699 476.195 324.124 491.77 324.124 510.984C324.124 530.197 339.699 545.772 358.912 545.772Z" fill="#FFBDC6"/>
<path opacity="0.1" d="M377.4 431.863C387.048 432.957 396.232 437.107 405.731 439.354C408.104 440.098 410.633 440.197 413.057 439.639C416.743 438.5 419.739 434.635 423.545 434.754C425.897 434.754 428.039 436.432 429.927 437.976C433.054 440.348 435.994 442.958 438.721 445.781C445.269 452.898 449.344 462.486 455.322 470.217C461.299 477.948 470.723 483.971 479.218 480.42C473.45 502.893 454.513 520.077 434.047 521.471C425.882 522.025 417.567 520.332 409.611 522.729C407.64 523.533 405.559 524.038 403.439 524.228C398.944 524.228 395.228 520.048 392.382 515.987C385.73 506.429 380.396 495.582 372.905 486.877C370.433 484.001 367.512 481.259 364.021 480.734C360.53 480.21 357.309 481.873 354.192 483.491C349.054 486.158 343.795 488.915 339.81 493.469C335.824 498.024 333.307 504.841 334.955 511.013C335.839 514.339 337.877 517.336 337.952 520.827C337.952 526.37 333.128 530.43 332.154 535.809C331.939 538.079 331.859 540.361 331.914 542.641C331.48 550.042 326.655 556.124 321.591 560.754C319.629 562.567 317.441 564.499 316.872 567.301C316.483 569.204 316.872 571.226 316.617 573.159C315.883 577.968 311.089 580.395 306.849 581.025C301.897 581.75 296.841 581.151 292.197 579.287C298.189 576.485 301.77 568.5 300.392 561.308C298.504 551.405 288.556 544.304 289.395 534.206C289.864 531.113 290.793 528.109 292.152 525.291C294.323 519.843 295.9 514.177 296.856 508.391C297.836 503.938 297.739 499.315 296.571 494.908C295.298 491.027 292.706 487.941 290.489 484.66C287.486 480.199 285.116 475.344 283.447 470.232C282.842 468.721 282.611 467.087 282.773 465.468C283.256 463.558 284.299 461.836 285.769 460.524C291.223 454.815 297.066 448.868 304.317 447.22C307.782 446.642 311.306 446.506 314.805 446.815C320.913 447.009 327.028 446.749 333.098 446.036C338.102 445.452 346.582 445.527 350.807 442.26C354.747 439.264 356.979 435.444 361.848 433.526C366.818 431.707 372.158 431.136 377.4 431.863Z" fill="black"/>
<path opacity="0.1" d="M396.742 791.074C396.742 791.074 416.878 830.732 410.78 842.942L396.742 791.074Z" fill="black"/>
<path opacity="0.1" d="M433.253 897.147L403.769 859.692V860.351C403.769 860.351 402.061 848.246 407.679 852.321C419.979 861.22 439.666 875.813 440.085 878.33C440.505 880.847 436.1 890.945 433.253 897.147Z" fill="black"/>
<g opacity="0.1">
<path opacity="0.1" d="M391.528 544.229C391.528 544.229 394.015 554.536 385.97 559.69C398.36 557.563 398.899 547.929 398.525 543.734C396.212 544.109 393.87 544.274 391.528 544.229Z" fill="black"/>
<path opacity="0.1" d="M159.68 689.48C159.68 689.48 271.956 627.245 288.436 595.512C300.257 572.74 328.738 559.091 343.87 553.188C332.828 556.889 295.673 571.077 281.709 597.954C265.229 629.687 152.953 691.922 152.953 691.922L159.68 689.48Z" fill="black"/>
<path opacity="0.1" d="M413.372 539.39C432.474 533.397 450.737 518.609 450.737 518.609L392.157 477.109L393.491 471.416L387.888 469.168L385.445 479.536L444.025 521.036C434.625 528.426 424.325 534.593 413.372 539.39Z" fill="black"/>
<path opacity="0.1" d="M413.747 680.012C421.232 677.456 428.913 675.517 436.714 674.214L436.819 673.03C428.959 674.757 421.245 677.091 413.747 680.012Z" fill="black"/>
<path opacity="0.1" d="M342.746 743.94H342.207C342.003 744.054 341.768 744.099 341.536 744.07C341.304 744.04 341.088 743.937 340.919 743.775C341.338 743.892 341.772 743.948 342.207 743.94C344.215 742.772 347.226 733.662 340.919 680.925C334.177 624.623 307.718 629.042 293.231 635.515C308.033 631.44 328.409 634.96 334.207 683.368C340.514 736.105 337.503 745.229 335.495 746.382C338.097 746.286 340.616 745.437 342.746 743.94Z" fill="black"/>
<path opacity="0.1" d="M335.495 746.397C335.06 746.405 334.626 746.349 334.207 746.232C334.376 746.394 334.592 746.497 334.824 746.527C335.056 746.557 335.291 746.511 335.495 746.397Z" fill="black"/>
</g>
<path d="M377.4 430.679C387.048 431.773 396.232 435.923 405.731 438.171C408.104 438.915 410.633 439.013 413.057 438.455C416.743 437.317 419.739 433.451 423.545 433.571C425.897 433.571 428.039 435.249 429.927 436.792C433.054 439.165 435.994 441.774 438.721 444.598C445.269 451.714 449.344 461.303 455.322 469.034C461.299 476.764 470.723 482.787 479.218 479.236C473.45 501.71 454.513 518.894 434.047 520.287C425.882 520.842 417.567 519.149 409.611 521.546C407.64 522.35 405.559 522.855 403.439 523.044C398.944 523.044 395.228 518.864 392.382 514.804C385.73 505.245 380.396 494.398 372.905 485.694C370.433 482.817 367.512 480.075 364.021 479.551C360.53 479.027 357.309 480.69 354.192 482.308C349.054 484.975 343.795 487.731 339.81 492.286C335.824 496.84 333.307 503.657 334.955 509.83C335.839 513.156 337.877 516.152 337.952 519.643C337.952 525.187 333.128 529.247 332.154 534.625C331.939 536.896 331.859 539.177 331.914 541.457C331.48 548.858 326.655 554.941 321.591 559.571C319.629 561.383 317.441 563.316 316.872 566.118C316.483 568.02 316.872 570.043 316.617 571.976C315.883 576.785 311.089 579.212 306.849 579.841C301.897 580.567 296.841 579.967 292.197 578.103C298.189 575.302 301.77 567.316 300.392 560.125C298.504 550.222 288.556 543.12 289.395 533.022C289.864 529.93 290.793 526.925 292.152 524.108C294.323 518.66 295.9 512.994 296.856 507.208C297.836 502.755 297.739 498.132 296.571 493.724C295.298 489.844 292.706 486.758 290.489 483.476C287.486 479.016 285.116 474.16 283.447 469.049C282.842 467.538 282.611 465.904 282.773 464.284C283.256 462.374 284.299 460.652 285.769 459.34C291.223 453.632 297.066 447.684 304.317 446.036C307.782 445.459 311.306 445.323 314.805 445.632C320.913 445.826 327.028 445.566 333.098 444.853C338.102 444.268 346.582 444.343 350.807 441.077C354.747 438.081 356.979 434.26 361.848 432.343C366.818 430.523 372.158 429.952 377.4 430.679Z" fill="#A66477"/>
<path d="M1370.76 352.593C1370.76 352.398 1370.76 352.218 1370.76 352.038C1370.76 351.859 1370.76 351.649 1370.67 351.469H1370.43C1370.43 351.065 1370.43 350.66 1370.43 350.226C1369.83 336.337 1350.62 306.777 1342.92 315.407C1336.18 322.988 1346.35 342.165 1351.54 350.795L1352 351.574L1351.75 351.409C1351.75 351.409 1330.31 415.353 1327.77 417.84C1325.24 420.327 1307.59 470.607 1284.33 476.27C1279.73 477.364 1275.91 478.353 1272.7 479.266L1272.95 478.412C1274.45 473.513 1276.3 468.884 1277.04 463.43C1277.79 457.977 1277.04 451.37 1274.29 448.718C1272.94 447.399 1271.29 447.22 1270.18 445.122C1269.46 443.283 1269.08 441.329 1269.04 439.354L1267.07 415.113L1268.45 414.694C1276.78 412.027 1284.85 405.704 1285.79 397.194C1285.5 397.305 1285.21 397.4 1284.91 397.479C1285.02 396.984 1285.11 396.484 1285.17 395.981C1278.17 398.738 1271.68 391.486 1264.94 388.235C1253.84 382.797 1241.15 387.921 1229.69 389.164C1216.7 390.587 1204.37 385.194 1191.09 386.168C1183.87 386.722 1175.84 391.621 1176.23 398.738C1176.46 402.648 1179.23 405.959 1180.37 409.705C1183.24 418.769 1176.84 427.863 1171.24 435.594C1167.56 440.673 1164.02 446.86 1163.39 452.823C1150.49 439.339 1136.54 423.758 1134.92 417.9L1097.6 353.956C1097.6 353.956 1096.72 354.9 1095.3 356.293C1095.07 355.604 1094.8 354.795 1094.5 353.986C1089.74 340.637 1076.25 308.291 1059.16 314.224C1042.07 320.156 1066.25 353.312 1076.76 366.526L1078.26 368.354C1077.38 368.571 1076.45 368.529 1075.6 368.234L1117.22 439.624C1117.22 439.624 1124.78 453.287 1131.72 457.003C1131.72 457.003 1183.42 522.19 1184.05 535.225C1184.68 548.259 1207.3 583.032 1207.3 583.032C1207.3 583.032 1214.87 639.53 1201.63 649.463H1201.79H1201.89H1202.06H1202.21H1202.51H1202.7H1202.9H1203.15H1203.36H1203.66H1203.81C1203.18 650.077 1202.54 650.752 1201.88 651.486C1192.07 662.363 1179.53 685.675 1196.67 725.317C1221.88 783.748 1225.67 806.64 1225.67 806.64C1225.67 806.64 1177.73 809.127 1168.29 810.985C1159.93 812.633 1127.43 813.787 1120 813.982C1117.35 810.895 1109.52 804.063 1098.94 813.982C1085.69 826.402 1076.24 867.917 1076.24 867.917C1076.24 867.917 1071.19 901.447 1088.23 892.742C1088.23 892.742 1108.41 864.801 1114.07 863.557C1116.89 862.943 1119.87 858.793 1122.14 854.793L1122.26 854.868C1122.4 854.868 1122.95 854.568 1123.85 854.209C1128.05 852.546 1139.6 848.545 1148.71 850.538C1153.7 851.632 1175.09 851.886 1197.52 851.826C1192.46 863.962 1183.38 895.274 1183.38 895.274C1183.38 895.274 1179.59 924.475 1192.17 923.276C1201.16 922.392 1214.94 899.424 1222.14 886.315C1227.35 882.495 1242.29 868.801 1253.33 869.835L1327.73 841.279C1327.73 841.279 1345.38 831.346 1335.92 798.445C1328.43 772.286 1307.11 718.74 1298.69 697.87L1298.44 697.331C1296.4 692.282 1295.17 689.286 1295.17 689.286C1291.71 679.758 1289.44 669.84 1288.42 659.756C1288.34 658.962 1288.28 658.153 1288.22 657.359C1289.26 656.921 1290.25 656.352 1291.14 655.666C1291.14 655.666 1284.21 585.519 1291.14 578.058L1291.26 577.924V577.834L1291.38 577.684L1291.65 577.339L1291.98 576.92C1292.36 576.425 1292.81 575.811 1293.32 575.062C1297.29 569.249 1304.69 555.975 1302.56 540.304C1302.47 539.624 1302.36 538.94 1302.23 538.251C1301.41 534.001 1299.96 529.899 1297.91 526.086C1297.62 524.498 1297.43 522.891 1297.36 521.276C1297.36 520.362 1297.36 519.359 1297.36 518.28V518.1C1297.36 517.81 1297.36 517.521 1297.36 517.231V517.021C1297.36 516.317 1297.48 515.523 1297.59 514.864V514.594C1297.59 514.325 1297.63 514.05 1297.72 513.77V513.426C1297.72 513.156 1297.84 512.886 1297.9 512.617V512.332C1297.99 511.972 1298.08 511.613 1298.2 511.253V511.073C1298.29 510.774 1298.39 510.479 1298.5 510.189L1298.63 509.845L1298.93 509.126L1299.08 508.766C1299.2 508.496 1299.34 508.227 1299.47 507.957L1299.58 507.732C1299.76 507.403 1299.95 507.078 1300.15 506.759L1300.31 506.504L1300.81 505.8L1301.05 505.485L1301.57 504.856L1301.81 504.586C1302.08 504.302 1302.35 504.017 1302.65 503.747C1310.84 496.256 1347.42 441.047 1347.42 441.047C1347.42 441.047 1356.24 428.627 1356.24 420.567C1356.73 420.387 1372.33 368.399 1370.76 352.593ZM1272.58 816.663C1271.68 808.154 1270.78 797.606 1269.96 786.699L1284.22 808.933C1284.22 808.933 1282.87 815.705 1272.58 816.663Z" fill="url(#paint3_linear)"/>
<path d="M1123.87 811.959C1123.87 811.959 1115.33 798.475 1102.5 810.746C1089.68 823.016 1080.54 863.827 1080.54 863.827C1080.54 863.827 1075.66 896.788 1092.14 888.233C1092.14 888.233 1111.61 860.771 1117.16 859.557C1122.7 858.344 1128.75 843.077 1128.75 843.077L1123.87 811.959Z" fill="#493545"/>
<path d="M1215.39 844.905C1215.39 844.905 1203.8 839.406 1200.14 843.691C1196.49 847.976 1184.28 890.675 1184.28 890.675C1184.28 890.675 1180.62 918.751 1192.82 917.523C1205.01 916.294 1226.38 872.337 1226.38 872.337L1215.39 844.905Z" fill="#493545"/>
<path opacity="0.05" d="M1215.39 844.905C1215.39 844.905 1203.8 839.406 1200.14 843.691C1196.49 847.976 1184.28 890.675 1184.28 890.675C1184.28 890.675 1180.62 918.751 1192.82 917.523C1205.01 916.294 1226.38 872.337 1226.38 872.337L1215.39 844.905Z" fill="black"/>
<path d="M1255.67 761.919L1281.9 802.805C1281.9 802.805 1280.07 811.959 1264.21 810.131L1209.9 844.305C1209.9 844.305 1205.18 885.91 1220.26 882.135C1222.71 881.521 1239.74 863.827 1252 865.055L1324.01 836.979C1324.01 836.979 1341.09 827.211 1331.94 794.879C1322.79 762.548 1292.52 687.577 1292.52 687.577L1244.68 714.335L1255.67 761.919Z" fill="#3E3D77"/>
<path opacity="0.05" d="M1255.67 761.919L1281.9 802.805C1281.9 802.805 1280.07 811.959 1264.21 810.131L1209.9 844.305C1209.9 844.305 1205.18 885.91 1220.26 882.135C1222.71 881.521 1239.74 863.827 1252 865.055L1324.01 836.979C1324.01 836.979 1341.09 827.211 1331.94 794.879C1322.79 762.548 1292.52 687.577 1292.52 687.577L1244.68 714.335L1255.67 761.919Z" fill="black"/>
<path d="M1272.15 822.326C1275.8 845.519 1255.07 847.347 1255.07 847.347C1255.07 847.347 1161.7 849.174 1150.72 846.732C1139.73 844.29 1125.08 851.002 1125.08 851.002C1106.16 839.406 1121.43 810.73 1121.43 810.73C1121.43 810.73 1160.48 809.517 1169.64 807.734C1178.79 805.951 1225.16 803.419 1225.16 803.419C1225.16 803.419 1221.51 780.841 1197.09 723.49C1180.5 684.536 1192.59 661.614 1202.13 650.931C1204.57 648.097 1207.39 645.616 1210.51 643.56L1285.57 647.216C1285.49 651.001 1285.63 654.788 1285.99 658.557C1287.27 671.497 1290.64 684.145 1295.95 696.012C1291.68 696.012 1264.22 721.647 1264.22 721.647C1264.22 721.647 1268.48 799.149 1272.15 822.326Z" fill="#3E3D77"/>
<path opacity="0.1" d="M1126.91 813.172C1126.91 813.172 1165.97 811.959 1175.12 810.176C1184.28 808.393 1230.65 805.906 1230.65 805.906C1230.65 805.906 1226.99 783.328 1202.57 725.977C1185.98 687.023 1198.07 664.101 1207.62 653.418C1210.05 650.584 1212.87 648.103 1215.99 646.047L1285.54 649.433C1285.54 648.714 1285.54 647.935 1285.54 647.261L1210.48 643.605C1207.36 645.661 1204.54 648.142 1202.1 650.976C1192.61 661.673 1180.47 684.581 1197.06 723.534C1221.54 780.841 1225.16 803.419 1225.16 803.419C1225.16 803.419 1178.72 805.861 1169.64 807.689C1160.56 809.517 1121.43 810.685 1121.43 810.685C1121.43 810.685 1106.17 839.376 1125.08 851.017C1125.08 851.017 1125.65 850.748 1126.58 850.358C1114.01 837.428 1126.91 813.172 1126.91 813.172Z" fill="black"/>
<path d="M1238.57 419.593H1200.74V515.388H1238.57V419.593Z" fill="#493545"/>
<path opacity="0.1" d="M1238.57 419.593H1200.74V515.388H1238.57V419.593Z" fill="black"/>
<path d="M1260.21 405.539C1261.51 405.899 1262.98 405.944 1263.86 407.742C1264.41 409.179 1264.71 410.699 1264.74 412.236L1267.13 441.841C1267.16 443.779 1267.54 445.696 1268.24 447.504C1269.24 449.512 1270.9 449.752 1272.21 451.04C1274.83 453.647 1275.59 460.179 1274.87 465.498C1274.15 470.816 1272.34 475.371 1270.92 480.18C1268.88 487.072 1267.53 494.818 1264.67 500.631C1261.81 506.444 1256.61 509.62 1253.25 504.736C1249.9 499.852 1250.35 489.994 1249.72 481.918C1248.67 468.434 1243.41 456.808 1243.05 443.234C1242.75 432.252 1245.7 422.005 1247.55 411.592C1248.86 404.446 1248.94 395.771 1250.86 389.344C1252.46 396.985 1255.52 404.251 1260.21 405.539Z" fill="#493545"/>
<path opacity="0.1" d="M1260.21 405.539C1261.51 405.899 1262.98 405.944 1263.86 407.742C1264.41 409.179 1264.71 410.699 1264.74 412.236L1267.13 441.841C1267.16 443.779 1267.54 445.696 1268.24 447.504C1269.24 449.512 1270.9 449.752 1272.21 451.04C1274.83 453.647 1275.59 460.179 1274.87 465.498C1274.15 470.816 1272.34 475.371 1270.92 480.18C1268.88 487.072 1267.53 494.818 1264.67 500.631C1261.81 506.444 1256.61 509.62 1253.25 504.736C1249.9 499.852 1250.35 489.994 1249.72 481.918C1248.67 468.434 1243.41 456.808 1243.05 443.234C1242.75 432.252 1245.7 422.005 1247.55 411.592C1248.86 404.446 1248.94 395.771 1250.86 389.344C1252.46 396.985 1255.52 404.251 1260.21 405.539Z" fill="black"/>
<path d="M1100.06 363.455L1085.42 375.665C1085.42 375.665 1083.69 373.628 1081.09 370.331C1070.92 357.342 1047.53 324.756 1064.06 318.928C1080.58 313.1 1093.65 344.877 1098.26 358.001C1099.43 361.327 1100.06 363.455 1100.06 363.455Z" fill="#C77485"/>
<path d="M1364.29 359.185C1358.19 368.339 1349.65 359.185 1349.65 359.185C1349.65 359.185 1348.55 357.552 1347.01 354.915C1341.99 346.42 1332.15 327.588 1338.67 320.126C1346.16 311.602 1364.72 340.697 1365.29 354.346C1365.47 356.024 1365.12 357.715 1364.29 359.185Z" fill="#C77485"/>
<path d="M1214.17 458.037C1214.17 458.037 1226.38 497.095 1222.7 508.676C1219.03 520.258 1248.95 533.741 1248.95 533.741H1283.13C1283.13 533.741 1295.34 508.721 1292.28 501.395C1289.23 494.069 1262.99 488.585 1262.99 488.585C1262.99 488.585 1247.74 488.585 1248.35 447.699L1214.17 458.037Z" fill="#C77485"/>
<path opacity="0.1" d="M1100.06 363.455L1085.42 375.665C1085.42 375.665 1083.69 373.628 1081.09 370.331C1086.41 369.388 1094.67 361.627 1098.28 358.001C1099.43 361.327 1100.06 363.455 1100.06 363.455Z" fill="black"/>
<path opacity="0.1" d="M1364.29 359.185C1358.19 368.339 1349.65 359.185 1349.65 359.185C1349.65 359.185 1348.55 357.552 1347.01 354.915L1347.21 354.301C1351.16 357.132 1363.46 354.72 1365.29 354.301C1365.48 355.994 1365.12 357.702 1364.29 359.185Z" fill="black"/>
<path opacity="0.1" d="M1285.96 658.542C1267.08 667.157 1205.75 651.815 1202.06 650.902C1204.49 648.067 1207.31 645.586 1210.43 643.53L1285.49 647.186C1285.43 650.977 1285.58 654.769 1285.96 658.542Z" fill="black"/>
<path d="M1222.11 491.597C1222.11 491.597 1207.47 496.481 1186.72 477.558C1186.72 477.558 1140.27 431.788 1137.28 420.806L1101.32 357.881C1101.32 357.881 1086.07 374.362 1079.96 371.92L1120.23 442.096C1120.23 442.096 1127.55 455.58 1134.27 459.175C1134.27 459.175 1184.31 523.254 1184.91 536.064C1185.5 548.873 1207.45 583.182 1207.45 583.182C1207.45 583.182 1214.78 638.706 1201.95 648.474C1201.95 648.474 1273.34 666.782 1288.6 654.572C1288.6 654.572 1281.88 585.654 1288.6 578.298C1288.6 578.298 1309.35 553.892 1295.31 527.044C1295.31 527.044 1292.31 512.407 1300.19 505.081C1308.07 497.754 1343.52 443.444 1343.52 443.444C1343.52 443.444 1352.06 431.234 1352.06 423.308C1352.06 423.308 1367.93 369.612 1365.54 355.574C1365.54 355.574 1351.51 358.571 1347.24 355.574C1347.24 355.574 1326.49 418.499 1324.04 420.866C1321.6 423.233 1304.57 472.734 1281.94 478.233C1259.32 483.731 1255.71 486.158 1255.71 486.158C1255.71 486.158 1299.64 513.62 1278.29 525.816C1256.94 538.011 1222.11 491.597 1222.11 491.597Z" fill="#FFAAC4"/>
<path opacity="0.1" d="M1249.84 467.43C1249.11 461.682 1248.82 455.888 1248.95 450.096L1214.78 460.464C1215.68 462.74 1216.39 465.085 1216.92 467.475C1220.83 469.198 1226.11 473.274 1230.65 473.274C1237.51 473.498 1244.26 471.443 1249.84 467.43Z" fill="black"/>
<path d="M1230.03 471.461C1247.56 471.461 1261.76 457.254 1261.76 439.729C1261.76 422.204 1247.56 407.997 1230.03 407.997C1212.51 407.997 1198.3 422.204 1198.3 439.729C1198.3 457.254 1212.51 471.461 1230.03 471.461Z" fill="#C77485"/>
<path opacity="0.1" d="M1192.28 390.842C1185.29 391.381 1177.5 396.206 1177.89 403.202C1178.1 407.053 1180.74 410.304 1181.89 413.989C1184.67 422.904 1178.49 431.848 1173.07 439.459C1167.65 447.07 1162.58 457.153 1167.23 465.213C1168.55 467.154 1169.98 469.019 1171.51 470.801C1177.25 478.547 1177.17 489.005 1179.72 498.309C1182.97 510.211 1190.66 520.416 1201.21 526.825C1211.75 533.234 1224.35 535.361 1236.41 532.767C1231.87 526.97 1229.61 519.713 1230.05 512.362C1230.39 507.028 1232.11 501.455 1230.05 496.526C1227.38 490.188 1219.56 487.686 1215.53 482.143C1211.5 476.6 1211.77 468.914 1213.72 462.307C1215.66 455.7 1219.03 449.572 1220.65 442.83C1221.05 440.863 1221.55 438.918 1222.15 437.002C1224.97 429.001 1233.39 424.357 1241.63 422.364C1249.87 420.372 1258.53 420.252 1266.57 417.63C1274.62 415.008 1282.44 408.865 1283.37 400.431C1276.6 403.142 1270.32 396.071 1263.79 392.82C1253.03 387.486 1240.76 392.505 1229.67 393.734C1217.04 395.142 1205.06 389.913 1192.28 390.842Z" fill="black"/>
<path d="M1191.66 389.628C1184.68 390.168 1176.89 394.992 1177.28 401.989C1177.49 405.839 1180.13 409.09 1181.28 412.776C1184.05 421.69 1177.88 430.634 1172.46 438.245C1167.03 445.856 1161.97 455.939 1166.61 464C1167.94 465.94 1169.37 467.806 1170.9 469.588C1176.64 477.334 1176.56 487.791 1179.11 497.095C1182.36 508.998 1190.05 519.202 1200.59 525.612C1211.14 532.021 1223.74 534.147 1235.8 531.554C1231.26 525.757 1228.99 518.499 1229.43 511.148C1229.78 505.815 1231.5 500.241 1229.43 495.312C1226.77 488.975 1218.94 486.473 1214.91 480.929C1210.88 475.386 1211.15 467.7 1213.1 461.093C1215.05 454.486 1218.42 448.358 1220.04 441.616C1220.44 439.649 1220.94 437.704 1221.54 435.788C1224.35 427.788 1232.77 423.143 1241.01 421.151C1249.25 419.158 1257.91 419.038 1265.96 416.416C1274 413.795 1281.82 407.652 1282.75 399.217C1275.98 401.929 1269.7 394.857 1263.17 391.606C1252.41 386.272 1240.14 391.291 1229.06 392.52C1216.46 393.913 1204.52 388.625 1191.66 389.628Z" fill="#493545"/>
<path opacity="0.1" d="M1261.46 510.219C1261.46 510.219 1274.17 521.561 1276.67 526.565L1261.46 510.219Z" fill="black"/>
<path opacity="0.1" d="M1288.96 577.954C1288.96 577.954 1273.09 577.954 1265.76 579.781C1258.44 581.609 1240.74 579.781 1240.74 579.781" fill="black"/>
<g opacity="0.1">
<path opacity="0.1" d="M1278.24 525.771C1276.88 526.554 1275.39 527.12 1273.85 527.449C1277.83 528.331 1282 527.735 1285.57 525.771C1306.93 513.56 1262.99 486.113 1262.99 486.113H1255.67C1255.67 486.113 1299.61 513.575 1278.24 525.771Z" fill="black"/>
<path opacity="0.1" d="M1365.65 356.638C1365.65 356.248 1365.56 355.874 1365.5 355.529C1362.99 356.049 1360.45 356.434 1357.9 356.683C1360.48 356.966 1363.08 356.951 1365.65 356.638Z" fill="black"/>
<path opacity="0.1" d="M1209.3 648.429C1222.11 638.661 1214.79 583.137 1214.79 583.137C1214.79 583.137 1192.83 548.963 1192.22 536.153C1191.6 523.344 1141.58 459.265 1141.58 459.265C1134.86 455.61 1127.54 442.186 1127.54 442.186C1127.54 442.186 1086.04 374.452 1079.94 372.01L1120.21 442.186C1120.21 442.186 1127.54 455.67 1134.25 459.265C1134.25 459.265 1184.29 523.344 1184.89 536.153C1185.49 548.963 1207.45 583.182 1207.45 583.182C1207.45 583.182 1214.78 638.706 1201.95 648.474C1201.95 648.474 1245.84 659.726 1272.15 658.707C1245.78 657.778 1209.3 648.429 1209.3 648.429Z" fill="black"/>
<path opacity="0.1" d="M1222.47 492.076L1222.11 491.612C1221.69 491.735 1221.26 491.83 1220.83 491.896C1221.4 491.971 1221.94 492.031 1222.47 492.076Z" fill="black"/>
</g>
<g opacity="0.1">
<path opacity="0.1" d="M1365.5 355.454L1365.13 355.529C1364.48 374.272 1351.48 418.304 1351.48 418.304C1351.48 426.23 1342.94 438.44 1342.94 438.44C1342.94 438.44 1307.55 492.75 1299.61 500.077C1291.67 507.403 1294.72 522.04 1294.72 522.04L1294.8 522.19C1294.56 517.261 1295.16 509.62 1300.21 504.946C1308.13 497.619 1343.54 443.309 1343.54 443.309C1343.54 443.309 1352.08 431.099 1352.08 423.173C1352.08 423.263 1367.94 369.567 1365.5 355.454Z" fill="black"/>
<path opacity="0.1" d="M1288.01 573.369C1288.93 578.553 1288.31 573.069 1288.63 578.253C1288.63 578.253 1303.61 560.679 1299.52 538.955C1300.75 558.372 1288.01 573.369 1288.01 573.369Z" fill="black"/>
</g>
<path opacity="0.1" d="M830.605 1190.91C1183.42 1163.54 1467.29 1113.88 1464.66 1079.99C1462.04 1046.1 1173.89 1040.82 821.084 1068.19C468.273 1095.56 184.395 1145.22 187.024 1179.11C189.653 1213 477.794 1218.28 830.605 1190.91Z" fill="#00B0FF"/>
<path d="M577.471 1067.1C577.471 1067.1 555.657 993.017 581.561 938.498C592.578 915.696 595.901 889.936 591.03 865.085C588.624 853.306 585.143 841.771 580.632 830.626" stroke="#535461" stroke-width="2" stroke-miterlimit="10"/>
<path d="M596.783 796.198C596.783 805.277 580.303 831.601 580.303 831.601C580.303 831.601 563.822 805.277 563.822 796.198C563.655 793.937 563.956 791.667 564.706 789.528C565.456 787.389 566.639 785.427 568.182 783.766C569.724 782.106 571.593 780.781 573.671 779.875C575.749 778.969 577.991 778.501 580.258 778.501C582.524 778.501 584.767 778.969 586.845 779.875C588.922 780.781 590.791 782.106 592.333 783.766C593.876 785.427 595.059 787.389 595.809 789.528C596.559 791.667 596.86 793.937 596.693 796.198H596.783Z" fill="#00B0FF"/>
<path d="M623.915 846.478C618.986 854.104 590.88 867.258 590.88 867.258C590.88 867.258 591.389 836.23 596.318 828.604C597.412 826.624 598.901 824.891 600.693 823.511C602.485 822.132 604.542 821.136 606.736 820.586C608.929 820.036 611.213 819.943 613.444 820.313C615.675 820.684 617.806 821.509 619.704 822.739C621.602 823.968 623.227 825.575 624.477 827.459C625.728 829.344 626.577 831.465 626.972 833.692C627.367 835.919 627.299 838.203 626.774 840.403C626.248 842.602 625.275 844.67 623.915 846.478Z" fill="#00B0FF"/>
<path d="M622.732 932.43C614.626 936.52 583.778 933.688 583.778 933.688C583.778 933.688 599.884 907.155 607.989 903.065C609.932 901.898 612.095 901.145 614.342 900.852C616.59 900.559 618.873 900.733 621.051 901.362C623.228 901.992 625.252 903.064 626.996 904.511C628.74 905.958 630.167 907.749 631.187 909.773C632.208 911.796 632.8 914.009 632.927 916.271C633.054 918.534 632.713 920.799 631.925 922.924C631.137 925.049 629.919 926.988 628.348 928.621C626.776 930.255 624.885 931.546 622.792 932.415L622.732 932.43Z" fill="#00B0FF"/>
<path d="M607.196 997.243C599.899 1002.64 568.946 1005.08 568.946 1005.08C568.946 1005.08 580.333 976.208 587.644 970.799C591.162 968.661 595.354 967.918 599.393 968.715C603.432 969.512 607.026 971.792 609.469 975.106C611.911 978.42 613.025 982.529 612.59 986.623C612.156 990.717 610.205 994.5 607.121 997.228L607.196 997.243Z" fill="#00B0FF"/>
<path d="M556.331 869.026C562.848 875.348 593.187 881.911 593.187 881.911C593.187 881.911 585.696 851.781 579.239 845.444C577.732 843.755 575.894 842.395 573.838 841.447C571.782 840.5 569.554 839.986 567.291 839.938C565.028 839.89 562.779 840.309 560.685 841.168C558.591 842.027 556.697 843.308 555.12 844.932C553.543 846.555 552.317 848.486 551.519 850.604C550.721 852.722 550.368 854.982 550.481 857.243C550.595 859.503 551.173 861.716 552.179 863.743C553.186 865.771 554.599 867.569 556.331 869.026Z" fill="#00B0FF"/>
<path d="M539.146 945.075C547.252 949.165 578.1 946.333 578.1 946.333C578.1 946.333 562.054 919.8 553.949 915.785C550.106 914.189 545.801 914.107 541.9 915.554C537.999 917 534.789 919.869 532.915 923.584C531.041 927.3 530.642 931.586 531.798 935.584C532.954 939.581 535.579 942.993 539.146 945.135V945.075Z" fill="#00B0FF"/>
<path d="M532.554 1021.27C539.851 1026.67 570.804 1029.11 570.804 1029.11C570.804 1029.11 559.417 1000.24 552.106 994.83C550.392 993.315 548.382 992.172 546.202 991.476C544.023 990.78 541.723 990.545 539.448 990.787C537.173 991.028 534.973 991.741 532.988 992.879C531.004 994.017 529.278 995.556 527.921 997.398C526.563 999.239 525.604 1001.34 525.105 1003.58C524.605 1005.81 524.576 1008.12 525.019 1010.37C525.462 1012.61 526.367 1014.74 527.677 1016.61C528.988 1018.49 530.674 1020.07 532.629 1021.26L532.554 1021.27Z" fill="#00B0FF"/>
<path opacity="0.1" d="M596.783 796.198C596.783 805.277 580.303 831.601 580.303 831.601C580.303 831.601 563.822 805.277 563.822 796.198C563.655 793.937 563.956 791.667 564.706 789.528C565.456 787.389 566.639 785.427 568.182 783.766C569.724 782.106 571.593 780.781 573.671 779.875C575.749 778.969 577.991 778.501 580.258 778.501C582.524 778.501 584.767 778.969 586.845 779.875C588.922 780.781 590.791 782.106 592.333 783.766C593.876 785.427 595.059 787.389 595.809 789.528C596.559 791.667 596.86 793.937 596.693 796.198H596.783Z" fill="#00B0FF"/>
<path opacity="0.1" d="M623.915 846.478C618.986 854.104 590.88 867.258 590.88 867.258C590.88 867.258 591.389 836.23 596.318 828.604C597.412 826.624 598.901 824.891 600.693 823.511C602.485 822.132 604.542 821.136 606.736 820.586C608.929 820.036 611.213 819.943 613.444 820.313C615.675 820.684 617.806 821.509 619.704 822.739C621.602 823.968 623.227 825.575 624.477 827.459C625.728 829.344 626.577 831.465 626.972 833.692C627.367 835.919 627.299 838.203 626.774 840.403C626.248 842.602 625.275 844.67 623.915 846.478Z" fill="#00B0FF"/>
<path opacity="0.1" d="M622.732 932.43C614.626 936.52 583.778 933.688 583.778 933.688C583.778 933.688 599.884 907.155 607.989 903.065C609.932 901.898 612.095 901.145 614.342 900.852C616.59 900.559 618.873 900.733 621.051 901.362C623.228 901.992 625.252 903.064 626.996 904.511C628.74 905.958 630.167 907.749 631.187 909.773C632.208 911.796 632.8 914.009 632.927 916.271C633.054 918.534 632.713 920.799 631.925 922.924C631.137 925.049 629.919 926.988 628.348 928.621C626.776 930.255 624.885 931.546 622.792 932.415L622.732 932.43Z" fill="#00B0FF"/>
<path opacity="0.1" d="M607.196 997.243C599.899 1002.64 568.946 1005.08 568.946 1005.08C568.946 1005.08 580.333 976.208 587.644 970.799C591.162 968.661 595.354 967.918 599.393 968.715C603.432 969.512 607.026 971.792 609.469 975.106C611.911 978.42 613.025 982.529 612.59 986.623C612.156 990.717 610.205 994.5 607.121 997.228L607.196 997.243Z" fill="#00B0FF"/>
<path opacity="0.1" d="M556.331 869.026C562.848 875.348 593.187 881.911 593.187 881.911C593.187 881.911 585.696 851.781 579.239 845.444C577.732 843.755 575.894 842.395 573.838 841.447C571.782 840.5 569.554 839.986 567.291 839.938C565.028 839.89 562.779 840.309 560.685 841.168C558.591 842.027 556.697 843.308 555.12 844.932C553.543 846.555 552.317 848.486 551.519 850.604C550.721 852.722 550.368 854.982 550.481 857.243C550.595 859.503 551.173 861.716 552.179 863.743C553.186 865.771 554.599 867.569 556.331 869.026Z" fill="#00B0FF"/>
<path opacity="0.1" d="M539.146 945.075C547.252 949.165 578.1 946.333 578.1 946.333C578.1 946.333 562.054 919.8 553.949 915.785C550.106 914.189 545.801 914.107 541.9 915.554C537.999 917 534.789 919.869 532.915 923.584C531.041 927.3 530.642 931.586 531.798 935.584C532.954 939.581 535.579 942.993 539.146 945.135V945.075Z" fill="#00B0FF"/>
<path opacity="0.1" d="M532.554 1021.27C539.851 1026.67 570.804 1029.11 570.804 1029.11C570.804 1029.11 559.417 1000.24 552.106 994.83C550.392 993.315 548.382 992.172 546.202 991.476C544.023 990.78 541.723 990.545 539.448 990.787C537.173 991.028 534.973 991.741 532.988 992.879C531.004 994.017 529.278 995.556 527.921 997.398C526.563 999.239 525.604 1001.34 525.105 1003.58C524.605 1005.81 524.576 1008.12 525.019 1010.37C525.462 1012.61 526.367 1014.74 527.677 1016.61C528.988 1018.49 530.674 1020.07 532.629 1021.26L532.554 1021.27Z" fill="#00B0FF"/>
<path d="M1018.9 1068.17C1018.9 1068.17 997.09 994.081 1022.99 939.562C1034.01 916.76 1037.33 891 1032.46 866.149C1030.06 854.369 1026.58 842.835 1022.06 831.69" stroke="#535461" stroke-width="2" stroke-miterlimit="10"/>
<path d="M1038.19 797.246C1038.19 806.326 1021.7 832.649 1021.7 832.649C1021.7 832.649 1005.22 806.326 1005.22 797.246C1005.53 793.097 1007.4 789.218 1010.44 786.387C1013.49 783.556 1017.5 781.982 1021.66 781.982C1025.82 781.982 1029.83 783.556 1032.88 786.387C1035.92 789.218 1037.79 793.097 1038.1 797.246H1038.19Z" fill="#00B0FF"/>
<path d="M1065.36 847.527C1060.43 855.152 1032.33 868.307 1032.33 868.307C1032.33 868.307 1032.84 837.279 1037.77 829.653C1038.86 827.673 1040.35 825.94 1042.14 824.56C1043.93 823.181 1045.99 822.185 1048.18 821.635C1050.38 821.085 1052.66 820.992 1054.89 821.362C1057.12 821.732 1059.25 822.558 1061.15 823.787C1063.05 825.017 1064.67 826.624 1065.92 828.508C1067.18 830.393 1068.02 832.514 1068.42 834.741C1068.81 836.968 1068.75 839.252 1068.22 841.452C1067.7 843.651 1066.72 845.719 1065.36 847.527Z" fill="#00B0FF"/>
<path d="M1064.22 933.479C1056.12 937.569 1025.27 934.737 1025.27 934.737C1025.27 934.737 1041.38 908.204 1049.48 904.114C1051.43 902.936 1053.6 902.174 1055.85 901.875C1058.1 901.577 1060.39 901.747 1062.58 902.377C1064.76 903.007 1066.8 904.082 1068.54 905.535C1070.29 906.987 1071.72 908.786 1072.74 910.819C1073.76 912.851 1074.35 915.072 1074.47 917.343C1074.59 919.613 1074.24 921.884 1073.44 924.012C1072.64 926.141 1071.41 928.081 1069.82 929.71C1068.24 931.339 1066.33 932.622 1064.22 933.479Z" fill="#00B0FF"/>
<path d="M1048.63 998.291C1041.33 1003.68 1010.38 1006.13 1010.38 1006.13C1010.38 1006.13 1021.77 977.256 1029.08 971.848C1032.59 969.71 1036.79 968.966 1040.83 969.764C1044.86 970.561 1048.46 972.841 1050.9 976.155C1053.34 979.469 1054.46 983.578 1054.02 987.672C1053.59 991.766 1051.64 995.549 1048.55 998.276L1048.63 998.291Z" fill="#00B0FF"/>
<path d="M997.793 870.074C1004.31 876.397 1034.65 882.959 1034.65 882.959C1034.65 882.959 1027.16 852.83 1020.7 846.493C1019.19 844.804 1017.36 843.443 1015.3 842.496C1013.24 841.549 1011.02 841.035 1008.75 840.987C1006.49 840.939 1004.24 841.357 1002.15 842.217C1000.05 843.076 998.159 844.357 996.582 845.98C995.005 847.604 993.779 849.535 992.981 851.653C992.183 853.771 991.83 856.031 991.944 858.291C992.057 860.552 992.635 862.764 993.642 864.792C994.648 866.819 996.061 868.617 997.793 870.074Z" fill="#00B0FF"/>
<path d="M980.579 946.124C988.685 950.214 1019.53 947.382 1019.53 947.382C1019.53 947.382 1003.43 920.849 995.322 916.759C991.479 915.163 987.175 915.08 983.273 916.527C979.372 917.974 976.162 920.843 974.288 924.558C972.414 928.273 972.015 932.56 973.171 936.557C974.327 940.555 976.952 943.967 980.52 946.109L980.579 946.124Z" fill="#00B0FF"/>
<path d="M974.003 1022.32C981.299 1027.72 1012.25 1030.16 1012.25 1030.16C1012.25 1030.16 1000.87 1001.29 993.554 995.879C990.036 993.741 985.844 992.998 981.805 993.795C977.766 994.592 974.172 996.872 971.729 1000.19C969.287 1003.5 968.173 1007.61 968.608 1011.7C969.042 1015.8 970.994 1019.58 974.077 1022.31L974.003 1022.32Z" fill="#00B0FF"/>
<path opacity="0.1" d="M1038.19 797.246C1038.19 806.326 1021.7 832.649 1021.7 832.649C1021.7 832.649 1005.22 806.326 1005.22 797.246C1005.53 793.097 1007.4 789.218 1010.44 786.387C1013.49 783.556 1017.5 781.982 1021.66 781.982C1025.82 781.982 1029.83 783.556 1032.88 786.387C1035.92 789.218 1037.79 793.097 1038.1 797.246H1038.19Z" fill="#00B0FF"/>
<path opacity="0.1" d="M1065.36 847.527C1060.43 855.152 1032.33 868.307 1032.33 868.307C1032.33 868.307 1032.84 837.279 1037.77 829.653C1038.86 827.673 1040.35 825.94 1042.14 824.56C1043.93 823.181 1045.99 822.185 1048.18 821.635C1050.38 821.085 1052.66 820.992 1054.89 821.362C1057.12 821.732 1059.25 822.558 1061.15 823.787C1063.05 825.017 1064.67 826.624 1065.92 828.508C1067.18 830.393 1068.02 832.514 1068.42 834.741C1068.81 836.968 1068.75 839.252 1068.22 841.452C1067.7 843.651 1066.72 845.719 1065.36 847.527Z" fill="#00B0FF"/>
<path opacity="0.1" d="M1064.22 933.479C1056.12 937.569 1025.27 934.737 1025.27 934.737C1025.27 934.737 1041.38 908.204 1049.48 904.114C1051.43 902.936 1053.6 902.174 1055.85 901.875C1058.1 901.577 1060.39 901.747 1062.58 902.377C1064.76 903.007 1066.8 904.082 1068.54 905.535C1070.29 906.987 1071.72 908.786 1072.74 910.819C1073.76 912.851 1074.35 915.072 1074.47 917.343C1074.59 919.613 1074.24 921.884 1073.44 924.012C1072.64 926.141 1071.41 928.081 1069.82 929.71C1068.24 931.339 1066.33 932.622 1064.22 933.479Z" fill="#00B0FF"/>
<path opacity="0.1" d="M1048.63 998.291C1041.33 1003.68 1010.38 1006.13 1010.38 1006.13C1010.38 1006.13 1021.77 977.256 1029.08 971.848C1032.59 969.71 1036.79 968.966 1040.83 969.764C1044.86 970.561 1048.46 972.841 1050.9 976.155C1053.34 979.469 1054.46 983.578 1054.02 987.672C1053.59 991.766 1051.64 995.549 1048.55 998.276L1048.63 998.291Z" fill="#00B0FF"/>
<path opacity="0.1" d="M997.793 870.074C1004.31 876.397 1034.65 882.959 1034.65 882.959C1034.65 882.959 1027.16 852.83 1020.7 846.493C1019.19 844.804 1017.36 843.443 1015.3 842.496C1013.24 841.549 1011.02 841.035 1008.75 840.987C1006.49 840.939 1004.24 841.357 1002.15 842.217C1000.05 843.076 998.159 844.357 996.582 845.98C995.005 847.604 993.779 849.535 992.981 851.653C992.183 853.771 991.83 856.031 991.944 858.291C992.057 860.552 992.635 862.764 993.642 864.792C994.648 866.819 996.061 868.617 997.793 870.074Z" fill="#00B0FF"/>
<path opacity="0.1" d="M980.579 946.124C988.685 950.214 1019.53 947.382 1019.53 947.382C1019.53 947.382 1003.43 920.849 995.322 916.759C991.479 915.163 987.175 915.08 983.273 916.527C979.372 917.974 976.162 920.843 974.288 924.558C972.414 928.273 972.015 932.56 973.171 936.557C974.327 940.555 976.952 943.967 980.52 946.109L980.579 946.124Z" fill="#00B0FF"/>
<path opacity="0.1" d="M974.003 1022.32C981.299 1027.72 1012.25 1030.16 1012.25 1030.16C1012.25 1030.16 1000.87 1001.29 993.554 995.879C990.036 993.741 985.844 992.998 981.805 993.795C977.766 994.592 974.172 996.872 971.729 1000.19C969.287 1003.5 968.173 1007.61 968.608 1011.7C969.042 1015.8 970.994 1019.58 974.077 1022.31L974.003 1022.32Z" fill="#00B0FF"/>
<path opacity="0.5" d="M1125.65 222.938H1116.24C1117.13 222.98 1118.02 222.841 1118.86 222.529C1119.7 222.218 1120.46 221.74 1121.11 221.124C1121.75 220.508 1122.27 219.768 1122.62 218.948C1122.97 218.128 1123.15 217.245 1123.15 216.353C1123.15 215.461 1122.97 214.578 1122.62 213.758C1122.27 212.938 1121.75 212.197 1121.11 211.582C1120.46 210.966 1119.7 210.488 1118.86 210.176C1118.02 209.865 1117.13 209.726 1116.24 209.768H1039.95C1038.26 209.849 1036.67 210.578 1035.5 211.804C1034.33 213.03 1033.68 214.659 1033.68 216.353C1033.68 218.047 1034.33 219.676 1035.5 220.902C1036.67 222.128 1038.26 222.857 1039.95 222.938H1049.36C1047.67 223.018 1046.07 223.747 1044.91 224.973C1043.74 226.199 1043.08 227.828 1043.08 229.522C1043.08 231.216 1043.74 232.845 1044.91 234.071C1046.07 235.297 1047.67 236.026 1049.36 236.107H1036.19C1035.3 236.064 1034.41 236.203 1033.58 236.515C1032.74 236.827 1031.98 237.305 1031.33 237.92C1030.68 238.536 1030.17 239.276 1029.82 240.096C1029.47 240.916 1029.29 241.799 1029.29 242.691C1029.29 243.584 1029.47 244.466 1029.82 245.286C1030.17 246.107 1030.68 246.847 1031.33 247.463C1031.98 248.078 1032.74 248.556 1033.58 248.868C1034.41 249.18 1035.3 249.319 1036.19 249.276H1112.42C1113.31 249.319 1114.2 249.18 1115.04 248.868C1115.88 248.556 1116.64 248.078 1117.28 247.463C1117.93 246.847 1118.44 246.107 1118.8 245.286C1119.15 244.466 1119.33 243.584 1119.33 242.691C1119.33 241.799 1119.15 240.916 1118.8 240.096C1118.44 239.276 1117.93 238.536 1117.28 237.92C1116.64 237.305 1115.88 236.827 1115.04 236.515C1114.2 236.203 1113.31 236.064 1112.42 236.107H1125.65C1127.34 236.026 1128.94 235.297 1130.11 234.071C1131.28 232.845 1131.93 231.216 1131.93 229.522C1131.93 227.828 1131.28 226.199 1130.11 224.973C1128.94 223.747 1127.34 223.018 1125.65 222.938Z" fill="#DEE3F3"/>
<path opacity="0.5" d="M684.847 261.352H677.686C678.367 261.389 679.049 261.287 679.689 261.052C680.33 260.817 680.915 260.454 681.411 259.985C681.906 259.516 682.301 258.951 682.57 258.324C682.84 257.698 682.979 257.022 682.979 256.34C682.979 255.658 682.84 254.983 682.57 254.356C682.301 253.73 681.906 253.165 681.411 252.696C680.915 252.227 680.33 251.864 679.689 251.629C679.049 251.394 678.367 251.292 677.686 251.329H619.675C618.393 251.399 617.187 251.957 616.305 252.89C615.422 253.822 614.93 255.057 614.93 256.34C614.93 257.624 615.422 258.859 616.305 259.791C617.187 260.723 618.393 261.282 619.675 261.352H626.837C626.155 261.315 625.474 261.417 624.833 261.652C624.193 261.887 623.607 262.25 623.112 262.719C622.616 263.188 622.222 263.753 621.952 264.379C621.683 265.006 621.544 265.681 621.544 266.363C621.544 267.046 621.683 267.721 621.952 268.347C622.222 268.974 622.616 269.539 623.112 270.008C623.607 270.477 624.193 270.84 624.833 271.075C625.474 271.31 626.155 271.412 626.837 271.375H616.814C616.132 271.338 615.451 271.44 614.81 271.675C614.17 271.91 613.584 272.273 613.089 272.742C612.593 273.211 612.199 273.776 611.929 274.402C611.66 275.029 611.521 275.704 611.521 276.386C611.521 277.069 611.66 277.744 611.929 278.37C612.199 278.997 612.593 279.562 613.089 280.031C613.584 280.5 614.17 280.863 614.81 281.098C615.451 281.333 616.132 281.435 616.814 281.398H674.824C675.506 281.435 676.187 281.333 676.828 281.098C677.468 280.863 678.054 280.5 678.549 280.031C679.045 279.562 679.439 278.997 679.709 278.37C679.978 277.744 680.117 277.069 680.117 276.386C680.117 275.704 679.978 275.029 679.709 274.402C679.439 273.776 679.045 273.211 678.549 272.742C678.054 272.273 677.468 271.91 676.828 271.675C676.187 271.44 675.506 271.338 674.824 271.375H684.847C686.129 271.305 687.335 270.746 688.218 269.814C689.1 268.882 689.592 267.647 689.592 266.363C689.592 265.08 689.1 263.845 688.218 262.913C687.335 261.98 686.129 261.422 684.847 261.352Z" fill="#DEE3F3"/>
<path d="M197.929 971.219C197.929 971.219 224.148 1022.68 202.783 1050.83C181.419 1078.98 204.731 1155.71 204.731 1155.71" stroke="#00B0FF" stroke-miterlimit="10"/>
<path d="M205.75 955.128C205.75 965.046 198.469 973.107 198.469 973.107C198.469 973.107 191.188 965.061 191.188 955.128C191.188 945.195 198.469 937.149 198.469 937.149C198.469 937.149 205.75 945.21 205.75 955.128Z" fill="#00B0FF"/>
<path d="M211.518 971.219C211.518 971.219 185.3 1022.68 206.664 1050.83C228.029 1078.98 204.716 1155.71 204.716 1155.71" stroke="#00B0FF" stroke-miterlimit="10"/>
<path d="M203.757 955.128C203.757 965.046 211.039 973.107 211.039 973.107C211.039 973.107 218.32 965.061 218.32 955.128C218.32 945.195 211.039 937.149 211.039 937.149C211.039 937.149 203.757 945.21 203.757 955.128Z" fill="#00B0FF"/>
<path opacity="0.1" d="M203.757 955.128C203.757 965.046 211.039 973.107 211.039 973.107C211.039 973.107 218.32 965.061 218.32 955.128C218.32 945.195 211.039 937.149 211.039 937.149C211.039 937.149 203.757 945.21 203.757 955.128Z" fill="black"/>
<path d="M222.23 971.219C222.23 971.219 248.449 1022.68 227.084 1050.83C205.72 1078.98 229.032 1155.71 229.032 1155.71" stroke="#00B0FF" stroke-miterlimit="10"/>
<path d="M229.976 955.128C229.976 965.046 222.695 973.107 222.695 973.107C222.695 973.107 215.414 965.061 215.414 955.128C215.414 945.195 222.695 937.149 222.695 937.149C222.695 937.149 229.976 945.21 229.976 955.128Z" fill="#00B0FF"/>
<path d="M225.886 996.359C219.009 1003.51 208.177 1004.25 208.177 1004.25C208.177 1004.25 208.507 993.407 215.384 986.276C222.26 979.144 233.092 978.38 233.092 978.38C233.092 978.38 232.718 989.197 225.886 996.359Z" fill="#00B0FF"/>
<path d="M226.575 1031.87C219.698 1039.01 208.866 1039.76 208.866 1039.76C208.866 1039.76 209.196 1028.91 216.073 1021.78C222.949 1014.65 233.781 1013.89 233.781 1013.89C233.781 1013.89 233.452 1024.7 226.575 1031.87Z" fill="#00B0FF"/>
<path d="M189.269 1051.39C195.772 1058.88 195.547 1069.73 195.547 1069.73C195.547 1069.73 184.775 1068.42 178.273 1060.93C171.77 1053.44 171.995 1042.59 171.995 1042.59C171.995 1042.59 182.767 1043.9 189.269 1051.39Z" fill="#00B0FF"/>
<path d="M195.262 975.713C203.533 981.197 206.214 991.714 206.214 991.714C206.214 991.714 195.487 993.347 187.217 987.864C178.947 982.38 176.265 971.863 176.265 971.863C176.265 971.863 187.037 970.2 195.262 975.713Z" fill="#00B0FF"/>
<path opacity="0.1" d="M195.262 975.713C203.533 981.197 206.214 991.714 206.214 991.714C206.214 991.714 195.487 993.347 187.217 987.864C178.947 982.38 176.265 971.863 176.265 971.863C176.265 971.863 187.037 970.2 195.262 975.713Z" fill="black"/>
<path d="M235.789 971.219C235.789 971.219 209.571 1022.68 230.935 1050.83C252.3 1078.98 228.987 1155.71 228.987 1155.71" stroke="#00B0FF" stroke-miterlimit="10"/>
<path d="M228.028 955.128C228.028 965.046 235.31 973.107 235.31 973.107C235.31 973.107 242.591 965.061 242.591 955.128C242.591 945.195 235.31 937.149 235.31 937.149C235.31 937.149 228.028 945.21 228.028 955.128Z" fill="#00B0FF"/>
<path opacity="0.1" d="M228.028 955.128C228.028 965.046 235.31 973.107 235.31 973.107C235.31 973.107 242.591 965.061 242.591 955.128C242.591 945.195 235.31 937.149 235.31 937.149C235.31 937.149 228.028 945.21 228.028 955.128Z" fill="black"/>
<path d="M230.126 997.123C223.159 1004.19 222.635 1015.1 222.635 1015.1C222.635 1015.1 233.467 1014.49 240.433 1007.42C247.4 1000.34 247.925 989.437 247.925 989.437C247.925 989.437 237.092 990.051 230.126 997.123Z" fill="#00B0FF"/>
<path opacity="0.1" d="M230.126 997.123C223.159 1004.19 222.635 1015.1 222.635 1015.1C222.635 1015.1 233.467 1014.49 240.433 1007.42C247.4 1000.34 247.925 989.437 247.925 989.437C247.925 989.437 237.092 990.051 230.126 997.123Z" fill="black"/>
<path d="M243.775 1046.28C236.808 1053.35 236.284 1064.26 236.284 1064.26C236.284 1064.26 247.116 1063.64 254.082 1056.57C261.049 1049.5 261.573 1038.59 261.573 1038.59C261.573 1038.59 250.696 1039.21 243.775 1046.28Z" fill="#00B0FF"/>
<path d="M223.729 1035.48C223.729 1035.48 239.505 1010.61 261.663 1010.01" stroke="#00B0FF" stroke-miterlimit="10"/>
<path d="M211.398 1020.45C211.398 1020.45 195.622 995.58 173.463 994.98" stroke="#00B0FF" stroke-miterlimit="10"/>
<path d="M209.346 1055.96C209.346 1055.96 225.122 1031.09 247.28 1030.49" stroke="#00B0FF" stroke-miterlimit="10"/>
<path d="M260.899 1013.96C263.158 1013.96 264.989 1012.13 264.989 1009.87C264.989 1007.61 263.158 1005.78 260.899 1005.78C258.64 1005.78 256.809 1007.61 256.809 1009.87C256.809 1012.13 258.64 1013.96 260.899 1013.96Z" fill="#00B0FF"/>
<path d="M173.853 999.28C176.112 999.28 177.943 997.449 177.943 995.19C177.943 992.931 176.112 991.1 173.853 991.1C171.594 991.1 169.763 992.931 169.763 995.19C169.763 997.449 171.594 999.28 173.853 999.28Z" fill="#00B0FF"/>
<path d="M220.957 1064.11C220.957 1064.11 205.18 1039.24 183.022 1038.64" stroke="#00B0FF" stroke-miterlimit="10"/>
<path d="M183.411 1042.97C185.67 1042.97 187.502 1041.14 187.502 1038.88C187.502 1036.62 185.67 1034.79 183.411 1034.79C181.153 1034.79 179.321 1036.62 179.321 1038.88C179.321 1041.14 181.153 1042.97 183.411 1042.97Z" fill="#00B0FF"/>
<path d="M247.58 1034.79C249.839 1034.79 251.67 1032.96 251.67 1030.7C251.67 1028.44 249.839 1026.61 247.58 1026.61C245.321 1026.61 243.49 1028.44 243.49 1030.7C243.49 1032.96 245.321 1034.79 247.58 1034.79Z" fill="#00B0FF"/>
<path opacity="0.2" d="M173.823 1151.47C216.926 1159.08 275.237 1161.61 287.912 1156.53C297.56 1152.67 304.272 1134.06 306.924 1125.49L308.197 1125.76C308.197 1125.76 300.586 1156.19 287.912 1161.25C275.237 1166.32 216.926 1163.78 173.823 1156.19C161.388 1153.99 157.822 1148.83 159.17 1142.31C160.219 1146.51 164.564 1149.84 173.823 1151.47Z" fill="black"/>
<path d="M1462.64 982.875C1462.64 982.875 1475.2 999.355 1456.85 1024.08C1438.49 1048.8 1423.36 1069.79 1429.49 1085.25C1429.49 1085.25 1457.17 1039.21 1479.71 1038.56C1502.24 1037.92 1487.44 1010.55 1462.64 982.875Z" fill="#00B0FF"/>
<path opacity="0.1" d="M1462.64 982.875C1463.74 984.463 1464.6 986.198 1465.21 988.029C1487.2 1013.86 1498.9 1037.96 1477.78 1038.58C1458.09 1039.15 1434.48 1074.34 1428.81 1083.24C1429 1083.93 1429.23 1084.6 1429.49 1085.26C1429.49 1085.26 1457.18 1039.22 1479.71 1038.58C1502.24 1037.93 1487.44 1010.55 1462.64 982.875Z" fill="black"/>
<path d="M1485.99 1003.79C1485.99 1009.57 1485.34 1014.28 1484.49 1014.28C1483.63 1014.28 1482.99 1009.59 1482.99 1003.79C1482.99 997.992 1483.8 1000.79 1484.59 1000.79C1485.39 1000.79 1485.99 998.022 1485.99 1003.79Z" fill="#FFD037"/>
<path d="M1494 1010.7C1488.92 1013.47 1484.5 1015.19 1484.13 1014.43C1483.75 1013.66 1487.54 1010.91 1492.62 1008.15C1497.7 1005.39 1495.69 1007.4 1496.08 1008.15C1496.47 1008.9 1499.06 1007.92 1494 1010.7Z" fill="#FFD037"/>
<path d="M1396.33 982.875C1396.33 982.875 1383.78 999.355 1402.13 1024.08C1420.48 1048.8 1435.62 1069.79 1429.49 1085.25C1429.49 1085.25 1401.8 1039.21 1379.27 1038.56C1356.74 1037.92 1371.54 1010.55 1396.33 982.875Z" fill="#00B0FF"/>
<path opacity="0.1" d="M1396.33 982.875C1395.24 984.463 1394.38 986.198 1393.77 988.029C1371.78 1013.86 1360.08 1037.96 1381.2 1038.58C1400.89 1039.15 1424.5 1074.34 1430.16 1083.24C1429.98 1083.93 1429.75 1084.6 1429.49 1085.26C1429.49 1085.26 1401.8 1039.22 1379.27 1038.58C1356.74 1037.93 1371.54 1010.55 1396.33 982.875Z" fill="black"/>
<path d="M1372.99 1003.79C1372.99 1009.57 1373.63 1014.28 1374.49 1014.28C1375.34 1014.28 1375.99 1009.59 1375.99 1003.79C1375.99 997.992 1375.18 1000.79 1374.38 1000.79C1373.59 1000.79 1372.99 998.022 1372.99 1003.79Z" fill="#FFD037"/>
<path d="M1364.98 1010.7C1370.05 1013.47 1374.47 1015.19 1374.85 1014.43C1375.22 1013.66 1371.43 1010.91 1366.35 1008.15C1361.27 1005.39 1363.28 1007.4 1362.89 1008.15C1362.5 1008.9 1359.9 1007.92 1364.98 1010.7Z" fill="#FFD037"/>
<path opacity="0.2" d="M1493.12 1126.24C1453.49 1126.55 1401.04 1120.07 1390.47 1113.64C1382.43 1108.74 1379.22 1091.17 1378.16 1083.06H1376.99C1376.99 1083.06 1379.21 1111.38 1389.77 1117.8C1400.33 1124.23 1452.79 1130.73 1492.41 1130.4C1503.86 1130.31 1507.8 1126.24 1507.59 1120.22C1506 1123.89 1501.7 1126.16 1493.12 1126.24Z" fill="black"/>
<path opacity="0.5" d="M388.442 311.826H379.033C379.924 311.869 380.815 311.73 381.651 311.418C382.486 311.107 383.25 310.629 383.896 310.013C384.542 309.397 385.056 308.657 385.407 307.837C385.758 307.017 385.939 306.134 385.939 305.242C385.939 304.35 385.758 303.467 385.407 302.647C385.056 301.827 384.542 301.086 383.896 300.471C383.25 299.855 382.486 299.377 381.651 299.065C380.815 298.753 379.924 298.615 379.033 298.657H302.804C301.112 298.738 299.516 299.467 298.347 300.693C297.178 301.919 296.526 303.548 296.526 305.242C296.526 306.936 297.178 308.565 298.347 309.791C299.516 311.017 301.112 311.746 302.804 311.826H312.213C310.521 311.907 308.925 312.636 307.756 313.862C306.587 315.088 305.935 316.717 305.935 318.411C305.935 320.105 306.587 321.734 307.756 322.96C308.925 324.186 310.521 324.915 312.213 324.996H299.044C297.352 325.076 295.756 325.805 294.587 327.031C293.418 328.257 292.766 329.886 292.766 331.58C292.766 333.274 293.418 334.903 294.587 336.129C295.756 337.355 297.352 338.084 299.044 338.165H375.273C376.164 338.207 377.054 338.069 377.89 337.757C378.726 337.445 379.49 336.967 380.136 336.351C380.781 335.736 381.295 334.996 381.647 334.175C381.998 333.355 382.179 332.472 382.179 331.58C382.179 330.688 381.998 329.805 381.647 328.985C381.295 328.165 380.781 327.425 380.136 326.809C379.49 326.194 378.726 325.715 377.89 325.404C377.054 325.092 376.164 324.953 375.273 324.996H388.442C390.134 324.915 391.73 324.186 392.899 322.96C394.068 321.734 394.72 320.105 394.72 318.411C394.72 316.717 394.068 315.088 392.899 313.862C391.73 312.636 390.134 311.907 388.442 311.826Z" fill="#DEE3F3"/>
<defs>
<linearGradient id="paint0_linear" x1="811.926" y1="1014.67" x2="811.926" y2="394.408" gradientUnits="userSpaceOnUse">
<stop stop-color="#808080" stop-opacity="0.25"/>
<stop offset="0.54" stop-color="#808080" stop-opacity="0.12"/>
<stop offset="1" stop-color="#808080" stop-opacity="0.1"/>
</linearGradient>
<linearGradient id="paint1_linear" x1="695.624" y1="909.223" x2="695.624" y2="909.151" gradientUnits="userSpaceOnUse">
<stop stop-color="#808080" stop-opacity="0.25"/>
<stop offset="0.54" stop-color="#808080" stop-opacity="0.12"/>
<stop offset="1" stop-color="#808080" stop-opacity="0.1"/>
</linearGradient>
<linearGradient id="paint2_linear" x1="96600.1" y1="303136" x2="96600.1" y2="136021" gradientUnits="userSpaceOnUse">
<stop stop-color="#808080" stop-opacity="0.25"/>
<stop offset="0.54" stop-color="#808080" stop-opacity="0.12"/>
<stop offset="1" stop-color="#808080" stop-opacity="0.1"/>
</linearGradient>
<linearGradient id="paint3_linear" x1="271900" y1="367417" x2="271900" y2="119226" gradientUnits="userSpaceOnUse">
<stop stop-color="#808080" stop-opacity="0.25"/>
<stop offset="0.54" stop-color="#808080" stop-opacity="0.12"/>
<stop offset="1" stop-color="#808080" stop-opacity="0.1"/>
</linearGradient>
</defs>
</svg>
