<svg width="814" height="681" viewBox="0 0 814 681" fill="none" xmlns="http://www.w3.org/2000/svg">
<mask id="mask0" mask-type="alpha" maskUnits="userSpaceOnUse" x="0" y="0" width="814" height="681">
<rect width="814" height="680.597" fill="white"/>
</mask>
<g mask="url(#mask0)">
<path opacity="0.1" d="M678.562 161.927C683.606 212.605 723.442 256.435 761.052 286.253C773.643 296.239 787.236 306.549 795.155 322.443C804.838 341.879 803.091 364.293 796.855 381.133C785.459 411.798 760.057 430.616 730.699 430.117C705.344 429.684 678.262 415.819 653.088 416.311C610.98 417.11 583.15 457.426 565.173 500.523C552.44 530.975 540.143 566.738 511.934 573.387C492.098 578.077 468.614 566.469 448.786 549.456C439.215 541.243 429.77 531.496 419.299 527.669C413.072 525.397 406.906 525.404 401.004 526.054C347.165 532.016 311.516 588.719 256.74 590.735C219.748 592.103 179.271 567.45 146.093 533.361C112.915 499.272 85.9015 456.306 60.2904 413.249C42.0854 382.634 23.539 349.171 20.8117 315.037C17.9301 278.929 34.2603 249.307 57.3951 235.25C80.5298 221.194 109.454 220.543 138.117 224.863C173.94 230.261 212.187 242.895 243.175 229.777C264.282 220.842 279.509 200.854 295.98 183.54C323.475 154.623 355.434 132.446 387.512 110.877C418.221 90.228 449.441 69.8787 484.675 59.2941C509.611 51.8125 536.1 55.6782 561.724 51.77C578.427 49.222 592.331 39.8887 609.875 40.1054C631.486 40.3749 658.135 50.9988 671.639 79.8644C684.474 107.333 675.883 135.035 678.562 161.927Z" fill="#6C63FF"/>
<path d="M539.422 282.963C539.422 282.963 612.343 221.861 628.559 191.053C644.775 160.246 665.417 133.698 665.417 133.698" stroke="#535461" stroke-width="2" stroke-miterlimit="10"/>
<path d="M655.829 202.569L624.285 195.457C624.285 195.457 631.729 228.727 655.829 202.569Z" fill="#6C63FF"/>
<path d="M607.629 168.606L625.78 195.79C625.78 195.79 590.294 198.353 607.629 168.606Z" fill="#6C63FF"/>
<path d="M668.24 177.018L639.411 171.964C639.411 171.964 657.519 199.508 668.24 177.018Z" fill="#6C63FF"/>
<path d="M625.578 152.723L639.779 171.321C639.779 171.321 614.64 173.704 625.578 152.723Z" fill="#6C63FF"/>
<path d="M654.32 149.019C654.32 149.019 678.868 150.188 681.756 152.535C684.644 154.881 678.096 168.635 668.76 166.39C659.425 164.144 654.32 149.019 654.32 149.019Z" fill="#6C63FF"/>
<path d="M644.508 127.077C644.508 127.077 654.537 145.351 654.161 148.831C653.786 152.311 638.877 156.217 635.866 143.055C632.855 129.893 644.508 127.077 644.508 127.077Z" fill="#6C63FF"/>
<path d="M675.694 141.034C676.83 137.439 674.836 133.604 671.241 132.469C667.646 131.334 663.811 133.328 662.676 136.923C661.541 140.518 663.535 144.352 667.13 145.488C670.725 146.623 674.559 144.629 675.694 141.034Z" fill="#FFD037"/>
<path d="M665.009 134.009C666.144 130.414 664.15 126.58 660.555 125.445C656.96 124.309 653.126 126.303 651.99 129.898C650.855 133.493 652.849 137.328 656.444 138.463C660.039 139.598 663.873 137.604 665.009 134.009Z" fill="#FFD037"/>
<path d="M311.972 522.485C311.972 522.485 323.675 487.67 249.483 445.701C249.483 445.701 174.15 423.731 181.854 348.282C181.854 348.282 95.0125 411.904 153.776 492.948C212.539 573.992 263.259 556.303 263.259 556.303L311.972 522.485Z" fill="#6C63FF"/>
<path d="M289.352 538.21C289.352 538.21 253.151 499.085 218.452 483.959C211.52 480.84 205.151 476.597 199.601 471.404C177.479 451.188 167.833 420.684 173.537 391.262L181.876 348.282" stroke="#535461" stroke-width="2" stroke-miterlimit="10"/>
<path d="M611.037 85.3677H199.059V563.711H611.037V85.3677Z" fill="url(#paint0_linear)"/>
<path d="M606.242 90.9342H203.86V558.13H606.242V90.9342Z" fill="#F7F7FD"/>
<path d="M329.884 143.596H228.163V151.697H329.884V143.596Z" fill="#E2E2EC"/>
<path d="M401.896 163.401H228.163V171.502H401.896V163.401Z" fill="#E2E2EC"/>
<path d="M586.973 135.857H514.78V198.15H586.973V135.857Z" fill="white"/>
<path d="M586.59 136.218V197.789H515.113V136.218H586.59ZM587.312 135.496H514.391V198.511H587.312V135.496Z" fill="#E2E2EC"/>
<path d="M514.058 135.857H441.866V198.15H514.058V135.857Z" fill="white"/>
<path d="M513.669 136.218V197.789H442.191V136.218H513.669ZM514.391 135.496H441.469V198.511H514.391V135.496Z" fill="#E2E2EC"/>
<path d="M586.973 198.872H514.78V261.166H586.973V198.872Z" fill="white"/>
<path d="M586.59 199.233V260.805H515.113V199.233H586.59ZM587.312 198.511H514.391V261.527H587.312V198.511Z" fill="#E2E2EC"/>
<path d="M514.058 198.872H441.866V261.166H514.058V198.872Z" fill="white"/>
<path d="M513.669 199.233V260.805H442.191V199.233H513.669ZM514.391 198.511H441.469V261.527H514.391V198.511Z" fill="#E2E2EC"/>
<path d="M441.144 198.872H368.952V261.166H441.144V198.872Z" fill="white"/>
<path d="M440.783 199.233V260.805H369.305V199.233H440.783ZM441.505 198.511H368.583V261.527H441.505V198.511Z" fill="#E2E2EC"/>
<path d="M368.23 198.872H296.038V261.166H368.23V198.872Z" fill="white"/>
<path d="M367.869 199.233V260.805H296.391V199.233H367.869ZM368.591 198.511H295.669V261.527H368.591V198.511Z" fill="#E2E2EC"/>
<path d="M295.316 198.872H223.123V261.166H295.316V198.872Z" fill="white"/>
<path d="M294.955 199.233V260.805H223.477V199.233H294.955ZM295.677 198.511H222.755V261.527H295.677V198.511Z" fill="#E2E2EC"/>
<path d="M586.973 261.881H514.78V324.175H586.973V261.881Z" fill="white"/>
<path d="M586.59 262.249V323.821H515.113V262.249H586.59ZM587.312 261.527H514.391V324.543H587.312V261.527Z" fill="#E2E2EC"/>
<path d="M514.058 261.881H441.866V324.175H514.058V261.881Z" fill="white"/>
<path d="M513.669 262.249V323.821H442.191V262.249H513.669ZM514.391 261.527H441.469V324.543H514.391V261.527Z" fill="#E2E2EC"/>
<path d="M441.144 261.881H368.952V324.175H441.144V261.881Z" fill="white"/>
<path d="M440.783 262.249V323.821H369.305V262.249H440.783ZM441.505 261.527H368.583V324.543H441.505V261.527Z" fill="#E2E2EC"/>
<path d="M368.23 261.881H296.038V324.175H368.23V261.881Z" fill="white"/>
<path d="M367.869 262.249V323.821H296.391V262.249H367.869ZM368.591 261.527H295.669V324.543H368.591V261.527Z" fill="#E2E2EC"/>
<path d="M295.316 261.881H223.123V324.175H295.316V261.881Z" fill="white"/>
<path d="M294.955 262.249V323.821H223.477V262.249H294.955ZM295.677 261.527H222.755V324.543H295.677V261.527Z" fill="#E2E2EC"/>
<path d="M586.973 324.897H514.78V387.19H586.973V324.897Z" fill="white"/>
<path d="M586.59 325.258V386.829H515.113V325.258H586.59ZM587.312 324.536H514.391V387.551H587.312V324.536Z" fill="#E2E2EC"/>
<path d="M514.058 324.897H441.866V387.19H514.058V324.897Z" fill="white"/>
<path d="M513.669 325.258V386.829H442.191V325.258H513.669ZM514.391 324.536H441.469V387.551H514.391V324.536Z" fill="#E2E2EC"/>
<path d="M441.144 324.897H368.952V387.19H441.144V324.897Z" fill="white"/>
<path d="M440.783 325.258V386.829H369.305V325.258H440.783ZM441.505 324.536H368.583V387.551H441.505V324.536Z" fill="#E2E2EC"/>
<path d="M368.23 324.897H296.038V387.19H368.23V324.897Z" fill="white"/>
<path d="M367.869 325.258V386.829H296.391V325.258H367.869ZM368.591 324.536H295.669V387.551H368.591V324.536Z" fill="#E2E2EC"/>
<path d="M295.316 324.897H223.123V387.19H295.316V324.897Z" fill="white"/>
<path d="M294.955 325.258V386.829H223.477V325.258H294.955ZM295.677 324.536H222.755V387.551H295.677V324.536Z" fill="#E2E2EC"/>
<path d="M586.973 387.905H514.78V450.199H586.973V387.905Z" fill="white"/>
<path d="M586.59 388.273V449.838H515.113V388.273H586.59ZM587.312 387.551H514.391V450.56H587.312V387.551Z" fill="#E2E2EC"/>
<path d="M514.058 387.905H441.866V450.199H514.058V387.905Z" fill="white"/>
<path d="M513.669 388.273V449.838H442.191V388.273H513.669ZM514.391 387.551H441.469V450.56H514.391V387.551Z" fill="#E2E2EC"/>
<path d="M441.144 387.905H368.952V450.199H441.144V387.905Z" fill="white"/>
<path d="M440.783 388.273V449.838H369.305V388.273H440.783ZM441.505 387.551H368.583V450.56H441.505V387.551Z" fill="#E2E2EC"/>
<path d="M368.23 387.905H296.038V450.199H368.23V387.905Z" fill="white"/>
<path d="M367.869 388.273V449.838H296.391V388.273H367.869ZM368.591 387.551H295.669V450.56H368.591V387.551Z" fill="#E2E2EC"/>
<path d="M295.316 387.905H223.123V450.199H295.316V387.905Z" fill="white"/>
<path d="M294.955 388.273V449.838H223.477V388.273H294.955ZM295.677 387.551H222.755V450.56H295.677V387.551Z" fill="#E2E2EC"/>
<path d="M586.973 450.921H514.78V513.214H586.973V450.921Z" fill="white"/>
<path d="M586.59 451.282V512.854H515.113V451.282H586.59ZM587.312 450.56H514.391V513.576H587.312V450.56Z" fill="#E2E2EC"/>
<path d="M514.058 450.921H441.866V513.214H514.058V450.921Z" fill="white"/>
<path d="M513.669 451.282V512.854H442.191V451.282H513.669ZM514.391 450.56H441.469V513.576H514.391V450.56Z" fill="#E2E2EC"/>
<path d="M441.144 450.921H368.952V513.214H441.144V450.921Z" fill="white"/>
<path d="M440.783 451.282V512.854H369.305V451.282H440.783ZM441.505 450.56H368.583V513.576H441.505V450.56Z" fill="#E2E2EC"/>
<path d="M368.23 450.921H296.038V513.214H368.23V450.921Z" fill="white"/>
<path d="M367.869 451.282V512.854H296.391V451.282H367.869ZM368.591 450.56H295.669V513.576H368.591V450.56Z" fill="#E2E2EC"/>
<path d="M295.316 450.921H223.123V513.214H295.316V450.921Z" fill="white"/>
<path d="M294.955 451.282V512.854H223.477V451.282H294.955ZM295.677 450.56H222.755V513.576H295.677V450.56Z" fill="#E2E2EC"/>
<path d="M374.756 570.324C376.821 568.758 378.763 566.909 379.363 564.657C379.67 563.465 379.507 562.2 378.908 561.125C378.309 560.049 377.318 559.246 376.143 558.881C373.19 557.957 370.035 559.603 367.638 561.314C365.241 563.025 362.504 564.924 359.371 564.57C362.612 562.224 364.158 558.419 363.262 554.96C363.109 554.215 362.731 553.535 362.179 553.011C360.54 551.567 357.566 552.195 355.602 553.322C349.357 556.931 347.617 563.827 347.581 570.057C346.952 567.812 347.479 565.473 347.465 563.162C347.451 560.852 346.678 558.303 344.295 557.061C342.771 556.4 341.119 556.082 339.458 556.13C336.65 556.043 333.523 556.274 331.61 557.95C329.227 560.029 329.848 563.523 331.92 565.812C333.993 568.101 337.148 569.538 340.043 571.119C342.252 572.324 344.49 573.732 345.819 575.638C345.993 575.891 346.138 576.162 346.252 576.447H363.847C367.723 574.865 371.387 572.809 374.756 570.324Z" fill="#6C63FF"/>
<path d="M232.646 212.46C234.919 212.46 236.762 210.618 236.762 208.345C236.762 206.072 234.919 204.23 232.646 204.23C230.374 204.23 228.531 206.072 228.531 208.345C228.531 210.618 230.374 212.46 232.646 212.46Z" fill="#FC6681"/>
<path d="M242.928 212.46C245.2 212.46 247.043 210.618 247.043 208.345C247.043 206.072 245.2 204.23 242.928 204.23C240.655 204.23 238.812 206.072 238.812 208.345C238.812 210.618 240.655 212.46 242.928 212.46Z" fill="#FFD037"/>
<path d="M377.969 273.469C380.242 273.469 382.085 271.626 382.085 269.353C382.085 267.081 380.242 265.238 377.969 265.238C375.697 265.238 373.854 267.081 373.854 269.353C373.854 271.626 375.697 273.469 377.969 273.469Z" fill="#6C63FF"/>
<path d="M388.258 273.469C390.531 273.469 392.373 271.626 392.373 269.353C392.373 267.081 390.531 265.238 388.258 265.238C385.985 265.238 384.143 267.081 384.143 269.353C384.143 271.626 385.985 273.469 388.258 273.469Z" fill="#6C63FF"/>
<path d="M598.012 391.371C600.285 391.371 602.127 389.528 602.127 387.255C602.127 384.982 600.285 383.14 598.012 383.14C595.739 383.14 593.896 384.982 593.896 387.255C593.896 389.528 595.739 391.371 598.012 391.371Z" fill="#6C63FF"/>
<path d="M600.07 386.577C602.343 386.577 604.185 384.734 604.185 382.461C604.185 380.188 602.343 378.346 600.07 378.346C597.797 378.346 595.954 380.188 595.954 382.461C595.954 384.734 597.797 386.577 600.07 386.577Z" fill="#6C63FF"/>
<path d="M602.127 382.461C604.4 382.461 606.243 380.619 606.243 378.346C606.243 376.073 604.4 374.231 602.127 374.231C599.854 374.231 598.012 376.073 598.012 378.346C598.012 380.619 599.854 382.461 602.127 382.461Z" fill="#6C63FF"/>
<path d="M525.35 212.46C527.623 212.46 529.466 210.618 529.466 208.345C529.466 206.072 527.623 204.23 525.35 204.23C523.077 204.23 521.235 206.072 521.235 208.345C521.235 210.618 523.077 212.46 525.35 212.46Z" fill="#6C63FF"/>
<path d="M535.631 212.46C537.904 212.46 539.747 210.618 539.747 208.345C539.747 206.072 537.904 204.23 535.631 204.23C533.359 204.23 531.516 206.072 531.516 208.345C531.516 210.618 533.359 212.46 535.631 212.46Z" fill="#6C63FF"/>
<path d="M545.92 212.46C548.193 212.46 550.035 210.618 550.035 208.345C550.035 206.072 548.193 204.23 545.92 204.23C543.647 204.23 541.805 206.072 541.805 208.345C541.805 210.618 543.647 212.46 545.92 212.46Z" fill="#6C63FF"/>
<path d="M556.201 212.46C558.474 212.46 560.316 210.618 560.316 208.345C560.316 206.072 558.474 204.23 556.201 204.23C553.928 204.23 552.086 206.072 552.086 208.345C552.086 210.618 553.928 212.46 556.201 212.46Z" fill="#6C63FF"/>
<path d="M525.35 339.957C527.623 339.957 529.466 338.115 529.466 335.842C529.466 333.569 527.623 331.727 525.35 331.727C523.077 331.727 521.235 333.569 521.235 335.842C521.235 338.115 523.077 339.957 525.35 339.957Z" fill="#6C63FF"/>
<path d="M535.631 339.957C537.904 339.957 539.747 338.115 539.747 335.842C539.747 333.569 537.904 331.727 535.631 331.727C533.359 331.727 531.516 333.569 531.516 335.842C531.516 338.115 533.359 339.957 535.631 339.957Z" fill="#6C63FF"/>
<path d="M545.92 339.957C548.193 339.957 550.035 338.115 550.035 335.842C550.035 333.569 548.193 331.727 545.92 331.727C543.647 331.727 541.805 333.569 541.805 335.842C541.805 338.115 543.647 339.957 545.92 339.957Z" fill="#6C63FF"/>
<path d="M556.201 339.957C558.474 339.957 560.316 338.115 560.316 335.842C560.316 333.569 558.474 331.727 556.201 331.727C553.928 331.727 552.086 333.569 552.086 335.842C552.086 338.115 553.928 339.957 556.201 339.957Z" fill="#6C63FF"/>
<path d="M305.308 273.469C307.581 273.469 309.423 271.626 309.423 269.353C309.423 267.081 307.581 265.238 305.308 265.238C303.035 265.238 301.192 267.081 301.192 269.353C301.192 271.626 303.035 273.469 305.308 273.469Z" fill="#FFD037"/>
<path d="M232.646 335.849C234.919 335.849 236.762 334.007 236.762 331.734C236.762 329.461 234.919 327.619 232.646 327.619C230.374 327.619 228.531 329.461 228.531 331.734C228.531 334.007 230.374 335.849 232.646 335.849Z" fill="#FC6681"/>
<path d="M594.46 397.58C598.972 400.244 606.012 401.977 614.928 396.251L614.842 408.93C615.477 417.594 626.228 449.296 626.228 449.296L633.809 475.36C639.241 493.773 642.045 512.861 642.14 532.059C642.14 538.419 642.732 544.975 644.559 549.906C648.595 560.816 642.971 574.873 640.53 580.107C636.423 581.495 632.246 582.671 628.018 583.631C627.638 583.718 627.264 583.832 626.899 583.97L626.848 583.898C626.848 583.898 615.47 588.41 610.416 587.789C606.647 587.327 604.286 592.028 607.239 595.486C604.452 596.208 601.593 596.721 599.665 596.482C594.611 595.861 592.077 604.554 601.564 607.038C611.051 609.522 664.804 607.038 664.804 607.038C666.316 606.281 667.533 605.044 668.265 603.52C668.997 601.996 669.202 600.272 668.847 598.619C672.977 598.461 675.554 598.338 675.554 598.338C675.554 598.338 685.041 594.006 675.554 582.187L675.049 582.569L673.02 576.599V568.534C673.02 568.534 685.034 510.774 681.244 503.944C677.453 497.114 675.554 462.336 675.554 462.336L676.839 424.453C680.269 417.377 682.023 406.287 682.911 397.616C684.202 393.479 685.016 389.209 685.337 384.887C685.489 382.851 685.612 380.714 685.691 378.498C685.723 373.636 684.927 368.804 683.337 364.209C686.947 359.011 692.817 350.975 697.662 346.224C705.25 338.773 703.351 330.073 703.351 330.073L700.189 308.955L692.601 272.935C693.554 262.942 691.467 257.188 689.164 253.939C689.713 250.712 690.225 247.484 690.608 244.243C692.29 230.145 691.54 215.864 688.391 202.02C687.294 197.19 685.799 192.237 682.413 188.577C678.579 184.433 672.356 181.906 670.926 176.476C670.572 175.126 670.558 173.689 670.045 172.39C668.659 168.838 664.269 167.545 660.428 167.083C653.584 166.253 643.685 165.639 637.108 168.31C632.516 170.188 626.191 175.357 623.679 180.902C622.235 183.451 621.563 186.129 622.177 188.649C622.419 189.577 622.786 190.469 623.267 191.299C622.287 193.955 621.789 196.764 621.795 199.595C621.817 204.461 623.305 209.207 626.063 213.216C628.822 217.225 632.723 220.31 637.26 222.07C637.411 222.547 637.548 223.016 637.664 223.478C637.951 224.591 638.159 225.722 638.285 226.864C638.162 229.03 638.025 231.261 637.924 233.463C637.852 233.767 637.775 234.065 637.693 234.359C632.254 236.766 626.952 239.471 621.809 242.459C625.607 248.048 621.174 271.65 621.174 271.65C611.687 277.238 602.2 291.526 612.322 306.428C622.444 321.33 616.748 337.474 616.748 337.474L615.167 361.755V361.798L614.849 366.657H614.972L614.849 368.498L615.123 368.549V370.527C610.683 372.158 604.192 375.451 600.322 381.537C598.492 384.531 596.265 387.264 593.702 389.66C593.113 390.169 592.654 390.812 592.365 391.535C592.075 392.258 591.963 393.04 592.037 393.815C592.111 394.591 592.37 395.337 592.791 395.992C593.213 396.647 593.785 397.191 594.46 397.58ZM670.818 333.062C670.437 328.862 671.214 324.637 673.063 320.846C674.551 320.875 676.04 320.892 677.533 320.897C677.684 321.944 677.865 322.94 678.081 323.85C679.366 329.323 674.233 331.943 670.811 333.055L670.818 333.062Z" fill="url(#paint1_linear)"/>
<path d="M672.067 573.768L674.5 581.068L666.558 589.009L640.393 595.096L621.527 593.269L622.747 586.576C623.108 585.137 623.858 583.826 624.915 582.785C625.972 581.744 627.295 581.015 628.74 580.678C636.494 578.858 651.281 574.7 654.385 568.931L672.067 573.768Z" fill="#DB8B8B"/>
<path opacity="0.1" d="M672.067 573.768L674.5 581.068L666.558 589.009L640.393 595.096L621.527 593.269L622.747 586.576C623.108 585.137 623.858 583.826 624.915 582.785C625.972 581.744 627.295 581.015 628.74 580.678C636.494 578.858 651.281 574.7 654.385 568.931L672.067 573.768Z" fill="black"/>
<path d="M627.642 591.414L631.296 586.548L627.642 580.909C627.642 580.909 616.69 585.327 611.824 584.721C606.957 584.115 604.524 592.663 613.65 595.067C622.776 597.471 674.5 595.067 674.5 595.067C674.5 595.067 683.626 590.807 674.5 579.248L666.558 585.335C666.558 585.335 653.172 592.634 646.479 591.421L627.642 591.414Z" fill="#2E3037"/>
<path d="M611.21 601.746L630.076 603.572L656.241 597.486L664.183 589.544L663.54 587.609L662.63 584.894L661.721 582.252L644.075 577.385C643.174 578.857 641.937 580.094 640.465 580.995C634.733 584.916 624.437 587.746 618.394 589.161C618.149 589.221 617.908 589.296 617.672 589.385C616.392 589.815 615.241 590.56 614.325 591.552C613.409 592.544 612.757 593.75 612.43 595.06L611.21 601.746Z" fill="#DB8B8B"/>
<path opacity="0.1" d="M611.21 601.746L630.076 603.572L656.241 597.486L664.183 589.544L663.54 587.609L656.277 593.197C656.277 593.197 642.891 600.497 636.198 599.284H617.296L620.95 594.417L617.672 589.363C616.392 589.793 615.241 590.539 614.325 591.53C613.409 592.522 612.757 593.728 612.43 595.038L611.21 601.746Z" fill="black"/>
<path d="M617.296 599.933L620.95 595.067L617.296 589.428C617.296 589.428 606.344 593.847 601.477 593.241C596.611 592.634 594.178 601.182 603.304 603.587C612.43 605.991 664.154 603.587 664.154 603.587C664.154 603.587 673.28 599.327 664.154 587.768L656.212 593.854C656.212 593.854 642.826 601.154 636.133 599.941L617.296 599.933Z" fill="#2E3037"/>
<path d="M632.509 247.001C632.509 247.001 661.721 250.04 657.461 237.874C656.27 234.425 655.96 230.732 656.558 227.131C657.316 222.667 659.082 218.435 661.721 214.756L634.335 219.016C635.976 221.76 637.225 224.72 638.047 227.81C641.31 240.712 632.509 247.001 632.509 247.001Z" fill="#DB8B8B"/>
<path d="M682.406 385.739C682.406 385.739 681.799 411.904 675.713 424.684L674.493 461.801C674.493 461.801 676.319 495.879 679.973 502.572C683.626 509.265 672.031 565.855 672.031 565.855V575.595C672.031 575.595 652.537 582.894 647.079 574.375L652.559 501.959L650.125 401.558L682.406 385.739Z" fill="#474463"/>
<path opacity="0.1" d="M682.406 385.739C682.406 385.739 681.799 411.904 675.713 424.684L674.493 461.801C674.493 461.801 676.319 495.879 679.973 502.572C683.626 509.265 672.031 565.855 672.031 565.855V575.595C672.031 575.595 652.537 582.894 647.079 574.375L652.559 501.959L650.125 401.558L682.406 385.739Z" fill="black"/>
<path d="M694.579 301.764L698.232 311.504L701.272 332.196C701.682 335.079 701.399 338.017 700.446 340.769C699.493 343.52 697.897 346.004 695.792 348.015C688.492 355.314 678.753 370.527 678.753 370.527L667.201 335.871C667.201 335.871 678.753 334.044 676.94 326.131C675.128 318.218 675.713 303.562 675.713 303.562L694.579 301.764Z" fill="#FC6681"/>
<path opacity="0.05" d="M694.579 301.764L698.232 311.504L701.272 332.196C701.682 335.079 701.399 338.017 700.446 340.769C699.493 343.52 697.897 346.004 695.792 348.015C688.492 355.314 678.753 370.527 678.753 370.527L667.201 335.871C667.201 335.871 678.753 334.044 676.94 326.131C675.128 318.218 675.713 303.562 675.713 303.562L694.579 301.764Z" fill="black"/>
<path opacity="0.1" d="M640.494 581.003C648.299 593.277 660.45 586.324 662.602 584.938L661.721 582.252L644.075 577.385C643.183 578.856 641.956 580.096 640.494 581.003Z" fill="black"/>
<path d="M616.083 409.471C616.69 417.991 627.036 449.022 627.036 449.022L634.336 474.559C639.566 492.616 642.266 511.311 642.357 530.109C642.357 536.34 642.927 542.766 644.689 547.596C649.555 560.982 639.823 579.241 639.823 579.241C648.342 594.453 662.927 584.107 662.927 584.107V574.375C662.927 574.375 674.478 521.431 671.446 511.092C668.414 500.753 667.186 472.754 667.186 472.754V422.214C676.934 412.502 682.861 399.606 683.886 385.884C684.03 383.891 684.146 381.797 684.225 379.624C684.716 365.906 675.33 349.798 671.663 344.066C670.782 342.679 670.219 341.9 670.219 341.9L616.488 363.213L616.365 363.263V365.343V369.942L616.083 409.471Z" fill="#474463"/>
<path opacity="0.1" d="M634.335 219.009C635.976 221.753 637.225 224.713 638.047 227.803C641.021 228.931 644.192 229.453 647.371 229.336C650.551 229.22 653.674 228.467 656.558 227.124C657.317 222.663 659.083 218.433 661.721 214.756L634.335 219.009Z" fill="black"/>
<path d="M646.508 228.128C659.615 228.128 670.24 217.503 670.24 204.396C670.24 191.289 659.615 180.664 646.508 180.664C633.402 180.664 622.776 191.289 622.776 204.396C622.776 217.503 633.402 228.128 646.508 228.128Z" fill="#DB8B8B"/>
<path opacity="0.1" d="M616.083 369.92L616.343 369.971C641.859 375.22 673.894 348.621 673.894 348.621C673.035 347.174 672.294 345.66 671.677 344.095C670.796 342.708 670.233 341.929 670.233 341.929L616.502 363.242L616.365 365.372L616.083 369.92Z" fill="black"/>
<path d="M622.776 246.387C622.776 246.387 656.854 225.695 667.807 234.214L683.02 253.708C683.02 253.708 692.759 256.748 690.962 276.22L698.232 311.504L676.327 316.984C676.327 316.984 663.547 329.156 673.894 346.802C673.894 346.802 641.642 373.574 616.083 368.101L617.91 339.503C617.91 339.503 623.39 323.684 613.65 309.078C603.911 294.472 613.044 280.48 622.17 275C622.17 274.992 626.422 251.867 622.776 246.387Z" fill="#FC6681"/>
<path d="M620.95 370.527C620.95 370.527 608.17 372.96 602.084 382.7C600.328 385.621 598.186 388.292 595.716 390.642C595.16 391.146 594.73 391.772 594.458 392.471C594.187 393.171 594.082 393.924 594.152 394.67C594.222 395.417 594.465 396.138 594.862 396.774C595.259 397.411 595.798 397.946 596.438 398.338C601.268 401.226 609.145 403.024 619.094 394.851C636.162 380.873 620.95 370.527 620.95 370.527Z" fill="#DB8B8B"/>
<path opacity="0.1" d="M639.815 257.953C639.815 257.953 651.988 256.733 655.028 288.378C658.067 320.023 662.97 327.322 662.97 327.322C662.97 327.322 666.009 343.755 658.71 353.488C651.411 363.22 637.411 383.912 637.411 383.912C637.411 383.912 622.199 388.172 619.159 372.96L638.025 337.669C638.025 337.669 641.065 325.496 633.765 316.976C626.466 308.457 620.95 251.867 639.815 257.953Z" fill="black"/>
<path d="M638.573 256.127C638.573 256.127 650.746 254.906 653.786 286.552C656.826 318.197 661.728 325.496 661.728 325.496C661.728 325.496 664.767 341.929 657.468 351.661C650.169 361.394 636.169 382.086 636.169 382.086C636.169 382.086 620.957 386.346 617.917 371.133L636.783 335.842C636.783 335.842 639.823 323.669 632.523 315.15C625.224 306.63 619.729 250.04 638.573 256.127Z" fill="#FC6681"/>
<path opacity="0.1" d="M628.552 278.942C628.552 278.942 627.339 297.786 632.798 308.154C638.256 318.521 638.278 331.886 632.798 339.199" fill="black"/>
<path opacity="0.1" d="M625.513 255.823C625.513 255.823 630.379 250.957 644.378 250.343C658.378 249.73 664.457 245.477 664.457 245.477" fill="black"/>
<path opacity="0.1" d="M659.36 173.733C663.056 174.188 667.302 175.458 668.616 178.931C669.106 180.209 669.121 181.617 669.46 182.938C670.839 188.252 676.825 190.728 680.514 194.793C683.77 198.403 685.207 203.233 686.29 207.962C689.328 221.524 690.06 235.5 688.456 249.304C687.272 259.412 684.846 269.332 684.167 279.469C683.489 289.606 684.73 300.27 690.268 308.789C692.651 312.45 695.799 315.67 697.488 319.698C694.001 322.529 689.185 322.933 684.687 323.085C679.455 323.263 674.221 323.263 668.984 323.085C666.24 322.991 663.374 322.81 661.006 321.424C659.252 320.303 657.812 318.755 656.818 316.926C653.822 311.872 653.071 305.735 653.208 299.844C653.345 293.952 654.27 288.089 654.378 282.191C654.436 278.978 654.183 275.563 652.335 272.935C650.999 271.036 648.97 269.758 647.237 268.22C640.739 262.444 638.487 253.188 638.27 244.488C638.054 235.788 639.49 227.074 638.754 218.403C638.465 215.009 637.194 210.93 633.859 210.273C632.805 210.063 631.693 210.273 630.682 209.869C628.003 208.836 628.263 205.06 627.498 202.295C626.639 199.19 623.989 196.793 623.245 193.631C621.491 186.267 630.862 177.48 637.007 174.917C643.252 172.303 652.775 172.924 659.36 173.733Z" fill="black"/>
<path d="M659.966 172.52C663.663 172.974 667.908 174.245 669.222 177.718C669.713 178.996 669.728 180.404 670.067 181.725C671.446 187.039 677.431 189.515 681.121 193.58C684.377 197.19 685.814 202.02 686.897 206.749C689.935 220.31 690.667 234.286 689.063 248.091C687.879 258.199 685.453 268.119 684.774 278.256C684.095 288.393 685.337 299.056 690.875 307.576C693.257 311.236 696.405 314.457 698.095 318.485C694.608 321.315 689.792 321.72 685.294 321.871C680.062 322.049 674.827 322.049 669.59 321.871C666.847 321.778 663.981 321.597 661.612 320.211C659.859 319.089 658.418 317.542 657.425 315.713C654.429 310.659 653.678 304.522 653.815 298.63C653.952 292.739 654.876 286.876 654.985 280.978C655.042 277.765 654.79 274.35 652.941 271.722C651.606 269.823 649.577 268.545 647.844 267.007C641.346 261.231 639.093 251.975 638.877 243.275C638.66 234.575 640.097 225.861 639.361 217.189C639.072 213.796 637.801 209.717 634.465 209.06C633.411 208.85 632.299 209.06 631.289 208.655C628.61 207.623 628.87 203.847 628.105 201.082C627.245 197.977 624.596 195.58 623.852 192.418C622.098 185.053 631.469 176.267 637.613 173.704C643.859 171.083 653.382 171.704 659.966 172.52Z" fill="#472727"/>
</g>
<defs>
<linearGradient id="paint0_linear" x1="405.052" y1="563.704" x2="405.052" y2="85.3677" gradientUnits="userSpaceOnUse">
<stop stop-color="#808080" stop-opacity="0.25"/>
<stop offset="0.54" stop-color="#808080" stop-opacity="0.12"/>
<stop offset="1" stop-color="#808080" stop-opacity="0.1"/>
</linearGradient>
<linearGradient id="paint1_linear" x1="-203247" y1="356616" x2="-203247" y2="86302.4" gradientUnits="userSpaceOnUse">
<stop stop-color="#808080" stop-opacity="0.25"/>
<stop offset="0.54" stop-color="#808080" stop-opacity="0.12"/>
<stop offset="1" stop-color="#808080" stop-opacity="0.1"/>
</linearGradient>
</defs>
</svg>
