<svg width="280" height="457" viewBox="0 0 280 457" fill="none" xmlns="http://www.w3.org/2000/svg">
<path d="M56.1945 191.621V174.421H59.0195V188.996H66.6695V191.621H56.1945ZM74.5955 191.821C72.7955 191.821 71.4955 191.638 70.6955 191.271C69.9122 190.888 69.4122 190.271 69.1955 189.421C68.9788 188.554 68.8705 187.154 68.8705 185.221C68.8705 183.304 68.9788 181.921 69.1955 181.071C69.4122 180.204 69.9122 179.588 70.6955 179.221C71.4955 178.854 72.7955 178.671 74.5955 178.671C76.3955 178.671 77.6872 178.854 78.4705 179.221C79.2705 179.588 79.7788 180.204 79.9955 181.071C80.2122 181.921 80.3205 183.304 80.3205 185.221C80.3205 187.154 80.2122 188.554 79.9955 189.421C79.7788 190.271 79.2705 190.888 78.4705 191.271C77.6872 191.638 76.3955 191.821 74.5955 191.821ZM74.5955 189.471C75.6455 189.471 76.3705 189.379 76.7705 189.196C77.1705 188.996 77.4122 188.638 77.4955 188.121C77.5955 187.604 77.6455 186.638 77.6455 185.221C77.6455 183.804 77.5955 182.846 77.4955 182.346C77.4122 181.829 77.1705 181.479 76.7705 181.296C76.3705 181.113 75.6455 181.021 74.5955 181.021C73.5455 181.021 72.8205 181.113 72.4205 181.296C72.0205 181.479 71.7705 181.829 71.6705 182.346C71.5872 182.846 71.5455 183.804 71.5455 185.221C71.5455 186.638 71.5872 187.604 71.6705 188.121C71.7705 188.638 72.0205 188.996 72.4205 189.196C72.8205 189.379 73.5455 189.471 74.5955 189.471ZM83.7748 178.871H86.1998L86.2998 181.146H86.4998C86.7998 180.213 87.2831 179.571 87.9498 179.221C88.6331 178.854 89.5415 178.671 90.6748 178.671V181.421C89.5415 181.421 88.6665 181.588 88.0498 181.921C87.4498 182.238 87.0248 182.746 86.7748 183.446C86.5415 184.129 86.4248 185.088 86.4248 186.321V191.621H83.7748V178.871ZM103.674 186.196H95.3492C95.3492 187.213 95.4159 187.938 95.5492 188.371C95.6992 188.788 96.0326 189.079 96.5492 189.246C97.0826 189.413 97.9742 189.496 99.2242 189.496C100.324 189.496 101.641 189.413 103.174 189.246V191.446C102.624 191.563 101.924 191.654 101.074 191.721C100.224 191.788 99.3992 191.821 98.5992 191.821C96.8159 191.821 95.5076 191.621 94.6742 191.221C93.8409 190.804 93.2992 190.154 93.0492 189.271C92.7992 188.388 92.6742 187.054 92.6742 185.271C92.6742 183.571 92.7992 182.271 93.0492 181.371C93.2992 180.471 93.8326 179.796 94.6492 179.346C95.4659 178.896 96.7242 178.671 98.4242 178.671C100.058 178.671 101.241 178.896 101.974 179.346C102.724 179.796 103.191 180.454 103.374 181.321C103.574 182.171 103.674 183.488 103.674 185.271V186.196ZM98.3492 180.996C97.4492 180.996 96.7909 181.088 96.3742 181.271C95.9742 181.438 95.7076 181.738 95.5742 182.171C95.4409 182.604 95.3659 183.304 95.3492 184.271H101.149V184.221C101.149 183.271 101.066 182.571 100.899 182.121C100.733 181.671 100.458 181.371 100.074 181.221C99.7076 181.071 99.1326 180.996 98.3492 180.996ZM122.439 184.771C122.439 183.621 122.389 182.813 122.289 182.346C122.189 181.863 121.981 181.554 121.664 181.421C121.364 181.271 120.831 181.196 120.064 181.196C119.281 181.196 118.706 181.329 118.339 181.596C117.972 181.846 117.731 182.238 117.614 182.771C117.497 183.288 117.439 184.046 117.439 185.046V191.621H114.789V184.771C114.789 183.621 114.739 182.813 114.639 182.346C114.539 181.863 114.331 181.554 114.014 181.421C113.714 181.271 113.181 181.196 112.414 181.196C111.631 181.196 111.047 181.329 110.664 181.596C110.297 181.863 110.056 182.254 109.939 182.771C109.839 183.288 109.789 184.046 109.789 185.046V191.621H107.139V178.871H109.589L109.664 180.546H109.839C110.122 179.929 110.564 179.463 111.164 179.146C111.781 178.829 112.597 178.671 113.614 178.671C114.664 178.671 115.456 178.821 115.989 179.121C116.539 179.421 116.931 179.896 117.164 180.546H117.339C117.939 179.296 119.239 178.671 121.239 178.671C122.306 178.671 123.114 178.854 123.664 179.221C124.214 179.588 124.589 180.121 124.789 180.821C124.989 181.521 125.089 182.471 125.089 183.671V191.621H122.439V184.771ZM135.443 191.621V174.421H138.268V188.996H145.918V191.621H135.443ZM153.844 191.821C152.044 191.821 150.744 191.638 149.944 191.271C149.16 190.888 148.66 190.271 148.444 189.421C148.227 188.554 148.119 187.154 148.119 185.221C148.119 183.304 148.227 181.921 148.444 181.071C148.66 180.204 149.16 179.588 149.944 179.221C150.744 178.854 152.044 178.671 153.844 178.671C155.644 178.671 156.935 178.854 157.719 179.221C158.519 179.588 159.027 180.204 159.244 181.071C159.46 181.921 159.569 183.304 159.569 185.221C159.569 187.154 159.46 188.554 159.244 189.421C159.027 190.271 158.519 190.888 157.719 191.271C156.935 191.638 155.644 191.821 153.844 191.821ZM153.844 189.471C154.894 189.471 155.619 189.379 156.019 189.196C156.419 188.996 156.66 188.638 156.744 188.121C156.844 187.604 156.894 186.638 156.894 185.221C156.894 183.804 156.844 182.846 156.744 182.346C156.66 181.829 156.419 181.479 156.019 181.296C155.619 181.113 154.894 181.021 153.844 181.021C152.794 181.021 152.069 181.113 151.669 181.296C151.269 181.479 151.019 181.829 150.919 182.346C150.835 182.846 150.794 183.804 150.794 185.221C150.794 186.638 150.835 187.604 150.919 188.121C151.019 188.638 151.269 188.996 151.669 189.196C152.069 189.379 152.794 189.471 153.844 189.471ZM178.323 184.771C178.323 183.621 178.273 182.813 178.173 182.346C178.073 181.863 177.865 181.554 177.548 181.421C177.248 181.271 176.715 181.196 175.948 181.196C175.165 181.196 174.59 181.329 174.223 181.596C173.856 181.846 173.615 182.238 173.498 182.771C173.381 183.288 173.323 184.046 173.323 185.046V191.621H170.673V184.771C170.673 183.621 170.623 182.813 170.523 182.346C170.423 181.863 170.215 181.554 169.898 181.421C169.598 181.271 169.065 181.196 168.298 181.196C167.515 181.196 166.931 181.329 166.548 181.596C166.181 181.863 165.94 182.254 165.823 182.771C165.723 183.288 165.673 184.046 165.673 185.046V191.621H163.023V178.871H165.473L165.548 180.546H165.723C166.006 179.929 166.448 179.463 167.048 179.146C167.665 178.829 168.481 178.671 169.498 178.671C170.548 178.671 171.34 178.821 171.873 179.121C172.423 179.421 172.815 179.896 173.048 180.546H173.223C173.823 179.296 175.123 178.671 177.123 178.671C178.19 178.671 178.998 178.854 179.548 179.221C180.098 179.588 180.473 180.121 180.673 180.821C180.873 181.521 180.973 182.471 180.973 183.671V191.621H178.323V184.771ZM189.021 191.821C187.854 191.821 186.946 191.629 186.296 191.246C185.646 190.846 185.179 190.179 184.896 189.246C184.613 188.313 184.471 186.988 184.471 185.271C184.471 183.554 184.613 182.229 184.896 181.296C185.179 180.346 185.638 179.671 186.271 179.271C186.904 178.871 187.796 178.671 188.946 178.671C189.929 178.671 190.746 178.796 191.396 179.046C192.046 179.279 192.546 179.713 192.896 180.346H193.046V173.046H195.696V191.621H193.271L193.171 189.971H193.021C192.671 190.688 192.146 191.179 191.446 191.446C190.763 191.696 189.954 191.821 189.021 191.821ZM190.121 189.321C190.838 189.321 191.396 189.229 191.796 189.046C192.213 188.863 192.513 188.571 192.696 188.171C192.846 187.854 192.938 187.471 192.971 187.021C193.021 186.571 193.046 185.971 193.046 185.221C193.046 184.488 193.021 183.904 192.971 183.471C192.938 183.038 192.854 182.671 192.721 182.371C192.538 181.971 192.238 181.679 191.821 181.496C191.404 181.296 190.829 181.196 190.096 181.196C189.163 181.196 188.504 181.288 188.121 181.471C187.738 181.638 187.479 181.996 187.346 182.546C187.213 183.079 187.146 183.979 187.146 185.246C187.146 186.529 187.213 187.446 187.346 187.996C187.479 188.529 187.738 188.888 188.121 189.071C188.521 189.238 189.188 189.321 190.121 189.321ZM208.093 189.946H207.918C207.602 190.579 207.127 191.054 206.493 191.371C205.86 191.671 204.985 191.821 203.868 191.821C202.702 191.821 201.81 191.638 201.193 191.271C200.593 190.904 200.185 190.371 199.968 189.671C199.768 188.971 199.668 188.029 199.668 186.846V178.871H202.318V185.721C202.318 186.871 202.377 187.688 202.493 188.171C202.627 188.638 202.868 188.946 203.218 189.096C203.568 189.229 204.177 189.296 205.043 189.296C205.91 189.296 206.552 189.163 206.968 188.896C207.385 188.629 207.652 188.238 207.768 187.721C207.902 187.188 207.968 186.429 207.968 185.446V178.871H210.618V191.621H208.193L208.093 189.946Z" fill="white"/>
<path d="M93.1833 206.329H97.2513C99.0033 206.329 100.239 206.491 100.959 206.815C101.691 207.139 102.153 207.697 102.345 208.489C102.537 209.269 102.633 210.613 102.633 212.521C102.633 214.429 102.537 215.779 102.345 216.571C102.153 217.363 101.691 217.921 100.959 218.245C100.239 218.557 99.0033 218.713 97.2513 218.713H93.1833V206.329ZM97.0533 216.877C98.3253 216.877 99.1713 216.811 99.5913 216.679C100.023 216.547 100.299 216.211 100.419 215.671C100.551 215.131 100.617 214.081 100.617 212.521C100.617 210.985 100.551 209.947 100.419 209.407C100.287 208.855 100.005 208.513 99.5733 208.381C99.1413 208.237 98.3013 208.165 97.0533 208.165H95.2173V216.877H97.0533ZM112.902 214.807H106.908C106.908 215.539 106.956 216.061 107.052 216.373C107.16 216.673 107.4 216.883 107.772 217.003C108.156 217.123 108.798 217.183 109.698 217.183C110.49 217.183 111.438 217.123 112.542 217.003V218.587C112.146 218.671 111.642 218.737 111.03 218.785C110.418 218.833 109.824 218.857 109.248 218.857C107.964 218.857 107.022 218.713 106.422 218.425C105.822 218.125 105.432 217.657 105.252 217.021C105.072 216.385 104.982 215.425 104.982 214.141C104.982 212.917 105.072 211.981 105.252 211.333C105.432 210.685 105.816 210.199 106.404 209.875C106.992 209.551 107.898 209.389 109.122 209.389C110.298 209.389 111.15 209.551 111.678 209.875C112.218 210.199 112.554 210.673 112.686 211.297C112.83 211.909 112.902 212.857 112.902 214.141V214.807ZM109.068 211.063C108.42 211.063 107.946 211.129 107.646 211.261C107.358 211.381 107.166 211.597 107.07 211.909C106.974 212.221 106.92 212.725 106.908 213.421H111.084V213.385C111.084 212.701 111.024 212.197 110.904 211.873C110.784 211.549 110.586 211.333 110.31 211.225C110.046 211.117 109.632 211.063 109.068 211.063ZM118.601 218.857C118.073 218.857 117.485 218.833 116.837 218.785C116.189 218.737 115.631 218.677 115.163 218.605V216.985C116.267 217.105 117.329 217.165 118.349 217.165C118.913 217.165 119.327 217.135 119.591 217.075C119.855 217.003 120.023 216.895 120.095 216.751C120.179 216.595 120.221 216.373 120.221 216.085C120.221 215.785 120.191 215.575 120.131 215.455C120.083 215.323 119.993 215.233 119.861 215.185C119.741 215.137 119.513 215.095 119.177 215.059L116.945 214.789C116.381 214.717 115.949 214.579 115.649 214.375C115.349 214.159 115.145 213.871 115.037 213.511C114.929 213.151 114.875 212.689 114.875 212.125C114.875 211.345 115.019 210.757 115.307 210.361C115.607 209.965 116.009 209.707 116.513 209.587C117.029 209.455 117.701 209.389 118.529 209.389C119.021 209.389 119.549 209.419 120.113 209.479C120.689 209.527 121.163 209.593 121.535 209.677V211.279C120.611 211.147 119.657 211.081 118.673 211.081C118.157 211.081 117.767 211.105 117.503 211.153C117.239 211.189 117.041 211.285 116.909 211.441C116.777 211.585 116.711 211.813 116.711 212.125C116.711 212.389 116.735 212.587 116.783 212.719C116.831 212.839 116.915 212.923 117.035 212.971C117.167 213.019 117.383 213.061 117.683 213.097L120.113 213.403C120.605 213.463 120.983 213.565 121.247 213.709C121.511 213.853 121.709 214.105 121.841 214.465C121.973 214.825 122.039 215.353 122.039 216.049C122.039 216.829 121.907 217.423 121.643 217.831C121.391 218.239 121.019 218.515 120.527 218.659C120.047 218.791 119.405 218.857 118.601 218.857ZM124.343 207.283V205.339H126.341V207.283H124.343ZM124.379 218.713V209.533H126.287V218.713H124.379ZM132.581 222.421C131.993 222.421 131.399 222.403 130.799 222.367C130.211 222.331 129.743 222.289 129.395 222.241V220.657C130.403 220.705 131.315 220.729 132.131 220.729C133.019 220.729 133.655 220.657 134.039 220.513C134.423 220.381 134.669 220.135 134.777 219.775C134.897 219.427 134.957 218.845 134.957 218.029V217.561H134.867C134.627 218.017 134.273 218.335 133.805 218.515C133.349 218.683 132.767 218.767 132.059 218.767C131.219 218.767 130.565 218.629 130.097 218.353C129.629 218.077 129.293 217.609 129.089 216.949C128.885 216.289 128.783 215.347 128.783 214.123C128.783 212.887 128.885 211.933 129.089 211.261C129.293 210.577 129.629 210.097 130.097 209.821C130.577 209.533 131.237 209.389 132.077 209.389C132.737 209.389 133.313 209.485 133.805 209.677C134.309 209.869 134.687 210.223 134.939 210.739H135.047L135.119 209.533H136.865V217.597C136.865 218.869 136.769 219.829 136.577 220.477C136.397 221.137 136.001 221.623 135.389 221.935C134.789 222.259 133.853 222.421 132.581 222.421ZM132.851 217.003C133.331 217.003 133.715 216.949 134.003 216.841C134.291 216.721 134.507 216.547 134.651 216.319C134.783 216.103 134.867 215.833 134.903 215.509C134.939 215.173 134.957 214.705 134.957 214.105C134.957 213.505 134.939 213.043 134.903 212.719C134.867 212.383 134.783 212.107 134.651 211.891C134.507 211.651 134.291 211.477 134.003 211.369C133.715 211.249 133.331 211.189 132.851 211.189C132.179 211.189 131.699 211.255 131.411 211.387C131.135 211.507 130.949 211.759 130.853 212.143C130.757 212.527 130.709 213.181 130.709 214.105C130.709 215.017 130.757 215.665 130.853 216.049C130.949 216.433 131.135 216.691 131.411 216.823C131.699 216.943 132.179 217.003 132.851 217.003ZM145.701 213.781C145.701 212.953 145.659 212.371 145.575 212.035C145.491 211.687 145.323 211.465 145.071 211.369C144.819 211.261 144.381 211.207 143.757 211.207C143.133 211.207 142.665 211.303 142.353 211.495C142.053 211.687 141.855 211.975 141.759 212.359C141.675 212.731 141.633 213.271 141.633 213.979V218.713H139.725V209.533H141.489L141.543 210.739H141.687C141.903 210.283 142.239 209.947 142.695 209.731C143.163 209.503 143.799 209.389 144.603 209.389C145.443 209.389 146.079 209.521 146.511 209.785C146.943 210.049 147.231 210.433 147.375 210.937C147.531 211.429 147.609 212.107 147.609 212.971V218.713H145.701V213.781ZM158.025 214.807H152.031C152.031 215.539 152.079 216.061 152.175 216.373C152.283 216.673 152.523 216.883 152.895 217.003C153.279 217.123 153.921 217.183 154.821 217.183C155.613 217.183 156.561 217.123 157.665 217.003V218.587C157.269 218.671 156.765 218.737 156.153 218.785C155.541 218.833 154.947 218.857 154.371 218.857C153.087 218.857 152.145 218.713 151.545 218.425C150.945 218.125 150.555 217.657 150.375 217.021C150.195 216.385 150.105 215.425 150.105 214.141C150.105 212.917 150.195 211.981 150.375 211.333C150.555 210.685 150.939 210.199 151.527 209.875C152.115 209.551 153.021 209.389 154.245 209.389C155.421 209.389 156.273 209.551 156.801 209.875C157.341 210.199 157.677 210.673 157.809 211.297C157.953 211.909 158.025 212.857 158.025 214.141V214.807ZM154.191 211.063C153.543 211.063 153.069 211.129 152.769 211.261C152.481 211.381 152.289 211.597 152.193 211.909C152.097 212.221 152.043 212.725 152.031 213.421H156.207V213.385C156.207 212.701 156.147 212.197 156.027 211.873C155.907 211.549 155.709 211.333 155.433 211.225C155.169 211.117 154.755 211.063 154.191 211.063ZM160.52 209.533H162.266L162.338 211.171H162.482C162.698 210.499 163.046 210.037 163.526 209.785C164.018 209.521 164.672 209.389 165.488 209.389V211.369C164.672 211.369 164.042 211.489 163.598 211.729C163.166 211.957 162.86 212.323 162.68 212.827C162.512 213.319 162.428 214.009 162.428 214.897V218.713H160.52V209.533Z" fill="#00FFD1"/>
<path d="M22.0443 247.011H17.6793L16.9293 249.141H15.1443L18.8793 238.701H20.8593L24.5943 249.141H22.7943L22.0443 247.011ZM21.5643 245.616L19.8693 240.771L18.1593 245.616H21.5643ZM30.3883 240.741C31.0383 240.741 31.6183 240.876 32.1283 241.146C32.6483 241.416 33.0533 241.816 33.3433 242.346C33.6333 242.876 33.7783 243.516 33.7783 244.266V249.141H32.0833V244.521C32.0833 243.781 31.8983 243.216 31.5283 242.826C31.1583 242.426 30.6533 242.226 30.0133 242.226C29.3733 242.226 28.8633 242.426 28.4833 242.826C28.1133 243.216 27.9283 243.781 27.9283 244.521V249.141H26.2183V240.876H27.9283V241.821C28.2083 241.481 28.5633 241.216 28.9933 241.026C29.4333 240.836 29.8983 240.741 30.3883 240.741ZM41.566 240.096V243.156H45.166V244.551H41.566V247.746H45.616V249.141H39.856V238.701H45.616V240.096H41.566ZM51.2622 244.956L53.9322 249.141H51.9972L50.2122 246.336L48.5322 249.141H46.7472L49.4172 245.076L46.7472 240.876H48.6822L50.4672 243.681L52.1472 240.876H53.9322L51.2622 244.956ZM56.9175 242.091C57.2075 241.711 57.6025 241.391 58.1025 241.131C58.6025 240.871 59.1675 240.741 59.7975 240.741C60.5175 240.741 61.1725 240.921 61.7625 241.281C62.3625 241.631 62.8325 242.126 63.1725 242.766C63.5125 243.406 63.6825 244.141 63.6825 244.971C63.6825 245.801 63.5125 246.546 63.1725 247.206C62.8325 247.856 62.3625 248.366 61.7625 248.736C61.1725 249.096 60.5175 249.276 59.7975 249.276C59.1675 249.276 58.6075 249.151 58.1175 248.901C57.6275 248.641 57.2275 248.321 56.9175 247.941V253.071H55.2075V240.876H56.9175V242.091ZM61.9425 244.971C61.9425 244.401 61.8225 243.911 61.5825 243.501C61.3525 243.081 61.0425 242.766 60.6525 242.556C60.2725 242.336 59.8625 242.226 59.4225 242.226C58.9925 242.226 58.5825 242.336 58.1925 242.556C57.8125 242.776 57.5025 243.096 57.2625 243.516C57.0325 243.936 56.9175 244.431 56.9175 245.001C56.9175 245.571 57.0325 246.071 57.2625 246.501C57.5025 246.921 57.8125 247.241 58.1925 247.461C58.5825 247.681 58.9925 247.791 59.4225 247.791C59.8625 247.791 60.2725 247.681 60.6525 247.461C61.0425 247.231 61.3525 246.901 61.5825 246.471C61.8225 246.041 61.9425 245.541 61.9425 244.971ZM72.9485 244.806C72.9485 245.116 72.9285 245.396 72.8885 245.646H66.5735C66.6235 246.306 66.8685 246.836 67.3085 247.236C67.7485 247.636 68.2885 247.836 68.9285 247.836C69.8485 247.836 70.4985 247.451 70.8785 246.681H72.7235C72.4735 247.441 72.0185 248.066 71.3585 248.556C70.7085 249.036 69.8985 249.276 68.9285 249.276C68.1385 249.276 67.4285 249.101 66.7985 248.751C66.1785 248.391 65.6885 247.891 65.3285 247.251C64.9785 246.601 64.8035 245.851 64.8035 245.001C64.8035 244.151 64.9735 243.406 65.3135 242.766C65.6635 242.116 66.1485 241.616 66.7685 241.266C67.3985 240.916 68.1185 240.741 68.9285 240.741C69.7085 240.741 70.4035 240.911 71.0135 241.251C71.6235 241.591 72.0985 242.071 72.4385 242.691C72.7785 243.301 72.9485 244.006 72.9485 244.806ZM71.1635 244.266C71.1535 243.636 70.9285 243.131 70.4885 242.751C70.0485 242.371 69.5035 242.181 68.8535 242.181C68.2635 242.181 67.7585 242.371 67.3385 242.751C66.9185 243.121 66.6685 243.626 66.5885 244.266H71.1635ZM76.3413 242.076C76.5913 241.656 76.9213 241.331 77.3313 241.101C77.7513 240.861 78.2463 240.741 78.8163 240.741V242.511H78.3813C77.7113 242.511 77.2013 242.681 76.8513 243.021C76.5113 243.361 76.3413 243.951 76.3413 244.791V249.141H74.6313V240.876H76.3413V242.076ZM82.3832 242.271V246.846C82.3832 247.156 82.4532 247.381 82.5932 247.521C82.7432 247.651 82.9932 247.716 83.3432 247.716H84.3932V249.141H83.0432C82.2732 249.141 81.6832 248.961 81.2732 248.601C80.8632 248.241 80.6582 247.656 80.6582 246.846V242.271H79.6832V240.876H80.6582V238.821H82.3832V240.876H84.3932V242.271H82.3832ZM103.441 238.716L100.351 249.141H98.4157L96.2257 241.251L93.9007 249.141L91.9807 249.156L89.0257 238.716H90.8407L93.0007 247.206L95.3407 238.716H97.2607L99.4357 247.161L101.611 238.716H103.441ZM112.426 244.806C112.426 245.116 112.406 245.396 112.366 245.646H106.051C106.101 246.306 106.346 246.836 106.786 247.236C107.226 247.636 107.766 247.836 108.406 247.836C109.326 247.836 109.976 247.451 110.356 246.681H112.201C111.951 247.441 111.496 248.066 110.836 248.556C110.186 249.036 109.376 249.276 108.406 249.276C107.616 249.276 106.906 249.101 106.276 248.751C105.656 248.391 105.166 247.891 104.806 247.251C104.456 246.601 104.281 245.851 104.281 245.001C104.281 244.151 104.451 243.406 104.791 242.766C105.141 242.116 105.626 241.616 106.246 241.266C106.876 240.916 107.596 240.741 108.406 240.741C109.186 240.741 109.881 240.911 110.491 241.251C111.101 241.591 111.576 242.071 111.916 242.691C112.256 243.301 112.426 244.006 112.426 244.806ZM110.641 244.266C110.631 243.636 110.406 243.131 109.966 242.751C109.526 242.371 108.981 242.181 108.331 242.181C107.741 242.181 107.236 242.371 106.816 242.751C106.396 243.121 106.146 243.626 106.066 244.266H110.641ZM115.819 242.106C116.109 241.706 116.504 241.381 117.004 241.131C117.514 240.871 118.079 240.741 118.699 240.741C119.429 240.741 120.089 240.916 120.679 241.266C121.269 241.616 121.734 242.116 122.074 242.766C122.414 243.406 122.584 244.141 122.584 244.971C122.584 245.801 122.414 246.546 122.074 247.206C121.734 247.856 121.264 248.366 120.664 248.736C120.074 249.096 119.419 249.276 118.699 249.276C118.059 249.276 117.489 249.151 116.989 248.901C116.499 248.651 116.109 248.331 115.819 247.941V249.141H114.109V238.041H115.819V242.106ZM120.844 244.971C120.844 244.401 120.724 243.911 120.484 243.501C120.254 243.081 119.944 242.766 119.554 242.556C119.174 242.336 118.764 242.226 118.324 242.226C117.894 242.226 117.484 242.336 117.094 242.556C116.714 242.776 116.404 243.096 116.164 243.516C115.934 243.936 115.819 244.431 115.819 245.001C115.819 245.571 115.934 246.071 116.164 246.501C116.404 246.921 116.714 247.241 117.094 247.461C117.484 247.681 117.894 247.791 118.324 247.791C118.764 247.791 119.174 247.681 119.554 247.461C119.944 247.231 120.254 246.901 120.484 246.471C120.724 246.041 120.844 245.541 120.844 244.971ZM131.576 238.716C132.686 238.716 133.656 238.931 134.486 239.361C135.326 239.781 135.971 240.391 136.421 241.191C136.881 241.981 137.111 242.906 137.111 243.966C137.111 245.026 136.881 245.946 136.421 246.726C135.971 247.506 135.326 248.106 134.486 248.526C133.656 248.936 132.686 249.141 131.576 249.141H128.171V238.716H131.576ZM131.576 247.746C132.796 247.746 133.731 247.416 134.381 246.756C135.031 246.096 135.356 245.166 135.356 243.966C135.356 242.756 135.031 241.811 134.381 241.131C133.731 240.451 132.796 240.111 131.576 240.111H129.881V247.746H131.576ZM146.381 244.806C146.381 245.116 146.361 245.396 146.321 245.646H140.006C140.056 246.306 140.301 246.836 140.741 247.236C141.181 247.636 141.721 247.836 142.361 247.836C143.281 247.836 143.931 247.451 144.311 246.681H146.156C145.906 247.441 145.451 248.066 144.791 248.556C144.141 249.036 143.331 249.276 142.361 249.276C141.571 249.276 140.861 249.101 140.231 248.751C139.611 248.391 139.121 247.891 138.761 247.251C138.411 246.601 138.236 245.851 138.236 245.001C138.236 244.151 138.406 243.406 138.746 242.766C139.096 242.116 139.581 241.616 140.201 241.266C140.831 240.916 141.551 240.741 142.361 240.741C143.141 240.741 143.836 240.911 144.446 241.251C145.056 241.591 145.531 242.071 145.871 242.691C146.211 243.301 146.381 244.006 146.381 244.806ZM144.596 244.266C144.586 243.636 144.361 243.131 143.921 242.751C143.481 242.371 142.936 242.181 142.286 242.181C141.696 242.181 141.191 242.371 140.771 242.751C140.351 243.121 140.101 243.626 140.021 244.266H144.596ZM151.259 247.611L153.599 240.876H155.414L152.264 249.141H150.224L147.089 240.876H148.919L151.259 247.611ZM164.282 244.806C164.282 245.116 164.262 245.396 164.222 245.646H157.907C157.957 246.306 158.202 246.836 158.642 247.236C159.082 247.636 159.622 247.836 160.262 247.836C161.182 247.836 161.832 247.451 162.212 246.681H164.057C163.807 247.441 163.352 248.066 162.692 248.556C162.042 249.036 161.232 249.276 160.262 249.276C159.472 249.276 158.762 249.101 158.132 248.751C157.512 248.391 157.022 247.891 156.662 247.251C156.312 246.601 156.137 245.851 156.137 245.001C156.137 244.151 156.307 243.406 156.647 242.766C156.997 242.116 157.482 241.616 158.102 241.266C158.732 240.916 159.452 240.741 160.262 240.741C161.042 240.741 161.737 240.911 162.347 241.251C162.957 241.591 163.432 242.071 163.772 242.691C164.112 243.301 164.282 244.006 164.282 244.806ZM162.497 244.266C162.487 243.636 162.262 243.131 161.822 242.751C161.382 242.371 160.837 242.181 160.187 242.181C159.597 242.181 159.092 242.371 158.672 242.751C158.252 243.121 158.002 243.626 157.922 244.266H162.497ZM167.674 238.041V249.141H165.964V238.041H167.674ZM173.504 249.276C172.724 249.276 172.019 249.101 171.389 248.751C170.759 248.391 170.264 247.891 169.904 247.251C169.544 246.601 169.364 245.851 169.364 245.001C169.364 244.161 169.549 243.416 169.919 242.766C170.289 242.116 170.794 241.616 171.434 241.266C172.074 240.916 172.789 240.741 173.579 240.741C174.369 240.741 175.084 240.916 175.724 241.266C176.364 241.616 176.869 242.116 177.239 242.766C177.609 243.416 177.794 244.161 177.794 245.001C177.794 245.841 177.604 246.586 177.224 247.236C176.844 247.886 176.324 248.391 175.664 248.751C175.014 249.101 174.294 249.276 173.504 249.276ZM173.504 247.791C173.944 247.791 174.354 247.686 174.734 247.476C175.124 247.266 175.439 246.951 175.679 246.531C175.919 246.111 176.039 245.601 176.039 245.001C176.039 244.401 175.924 243.896 175.694 243.486C175.464 243.066 175.159 242.751 174.779 242.541C174.399 242.331 173.989 242.226 173.549 242.226C173.109 242.226 172.699 242.331 172.319 242.541C171.949 242.751 171.654 243.066 171.434 243.486C171.214 243.896 171.104 244.401 171.104 245.001C171.104 245.891 171.329 246.581 171.779 247.071C172.239 247.551 172.814 247.791 173.504 247.791ZM181.195 242.091C181.485 241.711 181.88 241.391 182.38 241.131C182.88 240.871 183.445 240.741 184.075 240.741C184.795 240.741 185.45 240.921 186.04 241.281C186.64 241.631 187.11 242.126 187.45 242.766C187.79 243.406 187.96 244.141 187.96 244.971C187.96 245.801 187.79 246.546 187.45 247.206C187.11 247.856 186.64 248.366 186.04 248.736C185.45 249.096 184.795 249.276 184.075 249.276C183.445 249.276 182.885 249.151 182.395 248.901C181.905 248.641 181.505 248.321 181.195 247.941V253.071H179.485V240.876H181.195V242.091ZM186.22 244.971C186.22 244.401 186.1 243.911 185.86 243.501C185.63 243.081 185.32 242.766 184.93 242.556C184.55 242.336 184.14 242.226 183.7 242.226C183.27 242.226 182.86 242.336 182.47 242.556C182.09 242.776 181.78 243.096 181.54 243.516C181.31 243.936 181.195 244.431 181.195 245.001C181.195 245.571 181.31 246.071 181.54 246.501C181.78 246.921 182.09 247.241 182.47 247.461C182.86 247.681 183.27 247.791 183.7 247.791C184.14 247.791 184.55 247.681 184.93 247.461C185.32 247.231 185.63 246.901 185.86 246.471C186.1 246.041 186.22 245.541 186.22 244.971ZM197.226 244.806C197.226 245.116 197.206 245.396 197.166 245.646H190.851C190.901 246.306 191.146 246.836 191.586 247.236C192.026 247.636 192.566 247.836 193.206 247.836C194.126 247.836 194.776 247.451 195.156 246.681H197.001C196.751 247.441 196.296 248.066 195.636 248.556C194.986 249.036 194.176 249.276 193.206 249.276C192.416 249.276 191.706 249.101 191.076 248.751C190.456 248.391 189.966 247.891 189.606 247.251C189.256 246.601 189.081 245.851 189.081 245.001C189.081 244.151 189.251 243.406 189.591 242.766C189.941 242.116 190.426 241.616 191.046 241.266C191.676 240.916 192.396 240.741 193.206 240.741C193.986 240.741 194.681 240.911 195.291 241.251C195.901 241.591 196.376 242.071 196.716 242.691C197.056 243.301 197.226 244.006 197.226 244.806ZM195.441 244.266C195.431 243.636 195.206 243.131 194.766 242.751C194.326 242.371 193.781 242.181 193.131 242.181C192.541 242.181 192.036 242.371 191.616 242.751C191.196 243.121 190.946 243.626 190.866 244.266H195.441ZM200.619 242.076C200.869 241.656 201.199 241.331 201.609 241.101C202.029 240.861 202.524 240.741 203.094 240.741V242.511H202.659C201.989 242.511 201.479 242.681 201.129 243.021C200.789 243.361 200.619 243.951 200.619 244.791V249.141H198.909V240.876H200.619V242.076ZM214.847 247.011H210.482L209.732 249.141H207.947L211.682 238.701H213.662L217.397 249.141H215.597L214.847 247.011ZM214.367 245.616L212.672 240.771L210.962 245.616H214.367ZM223.191 240.741C223.841 240.741 224.421 240.876 224.931 241.146C225.451 241.416 225.856 241.816 226.146 242.346C226.436 242.876 226.581 243.516 226.581 244.266V249.141H224.886V244.521C224.886 243.781 224.701 243.216 224.331 242.826C223.961 242.426 223.456 242.226 222.816 242.226C222.176 242.226 221.666 242.426 221.286 242.826C220.916 243.216 220.731 243.781 220.731 244.521V249.141H219.021V240.876H220.731V241.821C221.011 241.481 221.366 241.216 221.796 241.026C222.236 240.836 222.701 240.741 223.191 240.741ZM228.192 244.971C228.192 244.141 228.362 243.406 228.702 242.766C229.052 242.126 229.522 241.631 230.112 241.281C230.712 240.921 231.377 240.741 232.107 240.741C232.647 240.741 233.177 240.861 233.697 241.101C234.227 241.331 234.647 241.641 234.957 242.031V238.041H236.682V249.141H234.957V247.896C234.677 248.296 234.287 248.626 233.787 248.886C233.297 249.146 232.732 249.276 232.092 249.276C231.372 249.276 230.712 249.096 230.112 248.736C229.522 248.366 229.052 247.856 228.702 247.206C228.362 246.546 228.192 245.801 228.192 244.971ZM234.957 245.001C234.957 244.431 234.837 243.936 234.597 243.516C234.367 243.096 234.062 242.776 233.682 242.556C233.302 242.336 232.892 242.226 232.452 242.226C232.012 242.226 231.602 242.336 231.222 242.556C230.842 242.766 230.532 243.081 230.292 243.501C230.062 243.911 229.947 244.401 229.947 244.971C229.947 245.541 230.062 246.041 230.292 246.471C230.532 246.901 230.842 247.231 231.222 247.461C231.612 247.681 232.022 247.791 232.452 247.791C232.892 247.791 233.302 247.681 233.682 247.461C234.062 247.241 234.367 246.921 234.597 246.501C234.837 246.071 234.957 245.571 234.957 245.001ZM249.11 247.011H244.745L243.995 249.141H242.21L245.945 238.701H247.925L251.66 249.141H249.86L249.11 247.011ZM248.63 245.616L246.935 240.771L245.225 245.616H248.63ZM40.6389 261.716C41.7489 261.716 42.7189 261.931 43.5489 262.361C44.3889 262.781 45.0339 263.391 45.4839 264.191C45.9439 264.981 46.1739 265.906 46.1739 266.966C46.1739 268.026 45.9439 268.946 45.4839 269.726C45.0339 270.506 44.3889 271.106 43.5489 271.526C42.7189 271.936 41.7489 272.141 40.6389 272.141H37.2339V261.716H40.6389ZM40.6389 270.746C41.8589 270.746 42.7939 270.416 43.4439 269.756C44.0939 269.096 44.4189 268.166 44.4189 266.966C44.4189 265.756 44.0939 264.811 43.4439 264.131C42.7939 263.451 41.8589 263.111 40.6389 263.111H38.9439V270.746H40.6389ZM55.4437 267.806C55.4437 268.116 55.4237 268.396 55.3837 268.646H49.0687C49.1187 269.306 49.3637 269.836 49.8037 270.236C50.2437 270.636 50.7837 270.836 51.4237 270.836C52.3437 270.836 52.9937 270.451 53.3737 269.681H55.2187C54.9687 270.441 54.5137 271.066 53.8537 271.556C53.2037 272.036 52.3937 272.276 51.4237 272.276C50.6337 272.276 49.9237 272.101 49.2937 271.751C48.6737 271.391 48.1837 270.891 47.8237 270.251C47.4737 269.601 47.2987 268.851 47.2987 268.001C47.2987 267.151 47.4687 266.406 47.8087 265.766C48.1587 265.116 48.6437 264.616 49.2637 264.266C49.8937 263.916 50.6137 263.741 51.4237 263.741C52.2037 263.741 52.8987 263.911 53.5087 264.251C54.1187 264.591 54.5937 265.071 54.9337 265.691C55.2737 266.301 55.4437 267.006 55.4437 267.806ZM53.6587 267.266C53.6487 266.636 53.4237 266.131 52.9837 265.751C52.5437 265.371 51.9987 265.181 51.3487 265.181C50.7587 265.181 50.2537 265.371 49.8337 265.751C49.4137 266.121 49.1637 266.626 49.0837 267.266H53.6587ZM64.7015 267.806C64.7015 268.116 64.6815 268.396 64.6415 268.646H58.3265C58.3765 269.306 58.6215 269.836 59.0615 270.236C59.5015 270.636 60.0415 270.836 60.6815 270.836C61.6015 270.836 62.2515 270.451 62.6315 269.681H64.4765C64.2265 270.441 63.7715 271.066 63.1115 271.556C62.4615 272.036 61.6515 272.276 60.6815 272.276C59.8915 272.276 59.1815 272.101 58.5515 271.751C57.9315 271.391 57.4415 270.891 57.0815 270.251C56.7315 269.601 56.5565 268.851 56.5565 268.001C56.5565 267.151 56.7265 266.406 57.0665 265.766C57.4165 265.116 57.9015 264.616 58.5215 264.266C59.1515 263.916 59.8715 263.741 60.6815 263.741C61.4615 263.741 62.1565 263.911 62.7665 264.251C63.3765 264.591 63.8515 265.071 64.1915 265.691C64.5315 266.301 64.7015 267.006 64.7015 267.806ZM62.9165 267.266C62.9065 266.636 62.6815 266.131 62.2415 265.751C61.8015 265.371 61.2565 265.181 60.6065 265.181C60.0165 265.181 59.5115 265.371 59.0915 265.751C58.6715 266.121 58.4215 266.626 58.3415 267.266H62.9165ZM68.0943 265.091C68.3843 264.711 68.7793 264.391 69.2793 264.131C69.7793 263.871 70.3443 263.741 70.9743 263.741C71.6943 263.741 72.3493 263.921 72.9393 264.281C73.5393 264.631 74.0093 265.126 74.3493 265.766C74.6893 266.406 74.8593 267.141 74.8593 267.971C74.8593 268.801 74.6893 269.546 74.3493 270.206C74.0093 270.856 73.5393 271.366 72.9393 271.736C72.3493 272.096 71.6943 272.276 70.9743 272.276C70.3443 272.276 69.7843 272.151 69.2943 271.901C68.8043 271.641 68.4043 271.321 68.0943 270.941V276.071H66.3843V263.876H68.0943V265.091ZM73.1193 267.971C73.1193 267.401 72.9993 266.911 72.7593 266.501C72.5293 266.081 72.2193 265.766 71.8293 265.556C71.4493 265.336 71.0393 265.226 70.5993 265.226C70.1693 265.226 69.7593 265.336 69.3693 265.556C68.9893 265.776 68.6793 266.096 68.4393 266.516C68.2093 266.936 68.0943 267.431 68.0943 268.001C68.0943 268.571 68.2093 269.071 68.4393 269.501C68.6793 269.921 68.9893 270.241 69.3693 270.461C69.7593 270.681 70.1693 270.791 70.5993 270.791C71.0393 270.791 71.4493 270.681 71.8293 270.461C72.2193 270.231 72.5293 269.901 72.7593 269.471C72.9993 269.041 73.1193 268.541 73.1193 267.971ZM82.1568 270.761H85.6818V272.141H80.4468V261.716H82.1568V270.761ZM94.6868 267.806C94.6868 268.116 94.6668 268.396 94.6268 268.646H88.3118C88.3618 269.306 88.6068 269.836 89.0468 270.236C89.4868 270.636 90.0268 270.836 90.6668 270.836C91.5868 270.836 92.2368 270.451 92.6168 269.681H94.4618C94.2118 270.441 93.7568 271.066 93.0968 271.556C92.4468 272.036 91.6368 272.276 90.6668 272.276C89.8768 272.276 89.1668 272.101 88.5368 271.751C87.9168 271.391 87.4268 270.891 87.0668 270.251C86.7168 269.601 86.5418 268.851 86.5418 268.001C86.5418 267.151 86.7118 266.406 87.0518 265.766C87.4018 265.116 87.8868 264.616 88.5068 264.266C89.1368 263.916 89.8568 263.741 90.6668 263.741C91.4468 263.741 92.1418 263.911 92.7518 264.251C93.3618 264.591 93.8368 265.071 94.1768 265.691C94.5168 266.301 94.6868 267.006 94.6868 267.806ZM92.9018 267.266C92.8918 266.636 92.6668 266.131 92.2268 265.751C91.7868 265.371 91.2418 265.181 90.5918 265.181C90.0018 265.181 89.4968 265.371 89.0768 265.751C88.6568 266.121 88.4068 266.626 88.3268 267.266H92.9018ZM95.7996 267.971C95.7996 267.141 95.9696 266.406 96.3096 265.766C96.6596 265.126 97.1296 264.631 97.7196 264.281C98.3196 263.921 98.9796 263.741 99.6996 263.741C100.35 263.741 100.915 263.871 101.395 264.131C101.885 264.381 102.275 264.696 102.565 265.076V263.876H104.29V272.141H102.565V270.911C102.275 271.301 101.88 271.626 101.38 271.886C100.88 272.146 100.31 272.276 99.6696 272.276C98.9596 272.276 98.3096 272.096 97.7196 271.736C97.1296 271.366 96.6596 270.856 96.3096 270.206C95.9696 269.546 95.7996 268.801 95.7996 267.971ZM102.565 268.001C102.565 267.431 102.445 266.936 102.205 266.516C101.975 266.096 101.67 265.776 101.29 265.556C100.91 265.336 100.5 265.226 100.06 265.226C99.6196 265.226 99.2096 265.336 98.8296 265.556C98.4496 265.766 98.1396 266.081 97.8996 266.501C97.6696 266.911 97.5546 267.401 97.5546 267.971C97.5546 268.541 97.6696 269.041 97.8996 269.471C98.1396 269.901 98.4496 270.231 98.8296 270.461C99.2196 270.681 99.6296 270.791 100.06 270.791C100.5 270.791 100.91 270.681 101.29 270.461C101.67 270.241 101.975 269.921 102.205 269.501C102.445 269.071 102.565 268.571 102.565 268.001ZM108.246 265.076C108.496 264.656 108.826 264.331 109.236 264.101C109.656 263.861 110.151 263.741 110.721 263.741V265.511H110.286C109.616 265.511 109.106 265.681 108.756 266.021C108.416 266.361 108.246 266.951 108.246 267.791V272.141H106.536V263.876H108.246V265.076ZM116.462 263.741C117.112 263.741 117.692 263.876 118.202 264.146C118.722 264.416 119.127 264.816 119.417 265.346C119.707 265.876 119.852 266.516 119.852 267.266V272.141H118.157V267.521C118.157 266.781 117.972 266.216 117.602 265.826C117.232 265.426 116.727 265.226 116.087 265.226C115.447 265.226 114.937 265.426 114.557 265.826C114.187 266.216 114.002 266.781 114.002 267.521V272.141H112.292V263.876H114.002V264.821C114.282 264.481 114.637 264.216 115.067 264.026C115.507 263.836 115.972 263.741 116.462 263.741ZM122.904 262.781C122.594 262.781 122.334 262.676 122.124 262.466C121.914 262.256 121.809 261.996 121.809 261.686C121.809 261.376 121.914 261.116 122.124 260.906C122.334 260.696 122.594 260.591 122.904 260.591C123.204 260.591 123.459 260.696 123.669 260.906C123.879 261.116 123.984 261.376 123.984 261.686C123.984 261.996 123.879 262.256 123.669 262.466C123.459 262.676 123.204 262.781 122.904 262.781ZM123.744 263.876V272.141H122.034V263.876H123.744ZM130.159 263.741C130.809 263.741 131.389 263.876 131.899 264.146C132.419 264.416 132.824 264.816 133.114 265.346C133.404 265.876 133.549 266.516 133.549 267.266V272.141H131.854V267.521C131.854 266.781 131.669 266.216 131.299 265.826C130.929 265.426 130.424 265.226 129.784 265.226C129.144 265.226 128.634 265.426 128.254 265.826C127.884 266.216 127.699 266.781 127.699 267.521V272.141H125.989V263.876H127.699V264.821C127.979 264.481 128.334 264.216 128.764 264.026C129.204 263.836 129.669 263.741 130.159 263.741ZM139.06 263.741C139.7 263.741 140.265 263.871 140.755 264.131C141.255 264.381 141.645 264.696 141.925 265.076V263.876H143.65V272.276C143.65 273.036 143.49 273.711 143.17 274.301C142.85 274.901 142.385 275.371 141.775 275.711C141.175 276.051 140.455 276.221 139.615 276.221C138.495 276.221 137.565 275.956 136.825 275.426C136.085 274.906 135.665 274.196 135.565 273.296H137.26C137.39 273.726 137.665 274.071 138.085 274.331C138.515 274.601 139.025 274.736 139.615 274.736C140.305 274.736 140.86 274.526 141.28 274.106C141.71 273.686 141.925 273.076 141.925 272.276V270.896C141.635 271.286 141.24 271.616 140.74 271.886C140.25 272.146 139.69 272.276 139.06 272.276C138.34 272.276 137.68 272.096 137.08 271.736C136.49 271.366 136.02 270.856 135.67 270.206C135.33 269.546 135.16 268.801 135.16 267.971C135.16 267.141 135.33 266.406 135.67 265.766C136.02 265.126 136.49 264.631 137.08 264.281C137.68 263.921 138.34 263.741 139.06 263.741ZM141.925 268.001C141.925 267.431 141.805 266.936 141.565 266.516C141.335 266.096 141.03 265.776 140.65 265.556C140.27 265.336 139.86 265.226 139.42 265.226C138.98 265.226 138.57 265.336 138.19 265.556C137.81 265.766 137.5 266.081 137.26 266.501C137.03 266.911 136.915 267.401 136.915 267.971C136.915 268.541 137.03 269.041 137.26 269.471C137.5 269.901 137.81 270.231 138.19 270.461C138.58 270.681 138.99 270.791 139.42 270.791C139.86 270.791 140.27 270.681 140.65 270.461C141.03 270.241 141.335 269.921 141.565 269.501C141.805 269.071 141.925 268.571 141.925 268.001ZM151.502 263.096V266.156H155.102V267.551H151.502V270.746H155.552V272.141H149.792V261.701H155.552V263.096H151.502ZM161.829 263.741C162.479 263.741 163.059 263.876 163.569 264.146C164.089 264.416 164.494 264.816 164.784 265.346C165.074 265.876 165.219 266.516 165.219 267.266V272.141H163.524V267.521C163.524 266.781 163.339 266.216 162.969 265.826C162.599 265.426 162.094 265.226 161.454 265.226C160.814 265.226 160.304 265.426 159.924 265.826C159.554 266.216 159.369 266.781 159.369 267.521V272.141H157.659V263.876H159.369V264.821C159.649 264.481 160.004 264.216 160.434 264.026C160.874 263.836 161.339 263.741 161.829 263.741ZM169.395 265.271V269.846C169.395 270.156 169.465 270.381 169.605 270.521C169.755 270.651 170.005 270.716 170.355 270.716H171.405V272.141H170.055C169.285 272.141 168.695 271.961 168.285 271.601C167.875 271.241 167.67 270.656 167.67 269.846V265.271H166.695V263.876H167.67V261.821H169.395V263.876H171.405V265.271H169.395ZM177.256 263.741C177.886 263.741 178.446 263.876 178.936 264.146C179.436 264.416 179.826 264.816 180.106 265.346C180.396 265.876 180.541 266.516 180.541 267.266V272.141H178.846V267.521C178.846 266.781 178.661 266.216 178.291 265.826C177.921 265.426 177.416 265.226 176.776 265.226C176.136 265.226 175.626 265.426 175.246 265.826C174.876 266.216 174.691 266.781 174.691 267.521V272.141H172.981V261.041H174.691V264.836C174.981 264.486 175.346 264.216 175.786 264.026C176.236 263.836 176.726 263.741 177.256 263.741ZM190.207 263.876V272.141H188.497V271.166C188.227 271.506 187.872 271.776 187.432 271.976C187.002 272.166 186.542 272.261 186.052 272.261C185.402 272.261 184.817 272.126 184.297 271.856C183.787 271.586 183.382 271.186 183.082 270.656C182.792 270.126 182.647 269.486 182.647 268.736V263.876H184.342V268.481C184.342 269.221 184.527 269.791 184.897 270.191C185.267 270.581 185.772 270.776 186.412 270.776C187.052 270.776 187.557 270.581 187.927 270.191C188.307 269.791 188.497 269.221 188.497 268.481V263.876H190.207ZM195.463 272.276C194.813 272.276 194.228 272.161 193.708 271.931C193.198 271.691 192.793 271.371 192.493 270.971C192.193 270.561 192.033 270.106 192.013 269.606H193.783C193.813 269.956 193.978 270.251 194.278 270.491C194.588 270.721 194.973 270.836 195.433 270.836C195.913 270.836 196.283 270.746 196.543 270.566C196.813 270.376 196.948 270.136 196.948 269.846C196.948 269.536 196.798 269.306 196.498 269.156C196.208 269.006 195.743 268.841 195.103 268.661C194.483 268.491 193.978 268.326 193.588 268.166C193.198 268.006 192.858 267.761 192.568 267.431C192.288 267.101 192.148 266.666 192.148 266.126C192.148 265.686 192.278 265.286 192.538 264.926C192.798 264.556 193.168 264.266 193.648 264.056C194.138 263.846 194.698 263.741 195.328 263.741C196.268 263.741 197.023 263.981 197.593 264.461C198.173 264.931 198.483 265.576 198.523 266.396H196.813C196.783 266.026 196.633 265.731 196.363 265.511C196.093 265.291 195.728 265.181 195.268 265.181C194.818 265.181 194.473 265.266 194.233 265.436C193.993 265.606 193.873 265.831 193.873 266.111C193.873 266.331 193.953 266.516 194.113 266.666C194.273 266.816 194.468 266.936 194.698 267.026C194.928 267.106 195.268 267.211 195.718 267.341C196.318 267.501 196.808 267.666 197.188 267.836C197.578 267.996 197.913 268.236 198.193 268.556C198.473 268.876 198.618 269.301 198.628 269.831C198.628 270.301 198.498 270.721 198.238 271.091C197.978 271.461 197.608 271.751 197.128 271.961C196.658 272.171 196.103 272.276 195.463 272.276ZM201.346 262.781C201.036 262.781 200.776 262.676 200.566 262.466C200.356 262.256 200.251 261.996 200.251 261.686C200.251 261.376 200.356 261.116 200.566 260.906C200.776 260.696 201.036 260.591 201.346 260.591C201.646 260.591 201.901 260.696 202.111 260.906C202.321 261.116 202.426 261.376 202.426 261.686C202.426 261.996 202.321 262.256 202.111 262.466C201.901 262.676 201.646 262.781 201.346 262.781ZM202.186 263.876V272.141H200.476V263.876H202.186ZM203.861 267.971C203.861 267.141 204.031 266.406 204.371 265.766C204.721 265.126 205.191 264.631 205.781 264.281C206.381 263.921 207.041 263.741 207.761 263.741C208.411 263.741 208.976 263.871 209.456 264.131C209.946 264.381 210.336 264.696 210.626 265.076V263.876H212.351V272.141H210.626V270.911C210.336 271.301 209.941 271.626 209.441 271.886C208.941 272.146 208.371 272.276 207.731 272.276C207.021 272.276 206.371 272.096 205.781 271.736C205.191 271.366 204.721 270.856 204.371 270.206C204.031 269.546 203.861 268.801 203.861 267.971ZM210.626 268.001C210.626 267.431 210.506 266.936 210.266 266.516C210.036 266.096 209.731 265.776 209.351 265.556C208.971 265.336 208.561 265.226 208.121 265.226C207.681 265.226 207.271 265.336 206.891 265.556C206.511 265.766 206.201 266.081 205.961 266.501C205.731 266.911 205.616 267.401 205.616 267.971C205.616 268.541 205.731 269.041 205.961 269.471C206.201 269.901 206.511 270.231 206.891 270.461C207.281 270.681 207.691 270.791 208.121 270.791C208.561 270.791 208.971 270.681 209.351 270.461C209.731 270.241 210.036 269.921 210.266 269.501C210.506 269.071 210.626 268.571 210.626 268.001ZM217.597 272.276C216.947 272.276 216.362 272.161 215.842 271.931C215.332 271.691 214.927 271.371 214.627 270.971C214.327 270.561 214.167 270.106 214.147 269.606H215.917C215.947 269.956 216.112 270.251 216.412 270.491C216.722 270.721 217.107 270.836 217.567 270.836C218.047 270.836 218.417 270.746 218.677 270.566C218.947 270.376 219.082 270.136 219.082 269.846C219.082 269.536 218.932 269.306 218.632 269.156C218.342 269.006 217.877 268.841 217.237 268.661C216.617 268.491 216.112 268.326 215.722 268.166C215.332 268.006 214.992 267.761 214.702 267.431C214.422 267.101 214.282 266.666 214.282 266.126C214.282 265.686 214.412 265.286 214.672 264.926C214.932 264.556 215.302 264.266 215.782 264.056C216.272 263.846 216.832 263.741 217.462 263.741C218.402 263.741 219.157 263.981 219.727 264.461C220.307 264.931 220.617 265.576 220.657 266.396H218.947C218.917 266.026 218.767 265.731 218.497 265.511C218.227 265.291 217.862 265.181 217.402 265.181C216.952 265.181 216.607 265.266 216.367 265.436C216.127 265.606 216.007 265.831 216.007 266.111C216.007 266.331 216.087 266.516 216.247 266.666C216.407 266.816 216.602 266.936 216.832 267.026C217.062 267.106 217.402 267.211 217.852 267.341C218.452 267.501 218.942 267.666 219.322 267.836C219.712 267.996 220.047 268.236 220.327 268.556C220.607 268.876 220.752 269.301 220.762 269.831C220.762 270.301 220.632 270.721 220.372 271.091C220.112 271.461 219.742 271.751 219.262 271.961C218.792 272.171 218.237 272.276 217.597 272.276ZM224.605 265.271V269.846C224.605 270.156 224.675 270.381 224.815 270.521C224.965 270.651 225.215 270.716 225.565 270.716H226.615V272.141H225.265C224.495 272.141 223.905 271.961 223.495 271.601C223.085 271.241 222.88 270.656 222.88 269.846V265.271H221.905V263.876H222.88V261.821H224.605V263.876H226.615V265.271H224.605ZM228.881 272.246C228.571 272.246 228.311 272.141 228.101 271.931C227.891 271.721 227.786 271.461 227.786 271.151C227.786 270.841 227.891 270.581 228.101 270.371C228.311 270.161 228.571 270.056 228.881 270.056C229.181 270.056 229.436 270.161 229.646 270.371C229.856 270.581 229.961 270.841 229.961 271.151C229.961 271.461 229.856 271.721 229.646 271.931C229.436 272.141 229.181 272.246 228.881 272.246Z" fill="white"/>
<g filter="url(#filter0_d_606_530)">
<rect x="4" width="272" height="449" fill="#2D2828"/>
</g>
<path d="M75.5 76.9763L4 147V124.155L130 0H138L75.5 62.0777V76.9763Z" fill="#49DCAB"/>
<g filter="url(#filter1_i_606_530)">
<path d="M204.5 371.5L276 301V324L150 449H142L204.5 386.5V371.5Z" fill="#49DCAB"/>
<path d="M131 0L4 126V0H131Z" fill="#49DCAB"/>
<path d="M149 449L276 323L276 449L149 449Z" fill="#49DCAB"/>
</g>
<defs>
<filter id="filter0_d_606_530" x="0" y="0" width="280" height="457" filterUnits="userSpaceOnUse" color-interpolation-filters="sRGB">
<feFlood flood-opacity="0" result="BackgroundImageFix"/>
<feColorMatrix in="SourceAlpha" type="matrix" values="0 0 0 0 0 0 0 0 0 0 0 0 0 0 0 0 0 0 127 0" result="hardAlpha"/>
<feOffset dy="4"/>
<feGaussianBlur stdDeviation="2"/>
<feComposite in2="hardAlpha" operator="out"/>
<feColorMatrix type="matrix" values="0 0 0 0 0 0 0 0 0 0 0 0 0 0 0 0 0 0 0.25 0"/>
<feBlend mode="normal" in2="BackgroundImageFix" result="effect1_dropShadow_606_530"/>
<feBlend mode="normal" in="SourceGraphic" in2="effect1_dropShadow_606_530" result="shape"/>
</filter>
<filter id="filter1_i_606_530" x="4" y="0" width="272" height="453" filterUnits="userSpaceOnUse" color-interpolation-filters="sRGB">
<feFlood flood-opacity="0" result="BackgroundImageFix"/>
<feBlend mode="normal" in="SourceGraphic" in2="BackgroundImageFix" result="shape"/>
<feColorMatrix in="SourceAlpha" type="matrix" values="0 0 0 0 0 0 0 0 0 0 0 0 0 0 0 0 0 0 127 0" result="hardAlpha"/>
<feOffset dy="4"/>
<feGaussianBlur stdDeviation="2"/>
<feComposite in2="hardAlpha" operator="arithmetic" k2="-1" k3="1"/>
<feColorMatrix type="matrix" values="0 0 0 0 0 0 0 0 0 0 0 0 0 0 0 0 0 0 0.25 0"/>
<feBlend mode="normal" in2="shape" result="effect1_innerShadow_606_530"/>
</filter>
</defs>
</svg>
