<svg width="60" height="45" viewBox="0 0 60 45" fill="none" xmlns="http://www.w3.org/2000/svg">
<path d="M53.8848 0H5.19211C4.39283 0 3.64456 0.196502 2.96759 0.520389L29.423 26.9758L35.3526 21.2773C35.3526 21.2773 35.353 21.2767 35.3532 21.2765C35.3533 21.2763 35.3537 21.276 35.3537 21.276L56.1101 0.52085C55.433 0.196732 54.6843 0 53.8848 0Z" fill="white"/>
<path d="M58.5577 2.96582L39.0249 22.4976L58.557 42.0297C58.8809 41.3527 59.0774 40.6044 59.0774 39.8052V5.18953C59.0774 4.39072 58.8813 3.64256 58.5577 2.96582Z" fill="white"/>
<path d="M0.520388 2.96582C0.196501 3.64279 0 4.39106 0 5.19034V39.806C0 40.6048 0.196271 41.3532 0.519927 42.0299L20.0527 22.4981L0.520388 2.96582Z" fill="white"/>
<path d="M36.5774 24.9465L30.647 30.6458C30.3089 30.9838 29.8661 31.1529 29.4234 31.1529C28.9806 31.1529 28.5377 30.9838 28.1997 30.6458L22.5001 24.9463L2.96698 44.4782C3.64406 44.8023 4.3928 44.999 5.1923 44.999H53.885C54.6842 44.999 55.4325 44.8025 56.1095 44.4786L36.5774 24.9465Z" fill="white"/>
</svg>
