<svg width="56" height="45" viewBox="0 0 56 45" fill="none" xmlns="http://www.w3.org/2000/svg">
<path d="M55.3846 5.32731C53.325 6.23077 51.1304 6.82962 48.8423 7.12038C51.1962 5.715 52.9927 3.50654 53.8373 0.844615C51.6427 2.15308 49.2196 3.07731 46.6373 3.59308C44.5535 1.37423 41.5835 0 38.3435 0C32.0573 0 26.9965 5.10231 26.9965 11.3573C26.9965 12.2573 27.0727 13.1227 27.2596 13.9465C17.82 13.4862 9.46731 8.96192 3.85615 2.07C2.87654 3.76962 2.30192 5.715 2.30192 7.80923C2.30192 11.7415 4.32692 15.2273 7.34538 17.2454C5.52115 17.2108 3.73154 16.6812 2.21538 15.8469C2.21538 15.8815 2.21538 15.9265 2.21538 15.9715C2.21538 21.4892 6.15115 26.0723 11.3123 27.1281C10.3881 27.3808 9.38077 27.5019 8.33538 27.5019C7.60846 27.5019 6.87462 27.4604 6.18577 27.3081C7.65692 31.8046 11.8315 35.1104 16.7954 35.2177C12.9323 38.2396 8.02731 40.0604 2.71731 40.0604C1.78615 40.0604 0.893077 40.0188 0 39.9046C5.02962 43.1481 10.9904 45 17.4185 45C38.3123 45 49.7354 27.6923 49.7354 12.69C49.7354 12.1881 49.7181 11.7035 49.6938 11.2223C51.9473 9.62308 53.8408 7.62577 55.3846 5.32731Z" fill="white"/>
</svg>
