<svg width="639" height="1132" viewBox="0 0 639 1132" fill="none" xmlns="http://www.w3.org/2000/svg">
<path fill-rule="evenodd" clip-rule="evenodd" d="M139.66 24.9779C196.578 63.8137 166.581 204.387 235.471 205.611C362.588 207.869 465.377 -38.534 570.735 32.6357C663.876 95.5527 462.407 226.018 419.476 329.906C404.036 367.267 378.819 413.104 399.044 448.105C458.738 551.405 623.919 590.443 638.461 708.866C648.086 787.243 526.533 850.671 447.783 844.999C345.476 837.63 281.064 622.506 194.071 676.859C51.3646 766.021 156.687 1125.8 -11.4645 1131.94C-162.32 1137.44 58.0975 788.231 -52.8615 685.863C-146.908 599.098 -318.412 815.369 -427.349 748.252C-505.889 699.863 -457.595 541.891 -392.266 476.754C-303.939 388.686 -111.858 464.527 -40.3122 362.352C7.27121 294.398 -162.682 231.65 -162.545 148.689C-162.445 88.2047 -95.7118 40.7385 -39.7436 17.8272C16.2572 -5.09729 89.6746 -9.12829 139.66 24.9779Z" fill="url(#paint0_linear)" fill-opacity="0.3"/>
<defs>
<linearGradient id="paint0_linear" x1="-468" y1="566" x2="639" y2="566" gradientUnits="userSpaceOnUse">
<stop stop-color="#5F2C82"/>
<stop offset="1" stop-color="#49A09D"/>
</linearGradient>
</defs>
</svg>
