<svg width="749" height="587" viewBox="0 0 749 587" fill="none" xmlns="http://www.w3.org/2000/svg">
<path opacity="0.1" d="M350.1 146.319C305.694 160.61 259.786 163.947 215.386 165.546C170.985 167.145 126.487 167.262 81.2391 175.797C52.1301 181.271 20.35 191.805 2.31233 211.592C-15.0444 230.62 -14.9734 252.867 -12.2144 272.557C-10.1382 287.375 -6.65003 302.51 5.57941 312.756C14.0693 319.861 26.181 324.083 35.7467 330.388C69.0443 352.325 65.9993 394.936 51.6701 432.879C44.9588 450.651 36.1741 468.485 32.3858 486.261C28.5976 504.036 30.3918 522.211 43.4436 534.355C56.3868 546.396 78.7267 550.985 101.441 551.738C147.581 553.27 196.961 540.946 244.468 527.072C349.619 496.356 452.454 457.297 555.002 418.334C592.958 403.916 631.077 389.425 667.042 371.366C687.017 361.339 707.128 349.52 718.729 334.017C733.456 314.334 730.547 290.834 711.94 279.235C680.727 259.788 618.485 274.188 593.095 250.456C579.12 237.392 581.394 216.545 588.24 197.439C602.99 156.426 636.687 113.139 626.146 75.9194C618.913 50.3672 589.136 32.7239 552.618 32.316C514.322 31.8778 467.829 50.0503 450.039 79.4089C431.746 109.589 389.323 133.701 350.1 146.319Z" fill="url(#paint0_linear)"/>
<g clip-path="url(#clip0)">
<g opacity="0.7">
<path opacity="0.7" d="M527.336 306.325L367.724 267.866V568.868L527.336 527.065V306.325Z" fill="url(#paint1_linear)"/>
<g opacity="0.1">
<path opacity="0.1" d="M527.336 306.325L367.724 267.866V568.868L527.336 527.065V306.325Z" fill="url(#paint2_linear)"/>
</g>
<path opacity="0.7" d="M208.105 306.325L367.724 267.866V568.868L208.105 527.896V306.325Z" fill="url(#paint3_linear)"/>
<g opacity="0.17">
<path opacity="0.17" d="M208.105 306.325L367.724 267.866V568.868L208.105 527.896V306.325Z" fill="url(#paint4_linear)"/>
</g>
<path opacity="0.7" d="M367.724 267.866L450.453 199.305L610.065 240.277L527.336 306.325L367.724 267.866Z" fill="url(#paint5_linear)"/>
<path opacity="0.7" d="M126.213 241.108L208.105 306.325L367.724 267.866L286.662 199.305L126.213 241.108Z" fill="url(#paint6_linear)"/>
<g opacity="0.05">
<path opacity="0.05" d="M126.213 241.108L208.105 306.325L367.724 267.866L286.662 199.305L126.213 241.108Z" fill="url(#paint7_linear)"/>
</g>
<g opacity="0.5">
<path opacity="0.5" d="M364.843 233.074H252.305C250.666 233.074 249.338 234.403 249.338 236.042V339.474C249.338 341.113 250.666 342.442 252.305 342.442H364.843C366.481 342.442 367.81 341.113 367.81 339.474V236.042C367.81 234.403 366.481 233.074 364.843 233.074Z" fill="url(#paint8_linear)"/>
</g>
<path opacity="0.7" d="M363.558 233.919H253.748C252.11 233.919 250.782 235.247 250.782 236.887V337.667C250.782 339.306 252.11 340.635 253.748 340.635H363.558C365.196 340.635 366.524 339.306 366.524 337.667V236.887C366.524 235.247 365.196 233.919 363.558 233.919Z" fill="url(#paint9_linear)"/>
<path opacity="0.7" d="M276.253 251.496H262.667C261.029 251.496 259.701 252.825 259.701 254.464V266.105C259.701 267.744 261.029 269.073 262.667 269.073H276.253C277.892 269.073 279.22 267.744 279.22 266.105V254.464C279.22 252.825 277.892 251.496 276.253 251.496Z" fill="url(#paint10_linear)"/>
<path opacity="0.7" d="M362.14 251.496H285.601C285.309 251.496 285.073 251.732 285.073 252.023V252.92C285.073 253.212 285.309 253.448 285.601 253.448H362.14C362.432 253.448 362.668 253.212 362.668 252.92V252.023C362.668 251.732 362.432 251.496 362.14 251.496Z" fill="url(#paint11_linear)"/>
<path opacity="0.7" d="M362.14 257.353H285.601C285.309 257.353 285.073 257.589 285.073 257.88V258.777C285.073 259.069 285.309 259.305 285.601 259.305H362.14C362.432 259.305 362.668 259.069 362.668 258.777V257.88C362.668 257.589 362.432 257.353 362.14 257.353Z" fill="url(#paint12_linear)"/>
<path opacity="0.7" d="M362.14 278.623H258.277C257.986 278.623 257.75 278.86 257.75 279.151V280.048C257.75 280.339 257.986 280.576 258.277 280.576H362.14C362.432 280.576 362.668 280.339 362.668 280.048V279.151C362.668 278.86 362.432 278.623 362.14 278.623Z" fill="url(#paint13_linear)"/>
<path opacity="0.7" d="M362.14 284.48H258.277C257.986 284.48 257.75 284.716 257.75 285.008V285.905C257.75 286.196 257.986 286.432 258.277 286.432H362.14C362.432 286.432 362.668 286.196 362.668 285.905V285.008C362.668 284.716 362.432 284.48 362.14 284.48Z" fill="url(#paint14_linear)"/>
<path opacity="0.7" d="M362.14 292.289H258.277C257.986 292.289 257.75 292.526 257.75 292.817V293.714C257.75 294.005 257.986 294.242 258.277 294.242H362.14C362.432 294.242 362.668 294.005 362.668 293.714V292.817C362.668 292.526 362.432 292.289 362.14 292.289Z" fill="url(#paint15_linear)"/>
<path opacity="0.7" d="M317.73 298.153H258.277C257.986 298.153 257.75 298.389 257.75 298.68V299.577C257.75 299.869 257.986 300.105 258.277 300.105H317.73C318.021 300.105 318.257 299.869 318.257 299.577V298.68C318.257 298.389 318.021 298.153 317.73 298.153Z" fill="url(#paint16_linear)"/>
<path opacity="0.7" d="M362.14 305.942H258.277C257.986 305.942 257.75 306.178 257.75 306.47V307.367C257.75 307.658 257.986 307.894 258.277 307.894H362.14C362.432 307.894 362.668 307.658 362.668 307.367V306.47C362.668 306.178 362.432 305.942 362.14 305.942Z" fill="url(#paint17_linear)"/>
<path opacity="0.7" d="M362.14 311.799H258.277C257.986 311.799 257.75 312.035 257.75 312.327V313.224C257.75 313.515 257.986 313.751 258.277 313.751H362.14C362.432 313.751 362.668 313.515 362.668 313.224V312.327C362.668 312.035 362.432 311.799 362.14 311.799Z" fill="url(#paint18_linear)"/>
<path opacity="0.7" d="M362.14 319.615H258.277C257.986 319.615 257.75 319.851 257.75 320.142V321.039C257.75 321.331 257.986 321.567 258.277 321.567H362.14C362.432 321.567 362.668 321.331 362.668 321.039V320.142C362.668 319.851 362.432 319.615 362.14 319.615Z" fill="url(#paint19_linear)"/>
<path opacity="0.7" d="M317.73 325.472H258.277C257.986 325.472 257.75 325.708 257.75 325.999V326.896C257.75 327.188 257.986 327.424 258.277 327.424H317.73C318.021 327.424 318.257 327.188 318.257 326.896V325.999C318.257 325.708 318.021 325.472 317.73 325.472Z" fill="url(#paint20_linear)"/>
<g opacity="0.5">
<path opacity="0.5" d="M382.721 258.342H270.182C268.544 258.342 267.216 259.671 267.216 261.31V364.742C267.216 366.381 268.544 367.71 270.182 367.71H382.721C384.359 367.71 385.687 366.381 385.687 364.742V261.31C385.687 259.671 384.359 258.342 382.721 258.342Z" fill="url(#paint21_linear)"/>
</g>
<path opacity="0.7" d="M381.435 259.193H271.626C269.987 259.193 268.659 260.522 268.659 262.161V362.941C268.659 364.58 269.987 365.909 271.626 365.909H381.435C383.074 365.909 384.402 364.58 384.402 362.941V262.161C384.402 260.522 383.074 259.193 381.435 259.193Z" fill="url(#paint22_linear)"/>
<path opacity="0.7" d="M294.131 276.77H280.545C278.906 276.77 277.578 278.099 277.578 279.738V291.379C277.578 293.018 278.906 294.347 280.545 294.347H294.131C295.769 294.347 297.097 293.018 297.097 291.379V279.738C297.097 278.099 295.769 276.77 294.131 276.77Z" fill="url(#paint23_linear)"/>
<path opacity="0.7" d="M380.025 276.77H303.485C303.194 276.77 302.957 277.006 302.957 277.298V278.195C302.957 278.486 303.194 278.722 303.485 278.722H380.025C380.316 278.722 380.552 278.486 380.552 278.195V277.298C380.552 277.006 380.316 276.77 380.025 276.77Z" fill="url(#paint24_linear)"/>
<path opacity="0.7" d="M380.025 282.627H303.485C303.194 282.627 302.957 282.863 302.957 283.154V284.051C302.957 284.343 303.194 284.579 303.485 284.579H380.025C380.316 284.579 380.552 284.343 380.552 284.051V283.154C380.552 282.863 380.316 282.627 380.025 282.627Z" fill="url(#paint25_linear)"/>
<path opacity="0.7" d="M380.018 303.891H276.154C275.863 303.891 275.627 304.127 275.627 304.419V305.316C275.627 305.607 275.863 305.843 276.154 305.843H380.018C380.309 305.843 380.545 305.607 380.545 305.316V304.419C380.545 304.127 380.309 303.891 380.018 303.891Z" fill="url(#paint26_linear)"/>
<path opacity="0.7" d="M380.018 309.754H276.154C275.863 309.754 275.627 309.991 275.627 310.282V311.179C275.627 311.47 275.863 311.707 276.154 311.707H380.018C380.309 311.707 380.545 311.47 380.545 311.179V310.282C380.545 309.991 380.309 309.754 380.018 309.754Z" fill="url(#paint27_linear)"/>
<path opacity="0.7" d="M380.018 317.564H276.154C275.863 317.564 275.627 317.8 275.627 318.091V318.988C275.627 319.28 275.863 319.516 276.154 319.516H380.018C380.309 319.516 380.545 319.28 380.545 318.988V318.091C380.545 317.8 380.309 317.564 380.018 317.564Z" fill="url(#paint28_linear)"/>
<path opacity="0.7" d="M335.608 323.42H276.154C275.863 323.42 275.627 323.657 275.627 323.948V324.845C275.627 325.136 275.863 325.373 276.154 325.373H335.608C335.899 325.373 336.135 325.136 336.135 324.845V323.948C336.135 323.657 335.899 323.42 335.608 323.42Z" fill="url(#paint29_linear)"/>
<path opacity="0.7" d="M380.018 331.216H276.154C275.863 331.216 275.627 331.453 275.627 331.744V332.641C275.627 332.932 275.863 333.169 276.154 333.169H380.018C380.309 333.169 380.545 332.932 380.545 332.641V331.744C380.545 331.453 380.309 331.216 380.018 331.216Z" fill="url(#paint30_linear)"/>
<path opacity="0.7" d="M380.018 337.073H276.154C275.863 337.073 275.627 337.309 275.627 337.601V338.498C275.627 338.789 275.863 339.026 276.154 339.026H380.018C380.309 339.026 380.545 338.789 380.545 338.498V337.601C380.545 337.309 380.309 337.073 380.018 337.073Z" fill="url(#paint31_linear)"/>
<path opacity="0.7" d="M380.018 344.889H276.154C275.863 344.889 275.627 345.125 275.627 345.417V346.314C275.627 346.605 275.863 346.841 276.154 346.841H380.018C380.309 346.841 380.545 346.605 380.545 346.314V345.417C380.545 345.125 380.309 344.889 380.018 344.889Z" fill="url(#paint32_linear)"/>
<path opacity="0.7" d="M335.608 350.746H276.154C275.863 350.746 275.627 350.982 275.627 351.273V352.171C275.627 352.462 275.863 352.698 276.154 352.698H335.608C335.899 352.698 336.135 352.462 336.135 352.171V351.273C336.135 350.982 335.899 350.746 335.608 350.746Z" fill="url(#paint33_linear)"/>
<g opacity="0.5">
<path opacity="0.5" d="M438.759 272.496H336.109V393.169H438.759V272.496Z" fill="url(#paint34_linear)"/>
</g>
<path opacity="0.7" d="M436.577 274.442H339.266V390.504H436.577V274.442Z" fill="url(#paint35_linear)"/>
<g opacity="0.5">
<path opacity="0.5" d="M393.222 292.896V289.981H382.642V292.896H375.199V307.215H400.644V292.896H393.222ZM383.96 291.03H391.87V292.883H383.96V291.03Z" fill="url(#paint36_linear)"/>
</g>
<path opacity="0.7" d="M399.57 293.378H376.274V306.49H399.57V293.378Z" fill="url(#paint37_linear)"/>
<path opacity="0.7" d="M383.07 290.706V294.11H384.283V291.683H391.561V294.11H392.773V290.706H383.07Z" fill="url(#paint38_linear)"/>
<path opacity="0.7" d="M422.259 325.359H353.828V328.275H422.259V325.359Z" fill="url(#paint39_linear)"/>
<path opacity="0.7" d="M422.259 344.539H353.828V347.455H422.259V344.539Z" fill="url(#paint40_linear)"/>
<path opacity="0.7" d="M422.259 349.638H353.828V352.553H422.259V349.638Z" fill="url(#paint41_linear)"/>
<path opacity="0.7" d="M382.707 339.441H353.828V342.356H382.707V339.441Z" fill="url(#paint42_linear)"/>
<g opacity="0.6">
<path opacity="0.6" d="M422.259 339.441H400.664V342.356H422.259V339.441Z" fill="url(#paint43_linear)"/>
</g>
<path opacity="0.7" d="M399.445 361.536H377.849V364.452H399.445V361.536Z" fill="url(#paint44_linear)"/>
<path opacity="0.7" d="M208.105 306.325V527.896L367.724 568.868V348.972L208.105 306.325Z" fill="url(#paint45_linear)"/>
<path opacity="0.7" d="M527.336 527.065L367.724 568.868V348.972L527.336 306.325V527.065Z" fill="url(#paint46_linear)"/>
<g opacity="0.07">
<path opacity="0.07" d="M527.336 527.065L367.724 568.868V348.972L527.336 306.325V527.065Z" fill="url(#paint47_linear)"/>
</g>
<g opacity="0.07">
<path opacity="0.07" d="M463.822 453.485V526.228L527.336 508.67V435.928L463.822 453.485Z" fill="url(#paint48_linear)"/>
</g>
<path opacity="0.7" d="M490.876 287.844H443.802V333.096H490.876V287.844Z" fill="url(#paint49_linear)"/>
<path opacity="0.7" d="M490.137 288.952H444.54V332.173H490.137V288.952Z" fill="url(#paint50_linear)"/>
<g opacity="0.5">
<path opacity="0.5" d="M471.37 296.53V294.327H463.308V296.543H457.658V307.439H477.019V296.53H471.37ZM464.316 295.119H470.368V296.53H464.316V295.119Z" fill="url(#paint51_linear)"/>
</g>
<g opacity="0.6">
<path opacity="0.6" d="M476.195 296.9H458.476V306.872H476.195V296.9Z" fill="url(#paint52_linear)"/>
</g>
<g opacity="0.6">
<path opacity="0.6" d="M463.644 294.862V297.454H464.573V295.607H470.111V297.454H471.034V294.862H463.644Z" fill="url(#paint53_linear)"/>
</g>
<g opacity="0.6">
<path opacity="0.6" d="M475.918 314.629H459.491V316.845H475.918V314.629Z" fill="url(#paint54_linear)"/>
</g>
<path opacity="0.7" d="M481.37 318.691H453.308V320.908H481.37V318.691Z" fill="url(#paint55_linear)"/>
<g opacity="0.5">
<path opacity="0.5" d="M393.195 149.515H332.206V199.641H393.195V149.515Z" fill="url(#paint56_linear)"/>
</g>
<path opacity="0.7" d="M392.371 150.464H332.918V198.81H392.371V150.464Z" fill="url(#paint57_linear)"/>
<path opacity="0.7" d="M392.371 150.464H332.918V161.248H392.371V150.464Z" fill="url(#paint58_linear)"/>
<g opacity="0.1">
<path opacity="0.1" d="M392.371 150.464H332.918V161.248H392.371V150.464Z" fill="url(#paint59_linear)"/>
</g>
<path opacity="0.7" d="M387.638 165.16H337.658V171.439H387.638V165.16Z" fill="url(#paint60_linear)"/>
<path opacity="0.7" d="M374.138 176.181H337.658V178.311H374.138V176.181Z" fill="url(#paint61_linear)"/>
<path opacity="0.7" d="M361.343 179.855H337.658V181.985H361.343V179.855Z" fill="url(#paint62_linear)"/>
<path opacity="0.7" d="M368.924 183.528H337.658V185.659H368.924V183.528Z" fill="url(#paint63_linear)"/>
<path opacity="0.7" d="M374.138 187.195H337.658V189.326H374.138V187.195Z" fill="url(#paint64_linear)"/>
<path opacity="0.7" d="M349.853 190.869H337.658V193H349.853V190.869Z" fill="url(#paint65_linear)"/>
<g opacity="0.5">
<path opacity="0.5" d="M497.474 187.156H421.877V249.28H497.474V187.156Z" fill="url(#paint66_linear)"/>
</g>
<path opacity="0.7" d="M496.452 188.33H422.76V248.251H496.452V188.33Z" fill="url(#paint67_linear)"/>
<path opacity="0.7" d="M496.452 188.33H422.76V201.693H496.452V188.33Z" fill="url(#paint68_linear)"/>
<path opacity="0.7" d="M490.572 206.54H428.627V214.323H490.572V206.54Z" fill="url(#paint69_linear)"/>
<path opacity="0.7" d="M473.842 220.2H428.627V222.845H473.842V220.2Z" fill="url(#paint70_linear)"/>
<path opacity="0.7" d="M457.988 224.751H428.627V227.395H457.988V224.751Z" fill="url(#paint71_linear)"/>
<path opacity="0.7" d="M467.382 229.308H428.627V231.953H467.382V229.308Z" fill="url(#paint72_linear)"/>
<path opacity="0.7" d="M473.842 233.859H428.627V236.504H473.842V233.859Z" fill="url(#paint73_linear)"/>
<path opacity="0.7" d="M443.749 238.41H428.627V241.055H443.749V238.41Z" fill="url(#paint74_linear)"/>
<path opacity="0.7" d="M449.471 209.185H431.857V211.533H449.471V209.185Z" fill="url(#paint75_linear)"/>
<g opacity="0.1">
<path opacity="0.1" d="M206.022 421.292L295.436 443.869L367.302 385.34V349.387L207.69 309.253L206.022 421.292Z" fill="url(#paint76_linear)"/>
</g>
<g opacity="0.1">
<path opacity="0.1" d="M528.588 421.292L439.168 443.869L367.302 385.34V349.387L526.914 309.253L528.588 421.292Z" fill="url(#paint77_linear)"/>
</g>
<path opacity="0.7" d="M208.105 306.325L126.213 374.055L285.825 414.189L367.724 348.972L208.105 306.325Z" fill="url(#paint78_linear)"/>
<path opacity="0.7" d="M527.336 306.325L610.065 374.055L451.291 414.189L367.724 348.972L527.336 306.325Z" fill="url(#paint79_linear)"/>
<g opacity="0.07">
<path opacity="0.07" d="M527.336 306.325L610.065 374.055L451.291 414.189L367.724 348.972L527.336 306.325Z" fill="url(#paint80_linear)"/>
</g>
</g>
<path d="M527.626 304.293L369.378 266.158V564.588L527.626 523.141V304.293Z" fill="#535461"/>
<path opacity="0.1" d="M527.626 304.293L369.378 266.158V564.588L527.626 523.141V304.293Z" fill="black"/>
<path d="M211.138 304.293L369.378 266.158V564.588L211.138 523.965V304.293Z" fill="#535461"/>
<path opacity="0.17" d="M211.138 302.974L369.378 264.839V564.587L211.138 523.965V302.974Z" fill="black"/>
<path d="M368.06 267.477L451.403 198.184L609.65 238.806L526.308 305.612L368.06 267.477Z" fill="#535461"/>
<path d="M131.262 240.949L212.456 305.612L370.697 267.477L290.334 199.503L131.262 240.949Z" fill="#535461"/>
<path opacity="0.05" d="M129.944 239.63L213.115 305.612L371.356 267.477L289.015 198.184L129.944 239.63Z" fill="black"/>
<g opacity="0.5">
<path opacity="0.5" d="M366.498 231.663H254.974C253.336 231.663 252.008 232.992 252.008 234.631V337.126C252.008 338.765 253.336 340.094 254.974 340.094H366.498C368.136 340.094 369.464 338.765 369.464 337.126V234.631C369.464 232.992 368.136 231.663 366.498 231.663Z" fill="url(#paint81_linear)"/>
</g>
<path d="M365.225 232.507H256.411C254.773 232.507 253.445 233.836 253.445 235.475V335.339C253.445 336.978 254.773 338.307 256.411 338.307H365.225C366.864 338.307 368.192 336.978 368.192 335.339V235.475C368.192 233.836 366.864 232.507 365.225 232.507Z" fill="#F5F5F5"/>
<path d="M278.673 249.933H265.251C263.613 249.933 262.285 251.261 262.285 252.901V264.39C262.285 266.029 263.613 267.358 265.251 267.358H278.673C280.311 267.358 281.639 266.029 281.639 264.39V252.901C281.639 251.261 280.311 249.933 278.673 249.933Z" fill="#60B6E9"/>
<path d="M363.848 249.933H287.974C287.683 249.933 287.446 250.169 287.446 250.46V251.344C287.446 251.635 287.683 251.872 287.974 251.872H363.848C364.139 251.872 364.375 251.635 364.375 251.344V250.46C364.375 250.169 364.139 249.933 363.848 249.933Z" fill="#E0E0E0"/>
<path d="M363.848 255.737H287.974C287.683 255.737 287.446 255.973 287.446 256.264V257.148C287.446 257.439 287.683 257.676 287.974 257.676H363.848C364.139 257.676 364.375 257.439 364.375 257.148V256.264C364.375 255.973 364.139 255.737 363.848 255.737Z" fill="#E0E0E0"/>
<path d="M363.848 276.823H260.881C260.589 276.823 260.353 277.059 260.353 277.35V278.234C260.353 278.526 260.589 278.762 260.881 278.762H363.848C364.139 278.762 364.375 278.526 364.375 278.234V277.35C364.375 277.059 364.139 276.823 363.848 276.823Z" fill="#E0E0E0"/>
<path d="M363.848 282.633H260.881C260.589 282.633 260.353 282.87 260.353 283.161V284.045C260.353 284.336 260.589 284.573 260.881 284.573H363.848C364.139 284.573 364.375 284.336 364.375 284.045V283.161C364.375 282.87 364.139 282.633 363.848 282.633Z" fill="#E0E0E0"/>
<path d="M363.848 290.377H260.881C260.589 290.377 260.353 290.613 260.353 290.904V291.788C260.353 292.079 260.589 292.316 260.881 292.316H363.848C364.139 292.316 364.375 292.079 364.375 291.788V290.904C364.375 290.613 364.139 290.377 363.848 290.377Z" fill="#E0E0E0"/>
<path d="M319.82 296.187H260.881C260.589 296.187 260.353 296.423 260.353 296.715V297.599C260.353 297.89 260.589 298.126 260.881 298.126H319.82C320.111 298.126 320.347 297.89 320.347 297.599V296.715C320.347 296.423 320.111 296.187 319.82 296.187Z" fill="#E0E0E0"/>
<path d="M363.848 303.911H260.881C260.589 303.911 260.353 304.147 260.353 304.438V305.322C260.353 305.614 260.589 305.85 260.881 305.85H363.848C364.139 305.85 364.375 305.614 364.375 305.322V304.438C364.375 304.147 364.139 303.911 363.848 303.911Z" fill="#E0E0E0"/>
<path d="M363.848 309.721H260.881C260.589 309.721 260.353 309.958 260.353 310.249V311.133C260.353 311.424 260.589 311.661 260.881 311.661H363.848C364.139 311.661 364.375 311.424 364.375 311.133V310.249C364.375 309.958 364.139 309.721 363.848 309.721Z" fill="#E0E0E0"/>
<path d="M363.848 317.465H260.881C260.589 317.465 260.353 317.701 260.353 317.992V318.876C260.353 319.167 260.589 319.404 260.881 319.404H363.848C364.139 319.404 364.375 319.167 364.375 318.876V317.992C364.375 317.701 364.139 317.465 363.848 317.465Z" fill="#E0E0E0"/>
<path d="M319.82 323.275H260.881C260.589 323.275 260.353 323.512 260.353 323.803V324.687C260.353 324.978 260.589 325.214 260.881 325.214H319.82C320.111 325.214 320.347 324.978 320.347 324.687V323.803C320.347 323.512 320.111 323.275 319.82 323.275Z" fill="#E0E0E0"/>
<g opacity="0.5">
<path opacity="0.5" d="M384.224 256.719H272.7C271.062 256.719 269.734 258.048 269.734 259.687V362.183C269.734 363.822 271.062 365.151 272.7 365.151H384.224C385.862 365.151 387.19 363.822 387.19 362.183V259.687C387.19 258.048 385.862 256.719 384.224 256.719Z" fill="url(#paint82_linear)"/>
</g>
<path d="M382.951 257.564H274.137C272.499 257.564 271.171 258.892 271.171 260.532V360.395C271.171 362.034 272.499 363.363 274.137 363.363H382.951C384.59 363.363 385.918 362.034 385.918 360.395V260.532C385.918 258.892 384.59 257.564 382.951 257.564Z" fill="white"/>
<path d="M296.398 274.989H282.977C281.339 274.989 280.011 276.318 280.011 277.957V289.447C280.011 291.086 281.339 292.415 282.977 292.415H296.398C298.037 292.415 299.365 291.086 299.365 289.447V277.957C299.365 276.318 298.037 274.989 296.398 274.989Z" fill="#60B6E9"/>
<path d="M381.574 274.989H305.7C305.408 274.989 305.172 275.225 305.172 275.517V276.401C305.172 276.692 305.408 276.928 305.7 276.928H381.574C381.865 276.928 382.101 276.692 382.101 276.401V275.517C382.101 275.225 381.865 274.989 381.574 274.989Z" fill="#E0E0E0"/>
<path d="M381.574 280.793H305.7C305.408 280.793 305.172 281.029 305.172 281.321V282.205C305.172 282.496 305.408 282.732 305.7 282.732H381.574C381.865 282.732 382.101 282.496 382.101 282.205V281.321C382.101 281.029 381.865 280.793 381.574 280.793Z" fill="#E0E0E0"/>
<path d="M381.574 301.879H278.607C278.315 301.879 278.079 302.115 278.079 302.407V303.291C278.079 303.582 278.315 303.818 278.607 303.818H381.574C381.865 303.818 382.101 303.582 382.101 303.291V302.407C382.101 302.115 381.865 301.879 381.574 301.879Z" fill="#E0E0E0"/>
<path d="M381.574 307.69H278.607C278.315 307.69 278.079 307.926 278.079 308.218V309.101C278.079 309.393 278.315 309.629 278.607 309.629H381.574C381.865 309.629 382.101 309.393 382.101 309.101V308.218C382.101 307.926 381.865 307.69 381.574 307.69Z" fill="#E0E0E0"/>
<path d="M381.574 315.433H278.607C278.315 315.433 278.079 315.669 278.079 315.961V316.845C278.079 317.136 278.315 317.372 278.607 317.372H381.574C381.865 317.372 382.101 317.136 382.101 316.845V315.961C382.101 315.669 381.865 315.433 381.574 315.433Z" fill="#E0E0E0"/>
<path d="M337.546 321.244H278.607C278.315 321.244 278.079 321.48 278.079 321.772V322.655C278.079 322.947 278.315 323.183 278.607 323.183H337.546C337.837 323.183 338.073 322.947 338.073 322.655V321.772C338.073 321.48 337.837 321.244 337.546 321.244Z" fill="#E0E0E0"/>
<path d="M381.574 328.967H278.607C278.315 328.967 278.079 329.204 278.079 329.495V330.379C278.079 330.67 278.315 330.906 278.607 330.906H381.574C381.865 330.906 382.101 330.67 382.101 330.379V329.495C382.101 329.204 381.865 328.967 381.574 328.967Z" fill="#E0E0E0"/>
<path d="M381.574 334.778H278.607C278.315 334.778 278.079 335.014 278.079 335.306V336.189C278.079 336.481 278.315 336.717 278.607 336.717H381.574C381.865 336.717 382.101 336.481 382.101 336.189V335.306C382.101 335.014 381.865 334.778 381.574 334.778Z" fill="#E0E0E0"/>
<path d="M381.574 342.521H278.607C278.315 342.521 278.079 342.757 278.079 343.049V343.933C278.079 344.224 278.315 344.46 278.607 344.46H381.574C381.865 344.46 382.101 344.224 382.101 343.933V343.049C382.101 342.757 381.865 342.521 381.574 342.521Z" fill="#E0E0E0"/>
<path d="M337.546 348.332H278.607C278.315 348.332 278.079 348.568 278.079 348.86V349.743C278.079 350.035 278.315 350.271 278.607 350.271H337.546C337.837 350.271 338.073 350.035 338.073 349.743V348.86C338.073 348.568 337.837 348.332 337.546 348.332Z" fill="#E0E0E0"/>
<g opacity="0.5">
<path opacity="0.5" d="M439.814 270.755H338.04V390.392H439.814V270.755Z" fill="url(#paint83_linear)"/>
</g>
<path d="M437.652 272.681H341.171V387.747H437.652V272.681Z" fill="white"/>
<g opacity="0.5">
<path opacity="0.5" d="M394.665 290.977V288.081H384.151V290.977H376.794V305.177H402.022V290.977H394.665ZM385.437 289.137H393.347V290.977H385.437V289.137Z" fill="url(#paint84_linear)"/>
</g>
<path d="M400.961 291.458H377.862V304.458H400.961V291.458Z" fill="#60B6E9"/>
<path d="M384.599 288.807V292.177H385.799V289.77H393.017V292.177H394.224V288.807H384.599Z" fill="#60B6E9"/>
<path d="M423.453 323.163H355.608V326.052H423.453V323.163Z" fill="#E0E0E0"/>
<path d="M423.453 342.178H355.608V345.067H423.453V342.178Z" fill="#E0E0E0"/>
<path d="M423.453 347.237H355.608V350.126H423.453V347.237Z" fill="#E0E0E0"/>
<path d="M384.237 337.126H355.608V340.015H384.237V337.126Z" fill="#E0E0E0"/>
<path opacity="0.6" d="M423.453 337.126H402.042V340.015H423.453V337.126Z" fill="#3AD29F"/>
<path d="M400.835 359.03H379.425V361.919H400.835V359.03Z" fill="#60B6E9"/>
<path d="M211.138 304.293V523.965L369.378 564.588L371.514 346.571L211.138 304.293Z" fill="#535461"/>
<path d="M527.626 523.141L369.378 564.588V346.571L527.626 304.293V523.141Z" fill="#535461"/>
<path opacity="0.07" d="M527.626 523.141L369.378 564.588V346.571L527.626 304.293V523.141Z" fill="black"/>
<path opacity="0.07" d="M464.659 450.194V522.31L527.626 504.904V432.781L464.659 450.194Z" fill="black"/>
<path d="M491.482 285.971H444.811V330.834H491.482V285.971Z" fill="url(#paint85_linear)"/>
<path d="M490.75 287.066H445.542V329.917H490.75V287.066Z" fill="#F5F5F5"/>
<g opacity="0.5">
<path opacity="0.5" d="M472.148 294.578V292.349H464.152V294.552H458.555V305.355H477.744V294.578H472.148ZM465.154 293.18H471.152V294.578H465.154V293.18Z" fill="url(#paint86_linear)"/>
</g>
<path opacity="0.6" d="M476.927 294.941H459.359V304.827H476.927V294.941Z" fill="#60B6E9"/>
<path opacity="0.6" d="M464.488 292.929V295.495H465.404V293.661H470.895V295.495H471.805V292.929H464.488Z" fill="#60B6E9"/>
<g opacity="0.6">
<path opacity="0.6" d="M476.657 312.525H460.368V314.721H476.657V312.525Z" fill="#60B6E9"/>
</g>
<path d="M482.055 316.554H454.237V318.751H482.055V316.554Z" fill="#BDBDBD"/>
<path d="M446.742 64.6366H400.071V109.5H446.742V64.6366Z" fill="url(#paint87_linear)"/>
<path d="M446.01 65.7375H400.802V108.589H446.01V65.7375Z" fill="#F5F5F5"/>
<g opacity="0.5">
<path opacity="0.5" d="M427.408 73.2438V71.0475H419.412V73.2438H413.815V84.0474H433.004V73.2438H427.408ZM420.414 71.8455H426.412V73.2438H420.414V71.8455Z" fill="url(#paint88_linear)"/>
</g>
<path opacity="0.6" d="M432.187 73.6066H414.619V83.4933H432.187V73.6066Z" fill="#60B6E9"/>
<path opacity="0.6" d="M419.748 71.5949V74.1606H420.664V72.327H426.155V74.1606H427.065V71.5949H419.748Z" fill="#60B6E9"/>
<g opacity="0.6">
<path opacity="0.6" d="M431.917 91.1904H415.628V93.3867H431.917V91.1904Z" fill="#60B6E9"/>
</g>
<path d="M437.316 95.2203H409.497V97.4166H437.316V95.2203Z" fill="#BDBDBD"/>
<g opacity="0.5">
<path opacity="0.5" d="M394.639 148.823H334.171V198.52H394.639V148.823Z" fill="url(#paint89_linear)"/>
</g>
<path d="M393.822 149.766H334.876V197.696H393.822V149.766Z" fill="#F2F2F2"/>
<path d="M393.822 149.766H334.876V160.457H393.822V149.766Z" fill="#60B6E9"/>
<path opacity="0.1" d="M393.822 149.766H334.876V160.457H393.822V149.766Z" fill="black"/>
<path d="M389.128 164.335H339.576V170.561H389.128V164.335Z" fill="#E0E0E0"/>
<path d="M375.74 175.258H339.576V177.375H375.74V175.258Z" fill="#E0E0E0"/>
<path d="M363.057 178.898H339.576V181.015H363.057V178.898Z" fill="#E0E0E0"/>
<path d="M370.572 182.539H339.576V184.656H370.572V182.539Z" fill="#E0E0E0"/>
<path d="M375.74 186.186H339.576V188.304H375.74V186.186Z" fill="#E0E0E0"/>
<path d="M351.672 189.827H339.576V191.944H351.672V189.827Z" fill="#E0E0E0"/>
<g opacity="0.5">
<path opacity="0.5" d="M498.021 186.14H423.07V247.736H498.021V186.14Z" fill="url(#paint90_linear)"/>
</g>
<path d="M497.006 187.301H423.947V246.714H497.006V187.301Z" fill="white"/>
<path d="M497.006 187.301H423.947V200.552H497.006V187.301Z" fill="#60B6E9"/>
<path d="M491.185 205.36H429.768V213.077H491.185V205.36Z" fill="#F5F5F5"/>
<path d="M474.593 218.9H429.768V221.519H474.593V218.9Z" fill="#E0E0E0"/>
<path d="M458.878 223.418H429.768V226.037H458.878V223.418Z" fill="#E0E0E0"/>
<path d="M468.186 227.93H429.768V230.548H468.186V227.93Z" fill="#E0E0E0"/>
<path d="M474.593 232.448H429.768V235.066H474.593V232.448Z" fill="#E0E0E0"/>
<path d="M444.758 236.959H429.768V239.578H444.758V236.959Z" fill="#E0E0E0"/>
<path d="M450.434 207.978H432.971V210.306H450.434V207.978Z" fill="#69F0AE"/>
<path opacity="0.1" d="M209.068 418.278L297.717 440.657L368.97 382.629V346.986L210.722 307.195L209.068 418.278Z" fill="black"/>
<path opacity="0.1" d="M528.872 418.278L440.223 440.657L368.97 382.629V346.986L527.217 307.195L528.872 418.278Z" fill="black"/>
<path d="M211.137 304.293L129.944 371.436L288.185 411.227L369.378 346.571L211.137 304.293Z" fill="#535461"/>
<path d="M527.626 304.293L609.65 371.436L452.233 411.227L369.378 346.571L527.626 304.293Z" fill="#535461"/>
<path opacity="0.07" d="M527.626 304.293L609.65 371.436L452.233 411.227L369.378 346.571L527.626 304.293Z" fill="black"/>
</g>
<defs>
<linearGradient id="paint0_linear" x1="-3.17818" y1="402.311" x2="691.245" y2="184.903" gradientUnits="userSpaceOnUse">
<stop stop-color="#FD8112"/>
<stop offset="1" stop-color="#0085CA"/>
</linearGradient>
<linearGradient id="paint1_linear" x1="367.724" y1="418.37" x2="527.336" y2="418.37" gradientUnits="userSpaceOnUse">
<stop stop-color="#808080" stop-opacity="0.25"/>
<stop offset="0.54" stop-color="#808080" stop-opacity="0.12"/>
<stop offset="1" stop-color="#808080" stop-opacity="0.1"/>
</linearGradient>
<linearGradient id="paint2_linear" x1="367.724" y1="418.37" x2="527.336" y2="418.37" gradientUnits="userSpaceOnUse">
<stop stop-color="#808080" stop-opacity="0.25"/>
<stop offset="0.54" stop-color="#808080" stop-opacity="0.12"/>
<stop offset="1" stop-color="#808080" stop-opacity="0.1"/>
</linearGradient>
<linearGradient id="paint3_linear" x1="20037.5" y1="161701" x2="58687.6" y2="161701" gradientUnits="userSpaceOnUse">
<stop stop-color="#808080" stop-opacity="0.25"/>
<stop offset="0.54" stop-color="#808080" stop-opacity="0.12"/>
<stop offset="1" stop-color="#808080" stop-opacity="0.1"/>
</linearGradient>
<linearGradient id="paint4_linear" x1="20037.5" y1="161701" x2="58687.6" y2="161701" gradientUnits="userSpaceOnUse">
<stop stop-color="#808080" stop-opacity="0.25"/>
<stop offset="0.54" stop-color="#808080" stop-opacity="0.12"/>
<stop offset="1" stop-color="#808080" stop-opacity="0.1"/>
</linearGradient>
<linearGradient id="paint5_linear" x1="89154.4" y1="30733.1" x2="178247" y2="30733.1" gradientUnits="userSpaceOnUse">
<stop stop-color="#808080" stop-opacity="0.25"/>
<stop offset="0.54" stop-color="#808080" stop-opacity="0.12"/>
<stop offset="1" stop-color="#808080" stop-opacity="0.1"/>
</linearGradient>
<linearGradient id="paint6_linear" x1="126.213" y1="30733.1" x2="88608.6" y2="30733.1" gradientUnits="userSpaceOnUse">
<stop stop-color="#808080" stop-opacity="0.25"/>
<stop offset="0.54" stop-color="#808080" stop-opacity="0.12"/>
<stop offset="1" stop-color="#808080" stop-opacity="0.1"/>
</linearGradient>
<linearGradient id="paint7_linear" x1="126.213" y1="30733.1" x2="88608.6" y2="30733.1" gradientUnits="userSpaceOnUse">
<stop stop-color="#808080" stop-opacity="0.25"/>
<stop offset="0.54" stop-color="#808080" stop-opacity="0.12"/>
<stop offset="1" stop-color="#808080" stop-opacity="0.1"/>
</linearGradient>
<linearGradient id="paint8_linear" x1="33023.3" y1="46297.7" x2="33023.3" y2="28163.4" gradientUnits="userSpaceOnUse">
<stop stop-color="#808080" stop-opacity="0.25"/>
<stop offset="0.54" stop-color="#808080" stop-opacity="0.12"/>
<stop offset="1" stop-color="#808080" stop-opacity="0.1"/>
</linearGradient>
<linearGradient id="paint9_linear" x1="22122.6" y1="36257.1" x2="42444.6" y2="36257.1" gradientUnits="userSpaceOnUse">
<stop stop-color="#808080" stop-opacity="0.25"/>
<stop offset="0.54" stop-color="#808080" stop-opacity="0.12"/>
<stop offset="1" stop-color="#808080" stop-opacity="0.1"/>
</linearGradient>
<linearGradient id="paint10_linear" x1="4212.28" y1="5465.42" x2="4790.23" y2="5465.42" gradientUnits="userSpaceOnUse">
<stop stop-color="#808080" stop-opacity="0.25"/>
<stop offset="0.54" stop-color="#808080" stop-opacity="0.12"/>
<stop offset="1" stop-color="#808080" stop-opacity="0.1"/>
</linearGradient>
<linearGradient id="paint11_linear" x1="18984.6" y1="807.487" x2="28118.2" y2="807.487" gradientUnits="userSpaceOnUse">
<stop stop-color="#808080" stop-opacity="0.25"/>
<stop offset="0.54" stop-color="#808080" stop-opacity="0.12"/>
<stop offset="1" stop-color="#808080" stop-opacity="0.1"/>
</linearGradient>
<linearGradient id="paint12_linear" x1="18984.6" y1="830.676" x2="28118.2" y2="830.676" gradientUnits="userSpaceOnUse">
<stop stop-color="#808080" stop-opacity="0.25"/>
<stop offset="0.54" stop-color="#808080" stop-opacity="0.12"/>
<stop offset="1" stop-color="#808080" stop-opacity="0.1"/>
</linearGradient>
<linearGradient id="paint13_linear" x1="21193.1" y1="914.907" x2="37891.9" y2="914.907" gradientUnits="userSpaceOnUse">
<stop stop-color="#808080" stop-opacity="0.25"/>
<stop offset="0.54" stop-color="#808080" stop-opacity="0.12"/>
<stop offset="1" stop-color="#808080" stop-opacity="0.1"/>
</linearGradient>
<linearGradient id="paint14_linear" x1="21193.1" y1="938.1" x2="37891.9" y2="938.1" gradientUnits="userSpaceOnUse">
<stop stop-color="#808080" stop-opacity="0.25"/>
<stop offset="0.54" stop-color="#808080" stop-opacity="0.12"/>
<stop offset="1" stop-color="#808080" stop-opacity="0.1"/>
</linearGradient>
<linearGradient id="paint15_linear" x1="21193.1" y1="969.035" x2="37891.9" y2="969.035" gradientUnits="userSpaceOnUse">
<stop stop-color="#808080" stop-opacity="0.25"/>
<stop offset="0.54" stop-color="#808080" stop-opacity="0.12"/>
<stop offset="1" stop-color="#808080" stop-opacity="0.1"/>
</linearGradient>
<linearGradient id="paint16_linear" x1="12331.5" y1="992.26" x2="17885.5" y2="992.26" gradientUnits="userSpaceOnUse">
<stop stop-color="#808080" stop-opacity="0.25"/>
<stop offset="0.54" stop-color="#808080" stop-opacity="0.12"/>
<stop offset="1" stop-color="#808080" stop-opacity="0.1"/>
</linearGradient>
<linearGradient id="paint17_linear" x1="21193.1" y1="1023.1" x2="37891.9" y2="1023.1" gradientUnits="userSpaceOnUse">
<stop stop-color="#808080" stop-opacity="0.25"/>
<stop offset="0.54" stop-color="#808080" stop-opacity="0.12"/>
<stop offset="1" stop-color="#808080" stop-opacity="0.1"/>
</linearGradient>
<linearGradient id="paint18_linear" x1="21193.1" y1="1046.31" x2="37891.9" y2="1046.31" gradientUnits="userSpaceOnUse">
<stop stop-color="#808080" stop-opacity="0.25"/>
<stop offset="0.54" stop-color="#808080" stop-opacity="0.12"/>
<stop offset="1" stop-color="#808080" stop-opacity="0.1"/>
</linearGradient>
<linearGradient id="paint19_linear" x1="21193.1" y1="1077.23" x2="37891.9" y2="1077.23" gradientUnits="userSpaceOnUse">
<stop stop-color="#808080" stop-opacity="0.25"/>
<stop offset="0.54" stop-color="#808080" stop-opacity="0.12"/>
<stop offset="1" stop-color="#808080" stop-opacity="0.1"/>
</linearGradient>
<linearGradient id="paint20_linear" x1="12331.5" y1="1100.43" x2="17885.5" y2="1100.43" gradientUnits="userSpaceOnUse">
<stop stop-color="#808080" stop-opacity="0.25"/>
<stop offset="0.54" stop-color="#808080" stop-opacity="0.12"/>
<stop offset="1" stop-color="#808080" stop-opacity="0.1"/>
</linearGradient>
<linearGradient id="paint21_linear" x1="36254.1" y1="50513.9" x2="36254.1" y2="32378.6" gradientUnits="userSpaceOnUse">
<stop stop-color="#808080" stop-opacity="0.25"/>
<stop offset="0.54" stop-color="#808080" stop-opacity="0.12"/>
<stop offset="1" stop-color="#808080" stop-opacity="0.1"/>
</linearGradient>
<linearGradient id="paint22_linear" x1="25279.4" y1="40371.7" x2="45601.5" y2="40371.7" gradientUnits="userSpaceOnUse">
<stop stop-color="#808080" stop-opacity="0.25"/>
<stop offset="0.54" stop-color="#808080" stop-opacity="0.12"/>
<stop offset="1" stop-color="#808080" stop-opacity="0.1"/>
</linearGradient>
<linearGradient id="paint23_linear" x1="4759.51" y1="6164.25" x2="5337.46" y2="6164.25" gradientUnits="userSpaceOnUse">
<stop stop-color="#808080" stop-opacity="0.25"/>
<stop offset="0.54" stop-color="#808080" stop-opacity="0.12"/>
<stop offset="1" stop-color="#808080" stop-opacity="0.1"/>
</linearGradient>
<linearGradient id="paint24_linear" x1="21107.6" y1="907.573" x2="30241.2" y2="907.573" gradientUnits="userSpaceOnUse">
<stop stop-color="#808080" stop-opacity="0.25"/>
<stop offset="0.54" stop-color="#808080" stop-opacity="0.12"/>
<stop offset="1" stop-color="#808080" stop-opacity="0.1"/>
</linearGradient>
<linearGradient id="paint25_linear" x1="21107.6" y1="930.761" x2="30241.2" y2="930.761" gradientUnits="userSpaceOnUse">
<stop stop-color="#808080" stop-opacity="0.25"/>
<stop offset="0.54" stop-color="#808080" stop-opacity="0.12"/>
<stop offset="1" stop-color="#808080" stop-opacity="0.1"/>
</linearGradient>
<linearGradient id="paint26_linear" x1="24056.4" y1="1014.97" x2="40756.2" y2="1014.97" gradientUnits="userSpaceOnUse">
<stop stop-color="#808080" stop-opacity="0.25"/>
<stop offset="0.54" stop-color="#808080" stop-opacity="0.12"/>
<stop offset="1" stop-color="#808080" stop-opacity="0.1"/>
</linearGradient>
<linearGradient id="paint27_linear" x1="24056.4" y1="1038.19" x2="40756.2" y2="1038.19" gradientUnits="userSpaceOnUse">
<stop stop-color="#808080" stop-opacity="0.25"/>
<stop offset="0.54" stop-color="#808080" stop-opacity="0.12"/>
<stop offset="1" stop-color="#808080" stop-opacity="0.1"/>
</linearGradient>
<linearGradient id="paint28_linear" x1="24056.4" y1="1069.12" x2="40756.2" y2="1069.12" gradientUnits="userSpaceOnUse">
<stop stop-color="#808080" stop-opacity="0.25"/>
<stop offset="0.54" stop-color="#808080" stop-opacity="0.12"/>
<stop offset="1" stop-color="#808080" stop-opacity="0.1"/>
</linearGradient>
<linearGradient id="paint29_linear" x1="13990.4" y1="1092.33" x2="19544.4" y2="1092.33" gradientUnits="userSpaceOnUse">
<stop stop-color="#808080" stop-opacity="0.25"/>
<stop offset="0.54" stop-color="#808080" stop-opacity="0.12"/>
<stop offset="1" stop-color="#808080" stop-opacity="0.1"/>
</linearGradient>
<linearGradient id="paint30_linear" x1="24056.4" y1="1123.19" x2="40756.2" y2="1123.19" gradientUnits="userSpaceOnUse">
<stop stop-color="#808080" stop-opacity="0.25"/>
<stop offset="0.54" stop-color="#808080" stop-opacity="0.12"/>
<stop offset="1" stop-color="#808080" stop-opacity="0.1"/>
</linearGradient>
<linearGradient id="paint31_linear" x1="24056.4" y1="1146.37" x2="40756.2" y2="1146.37" gradientUnits="userSpaceOnUse">
<stop stop-color="#808080" stop-opacity="0.25"/>
<stop offset="0.54" stop-color="#808080" stop-opacity="0.12"/>
<stop offset="1" stop-color="#808080" stop-opacity="0.1"/>
</linearGradient>
<linearGradient id="paint32_linear" x1="24056.4" y1="1177.32" x2="40756.2" y2="1177.32" gradientUnits="userSpaceOnUse">
<stop stop-color="#808080" stop-opacity="0.25"/>
<stop offset="0.54" stop-color="#808080" stop-opacity="0.12"/>
<stop offset="1" stop-color="#808080" stop-opacity="0.1"/>
</linearGradient>
<linearGradient id="paint33_linear" x1="13990.4" y1="1200.52" x2="19544.4" y2="1200.52" gradientUnits="userSpaceOnUse">
<stop stop-color="#808080" stop-opacity="0.25"/>
<stop offset="0.54" stop-color="#808080" stop-opacity="0.12"/>
<stop offset="1" stop-color="#808080" stop-opacity="0.1"/>
</linearGradient>
<linearGradient id="paint34_linear" x1="41013.5" y1="60380.7" x2="41013.5" y2="38302.4" gradientUnits="userSpaceOnUse">
<stop stop-color="#808080" stop-opacity="0.25"/>
<stop offset="0.54" stop-color="#808080" stop-opacity="0.12"/>
<stop offset="1" stop-color="#808080" stop-opacity="0.1"/>
</linearGradient>
<linearGradient id="paint35_linear" x1="31790.2" y1="47405" x2="46155.3" y2="47405" gradientUnits="userSpaceOnUse">
<stop stop-color="#808080" stop-opacity="0.25"/>
<stop offset="0.54" stop-color="#808080" stop-opacity="0.12"/>
<stop offset="1" stop-color="#808080" stop-opacity="0.1"/>
</linearGradient>
<linearGradient id="paint36_linear" x1="16405.9" y1="7796.17" x2="16405.9" y2="7345.84" gradientUnits="userSpaceOnUse">
<stop stop-color="#808080" stop-opacity="0.25"/>
<stop offset="0.54" stop-color="#808080" stop-opacity="0.12"/>
<stop offset="1" stop-color="#808080" stop-opacity="0.1"/>
</linearGradient>
<linearGradient id="paint37_linear" x1="9213.42" y1="4971.08" x2="10036.7" y2="4971.08" gradientUnits="userSpaceOnUse">
<stop stop-color="#808080" stop-opacity="0.25"/>
<stop offset="0.54" stop-color="#808080" stop-opacity="0.12"/>
<stop offset="1" stop-color="#808080" stop-opacity="0.1"/>
</linearGradient>
<linearGradient id="paint38_linear" x1="4164.01" y1="1466.01" x2="4306.85" y2="1466.01" gradientUnits="userSpaceOnUse">
<stop stop-color="#808080" stop-opacity="0.25"/>
<stop offset="0.54" stop-color="#808080" stop-opacity="0.12"/>
<stop offset="1" stop-color="#808080" stop-opacity="0.1"/>
</linearGradient>
<linearGradient id="paint39_linear" x1="23982.6" y1="1484.19" x2="31086.4" y2="1484.19" gradientUnits="userSpaceOnUse">
<stop stop-color="#808080" stop-opacity="0.25"/>
<stop offset="0.54" stop-color="#808080" stop-opacity="0.12"/>
<stop offset="1" stop-color="#808080" stop-opacity="0.1"/>
</linearGradient>
<linearGradient id="paint40_linear" x1="23982.6" y1="1588.13" x2="31086.4" y2="1588.13" gradientUnits="userSpaceOnUse">
<stop stop-color="#808080" stop-opacity="0.25"/>
<stop offset="0.54" stop-color="#808080" stop-opacity="0.12"/>
<stop offset="1" stop-color="#808080" stop-opacity="0.1"/>
</linearGradient>
<linearGradient id="paint41_linear" x1="23982.6" y1="1615.79" x2="31086.4" y2="1615.79" gradientUnits="userSpaceOnUse">
<stop stop-color="#808080" stop-opacity="0.25"/>
<stop offset="0.54" stop-color="#808080" stop-opacity="0.12"/>
<stop offset="1" stop-color="#808080" stop-opacity="0.1"/>
</linearGradient>
<linearGradient id="paint42_linear" x1="10325.7" y1="1560.52" x2="11590.9" y2="1560.52" gradientUnits="userSpaceOnUse">
<stop stop-color="#808080" stop-opacity="0.25"/>
<stop offset="0.54" stop-color="#808080" stop-opacity="0.12"/>
<stop offset="1" stop-color="#808080" stop-opacity="0.1"/>
</linearGradient>
<linearGradient id="paint43_linear" x1="9391.7" y1="1560.52" x2="10099.2" y2="1560.52" gradientUnits="userSpaceOnUse">
<stop stop-color="#808080" stop-opacity="0.25"/>
<stop offset="0.54" stop-color="#808080" stop-opacity="0.12"/>
<stop offset="1" stop-color="#808080" stop-opacity="0.1"/>
</linearGradient>
<linearGradient id="paint44_linear" x1="8621.44" y1="1680.28" x2="9329.12" y2="1680.28" gradientUnits="userSpaceOnUse">
<stop stop-color="#808080" stop-opacity="0.25"/>
<stop offset="0.54" stop-color="#808080" stop-opacity="0.12"/>
<stop offset="1" stop-color="#808080" stop-opacity="0.1"/>
</linearGradient>
<linearGradient id="paint45_linear" x1="20037.5" y1="148767" x2="58687.6" y2="148767" gradientUnits="userSpaceOnUse">
<stop stop-color="#808080" stop-opacity="0.25"/>
<stop offset="0.54" stop-color="#808080" stop-opacity="0.12"/>
<stop offset="1" stop-color="#808080" stop-opacity="0.1"/>
</linearGradient>
<linearGradient id="paint46_linear" x1="58844.8" y1="148767" x2="97491.7" y2="148767" gradientUnits="userSpaceOnUse">
<stop stop-color="#808080" stop-opacity="0.25"/>
<stop offset="0.54" stop-color="#808080" stop-opacity="0.12"/>
<stop offset="1" stop-color="#808080" stop-opacity="0.1"/>
</linearGradient>
<linearGradient id="paint47_linear" x1="58844.8" y1="148767" x2="97491.7" y2="148767" gradientUnits="userSpaceOnUse">
<stop stop-color="#808080" stop-opacity="0.25"/>
<stop offset="0.54" stop-color="#808080" stop-opacity="0.12"/>
<stop offset="1" stop-color="#808080" stop-opacity="0.1"/>
</linearGradient>
<linearGradient id="paint48_linear" x1="32992.5" y1="57450.4" x2="39112" y2="57450.4" gradientUnits="userSpaceOnUse">
<stop stop-color="#808080" stop-opacity="0.25"/>
<stop offset="0.54" stop-color="#808080" stop-opacity="0.12"/>
<stop offset="1" stop-color="#808080" stop-opacity="0.1"/>
</linearGradient>
<linearGradient id="paint49_linear" x1="24803.8" y1="18706.8" x2="24803.8" y2="15602.1" gradientUnits="userSpaceOnUse">
<stop stop-color="#808080" stop-opacity="0.25"/>
<stop offset="0.54" stop-color="#808080" stop-opacity="0.12"/>
<stop offset="1" stop-color="#808080" stop-opacity="0.1"/>
</linearGradient>
<linearGradient id="paint50_linear" x1="22463.3" y1="16404.7" x2="25617.2" y2="16404.7" gradientUnits="userSpaceOnUse">
<stop stop-color="#808080" stop-opacity="0.25"/>
<stop offset="0.54" stop-color="#808080" stop-opacity="0.12"/>
<stop offset="1" stop-color="#808080" stop-opacity="0.1"/>
</linearGradient>
<linearGradient id="paint51_linear" x1="14987.7" y1="6009.32" x2="14987.7" y2="5748.52" gradientUnits="userSpaceOnUse">
<stop stop-color="#808080" stop-opacity="0.25"/>
<stop offset="0.54" stop-color="#808080" stop-opacity="0.12"/>
<stop offset="1" stop-color="#808080" stop-opacity="0.1"/>
</linearGradient>
<linearGradient id="paint52_linear" x1="9389.7" y1="3884.11" x2="9866.17" y2="3884.11" gradientUnits="userSpaceOnUse">
<stop stop-color="#808080" stop-opacity="0.25"/>
<stop offset="0.54" stop-color="#808080" stop-opacity="0.12"/>
<stop offset="1" stop-color="#808080" stop-opacity="0.1"/>
</linearGradient>
<linearGradient id="paint53_linear" x1="4246.32" y1="1204.75" x2="4329.08" y2="1204.75" gradientUnits="userSpaceOnUse">
<stop stop-color="#808080" stop-opacity="0.25"/>
<stop offset="0.54" stop-color="#808080" stop-opacity="0.12"/>
<stop offset="1" stop-color="#808080" stop-opacity="0.1"/>
</linearGradient>
<linearGradient id="paint54_linear" x1="8764.78" y1="1158.32" x2="9174.31" y2="1158.32" gradientUnits="userSpaceOnUse">
<stop stop-color="#808080" stop-opacity="0.25"/>
<stop offset="0.54" stop-color="#808080" stop-opacity="0.12"/>
<stop offset="1" stop-color="#808080" stop-opacity="0.1"/>
</linearGradient>
<linearGradient id="paint55_linear" x1="14377.7" y1="1176.03" x2="15572.3" y2="1176.03" gradientUnits="userSpaceOnUse">
<stop stop-color="#808080" stop-opacity="0.25"/>
<stop offset="0.54" stop-color="#808080" stop-opacity="0.12"/>
<stop offset="1" stop-color="#808080" stop-opacity="0.1"/>
</linearGradient>
<linearGradient id="paint56_linear" x1="22212.7" y1="10409.9" x2="22212.7" y2="6600.27" gradientUnits="userSpaceOnUse">
<stop stop-color="#808080" stop-opacity="0.25"/>
<stop offset="0.54" stop-color="#808080" stop-opacity="0.12"/>
<stop offset="1" stop-color="#808080" stop-opacity="0.1"/>
</linearGradient>
<linearGradient id="paint57_linear" x1="18975.7" y1="8213.53" x2="24337.8" y2="8213.53" gradientUnits="userSpaceOnUse">
<stop stop-color="#808080" stop-opacity="0.25"/>
<stop offset="0.54" stop-color="#808080" stop-opacity="0.12"/>
<stop offset="1" stop-color="#808080" stop-opacity="0.1"/>
</linearGradient>
<linearGradient id="paint58_linear" x1="18975.7" y1="1641.86" x2="24337.8" y2="1641.86" gradientUnits="userSpaceOnUse">
<stop stop-color="#808080" stop-opacity="0.25"/>
<stop offset="0.54" stop-color="#808080" stop-opacity="0.12"/>
<stop offset="1" stop-color="#808080" stop-opacity="0.1"/>
</linearGradient>
<linearGradient id="paint59_linear" x1="18975.7" y1="1641.86" x2="24337.8" y2="1641.86" gradientUnits="userSpaceOnUse">
<stop stop-color="#808080" stop-opacity="0.25"/>
<stop offset="0.54" stop-color="#808080" stop-opacity="0.12"/>
<stop offset="1" stop-color="#808080" stop-opacity="0.1"/>
</linearGradient>
<linearGradient id="paint60_linear" x1="16369.4" y1="1152.03" x2="20158.4" y2="1152.03" gradientUnits="userSpaceOnUse">
<stop stop-color="#808080" stop-opacity="0.25"/>
<stop offset="0.54" stop-color="#808080" stop-opacity="0.12"/>
<stop offset="1" stop-color="#808080" stop-opacity="0.1"/>
</linearGradient>
<linearGradient id="paint61_linear" x1="12039" y1="539.9" x2="14057.5" y2="539.9" gradientUnits="userSpaceOnUse">
<stop stop-color="#808080" stop-opacity="0.25"/>
<stop offset="0.54" stop-color="#808080" stop-opacity="0.12"/>
<stop offset="1" stop-color="#808080" stop-opacity="0.1"/>
</linearGradient>
<linearGradient id="paint62_linear" x1="7934.88" y1="555.44" x2="8785.88" y2="555.44" gradientUnits="userSpaceOnUse">
<stop stop-color="#808080" stop-opacity="0.25"/>
<stop offset="0.54" stop-color="#808080" stop-opacity="0.12"/>
<stop offset="1" stop-color="#808080" stop-opacity="0.1"/>
</linearGradient>
<linearGradient id="paint63_linear" x1="10366.5" y1="570.979" x2="11849.4" y2="570.979" gradientUnits="userSpaceOnUse">
<stop stop-color="#808080" stop-opacity="0.25"/>
<stop offset="0.54" stop-color="#808080" stop-opacity="0.12"/>
<stop offset="1" stop-color="#808080" stop-opacity="0.1"/>
</linearGradient>
<linearGradient id="paint64_linear" x1="12039" y1="586.512" x2="14057.5" y2="586.512" gradientUnits="userSpaceOnUse">
<stop stop-color="#808080" stop-opacity="0.25"/>
<stop offset="0.54" stop-color="#808080" stop-opacity="0.12"/>
<stop offset="1" stop-color="#808080" stop-opacity="0.1"/>
</linearGradient>
<linearGradient id="paint65_linear" x1="4249.39" y1="602.054" x2="4475" y2="602.054" gradientUnits="userSpaceOnUse">
<stop stop-color="#808080" stop-opacity="0.25"/>
<stop offset="0.54" stop-color="#808080" stop-opacity="0.12"/>
<stop offset="1" stop-color="#808080" stop-opacity="0.1"/>
</linearGradient>
<linearGradient id="paint66_linear" x1="38663.4" y1="17578.7" x2="38663.4" y2="11727.3" gradientUnits="userSpaceOnUse">
<stop stop-color="#808080" stop-opacity="0.25"/>
<stop offset="0.54" stop-color="#808080" stop-opacity="0.12"/>
<stop offset="1" stop-color="#808080" stop-opacity="0.1"/>
</linearGradient>
<linearGradient id="paint67_linear" x1="33573.8" y1="14147.5" x2="41811.1" y2="14147.5" gradientUnits="userSpaceOnUse">
<stop stop-color="#808080" stop-opacity="0.25"/>
<stop offset="0.54" stop-color="#808080" stop-opacity="0.12"/>
<stop offset="1" stop-color="#808080" stop-opacity="0.1"/>
</linearGradient>
<linearGradient id="paint68_linear" x1="33573.8" y1="2829.72" x2="41811.1" y2="2829.72" gradientUnits="userSpaceOnUse">
<stop stop-color="#808080" stop-opacity="0.25"/>
<stop offset="0.54" stop-color="#808080" stop-opacity="0.12"/>
<stop offset="1" stop-color="#808080" stop-opacity="0.1"/>
</linearGradient>
<linearGradient id="paint69_linear" x1="28846.5" y1="1926.93" x2="34667.5" y2="1926.93" gradientUnits="userSpaceOnUse">
<stop stop-color="#808080" stop-opacity="0.25"/>
<stop offset="0.54" stop-color="#808080" stop-opacity="0.12"/>
<stop offset="1" stop-color="#808080" stop-opacity="0.1"/>
</linearGradient>
<linearGradient id="paint70_linear" x1="21171.2" y1="849.3" x2="24272.5" y2="849.3" gradientUnits="userSpaceOnUse">
<stop stop-color="#808080" stop-opacity="0.25"/>
<stop offset="0.54" stop-color="#808080" stop-opacity="0.12"/>
<stop offset="1" stop-color="#808080" stop-opacity="0.1"/>
</linearGradient>
<linearGradient id="paint71_linear" x1="13898.2" y1="872.124" x2="15205.9" y2="872.124" gradientUnits="userSpaceOnUse">
<stop stop-color="#808080" stop-opacity="0.25"/>
<stop offset="0.54" stop-color="#808080" stop-opacity="0.12"/>
<stop offset="1" stop-color="#808080" stop-opacity="0.1"/>
</linearGradient>
<linearGradient id="paint72_linear" x1="18207.6" y1="894.927" x2="20485.9" y2="894.927" gradientUnits="userSpaceOnUse">
<stop stop-color="#808080" stop-opacity="0.25"/>
<stop offset="0.54" stop-color="#808080" stop-opacity="0.12"/>
<stop offset="1" stop-color="#808080" stop-opacity="0.1"/>
</linearGradient>
<linearGradient id="paint73_linear" x1="21171.2" y1="917.731" x2="24272.5" y2="917.731" gradientUnits="userSpaceOnUse">
<stop stop-color="#808080" stop-opacity="0.25"/>
<stop offset="0.54" stop-color="#808080" stop-opacity="0.12"/>
<stop offset="1" stop-color="#808080" stop-opacity="0.1"/>
</linearGradient>
<linearGradient id="paint74_linear" x1="7366.01" y1="940.557" x2="7712.91" y2="940.557" gradientUnits="userSpaceOnUse">
<stop stop-color="#808080" stop-opacity="0.25"/>
<stop offset="0.54" stop-color="#808080" stop-opacity="0.12"/>
<stop offset="1" stop-color="#808080" stop-opacity="0.1"/>
</linearGradient>
<linearGradient id="paint75_linear" x1="8598.69" y1="727.957" x2="9069.33" y2="727.957" gradientUnits="userSpaceOnUse">
<stop stop-color="#808080" stop-opacity="0.25"/>
<stop offset="0.54" stop-color="#808080" stop-opacity="0.12"/>
<stop offset="1" stop-color="#808080" stop-opacity="0.1"/>
</linearGradient>
<linearGradient id="paint76_linear" x1="19732.2" y1="63973" x2="59190.9" y2="63973" gradientUnits="userSpaceOnUse">
<stop stop-color="#808080" stop-opacity="0.25"/>
<stop offset="0.54" stop-color="#808080" stop-opacity="0.12"/>
<stop offset="1" stop-color="#808080" stop-opacity="0.1"/>
</linearGradient>
<linearGradient id="paint77_linear" x1="59354.6" y1="63973" x2="98816.5" y2="63973" gradientUnits="userSpaceOnUse">
<stop stop-color="#808080" stop-opacity="0.25"/>
<stop offset="0.54" stop-color="#808080" stop-opacity="0.12"/>
<stop offset="1" stop-color="#808080" stop-opacity="0.1"/>
</linearGradient>
<linearGradient id="paint78_linear" x1="126.213" y1="48652" x2="88608.6" y2="48652" gradientUnits="userSpaceOnUse">
<stop stop-color="#808080" stop-opacity="0.25"/>
<stop offset="0.54" stop-color="#808080" stop-opacity="0.12"/>
<stop offset="1" stop-color="#808080" stop-opacity="0.1"/>
</linearGradient>
<linearGradient id="paint79_linear" x1="89154.4" y1="48652" x2="178247" y2="48652" gradientUnits="userSpaceOnUse">
<stop stop-color="#808080" stop-opacity="0.25"/>
<stop offset="0.54" stop-color="#808080" stop-opacity="0.12"/>
<stop offset="1" stop-color="#808080" stop-opacity="0.1"/>
</linearGradient>
<linearGradient id="paint80_linear" x1="89154.4" y1="48652" x2="178247" y2="48652" gradientUnits="userSpaceOnUse">
<stop stop-color="#808080" stop-opacity="0.25"/>
<stop offset="0.54" stop-color="#808080" stop-opacity="0.12"/>
<stop offset="1" stop-color="#808080" stop-opacity="0.1"/>
</linearGradient>
<linearGradient id="paint81_linear" x1="33130.4" y1="45516.9" x2="33130.4" y2="27690.8" gradientUnits="userSpaceOnUse">
<stop stop-color="#808080" stop-opacity="0.25"/>
<stop offset="0.54" stop-color="#808080" stop-opacity="0.12"/>
<stop offset="1" stop-color="#808080" stop-opacity="0.1"/>
</linearGradient>
<linearGradient id="paint82_linear" x1="36307.7" y1="49661.2" x2="36307.7" y2="31835.1" gradientUnits="userSpaceOnUse">
<stop stop-color="#808080" stop-opacity="0.25"/>
<stop offset="0.54" stop-color="#808080" stop-opacity="0.12"/>
<stop offset="1" stop-color="#808080" stop-opacity="0.1"/>
</linearGradient>
<linearGradient id="paint83_linear" x1="40899" y1="59359.5" x2="40899" y2="37658.5" gradientUnits="userSpaceOnUse">
<stop stop-color="#808080" stop-opacity="0.25"/>
<stop offset="0.54" stop-color="#808080" stop-opacity="0.12"/>
<stop offset="1" stop-color="#808080" stop-opacity="0.1"/>
</linearGradient>
<linearGradient id="paint84_linear" x1="16327.4" y1="7681.14" x2="16327.4" y2="7238.02" gradientUnits="userSpaceOnUse">
<stop stop-color="#808080" stop-opacity="0.25"/>
<stop offset="0.54" stop-color="#808080" stop-opacity="0.12"/>
<stop offset="1" stop-color="#808080" stop-opacity="0.1"/>
</linearGradient>
<linearGradient id="paint85_linear" x1="24653.7" y1="18392.7" x2="24653.7" y2="15341.1" gradientUnits="userSpaceOnUse">
<stop stop-color="#808080" stop-opacity="0.25"/>
<stop offset="0.54" stop-color="#808080" stop-opacity="0.12"/>
<stop offset="1" stop-color="#808080" stop-opacity="0.1"/>
</linearGradient>
<linearGradient id="paint86_linear" x1="14883.4" y1="5921.04" x2="14883.4" y2="5664.68" gradientUnits="userSpaceOnUse">
<stop stop-color="#808080" stop-opacity="0.25"/>
<stop offset="0.54" stop-color="#808080" stop-opacity="0.12"/>
<stop offset="1" stop-color="#808080" stop-opacity="0.1"/>
</linearGradient>
<linearGradient id="paint87_linear" x1="21441.4" y1="3116.22" x2="21441.4" y2="64.6366" gradientUnits="userSpaceOnUse">
<stop stop-color="#808080" stop-opacity="0.25"/>
<stop offset="0.54" stop-color="#808080" stop-opacity="0.12"/>
<stop offset="1" stop-color="#808080" stop-opacity="0.1"/>
</linearGradient>
<linearGradient id="paint88_linear" x1="13536.2" y1="1334.37" x2="13536.2" y2="1078.15" gradientUnits="userSpaceOnUse">
<stop stop-color="#808080" stop-opacity="0.25"/>
<stop offset="0.54" stop-color="#808080" stop-opacity="0.12"/>
<stop offset="1" stop-color="#808080" stop-opacity="0.1"/>
</linearGradient>
<linearGradient id="paint89_linear" x1="22183.8" y1="10236.9" x2="22183.8" y2="6492.23" gradientUnits="userSpaceOnUse">
<stop stop-color="#808080" stop-opacity="0.25"/>
<stop offset="0.54" stop-color="#808080" stop-opacity="0.12"/>
<stop offset="1" stop-color="#808080" stop-opacity="0.1"/>
</linearGradient>
<linearGradient id="paint90_linear" x1="38436.7" y1="17285.8" x2="38436.7" y2="11533.4" gradientUnits="userSpaceOnUse">
<stop stop-color="#808080" stop-opacity="0.25"/>
<stop offset="0.54" stop-color="#808080" stop-opacity="0.12"/>
<stop offset="1" stop-color="#808080" stop-opacity="0.1"/>
</linearGradient>
<clipPath id="clip0">
<rect x="126.213" y="64.6366" width="483.853" height="504.231" fill="white"/>
</clipPath>
</defs>
</svg>
