<svg width="650" height="530" viewBox="0 0 650 530" fill="none" xmlns="http://www.w3.org/2000/svg">
<path opacity="0.1" d="M256.792 529.177C220.1 529.177 190.354 524.192 190.354 518.044C190.354 511.895 220.1 506.911 256.792 506.911C293.485 506.911 323.23 511.895 323.23 518.044C323.23 524.192 293.485 529.177 256.792 529.177Z" fill="#60B6E9"/>
<path opacity="0.1" d="M259.582 65.4363C286.78 88.5099 322.068 87.0189 352.957 75.0161C383.846 63.0133 412.3 41.6357 442.419 26.4459C467.072 13.9014 493.628 5.51544 521.015 1.6265C559.402 -3.69771 602.282 2.78826 629.033 40.0888C658.823 81.6263 656.53 156.544 624.312 194.696C607.923 214.092 586.465 223.609 567.746 238.756C549.027 253.902 531.713 279.045 533.303 308.275C534.776 335.337 551.941 356.112 569.684 369.159C583.408 379.223 600.306 390.219 601.99 411.075C603.593 431.254 589.384 447.065 575.81 456.061C531.551 485.397 477.029 485.111 432.92 455.321C417.183 444.692 402.726 430.558 386.226 422.27C342.911 400.526 295.174 422.413 249.312 430.421C210.489 437.199 170.679 433.689 132.857 420.152C110.143 412.026 87.3431 399.6 71.3829 376.452C59.8771 359.759 52.7077 338.63 45.9794 317.768C38.7977 295.518 31.8976 273.114 25.2791 250.554C21.3092 237.01 17.3952 223.218 16.3701 208.718C14.5063 182.457 22.3467 156.532 33.0137 134.34C58.3177 81.6823 100.98 44.6861 147.158 35.2865C193.336 25.8868 242.267 44.245 278.101 84.4096" fill="#60B6E9"/>
<g opacity="0.35">
<path opacity="0.2" d="M338.755 126.761V122.629H403.863C406.858 122.629 405.031 126.786 405.031 126.786H440.406V219.447H285.09V126.761H338.755Z" fill="#60B6E9"/>
</g>
<path d="M132.235 195.876C132.235 195.876 112.659 161.198 83.1558 151.208C70.7631 147.095 60.0395 139.073 52.5959 128.345C49.1005 123.228 46.083 117.8 43.5814 112.13" stroke="#535461" stroke-width="2" stroke-miterlimit="10"/>
<path d="M25.0678 105.719C28.4226 108.98 44.066 112.354 44.066 112.354C44.066 112.354 40.2328 96.8223 36.8718 93.5545C35.2587 91.9892 33.0899 91.1288 30.8424 91.1626C28.5949 91.1964 26.453 92.1216 24.8877 93.7347C23.3224 95.3477 22.462 97.5166 22.4958 99.764C22.5296 102.012 23.4547 104.153 25.0678 105.719Z" fill="#60B6E9"/>
<path d="M33.9145 133.812C38.5056 134.726 53.4718 129.054 53.4718 129.054C53.4718 129.054 41.8046 118.101 37.2134 117.187C36.1218 116.971 34.9983 116.971 33.9068 117.189C32.8154 117.407 31.7775 117.837 30.8525 118.456C29.9274 119.075 29.1333 119.869 28.5155 120.795C27.8976 121.721 27.4681 122.759 27.2515 123.85C27.0349 124.942 27.0354 126.066 27.253 127.157C27.4706 128.249 27.9011 129.286 28.5198 130.211C29.1385 131.136 29.9334 131.931 30.859 132.548C31.7846 133.166 32.8229 133.596 33.9145 133.812Z" fill="#60B6E9"/>
<path d="M66.1395 164.254C70.5629 162.725 80.6149 150.275 80.6149 150.275C80.6149 150.275 65.015 146.703 60.5916 148.237C59.54 148.602 58.5704 149.17 57.7382 149.909C56.9061 150.648 56.2275 151.543 55.7415 152.544C55.2555 153.546 54.9714 154.633 54.9055 155.744C54.8397 156.855 54.9932 157.968 55.3575 159.019C55.7217 160.071 56.2896 161.041 57.0286 161.873C57.7676 162.705 58.6632 163.384 59.6644 163.87C60.6656 164.356 61.7528 164.64 62.8638 164.706C63.9747 164.771 65.0878 164.618 66.1395 164.254Z" fill="#60B6E9"/>
<path d="M95.7053 181.78C100.321 181.028 112.336 170.467 112.336 170.467C112.336 170.467 97.5629 164.317 92.9407 165.074C91.8425 165.256 90.7909 165.652 89.8459 166.24C88.9008 166.828 88.0807 167.596 87.4326 168.501C86.7845 169.406 86.3209 170.43 86.0684 171.514C85.8158 172.598 85.7793 173.721 85.9608 174.819C86.1423 175.917 86.5384 176.969 87.1263 177.914C87.7143 178.859 88.4826 179.679 89.3875 180.327C90.2924 180.975 91.316 181.439 92.4 181.691C93.484 181.944 94.6072 181.98 95.7053 181.799V181.78Z" fill="#60B6E9"/>
<path d="M66.5184 116.933C66.5184 121.617 58.0507 135.191 58.0507 135.191C58.0507 135.191 49.5642 121.623 49.5642 116.939C49.5336 115.806 49.7301 114.679 50.1423 113.624C50.5546 112.568 51.1741 111.606 51.9643 110.795C52.7545 109.983 53.6994 109.337 54.7432 108.897C55.7869 108.456 56.9084 108.229 58.0414 108.229C59.1743 108.229 60.2958 108.456 61.3395 108.897C62.3833 109.337 63.3281 109.983 64.1183 110.795C64.9085 111.606 65.5281 112.568 65.9403 113.624C66.3525 114.679 66.5491 115.806 66.5184 116.939V116.933Z" fill="#60B6E9"/>
<path d="M100.831 137.869C99.4328 142.336 87.2871 152.78 87.2871 152.78C87.2871 152.78 83.2551 137.292 84.653 132.825C84.9423 131.714 85.4543 130.674 86.1578 129.767C86.8613 128.86 87.7416 128.106 88.7454 127.549C89.7493 126.993 90.8557 126.647 91.9975 126.531C93.1393 126.415 94.2927 126.532 95.3879 126.875C96.483 127.219 97.497 127.781 98.3683 128.528C99.2397 129.275 99.9502 130.191 100.457 131.221C100.963 132.25 101.256 133.372 101.316 134.518C101.376 135.665 101.202 136.811 100.806 137.888L100.831 137.869Z" fill="#60B6E9"/>
<path d="M131.397 162.794C130.775 167.435 120.562 179.761 120.562 179.761C120.562 179.761 113.97 165.18 114.592 160.539C114.672 159.382 114.988 158.253 115.521 157.224C116.055 156.194 116.794 155.284 117.692 154.551C118.591 153.818 119.631 153.277 120.747 152.962C121.863 152.647 123.032 152.564 124.182 152.719C125.331 152.873 126.437 153.262 127.43 153.861C128.423 154.459 129.283 155.256 129.956 156.2C130.63 157.144 131.102 158.217 131.345 159.351C131.587 160.485 131.594 161.657 131.366 162.794H131.397Z" fill="#60B6E9"/>
<path opacity="0.25" d="M25.0678 105.719C28.4226 108.98 44.066 112.354 44.066 112.354C44.066 112.354 40.2328 96.8223 36.8718 93.5545C35.2587 91.9892 33.0899 91.1288 30.8424 91.1626C28.5949 91.1964 26.453 92.1216 24.8877 93.7347C23.3224 95.3477 22.462 97.5166 22.4958 99.764C22.5296 102.012 23.4547 104.153 25.0678 105.719Z" fill="black"/>
<path opacity="0.25" d="M33.9145 133.812C38.5056 134.726 53.4718 129.054 53.4718 129.054C53.4718 129.054 41.8046 118.101 37.2134 117.187C36.1218 116.971 34.9983 116.971 33.9068 117.189C32.8154 117.407 31.7775 117.837 30.8525 118.456C29.9274 119.075 29.1333 119.869 28.5155 120.795C27.8976 121.721 27.4681 122.759 27.2515 123.85C27.0349 124.942 27.0354 126.066 27.253 127.157C27.4706 128.249 27.9011 129.286 28.5198 130.211C29.1385 131.136 29.9334 131.931 30.859 132.548C31.7846 133.166 32.8229 133.596 33.9145 133.812Z" fill="black"/>
<path opacity="0.25" d="M66.1395 164.254C70.5629 162.725 80.6149 150.275 80.6149 150.275C80.6149 150.275 65.015 146.703 60.5916 148.237C59.54 148.602 58.5704 149.17 57.7382 149.909C56.9061 150.648 56.2275 151.543 55.7415 152.544C55.2555 153.546 54.9714 154.633 54.9055 155.744C54.8397 156.855 54.9932 157.968 55.3575 159.019C55.7217 160.071 56.2896 161.041 57.0286 161.873C57.7676 162.705 58.6632 163.384 59.6644 163.87C60.6656 164.356 61.7528 164.64 62.8638 164.706C63.9747 164.771 65.0878 164.618 66.1395 164.254Z" fill="black"/>
<path opacity="0.25" d="M95.7053 181.78C100.321 181.028 112.336 170.467 112.336 170.467C112.336 170.467 97.5629 164.317 92.9407 165.074C91.8425 165.256 90.7909 165.652 89.8459 166.24C88.9008 166.828 88.0807 167.596 87.4326 168.501C86.7845 169.406 86.3209 170.43 86.0684 171.514C85.8158 172.598 85.7793 173.721 85.9608 174.819C86.1423 175.917 86.5384 176.969 87.1263 177.914C87.7143 178.859 88.4826 179.679 89.3875 180.327C90.2924 180.975 91.316 181.439 92.4 181.691C93.484 181.944 94.6072 181.98 95.7053 181.799V181.78Z" fill="black"/>
<path opacity="0.25" d="M66.5184 116.933C66.5184 121.617 58.0507 135.191 58.0507 135.191C58.0507 135.191 49.5642 121.623 49.5642 116.939C49.5336 115.806 49.7301 114.679 50.1423 113.624C50.5546 112.568 51.1741 111.606 51.9643 110.795C52.7545 109.983 53.6994 109.337 54.7432 108.897C55.7869 108.456 56.9084 108.229 58.0414 108.229C59.1743 108.229 60.2958 108.456 61.3395 108.897C62.3833 109.337 63.3281 109.983 64.1183 110.795C64.9085 111.606 65.5281 112.568 65.9403 113.624C66.3525 114.679 66.5491 115.806 66.5184 116.939V116.933Z" fill="black"/>
<path opacity="0.25" d="M100.831 137.869C99.4328 142.336 87.2871 152.78 87.2871 152.78C87.2871 152.78 83.2551 137.292 84.653 132.825C84.9423 131.714 85.4543 130.674 86.1578 129.767C86.8613 128.86 87.7416 128.106 88.7454 127.549C89.7493 126.993 90.8557 126.647 91.9975 126.531C93.1393 126.415 94.2927 126.532 95.3879 126.875C96.483 127.219 97.497 127.781 98.3683 128.528C99.2397 129.275 99.9502 130.191 100.457 131.221C100.963 132.25 101.256 133.372 101.316 134.518C101.376 135.665 101.202 136.811 100.806 137.888L100.831 137.869Z" fill="black"/>
<path opacity="0.25" d="M131.397 162.794C130.775 167.435 120.562 179.761 120.562 179.761C120.562 179.761 113.97 165.18 114.592 160.539C114.672 159.382 114.988 158.253 115.521 157.224C116.055 156.194 116.794 155.284 117.692 154.551C118.591 153.818 119.631 153.277 120.747 152.962C121.863 152.647 123.032 152.564 124.182 152.719C125.331 152.873 126.437 153.262 127.43 153.861C128.423 154.459 129.283 155.256 129.956 156.2C130.63 157.144 131.102 158.217 131.345 159.351C131.587 160.485 131.594 161.657 131.366 162.794H131.397Z" fill="black"/>
<path d="M131.105 195.186C131.105 195.186 127.265 155.55 104.391 134.471C94.7268 125.692 88.1752 114.013 85.7216 101.19C84.5988 95.093 84.0394 88.9061 84.0504 82.707" stroke="#535461" stroke-width="2" stroke-miterlimit="10"/>
<path d="M69.662 69.3375C71.4139 73.6864 84.3486 83.1047 84.3486 83.1047C84.3486 83.1047 87.1381 67.3371 85.3861 62.9882C84.97 61.9558 84.3547 61.0154 83.5751 60.2207C82.7956 59.4261 81.8672 58.7928 80.8429 58.3569C79.8187 57.9211 78.7186 57.6913 77.6055 57.6806C76.4924 57.6699 75.3881 57.8785 74.3556 58.2946C73.3231 58.7107 72.3827 59.3261 71.5881 60.1056C70.7935 60.8851 70.1602 61.8135 69.7243 62.8378C69.2885 63.8621 69.0586 64.9621 69.0479 66.0752C69.0372 67.1883 69.2459 68.2926 69.662 69.3251V69.3375Z" fill="#60B6E9"/>
<path d="M66.363 98.6241C70.19 101.32 86.1688 102.196 86.1688 102.196C86.1688 102.196 79.9562 87.4538 76.1168 84.7637C75.2067 84.1233 74.1794 83.6684 73.0935 83.4249C72.0076 83.1815 70.8844 83.1544 69.788 83.345C68.6916 83.5357 67.6435 83.9404 66.7036 84.5362C65.7636 85.1319 64.9502 85.9069 64.3097 86.817C63.6693 87.7271 63.2144 88.7544 62.9709 89.8403C62.7275 90.9262 62.7004 92.0494 62.891 93.1458C63.0817 94.2422 63.4865 95.2903 64.0822 96.2302C64.6779 97.1702 65.4529 97.9836 66.363 98.6241Z" fill="#60B6E9"/>
<path d="M83.4975 139.497C88.1632 139.888 102.396 132.582 102.396 132.582C102.396 132.582 89.5797 122.996 84.914 122.605C83.8048 122.512 82.6882 122.638 81.6279 122.977C80.5676 123.315 79.5843 123.859 78.7343 124.578C77.8842 125.296 77.1841 126.175 76.6737 127.164C76.1633 128.154 75.8527 129.233 75.7597 130.343C75.6667 131.452 75.7931 132.568 76.1316 133.629C76.4701 134.689 77.0142 135.672 77.7327 136.522C78.4512 137.372 79.3301 138.073 80.3193 138.583C81.3084 139.093 82.3884 139.404 83.4975 139.497Z" fill="#60B6E9"/>
<path d="M103.421 167.497C107.95 168.677 123.221 163.875 123.221 163.875C123.221 163.875 112.206 152.264 107.689 151.089C106.612 150.81 105.49 150.745 104.388 150.9C103.286 151.054 102.225 151.423 101.265 151.988C100.306 152.552 99.467 153.299 98.7966 154.188C98.1261 155.076 97.6373 156.088 97.3578 157.165C97.0784 158.243 97.0139 159.364 97.168 160.467C97.3221 161.569 97.6918 162.63 98.256 163.589C98.8202 164.549 99.5679 165.388 100.456 166.058C101.345 166.729 102.356 167.217 103.434 167.497H103.421Z" fill="#60B6E9"/>
<path d="M103.018 96.3873C101.123 100.668 87.8774 109.645 87.8774 109.645C87.8774 109.645 85.6222 93.8029 87.5171 89.5224C88.4233 87.4628 90.1106 85.8475 92.2077 85.032C94.3049 84.2164 96.6402 84.2673 98.6998 85.1736C100.759 86.0798 102.375 87.7671 103.19 89.8643C104.006 91.9614 103.955 94.2967 103.049 96.3563L103.018 96.3873Z" fill="#60B6E9"/>
<path d="M125.905 129.463C122.798 132.98 107.491 137.59 107.491 137.59C107.491 137.59 110.081 121.797 113.169 118.275C114.652 116.586 116.745 115.555 118.988 115.409C121.23 115.264 123.439 116.015 125.128 117.498C126.817 118.981 127.848 121.074 127.993 123.317C128.139 125.56 127.388 127.768 125.905 129.457V129.463Z" fill="#60B6E9"/>
<path d="M143.747 164.602C141.262 168.591 126.973 175.723 126.973 175.723C126.973 175.723 126.818 159.719 129.303 155.73C130.504 153.866 132.387 152.546 134.549 152.053C136.711 151.561 138.98 151.934 140.87 153.095C142.76 154.255 144.12 156.109 144.659 158.26C145.198 160.411 144.873 162.688 143.754 164.602H143.747Z" fill="#60B6E9"/>
<path d="M554.644 355.529C554.644 355.529 578.873 325.503 577.351 295.372C576.627 282.74 580.019 270.214 587.017 259.674C590.38 254.697 594.192 250.039 598.405 245.758" stroke="#535461" stroke-width="2" stroke-miterlimit="10"/>
<path d="M597.554 226.765C595.815 230.959 598.356 246.261 598.356 246.261C598.356 246.261 610.98 237.252 612.719 233.059C613.553 231.046 613.553 228.785 612.719 226.772C611.886 224.759 610.287 223.16 608.274 222.327C606.261 221.493 604 221.493 601.987 222.326C599.975 223.16 598.375 224.759 597.542 226.772L597.554 226.765Z" fill="#60B6E9"/>
<path d="M575.369 244.788C576.189 249.249 586.645 260.699 586.645 260.699C586.645 260.699 592.367 246.261 591.522 241.813C591.339 240.74 590.945 239.714 590.363 238.795C589.781 237.876 589.022 237.082 588.13 236.459C587.238 235.836 586.232 235.396 585.169 235.165C584.105 234.934 583.007 234.916 581.937 235.113C580.867 235.311 579.847 235.718 578.936 236.313C578.025 236.908 577.241 237.677 576.63 238.578C576.019 239.478 575.593 240.49 575.376 241.556C575.16 242.623 575.157 243.721 575.369 244.788Z" fill="#60B6E9"/>
<path d="M559.502 284.686C562.465 288.128 577.276 292.731 577.276 292.731C577.276 292.731 574.915 277.405 571.952 273.963C570.502 272.416 568.511 271.489 566.393 271.377C564.276 271.264 562.198 271.975 560.592 273.361C558.987 274.746 557.98 276.698 557.781 278.809C557.583 280.92 558.208 283.026 559.527 284.686H559.502Z" fill="#60B6E9"/>
<path d="M554.283 317.581C556.619 321.47 570.436 328.515 570.436 328.515C570.436 328.515 570.703 312.984 568.361 309.12C567.226 307.28 565.411 305.962 563.311 305.451C561.21 304.941 558.993 305.279 557.14 306.392C555.287 307.506 553.948 309.305 553.413 311.4C552.879 313.495 553.191 315.716 554.283 317.581Z" fill="#60B6E9"/>
<path d="M602.27 268.117C598.051 269.788 582.793 267.011 582.793 267.011C582.793 267.011 591.988 254.523 596.2 252.846C598.211 252.108 600.43 252.185 602.385 253.059C604.34 253.933 605.877 255.536 606.668 257.527C607.459 259.517 607.442 261.737 606.621 263.715C605.799 265.693 604.238 267.272 602.27 268.117Z" fill="#60B6E9"/>
<path d="M595.672 306.523C591.149 306.859 577.419 299.646 577.419 299.646C577.419 299.646 589.931 290.476 594.454 290.141C595.53 290.059 596.611 290.19 597.636 290.526C598.661 290.863 599.61 291.398 600.428 292.101C601.247 292.804 601.918 293.661 602.405 294.623C602.892 295.586 603.185 296.635 603.267 297.711C603.348 298.786 603.217 299.868 602.881 300.893C602.545 301.918 602.01 302.867 601.307 303.685C600.604 304.503 599.747 305.175 598.784 305.662C597.821 306.149 596.772 306.442 595.697 306.523H595.672Z" fill="#60B6E9"/>
<path d="M584.141 342.947C579.742 344.047 564.988 339.22 564.988 339.22C564.988 339.22 575.773 328.105 580.171 327.024C582.285 326.498 584.522 326.833 586.389 327.955C588.256 329.078 589.6 330.896 590.127 333.01C590.653 335.124 590.318 337.361 589.196 339.228C588.073 341.095 586.255 342.439 584.141 342.966V342.947Z" fill="#60B6E9"/>
<path d="M37.0458 405.925C37.0458 405.925 32.3056 412.137 39.2326 421.456C46.1597 430.775 51.8753 438.715 49.5642 444.555C49.5642 444.555 39.1084 427.16 30.6033 426.93C22.0982 426.7 27.6834 416.374 37.0458 405.925Z" fill="#60B6E9"/>
<path opacity="0.1" d="M37.0458 405.925C36.6326 406.524 36.3062 407.179 36.0766 407.869C27.7765 417.623 23.3532 426.725 31.3302 426.954C38.7854 427.166 47.6818 440.455 49.819 443.816C49.7481 444.075 49.6631 444.33 49.5642 444.58C49.5642 444.58 39.1084 427.184 30.6033 426.954C22.0982 426.725 27.6834 416.374 37.0458 405.925Z" fill="black"/>
<path d="M28.2301 413.821C28.2301 416.008 28.4785 417.772 28.7767 417.772C29.0749 417.772 29.3234 416.008 29.3234 413.821C29.3234 411.634 29.019 412.672 28.7022 412.672C28.3853 412.672 28.2301 411.64 28.2301 413.821Z" fill="#FFD037"/>
<path d="M25.2107 416.43C27.1242 417.474 28.7954 418.101 28.9383 417.84C29.0811 417.58 27.6461 416.511 25.7326 415.467C23.8191 414.424 24.5708 415.181 24.4279 415.467C24.285 415.753 23.291 415.386 25.2107 416.43Z" fill="#FFD037"/>
<path d="M62.0826 405.925C62.0826 405.925 66.8229 412.137 59.8958 421.456C52.9688 430.775 47.2531 438.715 49.5642 444.555C49.5642 444.555 60.02 427.16 68.5251 426.93C77.0302 426.7 71.445 416.374 62.0826 405.925Z" fill="#60B6E9"/>
<path opacity="0.1" d="M62.0826 405.925C62.4989 406.522 62.8254 407.177 63.0518 407.869C71.3581 417.623 75.7752 426.725 67.7982 426.954C60.3431 427.166 51.4466 440.455 49.3095 443.816C49.384 444.07 49.4648 444.325 49.5642 444.58C49.5642 444.58 60.02 427.184 68.5251 426.954C77.0302 426.725 71.445 416.374 62.0826 405.925Z" fill="black"/>
<path d="M70.9045 413.821C70.9045 416.008 70.656 417.772 70.3578 417.772C70.0596 417.772 69.8111 416.008 69.8111 413.821C69.8111 411.634 70.1155 412.672 70.4323 412.672C70.7492 412.672 70.9045 411.64 70.9045 413.821Z" fill="#FFD037"/>
<path d="M73.9239 416.43C72.0042 417.474 70.333 418.101 70.1963 417.84C70.0596 417.58 71.4885 416.511 73.402 415.467C75.3155 414.424 74.5638 415.181 74.7067 415.467C74.8495 415.753 75.8373 415.386 73.9239 416.43Z" fill="#FFD037"/>
<path opacity="0.1" d="M49.5643 491.995C22.1907 491.995 -7.62939e-06 488.59 -7.62939e-06 484.39C-7.62939e-06 480.191 22.1907 476.786 49.5643 476.786C76.9378 476.786 99.1285 480.191 99.1285 484.39C99.1285 488.59 76.9378 491.995 49.5643 491.995Z" fill="#60B6E9"/>
<path d="M24.0551 436.224L24.2912 438.156L24.6267 440.889L24.7634 442.032L25.0927 444.766L25.2418 445.909L25.571 448.643L29.3669 479.706C29.7024 482.483 34.2376 484.676 39.711 484.676H59.4174C64.8907 484.676 69.4196 482.514 69.7613 479.706L73.5573 448.643L73.8927 445.909L74.0294 444.766L74.3649 442.032L74.5078 440.889L74.8371 438.156L75.0793 436.224C75.2657 434.652 72.8118 433.329 69.7179 433.329H29.4104C26.3165 433.329 23.8625 434.652 24.0551 436.224Z" fill="#65617D"/>
<path d="M24.2912 438.156L24.6267 440.89H74.5077L74.837 438.156H24.2912Z" fill="#9D9CB5"/>
<path d="M24.7633 442.033L25.0988 444.766H74.0294L74.3711 442.033H24.7633Z" fill="#9D9CB5"/>
<path d="M25.2417 445.909L25.571 448.636H73.5572L73.8927 445.909H25.2417Z" fill="#9D9CB5"/>
<path d="M150.706 115.528H151.227C150.407 114.596 149.985 113.665 150.053 112.838L154.775 108.117L152.973 104.079H159.043L157.918 100.929H161.515L201.313 114.186C201.313 114.186 201.357 114.739 201.313 115.528H226.94V230.99H115.635V115.528H150.706Z" fill="url(#paint0_linear)"/>
<path d="M116.486 115.933H226.114V229.773H116.486V115.933Z" fill="#F6F7F9"/>
<path opacity="0.1" d="M151.01 115.933C156.204 123.58 190.895 133.651 190.895 133.651L190.677 125.68H197.095C196.919 124.913 196.997 124.109 197.318 123.389C197.638 122.67 198.184 122.074 198.872 121.692C200.736 120.667 200.916 117.343 200.891 115.933H151.01Z" fill="black"/>
<path d="M161.665 101.538L200.86 114.584C200.86 114.584 201.307 119.679 198.872 121.002C198.185 121.386 197.641 121.982 197.321 122.701C197 123.42 196.921 124.223 197.095 124.991H190.677L190.895 132.961C190.895 132.961 149.705 121.002 150.37 113.255L155.017 108.602L153.246 104.613H159.229L158.117 101.507L161.665 101.538Z" fill="#9D9CB5"/>
<g opacity="0.35">
<path opacity="0.2" d="M136.752 152.835H205.849V154.773H136.752V152.835Z" fill="#60B6E9"/>
</g>
<g opacity="0.35">
<path opacity="0.2" d="M136.752 163.055H205.849V164.994H136.752V163.055Z" fill="#60B6E9"/>
</g>
<g opacity="0.35">
<path opacity="0.2" d="M136.752 173.269H205.849V175.207H136.752V173.269Z" fill="#60B6E9"/>
</g>
<g opacity="0.35">
<path opacity="0.2" d="M136.752 183.482H205.849V185.421H136.752V183.482Z" fill="#60B6E9"/>
</g>
<g opacity="0.35">
<path opacity="0.2" d="M136.752 193.696H205.849V195.634H136.752V193.696Z" fill="#60B6E9"/>
</g>
<g opacity="0.35">
<path opacity="0.2" d="M136.752 203.916H205.849V205.854H136.752V203.916Z" fill="#60B6E9"/>
</g>
<path d="M522.145 106.172H522.406C520.443 101.14 518.629 96.2322 518.71 95.2941C518.884 93.4303 522.618 97.4809 522.792 96.4683C522.965 95.4556 522.792 91.6162 524.488 91.6162C526.184 91.6162 527.209 93.6105 528.215 93.6105C529.222 93.6105 533.316 92.9395 533.316 92.9395L538.528 106.172H577.792V229.487H480.353V106.172H522.145Z" fill="url(#paint1_linear)"/>
<path d="M481.465 106.855H576.698V228.66H481.465V106.855Z" fill="#F6F7F9"/>
<path opacity="0.1" d="M522.301 106.855C524.307 112.068 526.569 117.56 527.084 118.871C528.085 121.356 528.743 120.032 529.911 119.703C531.079 119.374 532.564 120.032 533.229 119.703C533.893 119.374 537.795 119.703 537.795 119.703C537.751 119.093 537.751 118.481 537.795 117.87C537.882 117.212 542.367 117.87 542.367 117.87L538.093 106.855H522.301Z" fill="black"/>
<path d="M533.229 93.7905L542.367 117.212C542.367 117.212 537.882 116.547 537.801 117.212C537.754 117.82 537.754 118.431 537.801 119.039C537.801 119.039 533.893 118.703 533.229 119.039C532.564 119.374 531.073 118.703 529.911 119.039C528.749 119.374 528.085 120.697 527.084 118.206C526.084 115.715 518.778 97.9405 518.946 96.114C519.114 94.2875 522.767 98.276 522.934 97.2758C523.102 96.2755 522.934 92.4858 524.593 92.4858C526.252 92.4858 527.252 94.4552 528.246 94.4552C529.24 94.4552 533.229 93.7905 533.229 93.7905Z" fill="#9D9CB5"/>
<g opacity="0.35">
<path opacity="0.2" d="M494.53 139.186H563.627V141.124H494.53V139.186Z" fill="#60B6E9"/>
</g>
<g opacity="0.35">
<path opacity="0.2" d="M494.53 146.499H563.627V148.437H494.53V146.499Z" fill="#60B6E9"/>
</g>
<g opacity="0.35">
<path opacity="0.2" d="M494.53 153.805H563.627V155.743H494.53V153.805Z" fill="#60B6E9"/>
</g>
<g opacity="0.35">
<path opacity="0.2" d="M494.53 161.117H563.627V163.056H494.53V161.117Z" fill="#60B6E9"/>
</g>
<g opacity="0.35">
<path opacity="0.2" d="M494.53 168.423H563.627V170.361H494.53V168.423Z" fill="#60B6E9"/>
</g>
<g opacity="0.35">
<path opacity="0.2" d="M494.53 175.729H563.627V177.667H494.53V175.729Z" fill="#60B6E9"/>
</g>
<path d="M162.777 288.506H163.038C160.627 282.294 158.403 276.224 158.509 275.087C158.714 272.807 163.299 277.783 163.479 276.541C163.659 275.298 163.479 270.552 165.56 270.552C167.641 270.552 168.89 273.037 170.139 273.037C171.387 273.037 176.389 272.204 176.389 272.204L182.812 288.506H230.929V440.647H111.504V288.506H162.777Z" fill="url(#paint2_linear)"/>
<path d="M112.628 289.562H229.972V439.659H112.628V289.562Z" fill="#F6F7F9"/>
<path opacity="0.1" d="M163.007 289.562C165.454 295.937 168.2 302.609 168.84 304.212C170.083 307.281 170.884 305.641 172.319 305.237C173.754 304.833 175.593 305.641 176.413 305.237C177.233 304.833 182.042 305.237 182.042 305.237C181.988 304.486 181.988 303.733 182.042 302.982C182.148 302.168 187.671 302.982 187.671 302.982L182.433 289.562H163.007Z" fill="black"/>
<path d="M176.413 273.46L187.671 302.317C187.671 302.317 182.148 301.497 182.042 302.317C181.988 303.066 181.988 303.818 182.042 304.566C182.042 304.566 177.233 304.162 176.413 304.566C175.593 304.97 173.754 304.162 172.319 304.566C170.884 304.97 170.07 306.616 168.84 303.547C167.61 300.478 158.608 278.573 158.813 276.324C159.018 274.075 163.522 278.983 163.727 277.759C163.932 276.535 163.727 271.851 165.771 271.851C167.815 271.851 169.045 274.28 170.275 274.28C171.505 274.28 176.413 273.46 176.413 273.46Z" fill="#9D9CB5"/>
<g opacity="0.35">
<path opacity="0.2" d="M136.752 331.504H205.849V336.431H136.752V331.504Z" fill="#60B6E9"/>
</g>
<g opacity="0.35">
<path opacity="0.2" d="M136.752 363.505H205.849V368.431H136.752V363.505Z" fill="#60B6E9"/>
</g>
<g opacity="0.35">
<path opacity="0.2" d="M136.752 395.512H205.849V400.439H136.752V395.512Z" fill="#60B6E9"/>
</g>
<path d="M502.159 293.706V275.335H527.948V293.706H581.793V438.448H455.322V293.706H502.159Z" fill="url(#paint3_linear)"/>
<path d="M456.658 294.439H580.457V437.504H456.658V294.439Z" fill="#F6F7F9"/>
<path opacity="0.1" d="M502.501 294.439H527.749V313.928H502.501V294.439Z" fill="black"/>
<path d="M502.501 276.28H527.749V313.264H502.501V276.28Z" fill="#9D9CB5"/>
<g opacity="0.35">
<path opacity="0.2" d="M484.012 329.043H553.109V333.97H484.012V329.043Z" fill="#60B6E9"/>
</g>
<g opacity="0.35">
<path opacity="0.2" d="M484.012 338.841H553.109V343.767H484.012V338.841Z" fill="#60B6E9"/>
</g>
<g opacity="0.35">
<path opacity="0.2" d="M484.012 348.645H553.109V353.572H484.012V348.645Z" fill="#60B6E9"/>
</g>
<g opacity="0.35">
<path opacity="0.2" d="M484.012 358.442H553.109V363.368H484.012V358.442Z" fill="#60B6E9"/>
</g>
<g opacity="0.35">
<path opacity="0.2" d="M484.006 369.351H502.501V384.299H484.006V369.351Z" fill="#60B6E9"/>
</g>
<g opacity="0.35">
<path opacity="0.2" d="M534.614 387.84H553.109V402.787H534.614V387.84Z" fill="#60B6E9"/>
</g>
<path d="M324.547 293.477H324.721C322.708 285.605 321.192 279.337 321.192 279.337L329.778 283.375C329.778 283.375 335.873 275.299 338.128 276.647C340.383 277.995 345.334 281.356 345.334 281.356L351.907 277.989L354.423 293.477H406.33V405.236L402.994 407.23C400.241 406.242 395.712 404.565 395.712 404.565L397.794 410.342L396.39 411.175L394.023 409.032L393.147 413.126L390.332 414.809L385.89 411.983L387.133 416.741L382.964 419.226L370.843 414.673L374.496 424.29L372.092 425.731L366.606 424.768C366.606 424.768 366.855 426.688 367.01 428.769L361.506 432.062C359.251 431.186 357.126 430.322 357.126 430.322C357.126 430.322 357.343 432.422 357.443 434.485L353.752 436.696C350.839 434.994 347.13 432.677 347.13 432.677L350.236 438.454H280.096V293.477H324.547Z" fill="url(#paint4_linear)"/>
<path d="M281.475 294.439V437.504H350.267L347.198 431.807C347.198 431.807 350.833 434.087 353.69 435.77L357.306 433.583C357.207 431.552 356.989 429.477 356.989 429.477C356.989 429.477 359.077 430.328 361.288 431.192L366.687 427.942C366.532 425.892 366.296 423.997 366.296 423.997L371.67 424.948L374.024 423.525L370.446 414.032L382.33 418.53L386.425 416.045L385.232 411.348L389.581 414.138L392.339 412.479L393.196 408.441L395.52 410.566L396.899 409.739L394.855 404.042C394.855 404.042 399.297 405.695 402 406.67L405.267 404.707V294.439H281.475Z" fill="#F6F7F9"/>
<g opacity="0.35">
<path opacity="0.2" d="M308.829 338.841H377.926V343.767H308.829V338.841Z" fill="#60B6E9"/>
</g>
<g opacity="0.35">
<path opacity="0.2" d="M308.829 353.571H377.926V358.498H308.829V353.571Z" fill="#60B6E9"/>
</g>
<g opacity="0.35">
<path opacity="0.2" d="M308.829 368.295H377.926V373.222H308.829V368.295Z" fill="#60B6E9"/>
</g>
<g opacity="0.35">
<path opacity="0.2" d="M364.084 383.025H377.926V387.952H364.084V383.025Z" fill="#60B6E9"/>
</g>
<path opacity="0.1" d="M325.075 294.44C328.442 307.722 333.35 326.124 334.63 325.801C336.618 325.261 339.724 321.452 339.724 321.452C339.724 321.452 347.03 328.317 350.572 324.776C354.113 321.235 358.99 323.664 358.99 323.664L354.268 294.434L325.075 294.44Z" fill="black"/>
<path d="M351.901 279.187L358.99 323.036C358.99 323.036 354.119 320.601 350.578 324.148C347.037 327.696 339.724 320.812 339.724 320.812C339.724 320.812 336.618 324.614 334.63 325.161C332.642 325.708 321.782 280.517 321.782 280.517L330.2 284.505C330.2 284.505 336.177 276.528 338.395 277.858C340.613 279.187 345.459 282.511 345.459 282.511L351.901 279.187Z" fill="#9D9CB5"/>
<path d="M293.999 87.8759V83.6699H359.928C362.953 83.6699 361.102 87.8759 361.102 87.8759H396.924V181.649H239.683V87.8386L293.999 87.8759Z" fill="url(#paint5_linear)"/>
<path d="M240.627 88.3237H395.93V181.01H240.627V88.3237Z" fill="#F6F7F9"/>
<path opacity="0.1" d="M294.273 103.439H355.896C355.896 103.439 356.56 96.2945 354.398 94.9712C352.237 93.6479 360.549 88.9885 360.549 88.9885C360.641 88.7712 360.722 88.5493 360.791 88.3237H294.273V90.4857C294.273 90.4857 285.799 97.9595 294.273 103.439Z" fill="black"/>
<path d="M359.387 84.1733H294.273V89.8206C294.273 89.8206 285.799 97.2757 294.273 102.774H355.896C355.896 102.774 356.561 95.6294 354.399 94.3061C352.237 92.9828 360.549 88.3234 360.549 88.3234C360.549 88.3234 362.376 84.1733 359.387 84.1733Z" fill="#9D9CB5"/>
<g opacity="0.35">
<path opacity="0.2" d="M259.693 117.393H376.851V119.331H259.693V117.393Z" fill="#60B6E9"/>
</g>
<g opacity="0.35">
<path opacity="0.2" d="M306.866 124.699H376.851V126.637H306.866V124.699Z" fill="#60B6E9"/>
</g>
<g opacity="0.35">
<path opacity="0.2" d="M259.693 132.011H376.851V133.949H259.693V132.011Z" fill="#60B6E9"/>
</g>
<g opacity="0.35">
<path opacity="0.2" d="M259.693 139.316H376.851V141.255H259.693V139.316Z" fill="#60B6E9"/>
</g>
<g opacity="0.35">
<path opacity="0.2" d="M259.693 146.623H376.851V148.561H259.693V146.623Z" fill="#60B6E9"/>
</g>
<path d="M211.502 516.056C212.614 511.322 213.298 507.172 213.298 507.172C213.298 507.172 213.043 502.022 215.354 498.157V496.871V487.36C214.699 485.637 213.896 483.975 212.956 482.39C211.241 479.395 212.956 468.436 212.956 468.436C212.956 468.436 219.305 452.985 217.758 443.188C216.211 433.391 230.805 399.669 230.805 399.669C230.715 396.415 230.254 393.182 229.432 390.033C229.28 389.371 229.218 388.692 229.245 388.014C229.245 387.933 229.245 387.852 229.245 387.765V387.846C229.463 381.385 234.57 369.27 234.57 369.27L233.886 346.178C233.886 346.178 230.625 332.56 235.943 314.289C237.806 307.908 238.993 302.808 239.745 298.869C239.832 298.422 239.912 297.993 239.987 297.583C229.034 295.912 220.672 294.52 220.672 294.52C220.672 294.52 227.028 267.93 231.314 263.283C235.601 258.636 239.036 244.024 239.036 244.024C239.036 244.024 241.273 225.256 237.663 219.795C234.054 214.334 233.551 204.841 233.551 204.841C233.551 204.841 225.313 198.865 224.282 196.206C223.25 193.547 221.536 187.57 221.536 184.402C221.536 181.233 222.567 178.419 222.219 176.76C221.871 175.101 224.623 168.789 223.25 165.795C222.893 164.875 222.708 163.898 222.704 162.912C222.7 162.883 222.7 162.854 222.704 162.825C222.704 162.825 222.704 162.825 222.704 162.794C222.694 160.178 222.938 157.567 223.43 154.997C223.43 154.997 227.158 151.711 231.575 150.648L231.755 149.934L232.221 148.07C232.484 147.894 232.755 147.732 233.035 147.586V146.908L233.11 144.212L231.817 138.142C229.289 127.581 243.36 126.022 243.36 126.022C244.204 124.395 245.624 123.141 247.343 122.505C250.176 121.505 247.815 138.372 246.492 139.447C245.491 140.261 242.416 145.548 240.938 148.145L240.695 148.573C240.92 148.782 241.128 149.009 241.317 149.251L240.782 152.91L240.701 153.469C241.633 154.63 242.388 155.922 242.944 157.302C242.944 157.302 240.366 160.123 240.882 163.279C241.397 166.435 240.093 170.367 240.03 170.585C240.186 170.411 241.994 168.448 243.802 168.926C245.609 169.404 250.635 170.92 250.635 170.92C250.635 170.92 254.413 171.585 254.065 172.417C253.717 173.25 256.643 176.903 256.643 176.903L266.788 167.286C266.888 167 266.987 166.714 267.08 166.416C267.503 165.042 267.799 163.632 267.962 162.204C266.858 161.94 265.774 161.596 264.719 161.173C263.653 160.809 262.689 160.193 261.911 159.377C260.892 158.135 260.669 156.513 260.277 155.028C259.476 152.071 257.749 149.437 256.513 146.635C254.424 141.902 253.722 136.674 254.487 131.557C254.647 129.983 255.182 128.471 256.047 127.146C257.699 124.866 260.706 123.94 262.881 122.12C265.055 120.3 266.471 117.529 269.019 116.162C271.317 114.92 274.125 115.075 276.716 115.498C281.793 116.333 286.67 118.107 291.098 120.729C292.577 121.605 294.205 122.592 295.907 122.307C297.361 122.046 298.429 120.878 299.367 119.766C299.356 119.717 299.341 119.669 299.324 119.623L299.436 119.492C300.51 121.877 301.049 124.469 301.014 127.084C301.014 127.488 301.014 127.892 300.964 128.327C300.964 128.469 300.964 128.612 300.964 128.755C300.955 128.871 300.955 128.987 300.964 129.103C300.964 129.284 300.989 129.464 301.038 129.637C301.254 130.157 301.578 130.625 301.989 131.01C302.299 131.359 302.575 131.735 302.815 132.135C302.772 131.998 302.728 131.862 302.679 131.725C303.326 132.667 303.69 133.775 303.728 134.918C303.784 135.753 303.51 136.576 302.964 137.211C302.459 137.707 301.905 138.152 301.312 138.54C302.011 142.437 301.499 146.456 299.844 150.053C298.189 153.65 295.47 156.653 292.055 158.657C291.937 158.942 291.825 159.234 291.707 159.526C290.415 162.943 289.439 166.919 289.843 170.591C289.881 170.864 289.918 171.131 289.968 171.399C290.098 171.535 290.222 171.678 290.334 171.821C290.334 171.821 307.108 171.983 311.028 168.41C314.948 164.838 320.968 177.108 320.968 177.108C320.968 177.108 326.976 178.276 328.175 177.108C329.374 175.94 336.413 176.946 336.413 176.946C336.413 176.946 340.706 172.79 346.881 173.126C349.227 171.343 351.815 169.904 354.566 168.851L354.759 168.783C355.967 168.347 357.257 168.183 358.536 168.305C358.536 168.305 366.774 161.471 369.172 157.843C371.57 154.215 383.02 140.634 383.07 140.572L383.113 139.95L383.244 137.975C383.583 138.028 383.925 138.057 384.269 138.062L384.499 137.378C385.156 135.451 385.97 133.581 386.934 131.787C386.934 131.787 386.934 129.302 386.207 128.681C385.48 128.059 386.505 118.921 386.505 118.921C386.505 118.921 393.929 101.563 400.577 114.522C400.577 114.522 413.145 122.903 402.596 132.663C402.596 132.663 398.39 134.707 397.794 136.322C397.402 137.372 395.973 140.298 395.01 142.249C394.849 142.572 394.706 142.87 394.582 143.119L394.7 143.218L394.544 144.846L394.482 145.467C396.47 146.598 397.819 147.71 397.489 148.573C396.902 150.012 396.499 151.519 396.29 153.059C396.29 153.059 381.703 171.33 379.814 179.152C379.814 179.152 340.675 202.406 327.815 204.071L330.045 215.695C330.045 215.695 330.735 222.671 330.561 225.163C330.387 227.654 332.108 238.955 332.108 238.955C332.108 238.955 334.338 255.561 336.227 257.884C338.115 260.208 337.767 270.179 337.767 270.179C338.222 274.951 339.084 279.676 340.346 284.3C342.209 290.613 340.855 298.416 340.855 298.416C340.855 298.416 347.378 313.369 331.76 303.237C331.76 303.237 324.093 302.758 315.265 302.46C315.265 302.746 315.265 303.038 315.265 303.336C315.265 304.473 315.303 305.703 315.315 307.001C315.433 315.562 315.483 327.36 315.098 336.288C314.414 352.068 309.606 383.299 309.606 383.299V398.985C309.916 400.46 310.068 401.964 310.059 403.471C310.165 409.001 308.698 414.448 305.828 419.176L304.766 429.533C304.766 429.533 301.945 436.429 301.89 440.548C301.903 440.884 301.945 441.219 302.014 441.548C302.119 442.076 302.165 442.613 302.15 443.151C302.312 447.903 299.448 459.266 299.448 459.266C299.448 459.266 299.274 470.729 297.584 471.393C296.118 471.959 299.541 477.997 300.566 479.731C300.566 479.619 300.61 479.513 300.628 479.401C300.759 479.625 300.84 479.749 300.84 479.749C301.192 480.674 301.373 481.655 301.374 482.644C301.471 483.428 301.344 484.222 301.008 484.936C300.671 485.65 300.139 486.253 299.473 486.676C296.211 488.671 294.459 490.329 297.224 491.025C298.242 491.181 299.252 491.388 300.249 491.647C300.299 491.516 300.349 491.386 300.392 491.261C300.778 491.421 301.1 491.705 301.305 492.069C301.51 492.433 301.587 492.855 301.523 493.268C301.598 494.107 301.318 495.331 300.498 497.157C297.752 503.301 295.851 505.631 295.851 505.631L294.534 505.482C294.735 505.981 294.991 506.457 295.298 506.898C295.799 507.619 296.466 508.209 297.243 508.619C297.957 509.05 298.756 509.324 299.585 509.421C300.516 509.452 301.431 509.679 302.269 510.087C303.107 510.494 303.85 511.074 304.449 511.788C306.158 514 307.232 517.019 303.828 519.665L291.552 523.902C291.552 523.902 270.429 526.642 271.566 521.908C272.703 517.174 273.361 513.024 273.361 513.024C273.361 513.024 273.125 508.402 275.076 504.625C275.294 504.193 275.543 503.778 275.821 503.382L275.076 503.295C275.076 503.295 273.535 492.833 271.473 490.87C271 490.41 270.895 490.056 271.007 489.789C270.789 489.217 271.33 488.882 272.019 488.695L272.168 489.106C272.842 488.959 273.529 488.882 274.219 488.876C274.219 488.876 274.908 483.396 272.678 481.421C272.496 481.194 272.364 480.933 272.289 480.653C272.214 480.372 272.198 480.079 272.243 479.793C272.224 479.043 272.301 478.293 272.473 477.562C272.473 477.6 272.523 477.65 272.554 477.687C273.678 472.717 277.48 464.808 277.48 464.808C277.48 464.808 277.654 459.838 276.281 457.837C274.908 455.837 276.449 430.757 276.449 430.757C276.449 430.757 275.933 418.636 277.48 412.989C279.027 407.341 275.616 400.694 275.616 400.694C275.616 400.694 275.616 400.563 275.654 400.333L275.61 400.247C275.61 400.247 275.685 399.501 275.809 398.339C275.826 398.375 275.841 398.413 275.852 398.451C276.194 395.245 276.853 389.43 277.331 386.74C278.021 382.92 277.163 364.648 277.163 364.648L274.057 356.845L268.565 370.296L262.725 388.238C262.725 388.238 259.836 392.027 259.768 395.867C259.768 396.053 259.768 396.239 259.805 396.426C259.852 396.824 259.875 397.224 259.874 397.625C259.976 399.89 259.354 402.13 258.097 404.018C258.097 404.018 256.55 412.485 254.146 414.647C251.741 416.809 251.748 420.959 251.748 420.959C251.748 420.959 248.828 433.248 247.455 435.41C246.299 437.23 246.212 442.244 246.249 443.766C246.249 444.052 246.249 444.213 246.249 444.213C246.249 444.213 245.846 448.606 245.858 452.29C245.858 452.743 245.858 453.184 245.901 453.6V453.507C245.906 454.514 246.024 455.516 246.256 456.496C246.276 456.55 246.292 456.606 246.305 456.663C246.305 456.458 246.305 456.247 246.256 456.042C246.854 458.551 247.142 461.123 247.113 463.702C247.194 468.119 246.492 473.357 243.845 476.426C239.21 481.744 236.291 481.079 236.291 481.079C236.291 481.079 238.527 487.72 241.261 489.05C241.364 489.102 241.462 489.165 241.553 489.236C241.553 489.106 241.602 488.981 241.621 488.851C242.192 489.348 242.422 490.242 242.422 491.336C242.621 494.256 240.782 499.002 239.024 501.183C238.375 501.819 237.579 502.284 236.707 502.537C236.847 502.634 236.992 502.723 237.142 502.804C237.447 502.971 237.762 503.119 238.086 503.245C238.529 503.442 239.001 503.566 239.484 503.612C240.416 503.633 241.333 503.852 242.174 504.255C243.014 504.658 243.76 505.235 244.361 505.948C246.069 508.153 247.144 511.173 243.739 513.819L231.463 518.056C231.463 518.056 210.378 520.79 211.502 516.056Z" fill="url(#paint6_linear)"/>
<path d="M292.117 523.903L303.995 519.666C307.276 517.019 306.232 514 304.573 511.788C304.005 511.08 303.29 510.502 302.479 510.093C301.668 509.685 300.778 509.456 299.87 509.421C299.065 509.323 298.291 509.049 297.603 508.619C296.853 508.202 296.214 507.612 295.739 506.899C294.87 505.524 294.401 503.934 294.385 502.307C294.385 502.307 281.338 498.487 277.772 502.307C277.135 502.998 276.603 503.779 276.194 504.625C274.33 508.402 274.529 513.024 274.529 513.024C274.529 513.024 273.864 517.168 272.79 521.908C271.715 526.649 292.117 523.903 292.117 523.903Z" fill="#2D293D"/>
<path d="M233.986 518.05L245.864 513.813C249.138 511.166 248.095 508.147 246.442 505.942C245.875 505.232 245.161 504.653 244.349 504.244C243.537 503.836 242.647 503.607 241.739 503.575C241.268 503.529 240.808 503.405 240.378 503.208C240.065 503.081 239.76 502.933 239.465 502.767C236.141 500.94 236.228 496.455 236.228 496.455C236.228 496.455 223.182 492.634 219.616 496.455C219.139 496.971 218.722 497.54 218.373 498.151C216.137 502.015 216.385 507.172 216.385 507.172C216.385 507.172 215.721 511.322 214.64 516.056C213.559 520.79 233.986 518.05 233.986 518.05Z" fill="#2D293D"/>
<path opacity="0.1" d="M277.754 502.307C277.117 502.998 276.585 503.779 276.175 504.625L295.72 506.892C294.851 505.517 294.383 503.928 294.366 502.301C294.366 502.301 281.32 498.493 277.754 502.307Z" fill="black"/>
<path opacity="0.1" d="M218.367 498.151V501.81C221.405 506.818 236.11 505.724 240.378 503.208C240.065 503.081 239.76 502.933 239.465 502.767C236.141 500.94 236.228 496.455 236.228 496.455C236.228 496.455 223.182 492.634 219.616 496.455C219.136 496.971 218.717 497.54 218.367 498.151Z" fill="black"/>
<path d="M216.044 482.377C216.955 483.967 217.732 485.629 218.367 487.347V500.481C221.691 505.96 238.968 504.134 241.292 501.146C243.615 498.157 246.106 490.348 243.454 489.019C240.801 487.689 238.645 481.048 238.645 481.048C238.645 481.048 241.472 481.713 245.957 476.395C250.443 471.077 249.113 459.285 248.275 456.465C247.436 453.644 248.275 444.17 248.275 444.17C248.275 444.17 248.107 437.529 249.436 435.367C250.766 433.205 253.555 420.916 253.555 420.916C253.555 420.916 253.555 416.766 255.885 414.604C258.215 412.442 259.706 403.974 259.706 403.974C261.065 401.857 261.651 399.335 261.365 396.836C260.868 392.68 264.191 388.194 264.191 388.194L269.839 370.258L275.15 356.802L278.139 364.611C278.139 364.611 278.971 382.882 278.306 386.703C277.642 390.524 276.648 400.657 276.648 400.657C276.648 400.657 279.965 407.298 278.474 412.945C276.983 418.592 277.474 430.719 277.474 430.719C277.474 430.719 275.983 455.8 277.312 457.794C278.642 459.788 278.474 464.771 278.474 464.771C278.474 464.771 271.64 479.383 273.821 481.377C276.002 483.371 275.318 488.832 275.318 488.832C275.318 488.832 270.665 488.832 272.659 490.827C274.653 492.821 276.151 503.252 276.151 503.252L296.23 505.581C296.23 505.581 298.094 503.252 300.728 497.107C303.362 490.963 300.231 491.628 297.559 490.963C294.888 490.298 296.578 488.64 299.734 486.614C302.89 484.589 301.063 480.135 301.063 480.135C301.063 480.135 296.249 471.996 297.907 471.331C299.566 470.667 299.734 459.204 299.734 459.204C299.734 459.204 303.058 445.586 302.219 441.933C301.38 438.28 304.909 429.533 304.909 429.533L306.071 419.065C312.053 408.77 309.724 399.302 309.724 399.302V383.212C309.724 383.212 314.377 351.987 315.042 336.207C315.464 326.099 315.346 312.307 315.209 303.703C315.129 298.875 315.042 295.676 315.042 295.676L243.286 288.221C243.286 288.221 243.361 291.532 241.981 298.882C241.254 302.82 240.118 307.921 238.303 314.301C233.153 332.573 236.309 346.191 236.309 346.191L236.974 369.27C236.974 369.27 230.662 384.721 232.004 390.033C232.8 393.186 233.246 396.418 233.333 399.669C233.333 399.669 219.2 433.378 220.697 443.201C222.194 453.023 216.044 468.449 216.044 468.449C216.044 468.449 214.385 479.383 216.044 482.377Z" fill="#575988"/>
<path opacity="0.05" d="M257.072 395.836L235.228 392.928C235.228 392.928 247.604 405.552 257.072 395.836Z" fill="black"/>
<path opacity="0.1" d="M238.384 371.588C238.384 371.588 237.639 379.311 242.373 382.218C242.373 382.218 233.899 380.889 238.384 371.588Z" fill="black"/>
<path opacity="0.1" d="M239.726 347.004C239.726 347.004 257.985 362.033 264.626 360.79C271.268 359.548 239.726 347.004 239.726 347.004Z" fill="black"/>
<path opacity="0.1" d="M284.146 402.899C284.146 402.899 298.013 406.049 298.435 411.597C298.858 417.145 284.146 402.899 284.146 402.899Z" fill="black"/>
<path opacity="0.05" d="M281.096 472.158C281.096 472.158 300.697 475.817 295.13 478.308C289.564 480.799 280.431 482.787 280.431 482.787C280.431 482.787 274.119 483.123 281.096 472.158Z" fill="black"/>
<g opacity="0.05">
<path opacity="0.05" d="M299.088 482.259C299.581 481.951 299.999 481.536 300.31 481.045C300.621 480.553 300.817 479.998 300.883 479.42L301.082 479.768C301.082 479.768 302.908 484.253 299.752 486.248L298.727 486.919C298.15 486.813 297.522 486.732 296.913 486.577C294.242 485.912 295.932 484.253 299.088 482.259Z" fill="black"/>
<path opacity="0.05" d="M273.84 480.929C273.305 480.432 273.324 479.159 273.653 477.519C274.535 478.805 274.747 480.805 274.765 482.327C274.56 481.8 274.244 481.324 273.84 480.929Z" fill="black"/>
<path opacity="0.05" d="M276.859 398.295C277.585 400.259 278.03 402.315 278.182 404.402C277.808 402.961 277.301 401.557 276.666 400.209C276.666 400.209 276.741 399.457 276.859 398.295Z" fill="black"/>
<path opacity="0.05" d="M231.985 389.573C231.849 388.978 231.789 388.369 231.805 387.759C232.047 389.001 232.221 390.151 232.346 391.157C232.24 390.641 232.122 390.113 231.985 389.573Z" fill="black"/>
<path opacity="0.05" d="M277.331 457.347C277.058 456.937 276.909 455.57 276.834 453.656C277.455 454.868 277.71 456.825 277.791 458.316C277.677 457.976 277.522 457.65 277.331 457.347Z" fill="black"/>
<path opacity="0.05" d="M273.212 488.67C274.579 492.398 275.505 498.872 275.505 498.872L295.59 501.195C295.59 501.195 297.454 498.872 300.088 492.727C300.318 492.187 300.504 491.702 300.653 491.261C301.859 491.814 302.331 493.063 300.753 496.71C298.094 502.854 296.255 505.184 296.255 505.184L276.169 502.841C276.169 502.841 274.672 492.379 272.678 490.416C271.696 489.422 272.324 488.919 273.212 488.67Z" fill="black"/>
<path opacity="0.05" d="M299.752 458.837C299.752 458.837 299.585 470.3 297.926 470.965C297.087 469.07 296.528 467.237 297.305 466.97C298.963 466.311 299.131 454.849 299.131 454.849C299.131 454.849 302.455 441.225 301.616 437.572C300.777 433.919 304.275 425.115 304.275 425.115L305.437 414.653C311.42 404.353 309.09 394.885 309.09 394.885V378.782C309.09 378.782 313.743 347.551 314.408 331.771C314.83 321.669 314.712 307.877 314.576 299.273C314.576 297.713 314.52 296.334 314.495 295.172L315.073 295.228C315.073 295.228 315.16 298.428 315.24 303.255C315.377 311.859 315.495 325.62 315.073 335.759C314.408 351.539 309.755 382.764 309.755 382.764V398.88C309.755 398.88 312.084 408.348 306.102 418.642L304.94 429.11C304.94 429.11 301.455 437.913 302.281 441.535C303.107 445.157 299.752 458.837 299.752 458.837Z" fill="black"/>
<path opacity="0.05" d="M240.621 496.71C242.253 494.348 243.339 491.653 243.802 488.82C245.852 490.684 243.497 497.859 241.317 500.698C238.993 503.687 221.716 505.513 218.392 500.034V496.871C222.853 501.326 238.421 499.537 240.621 496.71Z" fill="black"/>
<path opacity="0.05" d="M215.373 477.942C216.287 479.53 217.067 481.193 217.702 482.912V485.242C217.323 484.39 216.783 483.254 216.037 481.918C215.559 481.054 215.36 479.532 215.311 477.799C215.335 477.855 215.354 477.904 215.373 477.942Z" fill="black"/>
<path opacity="0.05" d="M239.602 480.557C238.967 479.281 238.419 477.963 237.962 476.612C237.962 476.612 240.788 477.277 245.274 471.965C248.536 468.095 248.722 460.783 248.256 456.018C249.095 458.844 250.418 470.636 245.939 475.948C242.994 479.427 240.788 480.34 239.602 480.557Z" fill="black"/>
<path opacity="0.05" d="M248.262 443.722C247.97 446.996 247.86 450.283 247.933 453.569C247.848 453.05 247.734 452.535 247.591 452.029C246.753 449.208 247.591 439.74 247.591 439.74C247.591 439.74 247.424 433.093 248.753 430.937C250.083 428.781 252.934 416.486 252.934 416.486C252.934 416.486 252.934 412.33 255.258 410.174C257.581 408.018 259.078 399.544 259.078 399.544C260.437 397.425 261.023 394.901 260.737 392.4C260.24 388.25 263.564 383.764 263.564 383.764L269.211 365.822L274.523 352.372L277.517 360.175C277.517 360.175 277.561 361.157 277.617 362.697L275.188 356.354L269.876 369.811L264.229 387.747C264.229 387.747 260.905 392.232 261.402 396.388C261.689 398.888 261.103 401.41 259.743 403.527C259.743 403.527 258.246 412.001 255.922 414.157C253.599 416.312 253.555 420.469 253.555 420.469C253.555 420.469 250.729 432.763 249.399 434.919C248.07 437.075 248.262 443.722 248.262 443.722Z" fill="black"/>
</g>
<path d="M234.296 138.161L235.539 144.225L235.464 146.921L235.415 148.915L242.373 149.599L243.149 148.164C244.584 145.567 247.56 140.28 248.529 139.466C249.809 138.385 252.095 121.524 249.349 122.524C247.676 123.172 246.302 124.415 245.491 126.016C245.491 126.016 231.861 127.6 234.296 138.161Z" fill="#FFCDD3"/>
<path opacity="0.1" d="M235.44 148.884L242.373 149.599L243.149 148.164C242.155 147.139 239.316 144.809 235.495 146.921L235.44 148.884Z" fill="black"/>
<path d="M233.675 152.164L242.826 154.314L243.019 152.947L243.534 149.288C243.534 149.288 239.925 144.467 234.688 148.076L234.234 149.94L233.675 152.164Z" fill="#DCE6F2"/>
<path d="M381.734 138.782L391.475 144.026C391.475 144.026 391.848 143.255 392.358 142.162C393.289 140.217 394.669 137.285 395.048 136.235C395.625 134.62 399.701 132.582 399.701 132.582C409.908 122.822 397.744 114.435 397.744 114.435C391.308 101.482 384.126 118.834 384.126 118.834C384.126 118.834 383.132 127.978 383.834 128.594C384.536 129.209 384.536 131.7 384.536 131.7C383.604 133.498 382.819 135.367 382.187 137.291C381.895 138.223 381.734 138.782 381.734 138.782Z" fill="#FFCDD3"/>
<path opacity="0.1" d="M381.734 138.782L391.475 144.026C391.475 144.026 391.848 143.255 392.358 142.162C390.985 141.013 386.102 137.055 384.499 137.235C383.732 137.33 382.958 137.349 382.188 137.291C381.896 138.223 381.734 138.782 381.734 138.782Z" fill="black"/>
<path d="M380.734 141.739L391.699 147.144L391.917 144.784L392.097 143.131C392.097 143.131 385.748 137.689 383.871 137.9C382.922 138.04 381.957 138.04 381.007 137.9L380.883 139.876L380.734 141.739Z" fill="#DCE6F2"/>
<path d="M260.892 178.413C260.892 178.413 308.692 183.806 299.758 180.898C293.546 178.873 291.061 174.915 290.551 170.529C290.129 166.858 291.073 162.888 292.328 159.471C293.457 156.455 294.889 153.562 296.602 150.835C296.602 150.835 260.06 130.731 267.403 148.972C268.529 151.736 269.227 154.657 269.472 157.632C269.696 160.587 269.378 163.557 268.534 166.398C267.15 171.034 264.504 175.194 260.892 178.413Z" fill="#FFCDD3"/>
<path opacity="0.1" d="M267.372 149.008C268.499 151.773 269.196 154.693 269.441 157.669C272.883 160.557 276.66 160.371 281.506 160.371C285.233 160.371 289.352 161.272 292.328 159.476C293.457 156.461 294.889 153.567 296.603 150.841C296.603 150.841 260.06 130.737 267.372 149.008Z" fill="black"/>
<path d="M282.152 161.639C271.234 161.639 262.383 152.788 262.383 141.87C262.383 130.952 271.234 122.102 282.152 122.102C293.07 122.102 301.921 130.952 301.921 141.87C301.921 152.788 293.07 161.639 282.152 161.639Z" fill="#FFCDD3"/>
<path opacity="0.1" d="M260.892 178.413C260.892 178.413 308.692 183.805 299.758 180.898C293.546 178.872 291.061 174.915 290.551 170.529C288.172 167.957 283.388 166.093 280.319 165.105C277.505 164.158 274.466 164.108 271.622 164.962C270.506 165.295 269.445 165.789 268.472 166.428C267.1 171.046 264.477 175.194 260.892 178.413Z" fill="black"/>
<path opacity="0.1" d="M233.675 152.164L242.826 154.314L243.019 152.947C240.44 149.654 237.191 149.257 234.234 149.946L233.675 152.164Z" fill="black"/>
<path opacity="0.1" d="M380.734 141.74L391.699 147.145L391.917 144.784C387.996 142.473 381.43 140.093 380.858 139.888L380.734 141.74Z" fill="black"/>
<path opacity="0.1" d="M241.981 298.863C260.495 301.783 286.842 305.591 291.024 304.317C294.49 303.261 305.567 303.373 315.209 303.696C315.128 298.869 315.041 295.669 315.041 295.669L243.286 288.214C243.286 288.214 243.36 291.513 241.981 298.863Z" fill="black"/>
<path d="M223.517 294.514C223.517 294.514 284.476 304.982 291.024 302.988C297.572 300.994 331.151 303.156 331.151 303.156C346.266 313.282 339.954 298.335 339.954 298.335C339.954 298.335 341.284 290.531 339.457 284.219C338.239 279.589 337.408 274.866 336.972 270.098C336.972 270.098 337.301 260.158 335.475 257.81C333.648 255.461 331.493 238.874 331.493 238.874C331.493 238.874 329.828 227.579 329.995 225.088C330.163 222.597 329.498 215.62 329.498 215.62L327.33 204.015C339.755 202.356 377.652 179.102 377.652 179.102C379.479 171.293 393.6 153.009 393.6 153.009C393.805 151.473 394.196 149.966 394.762 148.524C395.762 145.865 380.808 140.553 380.808 140.553C380.808 140.553 369.682 154.171 367.358 157.824C365.035 161.477 357.058 168.292 357.058 168.292C355.819 168.165 354.568 168.329 353.404 168.77C353.336 168.77 353.28 168.808 353.212 168.826C353.144 168.845 353.212 168.826 353.212 168.826C349.484 170.125 345.757 173.094 345.757 173.094C339.774 172.765 335.624 176.915 335.624 176.915C335.624 176.915 328.79 175.921 327.653 177.083C326.516 178.245 320.676 177.083 320.676 177.083C320.676 177.083 314.861 164.788 311.041 168.385C307.22 171.982 291.011 171.79 291.011 171.79C288.849 168.92 283.593 166.863 280.307 165.801C277.492 164.853 274.453 164.803 271.609 165.658C270.383 166.007 269.227 166.566 268.192 167.31L258.358 176.94C258.358 176.94 255.531 173.287 255.873 172.455C256.214 171.622 252.549 170.963 252.549 170.963C252.549 170.963 247.734 169.466 245.908 168.969C244.081 168.472 242.404 170.448 242.255 170.622C242.317 170.411 243.565 166.391 243.081 163.322C242.596 160.253 245.075 157.339 245.075 157.339C239.26 143.05 226.139 155.016 226.139 155.016C226.139 155.016 224.642 162.825 225.971 165.813C227.301 168.801 224.642 175.132 224.977 176.772C225.313 178.412 224.313 181.258 224.313 184.414C224.313 187.57 225.971 193.553 226.972 196.218C227.972 198.883 235.974 204.822 235.974 204.822C235.974 204.822 236.477 214.29 239.962 219.77C243.447 225.249 241.292 243.999 241.292 243.999C241.292 243.999 237.968 258.617 233.837 263.258C229.705 267.899 223.517 294.514 223.517 294.514Z" fill="#656691"/>
<path opacity="0.1" d="M312.383 185.222C312.383 185.222 314.209 179.742 315.868 179.239C317.522 178.631 319.133 177.91 320.689 177.083L319.62 175.039C319.62 175.039 313.377 176.748 312.383 178.574C311.389 180.401 312.383 185.222 312.383 185.222Z" fill="black"/>
<path opacity="0.1" d="M345.769 173.094C346.098 174.759 360.884 176.25 360.884 176.25L353.429 168.758L353.243 168.82C349.466 170.125 345.769 173.094 345.769 173.094Z" fill="black"/>
<path d="M388.543 151.624C387.809 151.624 387.214 151.029 387.214 150.294C387.214 149.56 387.809 148.965 388.543 148.965C389.277 148.965 389.873 149.56 389.873 150.294C389.873 151.029 389.277 151.624 388.543 151.624Z" fill="#575988"/>
<path d="M386.841 154.283C386.107 154.283 385.511 153.688 385.511 152.954C385.511 152.219 386.107 151.624 386.841 151.624C387.575 151.624 388.17 152.219 388.17 152.954C388.17 153.688 387.575 154.283 386.841 154.283Z" fill="#575988"/>
<path d="M385.176 156.737C384.442 156.737 383.846 156.142 383.846 155.408C383.846 154.673 384.442 154.078 385.176 154.078C385.91 154.078 386.505 154.673 386.505 155.408C386.505 156.142 385.91 156.737 385.176 156.737Z" fill="#575988"/>
<path d="M383.436 159.389C382.702 159.389 382.107 158.794 382.107 158.06C382.107 157.326 382.702 156.73 383.436 156.73C384.171 156.73 384.766 157.326 384.766 158.06C384.766 158.794 384.171 159.389 383.436 159.389Z" fill="#575988"/>
<path d="M226.866 158.998C226.269 158.998 225.785 158.514 225.785 157.917C225.785 157.32 226.269 156.836 226.866 156.836C227.463 156.836 227.947 157.32 227.947 157.917C227.947 158.514 227.463 158.998 226.866 158.998Z" fill="#575988"/>
<path d="M226.698 161.446C226.101 161.446 225.617 160.962 225.617 160.365C225.617 159.768 226.101 159.284 226.698 159.284C227.295 159.284 227.779 159.768 227.779 160.365C227.779 160.962 227.295 161.446 226.698 161.446Z" fill="#575988"/>
<path d="M226.549 163.9C225.952 163.9 225.468 163.416 225.468 162.819C225.468 162.222 225.952 161.738 226.549 161.738C227.146 161.738 227.63 162.222 227.63 162.819C227.63 163.416 227.146 163.9 226.549 163.9Z" fill="#575988"/>
<path opacity="0.1" d="M312.302 230.232C312.451 230.039 275.026 277.324 245.945 250.001C245.945 249.988 291.869 256.232 312.302 230.232Z" fill="black"/>
<path opacity="0.1" d="M333.81 254.815C333.81 254.815 311.407 255.437 309.059 261.873V268.576C309.696 268.933 310.413 269.12 311.143 269.12C311.873 269.12 312.591 268.933 313.228 268.576C315.489 267.334 329.032 260.5 333.81 263.786V254.815Z" fill="black"/>
<path d="M333.394 254.815C333.394 254.815 311.966 255.399 309.723 261.544V267.936C310.333 268.277 311.02 268.456 311.718 268.456C312.416 268.456 313.103 268.277 313.712 267.936C315.868 266.775 328.827 260.214 333.394 263.37V254.815Z" fill="#656691"/>
<path opacity="0.1" d="M321.577 206.165C321.577 206.165 319.011 212.762 312.88 221.075C309.089 226.161 304.495 230.597 299.28 234.208C299.28 234.208 321.204 209.246 321.577 206.165Z" fill="black"/>
<path opacity="0.1" d="M328.908 180.127C328.908 180.127 325.181 196.28 315.539 201.747L328.908 180.127Z" fill="black"/>
<path opacity="0.1" d="M334.643 181.762C334.736 181.464 337.96 194.523 322.217 201.748C322.224 201.748 328.908 199.48 334.643 181.762Z" fill="black"/>
<path opacity="0.1" d="M236.781 170.939C237.03 170.939 229.016 176.039 226.841 178.394C226.841 178.413 232.072 170.603 236.781 170.939Z" fill="black"/>
<path d="M287.495 159.787C287.215 160.806 286.874 161.924 285.954 162.459C285.373 162.738 284.735 162.88 284.09 162.875C278.064 163.248 271.796 163.496 266.217 161.191C265.178 160.822 264.246 160.203 263.502 159.39C262.514 158.178 262.321 156.532 261.924 155.041C261.141 152.09 259.476 149.449 258.271 146.648C256.251 141.897 255.574 136.684 256.314 131.576C256.469 130.007 256.986 128.495 257.823 127.159C259.426 124.879 262.334 123.953 264.452 122.139C266.571 120.325 267.925 117.548 270.392 116.181C272.616 114.938 275.362 115.094 277.847 115.516C282.776 116.357 287.499 118.13 291.763 120.741C293.192 121.623 294.764 122.636 296.416 122.325C297.858 122.052 298.901 120.84 299.833 119.703C301.013 122.412 301.523 125.366 301.318 128.314C301.255 128.746 301.269 129.186 301.361 129.613C301.566 130.129 301.879 130.595 302.281 130.979C303.766 132.706 304.698 135.44 303.225 137.192C302.604 137.95 301.604 138.366 300.982 139.137C299.864 140.528 300.243 142.522 300.268 144.299C300.334 144.916 300.18 145.537 299.833 146.051C299.274 146.728 298.255 146.784 297.392 146.635C296.528 146.486 295.646 146.194 294.795 146.387C293.867 146.696 293.07 147.309 292.533 148.126C289.75 151.636 288.663 155.556 287.495 159.787Z" fill="#2D293D"/>
<g opacity="0.1">
<path opacity="0.1" d="M262.837 157.868C263.581 158.681 264.513 159.299 265.552 159.669C271.143 161.993 277.4 161.726 283.426 161.347C284.07 161.357 284.709 161.217 285.29 160.937C286.203 160.396 286.532 159.284 286.83 158.265C287.998 154.003 289.085 150.114 291.869 146.573C292.405 145.755 293.202 145.143 294.13 144.833C294.981 144.641 295.863 144.933 296.727 145.082C297.59 145.231 298.591 145.175 299.168 144.498C299.516 143.984 299.67 143.363 299.603 142.746C299.603 140.969 299.206 138.969 300.318 137.583C300.939 136.807 301.921 136.397 302.567 135.639C303.486 134.539 303.461 133.054 302.946 131.669C304.002 133.346 304.462 135.502 303.225 136.962C302.604 137.726 301.604 138.136 300.983 138.913C299.871 140.298 300.243 142.299 300.268 144.076C300.335 144.693 300.181 145.313 299.833 145.827C299.274 146.505 298.255 146.561 297.392 146.411C296.528 146.262 295.646 145.97 294.795 146.163C293.867 146.472 293.07 147.085 292.533 147.903C289.75 151.444 288.663 155.358 287.495 159.595C287.215 160.607 286.874 161.726 285.954 162.266C285.374 162.546 284.735 162.687 284.091 162.676C278.064 163.055 271.796 163.297 266.217 160.999C265.178 160.629 264.246 160.01 263.502 159.197C263.125 158.717 262.835 158.174 262.645 157.594C262.707 157.687 262.769 157.781 262.837 157.868Z" fill="black"/>
<path opacity="0.1" d="M301.299 129.066C301.024 128.78 300.813 128.439 300.678 128.065C300.586 127.639 300.571 127.199 300.635 126.767C300.798 124.346 300.484 121.916 299.709 119.616L299.815 119.486C300.995 122.195 301.505 125.149 301.299 128.097C301.268 128.419 301.268 128.743 301.299 129.066Z" fill="black"/>
</g>
<path opacity="0.1" d="M291.024 171.765C291.024 171.765 266.328 175.039 264.111 171.33L291.024 171.765Z" fill="black"/>
<path opacity="0.1" d="M242.994 161.552C242.994 161.552 229.277 161.552 226.257 166.708L242.994 161.552Z" fill="black"/>
<defs>
<linearGradient id="paint0_linear" x1="171.294" y1="230.99" x2="171.294" y2="100.929" gradientUnits="userSpaceOnUse">
<stop stop-color="#808080" stop-opacity="0.25"/>
<stop offset="0.54" stop-color="#808080" stop-opacity="0.12"/>
<stop offset="1" stop-color="#808080" stop-opacity="0.1"/>
</linearGradient>
<linearGradient id="paint1_linear" x1="-25877.8" y1="54551.8" x2="-25877.8" y2="23954.2" gradientUnits="userSpaceOnUse">
<stop stop-color="#808080" stop-opacity="0.25"/>
<stop offset="0.54" stop-color="#808080" stop-opacity="0.12"/>
<stop offset="1" stop-color="#808080" stop-opacity="0.1"/>
</linearGradient>
<linearGradient id="paint2_linear" x1="-100987" y1="125272" x2="-100987" y2="78692.9" gradientUnits="userSpaceOnUse">
<stop stop-color="#808080" stop-opacity="0.25"/>
<stop offset="0.54" stop-color="#808080" stop-opacity="0.12"/>
<stop offset="1" stop-color="#808080" stop-opacity="0.1"/>
</linearGradient>
<linearGradient id="paint3_linear" x1="-26175.5" y1="115390" x2="-26175.5" y2="72565" gradientUnits="userSpaceOnUse">
<stop stop-color="#808080" stop-opacity="0.25"/>
<stop offset="0.54" stop-color="#808080" stop-opacity="0.12"/>
<stop offset="1" stop-color="#808080" stop-opacity="0.1"/>
</linearGradient>
<linearGradient id="paint4_linear" x1="-71634.2" y1="118725" x2="-71634.2" y2="76505.9" gradientUnits="userSpaceOnUse">
<stop stop-color="#808080" stop-opacity="0.25"/>
<stop offset="0.54" stop-color="#808080" stop-opacity="0.12"/>
<stop offset="1" stop-color="#808080" stop-opacity="0.1"/>
</linearGradient>
<linearGradient id="paint5_linear" x1="-95642.9" y1="31245" x2="-95642.9" y2="15788.7" gradientUnits="userSpaceOnUse">
<stop stop-color="#808080" stop-opacity="0.25"/>
<stop offset="0.54" stop-color="#808080" stop-opacity="0.12"/>
<stop offset="1" stop-color="#808080" stop-opacity="0.1"/>
</linearGradient>
<linearGradient id="paint6_linear" x1="-121775" y1="361208" x2="-121775" y2="83976" gradientUnits="userSpaceOnUse">
<stop stop-color="#808080" stop-opacity="0.25"/>
<stop offset="0.54" stop-color="#808080" stop-opacity="0.12"/>
<stop offset="1" stop-color="#808080" stop-opacity="0.1"/>
</linearGradient>
</defs>
</svg>
