<svg width="729" height="756" viewBox="0 0 729 756" fill="none" xmlns="http://www.w3.org/2000/svg">
<g clip-path="url(#clip0)">
<path d="M296.191 689.229H29.3238C29.3238 689.229 23.9143 609.89 55.9203 608.988C87.9263 608.087 84.32 644.15 124.44 594.563C164.56 544.976 213.246 547.681 219.557 576.982C225.868 606.283 207.385 629.724 241.194 622.512C275.004 615.299 323.689 634.232 296.191 689.229Z" fill="#3B8AAD"/>
<path d="M158.252 689.246L157.352 689.21C159.452 636.974 170.392 603.412 179.2 584.456C188.763 563.872 197.978 555.54 198.07 555.458L198.669 556.132C198.578 556.213 189.471 564.463 179.984 584.906C171.225 603.783 160.345 637.207 158.252 689.246Z" fill="#F2F2F2"/>
<path d="M254.838 689.354L253.973 689.102C264.395 653.331 288.937 630.746 289.184 630.521L289.789 631.189C289.545 631.411 265.186 653.837 254.838 689.354Z" fill="#F2F2F2"/>
<path d="M71.3565 689.291L70.4633 689.167C73.9992 663.665 67.6122 643.88 61.6313 631.773C55.1554 618.664 47.7665 611.504 47.6925 611.433L48.3163 610.783C48.3914 610.854 55.8946 618.124 62.4396 631.374C68.4764 643.594 74.9239 663.562 71.3565 689.291Z" fill="#F2F2F2"/>
<path d="M332.41 690.435H0.539678L0.463117 689.311C0.272317 686.514 -3.96122 620.547 17.4131 597.01C22.1914 591.748 27.9472 588.986 34.5204 588.801C48.453 588.405 57.2086 593.623 64.2706 597.812C77.5813 605.709 86.3746 610.926 118.346 571.41C152.981 528.602 190.351 519.392 211.834 524.513C225.714 527.823 235.28 537.176 238.08 550.175C240.732 562.484 239.887 574.05 239.209 583.343C238.483 593.287 237.909 601.141 241.993 604.7C245.402 607.67 252.207 607.94 263.406 605.55C286.186 600.69 317.972 604.848 333.926 625.462C342.51 636.552 349.271 656.711 332.743 689.768L332.41 690.435ZM2.80455 688.023H330.916C343.233 663.034 343.617 641.924 332.019 626.938C317.383 608.028 286.678 603.051 263.909 607.909C251.742 610.505 244.491 610.076 240.408 606.518C235.415 602.168 236.028 593.783 236.803 583.168C237.47 574.028 238.301 562.654 235.723 550.683C233.126 538.628 224.215 529.945 211.274 526.86C190.477 521.898 154.151 530.991 120.221 572.927C86.9394 614.062 76.9135 608.117 63.0404 599.887C55.8913 595.647 47.774 590.838 34.5888 591.212C28.6963 591.378 23.5188 593.874 19.1987 598.631C-0.0115337 619.785 2.33402 679.104 2.80455 688.023Z" fill="#CFCCE0"/>
<path d="M514.321 463.926C490.931 463.926 470.421 488.356 459.111 524.836C458.311 527.396 457.561 530.026 456.861 532.696C452.098 551.397 449.733 570.628 449.821 589.926C449.821 659.406 478.751 715.926 514.321 715.926C549.891 715.926 578.821 659.406 578.821 589.926C578.821 520.446 549.891 463.926 514.321 463.926ZM514.321 713.926C479.861 713.926 451.821 658.296 451.821 589.926C451.728 570.547 454.125 551.235 458.951 532.466C459.611 529.956 460.318 527.496 461.071 525.086C472.081 489.616 491.831 465.926 514.321 465.926C548.781 465.926 576.821 521.556 576.821 589.926C576.821 658.296 548.781 713.926 514.321 713.926Z" fill="#3F3D56"/>
<path d="M529.821 662.777C517.484 662.777 507.821 630.777 507.821 589.926C507.821 549.076 517.484 517.076 529.821 517.076C542.158 517.076 551.821 549.076 551.821 589.926C551.821 630.777 542.158 662.777 529.821 662.777ZM529.821 519.076C518.98 519.076 509.821 551.521 509.821 589.926C509.821 628.332 518.98 660.777 529.821 660.777C540.662 660.777 549.821 628.332 549.821 589.926C549.821 551.521 540.662 519.076 529.821 519.076Z" fill="#3F3D56"/>
<path d="M532.321 606.658C537.016 606.658 540.821 599.167 540.821 589.926C540.821 580.685 537.016 573.194 532.321 573.194C527.627 573.194 523.821 580.685 523.821 589.926C523.821 599.167 527.627 606.658 532.321 606.658Z" fill="#CFCCE0"/>
<path d="M513.821 362.926L650.821 362.426V416.399L513.821 421.926V362.926Z" fill="#3F3D56"/>
<path d="M396.819 545.981L394.823 545.872L400.875 435.926H524.821V437.926H402.768L396.819 545.981Z" fill="#3F3D56"/>
<path d="M396.614 723.905L326.614 711.905L327.029 709.948L397.029 721.948L396.614 723.905Z" fill="#3F3D56"/>
<path d="M410.903 746.929L410.739 748.923L495.739 755.923L495.903 753.929L410.903 746.929Z" fill="#3F3D56"/>
<path d="M608.071 546.086C607.321 548.496 606.615 550.956 605.951 553.466L603.861 553.696L538.821 560.926L389.821 545.926L544.821 537.926L606.111 545.836L608.071 546.086Z" fill="#3F3D56"/>
<path d="M574 188.235C574 188.235 552.342 180.5 538.419 211.441C524.495 242.381 502.837 276.416 502.837 276.416L515.213 279.51C515.213 279.51 518.307 257.851 526.042 254.757L522.948 282.604C522.948 282.604 615.77 315.091 657.539 279.51L655.992 268.68C655.992 268.68 662.18 270.227 662.18 279.51L666.821 274.869C666.821 274.869 662.18 265.586 648.257 253.21C639.118 245.087 635.978 229.633 634.899 219.971C634.09 211.903 630.862 204.267 625.638 198.066C616.386 187.343 599.526 175.945 574 188.235Z" fill="#2F2E41"/>
<path d="M454.321 217.426L445.321 123.426C445.321 123.426 427.321 72.4262 454.321 76.4262C481.321 80.4262 465.321 119.426 465.321 119.426L480.321 217.426H454.321Z" fill="#FFB9B9"/>
<path d="M384.321 644.426L374.321 678.426L393.321 694.426L407.321 651.426L384.321 644.426Z" fill="#FFB9B9"/>
<path d="M461.321 669.426L451.321 705.426L486.321 727.426C486.321 727.426 487.321 686.426 492.321 678.426L461.321 669.426Z" fill="#FFB9B9"/>
<path d="M504.321 477.426L499.321 487.426C499.321 487.426 442.321 461.426 427.321 497.426C412.321 533.426 379.321 647.426 379.321 647.426L408.321 659.426L461.321 538.426L582.321 535.426L587.321 468.426L504.321 477.426Z" fill="#2F2E41"/>
<path d="M546.321 494.426C546.321 494.426 464.321 477.426 458.321 518.426C452.321 559.426 461.321 637.426 462.321 639.426C463.321 641.426 458.321 678.426 458.321 678.426L494.321 683.426C494.321 683.426 517.321 574.426 507.321 546.426L574.981 542.241C598.337 540.796 617.417 522.347 618.76 498.985C619.274 490.042 617.036 481.926 609.321 477.426C585.321 463.426 541.321 463.426 541.321 463.426L546.321 494.426Z" fill="#2F2E41"/>
<path d="M387.321 677.426C387.321 677.426 380.321 662.426 370.321 669.426C360.321 676.426 337.321 691.426 337.321 691.426C337.321 691.426 301.742 703.955 333.321 712.426C361.411 719.962 368.321 718.426 368.321 718.426C368.321 718.426 391.321 722.426 394.321 720.426C397.321 718.426 399.321 686.426 399.321 686.426C399.321 686.426 385.321 683.426 387.321 677.426Z" fill="#2F2E41"/>
<path d="M465.321 708.426C465.321 708.426 455.321 694.426 448.321 700.426C441.321 706.426 416.321 723.426 416.321 723.426C416.321 723.426 374.321 735.426 411.321 746.426C448.321 757.426 489.321 755.426 490.321 751.426C491.321 747.426 488.321 718.426 488.321 718.426C488.321 718.426 467.321 717.426 465.321 708.426Z" fill="#2F2E41"/>
<path d="M585.321 287.426C605.204 287.426 621.321 271.309 621.321 251.426C621.321 231.544 605.204 215.426 585.321 215.426C565.439 215.426 549.321 231.544 549.321 251.426C549.321 271.309 565.439 287.426 585.321 287.426Z" fill="#FFB9B9"/>
<path d="M559.321 267.426C559.321 267.426 557.321 308.426 547.321 311.426C537.321 314.426 509.321 347.426 522.321 357.426C535.321 367.426 610.321 360.426 610.321 360.426L603.321 308.426C603.321 308.426 587.321 297.426 600.321 278.426L559.321 267.426Z" fill="#FFB9B9"/>
<path d="M558.321 335.426L551.321 302.426L528.321 293.426L509.321 337.426C509.321 337.426 487.821 479.926 493.821 481.926C497.188 483.114 500.757 483.624 504.321 483.426C504.321 483.426 536.321 473.426 546.321 478.426C556.321 483.426 608.321 487.426 608.321 487.426C608.321 487.426 644.321 468.426 642.321 451.426C640.321 434.426 642.321 339.426 642.321 339.426L637.821 296.926L598.364 303.099L558.321 335.426Z" fill="#CFCCE0"/>
<path d="M529.321 298.426L528.321 292.426L500.321 258.426L484.321 201.426L445.321 216.426L473.321 285.426L513.321 336.426L529.321 298.426Z" fill="#CFCCE0"/>
<path d="M538.027 255.732C538.027 255.732 550.403 238.715 561.232 235.621C572.061 232.527 573.608 217.056 573.608 217.056C573.608 217.056 601.455 247.997 618.472 249.544C635.489 251.091 620.019 212.415 620.019 212.415L589.078 204.68L559.685 207.774L536.48 223.244L538.027 255.732Z" fill="#2F2E41"/>
<path d="M653.822 486.96L652.854 445.926H559.795L556.821 555.954L554.821 555.899L557.848 443.926H654.788L654.82 444.892L655.82 486.892L653.822 486.96Z" fill="#3F3D56"/>
<path d="M651.821 430.926H649.821V354.595L682.101 363.966L681.542 365.887L651.821 357.258V430.926Z" fill="#3F3D56"/>
<path d="M661.321 484.926C637.931 484.926 617.421 509.356 606.111 545.836C605.311 548.396 604.561 551.026 603.861 553.696C599.098 572.397 596.733 591.628 596.821 610.926C596.821 680.406 625.751 736.926 661.321 736.926C696.891 736.926 725.821 680.406 725.821 610.926C725.821 541.446 696.891 484.926 661.321 484.926ZM661.321 734.926C626.861 734.926 598.821 679.296 598.821 610.926C598.728 591.547 601.125 572.235 605.951 553.466C606.611 550.956 607.318 548.496 608.071 546.086C619.081 510.616 638.831 486.926 661.321 486.926C695.781 486.926 723.821 542.556 723.821 610.926C723.821 679.296 695.781 734.926 661.321 734.926Z" fill="#3F3D56"/>
<path d="M676.821 683.777C664.484 683.777 654.821 651.777 654.821 610.926C654.821 570.076 664.484 538.076 676.821 538.076C689.158 538.076 698.821 570.076 698.821 610.926C698.821 651.777 689.158 683.777 676.821 683.777ZM676.821 540.076C665.98 540.076 656.821 572.521 656.821 610.926C656.821 649.332 665.98 681.777 676.821 681.777C687.662 681.777 696.821 649.332 696.821 610.926C696.821 572.521 687.662 540.076 676.821 540.076Z" fill="#3F3D56"/>
<path d="M679.321 627.658C684.016 627.658 687.821 620.167 687.821 610.926C687.821 601.685 684.016 594.194 679.321 594.194C674.627 594.194 670.821 601.685 670.821 610.926C670.821 620.167 674.627 627.658 679.321 627.658Z" fill="#CFCCE0"/>
<path d="M665.821 352.926L686.821 360.926L682.821 371.926L665.821 364.926V352.926Z" fill="#3F3D56"/>
<path d="M582.821 438.926V454.926H642.402V439.989L582.821 438.926Z" fill="#3F3D56"/>
<path d="M429.821 430.926V446.926H489.402V431.989L429.821 430.926Z" fill="#3F3D56"/>
<path d="M633.473 92.315H225.849V0H633.473V92.315ZM228.246 89.9172H631.075V2.3978H228.246V89.9172Z" fill="#3F3D56"/>
<path d="M303.777 31.1714H258.219V76.7294H303.777V31.1714Z" fill="#3B8AAD"/>
<path d="M297.783 70.7346H249.827V22.7788H297.783V70.7346ZM252.224 68.3368H295.385V25.1766H252.224L252.224 68.3368Z" fill="#3F3D56"/>
<path d="M586.716 32.3701H373.313V34.7679H586.716V32.3701Z" fill="#3F3D56"/>
<path d="M586.716 49.1548H373.313V51.5526H586.716V49.1548Z" fill="#3F3D56"/>
<path d="M586.716 65.9395H373.313V68.3372H586.716V65.9395Z" fill="#3F3D56"/>
<path d="M538.821 392.104H538.335V378.788C538.335 377.775 538.136 376.773 537.749 375.838C537.361 374.903 536.794 374.054 536.078 373.338C535.362 372.622 534.513 372.055 533.578 371.667C532.643 371.28 531.64 371.081 530.628 371.081H502.417C501.404 371.081 500.402 371.28 499.467 371.667C498.532 372.055 497.682 372.622 496.967 373.338C496.251 374.054 495.683 374.903 495.296 375.838C494.909 376.773 494.709 377.775 494.709 378.788V451.84C494.709 452.852 494.909 453.855 495.296 454.79C495.683 455.725 496.251 456.574 496.967 457.29C497.682 458.006 498.532 458.573 499.467 458.961C500.402 459.348 501.404 459.547 502.417 459.547H530.628C531.64 459.547 532.643 459.348 533.578 458.961C534.513 458.573 535.362 458.006 536.078 457.29C536.794 456.574 537.361 455.725 537.749 454.79C538.136 453.855 538.335 452.852 538.335 451.84V401.582H538.821V392.104Z" fill="#3F3D56"/>
<path d="M516.765 398.495C519.373 398.495 521.486 396.381 521.486 393.774C521.486 391.167 519.373 389.053 516.765 389.053C514.158 389.053 512.045 391.167 512.045 393.774C512.045 396.381 514.158 398.495 516.765 398.495Z" fill="#D0CDE1"/>
<path d="M636.4 439.89L541.987 438.114C541.987 438.114 489.267 450.182 496.319 423.815C503.371 397.447 540.293 417.789 540.293 417.789L639.364 414.06L636.4 439.89Z" fill="#FFB9B9"/>
<path d="M626.821 303.927L635.821 296.927C635.821 296.927 650.821 288.927 653.821 316.927C656.821 344.927 678.821 437.926 656.821 438.926C634.821 439.926 578.821 440.926 578.821 440.926L584.821 409.927L630.821 406.927L626.821 303.927Z" fill="#CFCCE0"/>
<path opacity="0.15" d="M629.821 346.926L626.821 403.926L582.821 412.926L622.821 396.926L629.821 346.926Z" fill="black"/>
</g>
<defs>
<clipPath id="clip0">
<rect width="1093.86" height="755.923" fill="white"/>
</clipPath>
</defs>
</svg>
