<svg width="1920" height="3006" viewBox="0 0 1920 3006" fill="none" xmlns="http://www.w3.org/2000/svg">
<path fill-rule="evenodd" clip-rule="evenodd" d="M-79.86 674.771C-164.408 709.617 -252.94 650.858 -330.269 602.045C-411.214 550.949 -497.123 494.667 -514.342 400.507C-533.295 296.866 -501.036 181.936 -419.239 115.531C-342.378 53.1345 -235.652 80.3057 -137.712 94.7514C-41.0746 109.005 79.7356 107.308 122.02 195.365C163.213 281.15 70.7606 364.282 33.8283 451.986C-0.21383 532.826 1.23793 641.347 -79.86 674.771Z" fill="url(#paint0_linear)" fill-opacity="0.2"/>
<path fill-rule="evenodd" clip-rule="evenodd" d="M-5.68084 2744.82C-74.2343 2737.88 -114.998 2600.04 -176.112 2631.86C-288.881 2690.57 -261.545 2956.15 -388.099 2943.92C-499.978 2933.11 -385.252 2722.28 -397.135 2610.5C-401.408 2570.31 -401.137 2517.99 -435.62 2496.89C-537.393 2434.63 -701.168 2479.2 -770.49 2382.09C-816.37 2317.82 -739.854 2204.06 -667.952 2171.44C-574.542 2129.06 -415.23 2287.33 -364.746 2198.03C-281.931 2051.55 -546.26 1785.72 -401.442 1700.04C-271.52 1623.18 -298.451 2035.25 -152.08 2072.22C-28.0183 2103.55 19.409 1831.63 147.172 1838.59C239.286 1843.6 272.28 2005.46 245.981 2093.89C210.423 2213.44 5.44012 2238.52 -8.63725 2362.46C-17.9997 2444.89 161.289 2418.87 200.781 2491.83C229.573 2545.02 193.602 2618.59 155.366 2665.44C117.107 2712.33 54.5238 2750.92 -5.68084 2744.82Z" fill="url(#paint1_linear)" fill-opacity="0.3"/>
<path d="M2083.47 836.833C1861.44 796.859 2082.45 579.244 2115 687.463L2083.47 836.833C2093.12 838.571 2103.62 839.974 2115 840.999C2276.34 855.527 2292.33 825.497 2273.36 783.018L2257.27 754.057C2243.48 731.952 2227.17 708.593 2220.29 687.463L2257.27 754.057C2263.53 764.076 2269.26 773.838 2273.36 783.018L2427.48 1060.55L2391.32 1318.6L2320.87 1600.64L2155.79 1713.31C2040.38 1697.93 1794.56 1617.96 1734.57 1421.09C1674.59 1224.22 2035.04 1234.04 2012.5 1173L2083.47 836.833Z" fill="url(#paint2_linear)" fill-opacity="0.4"/>
<path d="M749.711 2485.82C749.889 2485.99 750.118 2486.1 750.363 2486.13C750.609 2486.16 750.858 2486.12 751.075 2486C750.614 2486 750.154 2485.94 749.711 2485.82Z" fill="url(#paint3_linear)"/>
<defs>
<linearGradient id="paint0_linear" x1="144.885" y1="263.495" x2="-494.45" y2="467.726" gradientUnits="userSpaceOnUse">
<stop stop-color="#BF5AE0"/>
<stop offset="1" stop-color="#A811DA"/>
</linearGradient>
<linearGradient id="paint1_linear" x1="269.911" y1="1979.31" x2="-702.748" y2="2507.88" gradientUnits="userSpaceOnUse">
<stop stop-color="#5F2C82"/>
<stop offset="1" stop-color="#49A09D"/>
</linearGradient>
<linearGradient id="paint2_linear" x1="1700.78" y1="1288.49" x2="2444.38" y2="1154.04" gradientUnits="userSpaceOnUse">
<stop stop-color="#EC008C"/>
<stop offset="1" stop-color="#FC6767"/>
</linearGradient>
<linearGradient id="paint3_linear" x1="1112.63" y1="2644.22" x2="1112.63" y2="2644.15" gradientUnits="userSpaceOnUse">
<stop stop-color="#808080" stop-opacity="0.25"/>
<stop offset="0.54" stop-color="#808080" stop-opacity="0.12"/>
<stop offset="1" stop-color="#808080" stop-opacity="0.1"/>
</linearGradient>
</defs>
</svg>
