<svg width="424" height="441" viewBox="0 0 424 441" fill="none" xmlns="http://www.w3.org/2000/svg">
<g opacity="0.1">
<path opacity="0.1" d="M192.455 9.20442C187.183 13.5254 184.827 20.3737 182.771 26.8665C178.16 41.4354 173.849 56.102 169.837 70.8665C163.989 92.3136 158.678 114.235 147.971 133.747C137.264 153.259 121.663 169.432 106.233 185.413L50.6457 242.952C33.469 260.738 15.1454 281.265 15.4731 305.973C15.7556 327.409 30.7626 346.425 49.1258 357.493C67.489 368.56 88.9486 373.09 109.95 377.445C120.612 379.656 131.93 381.828 142.157 378.15C154.44 373.739 162.447 361.921 173.674 355.27C193.817 343.328 219.339 350.046 241.906 356.308C264.473 362.57 291.063 367.319 309.364 352.732C335.92 331.561 324.472 288.909 336.332 257.116C347.588 226.942 378.709 209.591 399.134 184.68C444.766 129.042 424.815 51.7603 361.843 20.5655C341.208 10.3721 320.868 10.8967 298.487 9.28904C270.581 7.29212 216.508 -10.5222 192.455 9.20442Z" fill="#60B6E9"/>
</g>
<g opacity="0.5">
<path opacity="0.5" d="M20.5076 331.031C20.5076 331.031 -72.8341 283.872 -32.9435 178.537C6.94704 73.202 -137.478 36.665 -137.478 36.665C-137.478 36.665 -165.769 139.23 -112.617 207.532C-59.4657 275.833 -38.961 389.229 20.5076 331.031Z" fill="#60B6E9"/>
<path opacity="0.5" d="M-137.478 36.665C-137.478 36.665 -98.0962 104.792 -78.2244 193.412C-58.3526 282.033 -25.9994 355.163 20.0273 329.361" stroke="white" stroke-miterlimit="10"/>
</g>
<g opacity="0.5">
<path opacity="0.5" d="M0.454929 348.258C0.454929 348.258 -36.8704 294.765 12.6481 243.2C62.1666 191.635 -5.33654 130.481 -5.33654 130.481C-5.33654 130.481 -47.911 183.574 -37.7462 238.614C-27.5815 293.653 -46.9222 366.496 0.454929 348.258Z" fill="#60B6E9"/>
<path opacity="0.5" d="M-5.33093 130.481C-5.33093 130.481 -2.50583 181.656 -15.5578 239.646C-28.6098 297.636 -30.8868 349.86 0.641349 347.147" stroke="white" stroke-miterlimit="10"/>
</g>
<g opacity="0.1">
<path opacity="0.1" d="M-109.572 432.586C-108.916 436.608 -106.583 439.671 -104.368 442.48L-78.0097 475.841C-75.8909 478.527 -73.6138 481.319 -70.7661 482.047C-64.8164 483.62 -60.0307 475.994 -54.9455 471.532C-36.8648 455.669 -12.1564 479.818 8.28046 470.584C16.4563 466.889 23.0784 458.112 31.4125 455.139C53.4766 447.241 72.1732 482.131 94.9549 483.908C102.436 484.472 109.775 481.403 116.923 478.352L164.599 457.976C167.911 456.56 171.278 455.156 174.77 455.071C180.635 454.97 186.099 458.738 191.619 461.451C213.841 472.383 238.516 466.483 261.343 458.202C284.17 449.921 307.16 439.265 330.756 441.031C336.897 441.493 345.011 441.104 346.689 433.06C347.689 428.276 334.191 433.291 331.066 430.713C327.942 428.135 335.377 417.378 331.733 416.921C310.528 414.27 288.921 414.196 268.196 420.87C257.461 424.322 246.901 429.579 235.877 430.657C224.385 431.785 212.954 428.31 201.671 425.151C173.097 417.152 144.038 411.049 114.866 412.29C63.0198 414.546 11.9531 440.077 -39.6334 432.676C-54.96 430.413 -69.7653 425.463 -83.3661 418.055C-90.3272 414.303 -90.0164 427.588 -97.1188 432.061C-99.4297 433.517 -105.481 419.945 -107.289 422.556C-108.319 423.992 -109.052 425.619 -109.444 427.341C-109.836 429.064 -109.879 430.847 -109.572 432.586Z" fill="#60B6E9"/>
</g>
<path d="M335.061 368.261L252.653 260.518C246.217 230.271 236.555 230.271 236.555 230.271C170.888 221.448 152.864 210.104 152.864 210.104L138.174 204.361L136.947 203.639C136.891 203.318 136.829 202.996 136.772 202.663C136.716 202.331 136.659 201.891 136.614 201.501C152.658 191.873 164.236 176.299 168.82 158.178C168.939 157.705 169.046 157.219 169.159 156.74C172.312 155.231 174.974 152.863 176.838 149.909C183.149 139.58 177.154 126.504 177.29 114.472C177.375 106.868 180.002 99.4158 179.703 91.8173C179.454 85.4543 177.171 79.345 174.68 73.4671C173.47 70.6071 172.137 67.685 169.82 65.5697C163.679 60.002 153.734 62.3881 145.847 59.6466C135.642 56.0984 130.89 45.042 124.992 36.1517C122.731 32.722 118.618 29.1004 114.906 30.9789C110.55 33.1789 111.73 40.7097 107.329 42.825C104.662 44.1056 101.402 42.4922 99.4978 40.2584C97.5937 38.0245 96.5032 35.2209 94.6273 32.9645C92.9455 31.0122 90.7667 29.5496 88.3211 28.7314C85.8755 27.9133 83.2539 27.7698 80.7334 28.3163C79.7338 28.4778 78.8106 28.9496 78.0947 29.6645C76.6878 31.3004 77.5693 33.7374 77.6653 35.8697C77.9987 43.0507 69.19 47.0389 61.9125 47.8004C54.635 48.562 46.058 48.6522 41.7017 54.4343C39.3964 57.4973 38.9048 61.4855 37.351 64.9717C33.7461 73.0553 25.0278 77.4835 17.3661 82.1261C9.70444 86.7686 1.81673 93.5379 1.88454 102.36C1.95234 110.822 9.43324 117.676 10.7497 126.053C11.4504 130.492 10.3599 135.078 11.23 139.495C12.829 147.596 20.4116 153.034 27.4066 157.631C27.8812 157.941 28.3615 158.252 28.853 158.545C28.9773 159.041 29.1016 159.532 29.2372 160.023C31.9233 169.468 36.5417 178.255 42.8008 185.828C49.0598 193.401 56.8237 199.597 65.6021 204.023C65.7151 204.497 65.8224 204.976 65.9298 205.467C66.2632 206.979 66.5739 208.553 66.8508 210.166L66.6361 210.222V210.064L-14.7554 230.784C-15.2453 230.608 -15.7682 230.542 -16.2866 230.592C-19.6202 230.321 -30.0449 233.909 -42.2098 282.563L-94.35 374.562C-94.35 374.562 -124.607 403.552 -101.43 428.152C-89.6152 440.681 -76.2919 443.71 -66.0707 443.671C-60.1349 443.755 -54.2336 442.757 -48.6567 440.726C-48.6567 440.726 -49.0748 440.083 -49.7189 438.943L-42.8257 439.784C-29.2651 454.834 -6.16702 449.549 -6.16702 449.549C-6.16702 449.549 26.689 449.176 27.8981 432.022L86.9486 450.107L87.1859 453.328H118.194L118.144 451.275L183.381 431.655C188.466 441.042 200.897 445.684 200.897 445.684C200.897 445.684 239.183 447.292 251.217 440.331C256.274 437.368 261.783 435.251 267.524 434.064L267.857 434.03L267.778 434.109L341.491 426.212C374.974 397.245 335.061 368.261 335.061 368.261ZM-35.9719 393.883L-37.5936 392.947C-34.696 391.841 -31.7169 390.963 -28.6832 390.318L-14.3429 372.644L-11.8625 390.075C-20.0897 388.181 -28.7321 389.546 -35.9719 393.883ZM241.38 393.742C236.042 389.715 229.51 387.581 222.819 387.678L223.384 344.772C228.769 348.208 233.289 351.998 234.628 355.654C238.493 366.372 257.162 383.379 257.162 383.379L247.466 391.333L245.957 392.569C245.55 392.664 245.144 392.76 244.737 392.868L241.38 393.742Z" fill="url(#paint0_linear)"/>
<path d="M150.796 228.945L114.437 261.493C114.437 261.493 44.2214 277.142 61.7767 255.232C71.7211 242.822 70.3989 223.986 67.3817 209.985C66.0321 203.636 64.1573 197.409 61.7767 191.37C61.7767 191.37 152.067 136.939 139.529 178.254C135.812 190.507 135.292 199.955 136.394 207.176C139.027 224.302 150.796 228.945 150.796 228.945Z" fill="#EFB7B9"/>
<path opacity="0.1" d="M139.529 178.255C135.812 190.507 135.292 199.956 136.394 207.176C126.108 213.535 114.352 217.135 102.264 217.629C90.1763 218.123 78.1653 215.494 67.3931 209.997C66.0435 203.648 64.1687 197.421 61.7881 191.381C61.7881 191.381 152.067 136.94 139.529 178.255Z" fill="black"/>
<path d="M169.623 146.326C169.623 160.19 165.505 173.742 157.791 185.27C150.077 196.797 139.113 205.782 126.284 211.089C113.455 216.395 99.339 217.785 85.7193 215.083C72.0996 212.38 59.5884 205.706 49.7675 195.905C39.9466 186.104 33.257 173.616 30.5445 160.02C27.8321 146.423 29.2185 132.329 34.5286 119.52C39.8387 106.71 48.834 95.7595 60.3772 88.0533C71.9203 80.3472 85.4929 76.2311 99.379 76.2255C108.61 76.1949 117.755 77.9871 126.29 81.4989C134.824 85.0106 142.578 90.1726 149.107 96.6878C155.635 103.203 160.809 110.943 164.33 119.462C167.851 127.981 169.649 137.111 169.623 146.326Z" fill="#EFB7B9"/>
<path d="M51.1318 237.085V365.39L174.634 355.377L153.949 224.567L99.4073 257.11L51.1318 237.085Z" fill="#E1E7EF"/>
<path opacity="0.1" d="M118.211 315.946L104.464 277.142H105.029C119.448 261.494 113.177 252.107 113.177 252.107H93.1636C80.4223 261.133 89.2649 272.826 92.2652 276.194L86.2646 315.946H118.211Z" fill="black"/>
<path d="M118.211 314.694L104.464 275.889H105.029C119.448 260.241 113.177 250.854 113.177 250.854H93.1636C80.4223 259.88 89.2649 271.574 92.2652 274.942L86.2646 314.694H118.211Z" fill="#444053"/>
<path opacity="0.1" d="M136.563 209.393C136.563 209.393 132.608 227.693 105.052 252.101C105.052 252.101 113.527 254.922 114.77 277.452L125.116 291.555C125.116 291.555 133.263 262.137 147.683 252.124C162.102 242.111 147.683 215.824 147.683 215.824L136.563 209.393Z" fill="black"/>
<path d="M136.563 208.152C136.563 208.152 132.608 226.452 105.052 250.861C105.052 250.861 113.527 253.681 114.77 276.211L125.116 290.314C125.116 290.314 133.263 260.896 147.683 250.883C162.102 240.87 147.683 214.583 147.683 214.583L136.563 208.152Z" fill="#E1E7EF"/>
<path opacity="0.1" d="M99.3791 252.101C99.3791 252.101 87.5136 261.494 86.8695 276.516C86.2254 291.538 79.9762 291.538 79.9762 291.538C79.9762 291.538 64.3025 243.347 59.2908 238.963C54.279 234.58 68.3311 216.095 68.3311 216.095C68.3311 216.095 76.2132 242.089 99.3791 252.101Z" fill="black"/>
<path d="M99.3791 250.855C99.3791 250.855 87.5136 260.241 86.8695 275.28C86.2253 290.319 79.9762 290.302 79.9762 290.302C79.9762 290.302 64.2969 242.088 59.2625 237.711C54.2282 233.334 68.3029 214.842 68.3029 214.842C68.3029 214.842 76.2132 240.836 99.3791 250.855Z" fill="#E1E7EF"/>
<path opacity="0.1" d="M135.767 208.293L151.44 214.555C151.44 214.555 168.996 225.837 232.939 234.586C232.939 234.586 242.341 234.586 248.613 264.63L328.846 371.657C328.846 371.657 367.714 400.426 335.118 429.241L263.36 437.065C263.36 437.065 304.737 397.634 242.047 396.382L253.63 386.673C253.63 386.673 235.448 369.75 231.69 359.134C227.933 348.518 197.224 336.604 197.224 336.604L200.987 426.73L144.541 435.485L136.405 267.778C136.014 259.868 136.468 251.938 137.761 244.125C139.886 231.404 142.129 211.255 135.767 208.293Z" fill="black"/>
<path d="M136.394 208.293L152.067 214.555C152.067 214.555 169.623 225.837 233.566 234.586C233.566 234.586 242.968 234.586 249.24 264.63L329.473 371.657C329.473 371.657 368.341 400.426 335.745 429.241L263.987 437.065C263.987 437.065 305.363 397.634 242.674 396.382L254.274 386.679C254.274 386.679 236.092 369.756 232.334 359.14C228.577 348.523 197.868 336.609 197.868 336.609L201.631 426.736L145.146 435.485L137.009 267.778C136.618 259.868 137.072 251.938 138.365 244.125C140.513 231.404 142.756 211.255 136.394 208.293Z" fill="#67647E"/>
<path opacity="0.1" d="M68.6869 214.549L-10.9304 235.229C-10.9304 235.229 -22.8411 227.721 -37.2605 286.562L-88.039 377.947C-88.039 377.947 -117.505 406.716 -94.9323 431.147C-72.3596 455.579 -44.1368 443.625 -44.1368 443.625C-44.1368 443.625 -69.8397 403.574 -24.7 393.556L-7.74935 372.278L68.7321 381.038L66.8054 270.88L68.9468 258.041C71.2635 244.164 71.2635 230 68.9468 216.123L68.6869 214.549Z" fill="black"/>
<path d="M68.0598 214.549L-11.5575 235.229C-11.5575 235.229 -23.4682 227.721 -37.8876 286.562L-88.6661 377.947C-88.6661 377.947 -118.155 406.716 -95.5537 431.108C-72.9528 455.5 -44.7752 443.625 -44.7752 443.625C-44.7752 443.625 -70.478 403.574 -25.3384 393.556L-8.38775 372.278L68.0937 381.038L66.1782 270.88L68.3027 258.041C70.6194 244.164 70.6194 230 68.3027 216.123L68.0598 214.549Z" fill="#67647E"/>
<path d="M-10.303 275.89L-17.8291 281.519L95.6443 310.311V299.046L-10.303 275.89Z" fill="#E4E6ED"/>
<path d="M209.117 274.011L216.638 279.647L95.644 310.311V299.046L209.117 274.011Z" fill="#E4E6ED"/>
<path d="M-24.7227 275.89L80.5975 300.298L88.118 453.018L-4.03719 424.226L-24.7227 275.89Z" fill="#60B6E9"/>
<path d="M221.656 275.89L109.437 301.551L115.703 454.896L219.774 422.974L221.656 275.89Z" fill="#60B6E9"/>
<path d="M76.8345 300.298C76.8345 300.298 95.2203 311.58 114.55 300.298L118.313 456.149H88.1236L76.8345 300.298Z" fill="#60B6E9"/>
<path opacity="0.1" d="M76.8345 300.298C76.8345 300.298 95.2203 311.58 114.55 300.298L118.313 456.149H88.1236L76.8345 300.298Z" fill="black"/>
<path d="M-7.79443 274.011V278.394L95.6442 299.046C95.6442 299.046 42.9841 279.641 -7.79443 274.011Z" fill="#D8D9E5"/>
<path d="M207.236 271.507V275.89L95.644 299.046C95.644 299.046 156.446 277.142 207.236 271.507Z" fill="#D8D9E5"/>
<path d="M241.527 396.099L238.256 396.979C238.256 396.979 216.949 378.364 189.788 406.569C162.627 434.774 198.828 448.578 198.828 448.578C198.828 448.578 236.12 450.174 247.833 443.258C252.874 440.24 258.394 438.106 264.156 436.946C267.679 436.256 270.886 434.45 273.298 431.796C275.492 429.398 277.12 426.54 278.065 423.432C279.009 420.325 279.245 417.045 278.756 413.835C278.123 409.62 276.265 405.684 273.413 402.514C270.56 399.343 266.839 397.078 262.71 395.998C255.76 394.194 248.459 394.229 241.527 396.099Z" fill="#EFB7B9"/>
<path d="M-34.7515 399.191C-34.7515 399.191 -9.67585 376.661 21.0444 414.213C51.7647 451.766 -2.78257 452.409 -2.78257 452.409C-2.78257 452.409 -32.2711 459.274 -43.532 434.865C-54.7929 410.456 -34.7515 399.191 -34.7515 399.191Z" fill="#EFB7B9"/>
<path opacity="0.1" d="M244.183 394.571C244.183 394.571 273.333 403.066 267.083 436.647L284.701 434.729L288.419 417.654L280.898 393.871L266.479 388.23L244.183 394.571Z" fill="black"/>
<path d="M244.81 394.571C244.81 394.571 273.96 403.066 267.71 436.647L285.328 434.729L289.046 417.654L281.525 393.871L267.106 388.23L244.81 394.571Z" fill="#67647E"/>
<path opacity="0.1" d="M169.622 146.326C169.627 151.937 168.956 157.528 167.622 162.979C163.217 165.069 158.284 165.792 153.463 165.055C145.157 163.785 137.823 158.849 131.749 153.056C125.675 147.263 120.578 140.522 114.719 134.497C109.408 129.037 102.854 123.931 95.2371 123.711C88.3213 123.508 82.0213 127.367 75.354 129.195C68.3703 131.112 54.3013 125.878 50.8942 131.789C48.894 135.264 49.6003 142.908 48.4194 147.02C47.1353 151.512 45.3281 155.838 43.0347 159.91C41.3397 162.883 38.8479 166.036 35.4295 166.008C34.0962 165.941 32.8032 165.529 31.6778 164.812C29.0344 155.171 28.4865 145.077 30.0709 135.208C31.6553 125.338 35.3353 115.921 40.8641 107.587C46.3929 99.2541 53.6426 92.1975 62.1271 86.8909C70.6116 81.5843 80.1345 78.1504 90.0573 76.8195C99.98 75.4886 110.073 76.2915 119.66 79.1744C129.246 82.0572 138.104 86.9534 145.64 93.5344C153.176 100.115 159.215 108.229 163.352 117.331C167.489 126.434 169.629 136.314 169.628 146.309L169.622 146.326Z" fill="black"/>
<path d="M75.3485 127.953C82.0214 126.126 88.344 122.267 95.2316 122.47C102.848 122.69 109.408 127.796 114.714 133.256C120.567 139.275 125.664 146.016 131.743 151.815C137.823 157.614 145.151 162.533 153.457 163.813C161.763 165.094 171.114 161.974 175.425 154.788C181.567 144.532 175.736 131.541 175.866 119.593C175.951 112.04 178.505 104.639 178.216 97.0914C177.974 90.7735 175.753 84.6811 173.329 78.8652C172.148 76.0447 170.854 73.1227 168.594 71.0299C162.611 65.5017 152.932 67.8709 145.247 65.1463C135.314 61.6206 130.681 50.6376 124.941 41.8093C122.726 38.4247 118.725 34.8088 115.12 36.6704C110.877 38.8591 112.03 46.3391 107.741 48.4376C105.142 49.7068 101.967 48.1047 100.113 45.8878C98.2602 43.6709 97.1923 40.8842 95.3729 38.6447C93.7537 36.7079 91.6325 35.2526 89.241 34.4378C86.8495 33.623 84.2797 33.4801 81.8124 34.0247C80.8349 34.1863 79.9344 34.6546 79.2415 35.3617C77.8741 36.9863 78.7273 39.4063 78.8234 41.5273C79.1511 48.6576 70.591 52.6176 63.483 53.3734C56.3751 54.1293 48.041 54.2196 43.8033 59.9678C41.5432 63.0083 41.0799 66.9683 39.5657 70.4319C36.0512 78.4647 27.5646 82.8422 20.1006 87.4735C12.6367 92.1047 4.95803 98.8119 5.02584 107.572C5.09364 115.994 12.3711 122.803 13.6594 131.112C14.3374 135.524 13.2808 140.082 14.1283 144.465C15.6821 152.509 23.067 157.907 29.8812 162.477C31.5762 163.605 33.3843 164.784 35.4184 164.801C38.8085 164.829 41.3455 161.676 43.0236 158.703C45.3166 154.631 47.1238 150.305 48.4082 145.813C49.5891 141.689 48.8829 134.046 50.883 130.582C54.2958 124.637 68.3648 129.866 75.3485 127.953Z" fill="#585268"/>
<defs>
<linearGradient id="paint0_linear" x1="122.353" y1="453.328" x2="122.353" y2="27.9779" gradientUnits="userSpaceOnUse">
<stop stop-color="#808080" stop-opacity="0.25"/>
<stop offset="0.54" stop-color="#808080" stop-opacity="0.12"/>
<stop offset="1" stop-color="#808080" stop-opacity="0.1"/>
</linearGradient>
</defs>
</svg>
