<svg width="486" height="690" viewBox="0 0 486 690" fill="none" xmlns="http://www.w3.org/2000/svg">
<path fill-rule="evenodd" clip-rule="evenodd" d="M403.3 1.5931C480.985 9.08212 539.945 59.0173 601.728 99.4735C658.304 136.52 712.77 174.609 747.933 227.263C785.369 283.321 812.38 345.056 808.657 409.332C804.727 477.185 780.855 546.459 726.543 596.586C672.811 646.176 592.527 666.215 514.756 680.58C441.109 694.183 366.001 693.216 293.219 676.622C219.237 659.755 147.807 632.584 95.8076 585.063C42.8706 536.686 5.66016 474.744 0.410058 409.033C-4.66547 345.507 38.5036 289.444 67.4922 230.665C97.5882 169.641 112.536 99.7311 173.44 58.1856C236.801 14.9633 322.364 -6.20928 403.3 1.5931Z" fill="url(#paint0_linear)" fill-opacity="0.4"/>
<defs>
<linearGradient id="paint0_linear" x1="0" y1="345" x2="809" y2="345" gradientUnits="userSpaceOnUse">
<stop stop-color="#1488CC"/>
<stop offset="1" stop-color="#2B32B2"/>
</linearGradient>
</defs>
</svg>
