<svg width="32" height="32" viewBox="0 0 32 32" fill="none" xmlns="http://www.w3.org/2000/svg">
<path d="M27.6667 14.3333C27.6667 16.9704 26.8847 19.5483 25.4196 21.7409C23.9545 23.9336 21.8721 25.6426 19.4358 26.6517C16.9994 27.6609 14.3185 27.9249 11.7321 27.4105C9.14572 26.896 6.76995 25.6261 4.90525 23.7614C3.04055 21.8967 1.77067 19.5209 1.2562 16.9345C0.741733 14.3481 1.00578 11.6672 2.01495 9.23089C3.02411 6.79454 4.73308 4.71216 6.92574 3.24707C9.11839 1.78199 11.6963 1 14.3333 1C17.8696 1 21.2609 2.40476 23.7614 4.90524C26.2619 7.40573 27.6667 10.7971 27.6667 14.3333Z" stroke="#686868" stroke-width="2" stroke-linecap="round" stroke-linejoin="round"/>
<path d="M31 31L23.75 23.75" stroke="#686868" stroke-width="2" stroke-linecap="round" stroke-linejoin="round"/>
</svg>
