<svg width="371" height="65" viewBox="0 0 371 65" fill="none" xmlns="http://www.w3.org/2000/svg">
<path d="M73.25 58V1.98438H80.5156V51.4375H98.8359V58H73.25ZM102.625 39.8359C102.625 37.2839 103.081 34.849 103.992 32.5312C104.904 30.2135 106.18 28.1693 107.82 26.3984C109.487 24.6276 111.492 23.2474 113.836 22.2578C116.18 21.2422 118.784 20.7344 121.648 20.7344C124.591 20.7344 127.234 21.2422 129.578 22.2578C131.922 23.2474 133.927 24.6276 135.594 26.3984C137.286 28.1693 138.589 30.2135 139.5 32.5312C140.411 34.849 140.867 37.2839 140.867 39.8359C140.867 42.388 140.411 44.8229 139.5 47.1406C138.589 49.4323 137.286 51.4635 135.594 53.2344C133.927 54.9792 131.922 56.3594 129.578 57.375C127.234 58.3906 124.591 58.8984 121.648 58.8984C118.758 58.8984 116.141 58.3906 113.797 57.375C111.479 56.3594 109.487 54.9792 107.82 53.2344C106.18 51.4635 104.904 49.4323 103.992 47.1406C103.081 44.8229 102.625 42.388 102.625 39.8359ZM109.5 39.8359C109.5 41.6068 109.786 43.2604 110.359 44.7969C110.958 46.3333 111.779 47.6875 112.82 48.8594C113.862 50.0052 115.125 50.9297 116.609 51.6328C118.094 52.3099 119.773 52.6484 121.648 52.6484C123.523 52.6484 125.216 52.3099 126.727 51.6328C128.263 50.9297 129.565 50.0052 130.633 48.8594C131.701 47.6875 132.521 46.3333 133.094 44.7969C133.693 43.2604 133.992 41.6068 133.992 39.8359C133.992 38.0651 133.693 36.4115 133.094 34.875C132.521 33.3385 131.701 31.9844 130.633 30.8125C129.565 29.6406 128.263 28.7031 126.727 28C125.216 27.2969 123.523 26.9453 121.648 26.9453C119.773 26.9453 118.094 27.2969 116.609 28C115.125 28.7031 113.862 29.6406 112.82 30.8125C111.779 31.9844 110.958 33.3516 110.359 34.9141C109.786 36.4505 109.5 38.0911 109.5 39.8359ZM147.547 39.8359C147.547 37.388 147.924 35.0182 148.68 32.7266C149.461 30.4349 150.607 28.4036 152.117 26.6328C153.654 24.8359 155.555 23.4036 157.82 22.3359C160.086 21.2682 162.69 20.7344 165.633 20.7344C168.576 20.7344 171.089 21.151 173.172 21.9844C175.281 22.7917 177.013 23.8464 178.367 25.1484C179.747 26.4505 180.789 27.9609 181.492 29.6797C182.221 31.3984 182.664 33.1302 182.82 34.875H175.867C175.607 32.6354 174.708 30.7604 173.172 29.25C171.661 27.7135 169.201 26.9453 165.789 26.9453C163.914 26.9453 162.273 27.2969 160.867 28C159.461 28.7031 158.289 29.6536 157.352 30.8516C156.414 32.0495 155.698 33.4297 155.203 34.9922C154.734 36.5286 154.5 38.1432 154.5 39.8359C154.5 41.5547 154.721 43.1823 155.164 44.7188C155.633 46.2552 156.349 47.6224 157.312 48.8203C158.276 49.9922 159.487 50.9297 160.945 51.6328C162.404 52.3099 164.148 52.6484 166.18 52.6484C169.227 52.6484 171.466 52.0104 172.898 50.7344C174.357 49.4323 175.372 47.7005 175.945 45.5391H182.898C182.638 47.4141 182.078 49.1589 181.219 50.7734C180.385 52.388 179.253 53.7943 177.82 54.9922C176.414 56.1901 174.695 57.1406 172.664 57.8438C170.633 58.5469 168.315 58.8984 165.711 58.8984C162.716 58.8984 160.099 58.3646 157.859 57.2969C155.62 56.2292 153.719 54.8099 152.156 53.0391C150.62 51.2682 149.461 49.237 148.68 46.9453C147.924 44.6536 147.547 42.2839 147.547 39.8359ZM189.734 39.8359C189.734 37.2839 190.19 34.849 191.102 32.5312C192.013 30.2135 193.276 28.1693 194.891 26.3984C196.531 24.6276 198.497 23.2474 200.789 22.2578C203.081 21.2422 205.607 20.7344 208.367 20.7344C211.023 20.7344 213.51 21.3724 215.828 22.6484C218.172 23.9245 219.93 25.6823 221.102 27.9219V21.6719H227.977V58H221.102V51.6719C219.93 53.9115 218.185 55.6823 215.867 56.9844C213.549 58.2604 211.049 58.8984 208.367 58.8984C205.607 58.8984 203.081 58.3906 200.789 57.375C198.497 56.3594 196.531 54.9792 194.891 53.2344C193.276 51.4635 192.013 49.4323 191.102 47.1406C190.19 44.8229 189.734 42.388 189.734 39.8359ZM196.609 39.8359C196.609 41.6068 196.896 43.2604 197.469 44.7969C198.068 46.3333 198.888 47.6875 199.93 48.8594C200.971 50.0052 202.234 50.9297 203.719 51.6328C205.203 52.3099 206.883 52.6484 208.758 52.6484C210.633 52.6484 212.326 52.3099 213.836 51.6328C215.372 50.9297 216.674 50.0052 217.742 48.8594C218.81 47.6875 219.63 46.3333 220.203 44.7969C220.802 43.2604 221.102 41.6068 221.102 39.8359C221.102 38.0651 220.802 36.4115 220.203 34.875C219.63 33.3385 218.81 31.9844 217.742 30.8125C216.674 29.6406 215.372 28.7031 213.836 28C212.326 27.2969 210.633 26.9453 208.758 26.9453C206.883 26.9453 205.203 27.2969 203.719 28C202.234 28.7031 200.971 29.6406 199.93 30.8125C198.888 31.9844 198.068 33.3516 197.469 34.9141C196.896 36.4505 196.609 38.0911 196.609 39.8359ZM235.789 27.5312V21.6719H242.508V9.44531H249.461V21.6719H258.914V27.5312H249.461V44.25C249.461 46.0208 249.604 47.4271 249.891 48.4688C250.203 49.4844 250.62 50.2786 251.141 50.8516C251.688 51.3984 252.312 51.75 253.016 51.9062C253.745 52.0625 254.565 52.1406 255.477 52.1406C256.232 52.1406 257.065 52.1146 257.977 52.0625C258.914 52.0104 259.656 51.9323 260.203 51.8281V58C259.5 58.1042 258.576 58.2083 257.43 58.3125C256.284 58.4167 255.125 58.4688 253.953 58.4688C252.833 58.4688 251.596 58.3646 250.242 58.1562C248.914 57.9479 247.677 57.4271 246.531 56.5938C245.385 55.7604 244.422 54.4974 243.641 52.8047C242.885 51.0859 242.508 48.7422 242.508 45.7734V27.5312H235.789ZM265.516 7.92188C265.516 6.38542 266.049 5.05729 267.117 3.9375C268.185 2.81771 269.5 2.25781 271.062 2.25781C272.599 2.25781 273.927 2.81771 275.047 3.9375C276.167 5.05729 276.727 6.38542 276.727 7.92188C276.727 9.45833 276.167 10.7604 275.047 11.8281C273.927 12.8958 272.599 13.4297 271.062 13.4297C269.526 13.4297 268.211 12.8958 267.117 11.8281C266.049 10.7604 265.516 9.45833 265.516 7.92188ZM267.625 58V21.6719H274.578V58H267.625ZM284.109 39.8359C284.109 37.2839 284.565 34.849 285.477 32.5312C286.388 30.2135 287.664 28.1693 289.305 26.3984C290.971 24.6276 292.977 23.2474 295.32 22.2578C297.664 21.2422 300.268 20.7344 303.133 20.7344C306.076 20.7344 308.719 21.2422 311.062 22.2578C313.406 23.2474 315.411 24.6276 317.078 26.3984C318.771 28.1693 320.073 30.2135 320.984 32.5312C321.896 34.849 322.352 37.2839 322.352 39.8359C322.352 42.388 321.896 44.8229 320.984 47.1406C320.073 49.4323 318.771 51.4635 317.078 53.2344C315.411 54.9792 313.406 56.3594 311.062 57.375C308.719 58.3906 306.076 58.8984 303.133 58.8984C300.242 58.8984 297.625 58.3906 295.281 57.375C292.964 56.3594 290.971 54.9792 289.305 53.2344C287.664 51.4635 286.388 49.4323 285.477 47.1406C284.565 44.8229 284.109 42.388 284.109 39.8359ZM290.984 39.8359C290.984 41.6068 291.271 43.2604 291.844 44.7969C292.443 46.3333 293.263 47.6875 294.305 48.8594C295.346 50.0052 296.609 50.9297 298.094 51.6328C299.578 52.3099 301.258 52.6484 303.133 52.6484C305.008 52.6484 306.701 52.3099 308.211 51.6328C309.747 50.9297 311.049 50.0052 312.117 48.8594C313.185 47.6875 314.005 46.3333 314.578 44.7969C315.177 43.2604 315.477 41.6068 315.477 39.8359C315.477 38.0651 315.177 36.4115 314.578 34.875C314.005 33.3385 313.185 31.9844 312.117 30.8125C311.049 29.6406 309.747 28.7031 308.211 28C306.701 27.2969 305.008 26.9453 303.133 26.9453C301.258 26.9453 299.578 27.2969 298.094 28C296.609 28.7031 295.346 29.6406 294.305 30.8125C293.263 31.9844 292.443 33.3516 291.844 34.9141C291.271 36.4505 290.984 38.0911 290.984 39.8359ZM331.844 58V21.6719H338.797V28.0781C339.865 25.8385 341.492 24.0547 343.68 22.7266C345.867 21.3984 348.51 20.7344 351.609 20.7344C354.161 20.7344 356.336 21.151 358.133 21.9844C359.956 22.7917 361.401 23.9766 362.469 25.5391C363.484 26.9193 364.201 28.4688 364.617 30.1875C365.06 31.8802 365.281 34.0026 365.281 36.5547V58H358.328V38.7031C358.328 37.0625 358.159 35.513 357.82 34.0547C357.508 32.5703 356.987 31.3073 356.258 30.2656C355.555 29.224 354.617 28.4036 353.445 27.8047C352.273 27.1797 350.828 26.8672 349.109 26.8672C347.339 26.8672 345.815 27.2188 344.539 27.9219C343.263 28.625 342.195 29.5495 341.336 30.6953C340.503 31.8411 339.865 33.1562 339.422 34.6406C339.005 36.125 338.797 37.6745 338.797 39.2891V58H331.844Z" fill="#4D4D4D"/>
<path d="M48 25.5C48 43 25.5 58 25.5 58C25.5 58 3 43 3 25.5C3 19.5326 5.37053 13.8097 9.5901 9.5901C13.8097 5.37053 19.5326 3 25.5 3C31.4674 3 37.1903 5.37053 41.4099 9.5901C45.6295 13.8097 48 19.5326 48 25.5Z" stroke="#4D4D4D" stroke-width="5" stroke-linecap="round" stroke-linejoin="round"/>
<path d="M25.5 33C29.6421 33 33 29.6421 33 25.5C33 21.3579 29.6421 18 25.5 18C21.3579 18 18 21.3579 18 25.5C18 29.6421 21.3579 33 25.5 33Z" stroke="#4D4D4D" stroke-width="5" stroke-linecap="round" stroke-linejoin="round"/>
</svg>
