<svg width="238" height="87" viewBox="0 0 238 87" fill="none" xmlns="http://www.w3.org/2000/svg">
<rect width="238" height="87" rx="5" fill="#60B6E9"/>
<path d="M34.75 59V25.3906H46.5625C48.3281 25.3906 49.9062 25.6953 51.2969 26.3047C52.7031 26.9141 53.9062 27.75 54.9062 28.8125C55.9219 29.8594 56.7031 31.0781 57.25 32.4688C57.7969 33.8438 58.0703 35.2969 58.0703 36.8281C58.0703 38.0469 57.8984 39.2266 57.5547 40.3672C57.2266 41.4922 56.7344 42.5234 56.0781 43.4609C55.4219 44.3828 54.6328 45.2031 53.7109 45.9219C52.8047 46.6406 51.7812 47.1953 50.6406 47.5859L57.6953 59H52.7031L46.0234 48.2891H39.1094V59H34.75ZM39.1094 44.3047H46.5625C47.6562 44.3047 48.6406 44.1094 49.5156 43.7188C50.3906 43.3125 51.1406 42.7734 51.7656 42.1016C52.3906 41.4297 52.8672 40.6406 53.1953 39.7344C53.5391 38.8125 53.7109 37.8438 53.7109 36.8281C53.7109 35.8438 53.5391 34.8984 53.1953 33.9922C52.8672 33.0703 52.3906 32.2656 51.7656 31.5781C51.1406 30.8906 50.3828 30.3438 49.4922 29.9375C48.6172 29.5312 47.6406 29.3281 46.5625 29.3281H39.1094V44.3047ZM61.0469 48.1016C61.0469 46.4766 61.2891 44.9609 61.7734 43.5547C62.2578 42.1328 62.9531 40.9141 63.8594 39.8984C64.7656 38.8672 65.8828 38.0703 67.2109 37.5078C68.5391 36.9297 70.0703 36.6406 71.8047 36.6406C73.2109 36.6406 74.5312 36.8906 75.7656 37.3906C77 37.875 78.0703 38.5703 78.9766 39.4766C79.8828 40.3672 80.5938 41.4141 81.1094 42.6172C81.625 43.8047 81.8828 45.0859 81.8828 46.4609C81.8828 46.7734 81.875 47.1562 81.8594 47.6094C81.8438 48.0625 81.7891 48.5938 81.6953 49.2031H65.1719C65.2031 50.125 65.3516 51 65.6172 51.8281C65.8984 52.6406 66.3047 53.3594 66.8359 53.9844C67.3672 54.6094 68.0469 55.1094 68.875 55.4844C69.7031 55.8438 70.7266 56.0234 71.9453 56.0234C73.5703 56.0234 74.8047 55.6797 75.6484 54.9922C76.5078 54.3047 77.1094 53.5 77.4531 52.5781H81.6953C81.5078 53.5 81.1562 54.375 80.6406 55.2031C80.125 56.0312 79.4453 56.7656 78.6016 57.4062C77.7734 58.0469 76.7969 58.5625 75.6719 58.9531C74.5625 59.3438 73.3203 59.5391 71.9453 59.5391C70.1172 59.5391 68.5156 59.2344 67.1406 58.625C65.7656 58.0156 64.625 57.2031 63.7188 56.1875C62.8281 55.1562 62.1562 53.9453 61.7031 52.5547C61.2656 51.1484 61.0469 49.6641 61.0469 48.1016ZM65.2188 46.0391H77.8516C77.8516 44.1172 77.2656 42.6094 76.0938 41.5156C74.9375 40.4062 73.4766 39.8516 71.7109 39.8516C69.8203 39.8516 68.2812 40.3906 67.0938 41.4688C65.9062 42.5312 65.2812 44.0547 65.2188 46.0391ZM86.1719 48.1016C86.1719 46.5703 86.4453 45.1094 86.9922 43.7188C87.5391 42.3281 88.2969 41.1016 89.2656 40.0391C90.25 38.9766 91.4297 38.1484 92.8047 37.5547C94.1797 36.9453 95.6953 36.6406 97.3516 36.6406C98.9453 36.6406 100.438 37.0234 101.828 37.7891C103.234 38.5547 104.289 39.6094 104.992 40.9531V37.2031H109.117V60.3828C109.117 62.3359 108.852 64 108.32 65.375C107.789 66.75 107.016 67.875 106 68.75C105 69.6406 103.789 70.2812 102.367 70.6719C100.945 71.0781 99.3203 71.2812 97.4922 71.2812C95.6328 71.2812 94.0234 71.0156 92.6641 70.4844C91.3047 69.9688 90.1797 69.2656 89.2891 68.375C88.3984 67.5 87.7188 66.4844 87.25 65.3281C86.7812 64.1875 86.5156 63.0078 86.4531 61.7891H90.6719C90.7344 62.5547 90.9062 63.2891 91.1875 63.9922C91.4844 64.6953 91.9062 65.3125 92.4531 65.8438C93 66.375 93.6875 66.7969 94.5156 67.1094C95.3594 67.4375 96.3516 67.6016 97.4922 67.6016C99.8359 67.6016 101.672 67.0391 103 65.9141C104.328 64.7891 104.992 62.9453 104.992 60.3828V55.2031C104.289 56.5469 103.242 57.6094 101.852 58.3906C100.461 59.1562 98.9609 59.5391 97.3516 59.5391C95.6953 59.5391 94.1797 59.2344 92.8047 58.625C91.4297 58.0156 90.25 57.1875 89.2656 56.1406C88.2969 55.0781 87.5391 53.8594 86.9922 52.4844C86.4453 51.0938 86.1719 49.6328 86.1719 48.1016ZM90.2969 48.1016C90.2969 49.1641 90.4688 50.1562 90.8125 51.0781C91.1719 52 91.6641 52.8125 92.2891 53.5156C92.9141 54.2031 93.6719 54.7578 94.5625 55.1797C95.4688 55.5859 96.4766 55.7891 97.5859 55.7891C98.7109 55.7891 99.7266 55.5859 100.633 55.1797C101.555 54.7578 102.336 54.2031 102.977 53.5156C103.617 52.8125 104.109 52 104.453 51.0781C104.812 50.1562 104.992 49.1641 104.992 48.1016C104.992 47.0391 104.812 46.0469 104.453 45.125C104.109 44.2031 103.617 43.3906 102.977 42.6875C102.336 41.9844 101.555 41.4219 100.633 41C99.7266 40.5781 98.7109 40.3672 97.5859 40.3672C96.4609 40.3672 95.4531 40.5781 94.5625 41C93.6719 41.4219 92.9141 41.9844 92.2891 42.6875C91.6641 43.3906 91.1719 44.2109 90.8125 45.1484C90.4688 46.0703 90.2969 47.0547 90.2969 48.1016ZM115.234 28.9531C115.234 28.0312 115.555 27.2344 116.195 26.5625C116.836 25.8906 117.625 25.5547 118.562 25.5547C119.484 25.5547 120.281 25.8906 120.953 26.5625C121.625 27.2344 121.961 28.0312 121.961 28.9531C121.961 29.875 121.625 30.6562 120.953 31.2969C120.281 31.9375 119.484 32.2578 118.562 32.2578C117.641 32.2578 116.852 31.9375 116.195 31.2969C115.555 30.6562 115.234 29.875 115.234 28.9531ZM116.5 59V37.2031H120.672V59H116.5ZM126.344 51.6641H130.422C130.422 53.3203 130.906 54.4922 131.875 55.1797C132.859 55.8672 134.086 56.2109 135.555 56.2109C136.898 56.2109 137.961 55.9688 138.742 55.4844C139.539 54.9844 139.938 54.1875 139.938 53.0938C139.938 52.4844 139.773 52 139.445 51.6406C139.133 51.2656 138.68 50.9375 138.086 50.6562C137.492 50.3594 136.758 50.0938 135.883 49.8594C135.023 49.6094 134.055 49.2969 132.977 48.9219C132.148 48.6719 131.367 48.4062 130.633 48.125C129.914 47.8281 129.289 47.4531 128.758 47C128.242 46.5469 127.828 46 127.516 45.3594C127.219 44.7188 127.07 43.9062 127.07 42.9219C127.07 41.8906 127.273 40.9844 127.68 40.2031C128.102 39.4219 128.68 38.7656 129.414 38.2344C130.148 37.7031 131.008 37.3047 131.992 37.0391C132.992 36.7734 134.055 36.6406 135.18 36.6406C136.367 36.6406 137.469 36.8203 138.484 37.1797C139.516 37.5234 140.406 38.0234 141.156 38.6797C141.906 39.3359 142.492 40.1094 142.914 41C143.352 41.8906 143.57 42.8828 143.57 43.9766H139.539C139.539 42.6953 139.164 41.7109 138.414 41.0234C137.664 40.3359 136.57 39.9922 135.133 39.9922C133.977 39.9922 133.016 40.25 132.25 40.7656C131.484 41.2812 131.102 42.0312 131.102 43.0156C131.102 43.5625 131.234 44.0156 131.5 44.375C131.766 44.7188 132.172 45.0234 132.719 45.2891C133.266 45.5391 133.922 45.7891 134.688 46.0391C135.453 46.2734 136.352 46.5469 137.383 46.8594C138.211 47.1094 139.016 47.3828 139.797 47.6797C140.594 47.9609 141.289 48.3281 141.883 48.7812C142.492 49.2188 142.977 49.7734 143.336 50.4453C143.711 51.1172 143.898 51.9688 143.898 53C143.898 54.0938 143.68 55.0469 143.242 55.8594C142.82 56.6719 142.227 57.3516 141.461 57.8984C140.695 58.4453 139.789 58.8516 138.742 59.1172C137.711 59.3984 136.586 59.5391 135.367 59.5391C134.148 59.5391 132.992 59.375 131.898 59.0469C130.82 58.7344 129.867 58.25 129.039 57.5938C128.227 56.9375 127.57 56.1172 127.07 55.1328C126.586 54.1328 126.344 52.9766 126.344 51.6641ZM146.195 40.7188V37.2031H150.227V29.8672H154.398V37.2031H160.07V40.7188H154.398V50.75C154.398 51.8125 154.484 52.6562 154.656 53.2812C154.844 53.8906 155.094 54.3672 155.406 54.7109C155.734 55.0391 156.109 55.25 156.531 55.3438C156.969 55.4375 157.461 55.4844 158.008 55.4844C158.461 55.4844 158.961 55.4688 159.508 55.4375C160.07 55.4062 160.516 55.3594 160.844 55.2969V59C160.422 59.0625 159.867 59.125 159.18 59.1875C158.492 59.25 157.797 59.2812 157.094 59.2812C156.422 59.2812 155.68 59.2188 154.867 59.0938C154.07 58.9688 153.328 58.6562 152.641 58.1562C151.953 57.6562 151.375 56.8984 150.906 55.8828C150.453 54.8516 150.227 53.4453 150.227 51.6641V40.7188H146.195ZM163.141 48.1016C163.141 46.4766 163.383 44.9609 163.867 43.5547C164.352 42.1328 165.047 40.9141 165.953 39.8984C166.859 38.8672 167.977 38.0703 169.305 37.5078C170.633 36.9297 172.164 36.6406 173.898 36.6406C175.305 36.6406 176.625 36.8906 177.859 37.3906C179.094 37.875 180.164 38.5703 181.07 39.4766C181.977 40.3672 182.688 41.4141 183.203 42.6172C183.719 43.8047 183.977 45.0859 183.977 46.4609C183.977 46.7734 183.969 47.1562 183.953 47.6094C183.938 48.0625 183.883 48.5938 183.789 49.2031H167.266C167.297 50.125 167.445 51 167.711 51.8281C167.992 52.6406 168.398 53.3594 168.93 53.9844C169.461 54.6094 170.141 55.1094 170.969 55.4844C171.797 55.8438 172.82 56.0234 174.039 56.0234C175.664 56.0234 176.898 55.6797 177.742 54.9922C178.602 54.3047 179.203 53.5 179.547 52.5781H183.789C183.602 53.5 183.25 54.375 182.734 55.2031C182.219 56.0312 181.539 56.7656 180.695 57.4062C179.867 58.0469 178.891 58.5625 177.766 58.9531C176.656 59.3438 175.414 59.5391 174.039 59.5391C172.211 59.5391 170.609 59.2344 169.234 58.625C167.859 58.0156 166.719 57.2031 165.812 56.1875C164.922 55.1562 164.25 53.9453 163.797 52.5547C163.359 51.1484 163.141 49.6641 163.141 48.1016ZM167.312 46.0391H179.945C179.945 44.1172 179.359 42.6094 178.188 41.5156C177.031 40.4062 175.57 39.8516 173.805 39.8516C171.914 39.8516 170.375 40.3906 169.188 41.4688C168 42.5312 167.375 44.0547 167.312 46.0391ZM190.047 59V37.2031H194.219V41.4688C194.797 40.0938 195.766 38.9844 197.125 38.1406C198.484 37.2969 199.93 36.875 201.461 36.875C202.289 36.875 202.977 36.9844 203.523 37.2031V41.0469C203.07 40.9531 202.711 40.8906 202.445 40.8594C202.18 40.8281 201.852 40.8125 201.461 40.8125C199.023 40.8125 197.203 41.6016 196 43.1797C194.812 44.7422 194.219 46.8281 194.219 49.4375V59H190.047Z" fill="white"/>
</svg>
