<svg width="184" height="48" viewBox="0 0 184 48" fill="none" xmlns="http://www.w3.org/2000/svg">
<path d="M1.61719 26.9668H4.9043C4.9043 28.6895 5.41992 30.0664 6.45117 31.0977C7.48242 32.1172 8.85938 32.627 10.582 32.627C12.0469 32.627 13.248 32.2461 14.1855 31.4844C15.123 30.7109 15.5918 29.6621 15.5918 28.3379C15.5918 27.5645 15.4453 26.9316 15.1523 26.4395C14.8711 25.9355 14.4961 25.5078 14.0273 25.1562C13.5586 24.8047 13.043 24.5293 12.4805 24.3301C11.918 24.1191 11.3555 23.9316 10.793 23.7676C9.66797 23.4043 8.60156 23.0352 7.59375 22.6602C6.58594 22.2734 5.70117 21.7988 4.93945 21.2363C4.18945 20.6738 3.59766 19.9707 3.16406 19.127C2.73047 18.2832 2.51367 17.2285 2.51367 15.9629C2.51367 14.9551 2.71289 14.041 3.11133 13.2207C3.50977 12.4004 4.05469 11.6914 4.74609 11.0938C5.44922 10.4961 6.28125 10.0391 7.24219 9.72266C8.20312 9.39453 9.24609 9.23047 10.3711 9.23047C11.5195 9.23047 12.5742 9.41797 13.5352 9.79297C14.4961 10.1563 15.3223 10.6777 16.0137 11.3574C16.7168 12.0254 17.2676 12.834 17.666 13.7832C18.0762 14.7324 18.2812 15.7813 18.2812 16.9297H15.0117C14.9883 15.4883 14.5723 14.3398 13.7637 13.4844C12.9668 12.6172 11.8594 12.1836 10.4414 12.1836C9.04688 12.1836 7.92188 12.5176 7.06641 13.1855C6.22266 13.8535 5.80078 14.7793 5.80078 15.9629C5.80078 16.6543 5.92969 17.2344 6.1875 17.7031C6.45703 18.1719 6.80859 18.5703 7.24219 18.8984C7.67578 19.2148 8.17383 19.4902 8.73633 19.7246C9.29883 19.9473 9.87891 20.1406 10.4766 20.3047C11.4375 20.6211 12.416 20.9727 13.4121 21.3594C14.4082 21.7461 15.3105 22.2266 16.1191 22.8008C16.9395 23.375 17.6016 24.0781 18.1055 24.9102C18.6094 25.7305 18.8613 26.7559 18.8613 27.9863C18.8613 29.2051 18.6387 30.2891 18.1934 31.2383C17.748 32.1875 17.1387 32.9844 16.3652 33.6289C15.6035 34.2734 14.707 34.7598 13.6758 35.0879C12.6445 35.416 11.5312 35.5801 10.3359 35.5801C9.11719 35.5801 7.97461 35.3809 6.9082 34.9824C5.85352 34.584 4.93359 34.0215 4.14844 33.2949C3.375 32.5566 2.75977 31.6543 2.30273 30.5879C1.8457 29.5215 1.61719 28.3145 1.61719 26.9668ZM22.1133 26.8262C22.1133 25.6074 22.2949 24.4707 22.6582 23.416C23.0215 22.3496 23.543 21.4355 24.2227 20.6738C24.9023 19.9004 25.7402 19.3027 26.7363 18.8809C27.7324 18.4473 28.8809 18.2305 30.1816 18.2305C31.2363 18.2305 32.2266 18.418 33.1523 18.793C34.0781 19.1562 34.8809 19.6777 35.5605 20.3574C36.2402 21.0254 36.7734 21.8105 37.1602 22.7129C37.5469 23.6035 37.7402 24.5645 37.7402 25.5957C37.7402 25.8301 37.7344 26.1172 37.7227 26.457C37.7109 26.7969 37.6699 27.1953 37.5996 27.6523H25.207C25.2305 28.3438 25.3418 29 25.541 29.6211C25.752 30.2305 26.0566 30.7695 26.4551 31.2383C26.8535 31.707 27.3633 32.082 27.9844 32.3633C28.6055 32.6328 29.373 32.7676 30.2871 32.7676C31.5059 32.7676 32.4316 32.5098 33.0645 31.9941C33.709 31.4785 34.1602 30.875 34.418 30.1836H37.5996C37.459 30.875 37.1953 31.5312 36.8086 32.1523C36.4219 32.7734 35.9121 33.3242 35.2793 33.8047C34.6582 34.2852 33.9258 34.6719 33.082 34.9648C32.25 35.2578 31.3184 35.4043 30.2871 35.4043C28.916 35.4043 27.7148 35.1758 26.6836 34.7188C25.6523 34.2617 24.7969 33.6523 24.1172 32.8906C23.4492 32.1172 22.9453 31.209 22.6055 30.166C22.2773 29.1113 22.1133 27.998 22.1133 26.8262ZM25.2422 25.2793H34.7168C34.7168 23.8379 34.2773 22.707 33.3984 21.8867C32.5312 21.0547 31.4355 20.6387 30.1113 20.6387C28.6934 20.6387 27.5391 21.043 26.6484 21.8516C25.7578 22.6484 25.2891 23.791 25.2422 25.2793ZM41.0273 26.8262C41.0273 25.6074 41.209 24.4707 41.5723 23.416C41.9355 22.3496 42.457 21.4355 43.1367 20.6738C43.8164 19.9004 44.6543 19.3027 45.6504 18.8809C46.6465 18.4473 47.7949 18.2305 49.0957 18.2305C50.1504 18.2305 51.1406 18.418 52.0664 18.793C52.9922 19.1562 53.7949 19.6777 54.4746 20.3574C55.1543 21.0254 55.6875 21.8105 56.0742 22.7129C56.4609 23.6035 56.6543 24.5645 56.6543 25.5957C56.6543 25.8301 56.6484 26.1172 56.6367 26.457C56.625 26.7969 56.584 27.1953 56.5137 27.6523H44.1211C44.1445 28.3438 44.2559 29 44.4551 29.6211C44.666 30.2305 44.9707 30.7695 45.3691 31.2383C45.7676 31.707 46.2773 32.082 46.8984 32.3633C47.5195 32.6328 48.2871 32.7676 49.2012 32.7676C50.4199 32.7676 51.3457 32.5098 51.9785 31.9941C52.623 31.4785 53.0742 30.875 53.332 30.1836H56.5137C56.373 30.875 56.1094 31.5312 55.7227 32.1523C55.3359 32.7734 54.8262 33.3242 54.1934 33.8047C53.5723 34.2852 52.8398 34.6719 51.9961 34.9648C51.1641 35.2578 50.2324 35.4043 49.2012 35.4043C47.8301 35.4043 46.6289 35.1758 45.5977 34.7188C44.5664 34.2617 43.7109 33.6523 43.0312 32.8906C42.3633 32.1172 41.8594 31.209 41.5195 30.166C41.1914 29.1113 41.0273 27.998 41.0273 26.8262ZM44.1562 25.2793H53.6309C53.6309 23.8379 53.1914 22.707 52.3125 21.8867C51.4453 21.0547 50.3496 20.6387 49.0254 20.6387C47.6074 20.6387 46.4531 21.043 45.5625 21.8516C44.6719 22.6484 44.2031 23.791 44.1562 25.2793ZM70.3125 35V9.79297H73.4414V35H70.3125ZM77.8008 26.8262C77.8008 25.6074 77.9824 24.4707 78.3457 23.416C78.709 22.3496 79.2305 21.4355 79.9102 20.6738C80.5898 19.9004 81.4277 19.3027 82.4238 18.8809C83.4199 18.4473 84.5684 18.2305 85.8691 18.2305C86.9238 18.2305 87.9141 18.418 88.8398 18.793C89.7656 19.1562 90.5684 19.6777 91.248 20.3574C91.9277 21.0254 92.4609 21.8105 92.8477 22.7129C93.2344 23.6035 93.4277 24.5645 93.4277 25.5957C93.4277 25.8301 93.4219 26.1172 93.4102 26.457C93.3984 26.7969 93.3574 27.1953 93.2871 27.6523H80.8945C80.918 28.3438 81.0293 29 81.2285 29.6211C81.4395 30.2305 81.7441 30.7695 82.1426 31.2383C82.541 31.707 83.0508 32.082 83.6719 32.3633C84.293 32.6328 85.0605 32.7676 85.9746 32.7676C87.1934 32.7676 88.1191 32.5098 88.752 31.9941C89.3965 31.4785 89.8477 30.875 90.1055 30.1836H93.2871C93.1465 30.875 92.8828 31.5312 92.4961 32.1523C92.1094 32.7734 91.5996 33.3242 90.9668 33.8047C90.3457 34.2852 89.6133 34.6719 88.7695 34.9648C87.9375 35.2578 87.0059 35.4043 85.9746 35.4043C84.6035 35.4043 83.4023 35.1758 82.3711 34.7188C81.3398 34.2617 80.4844 33.6523 79.8047 32.8906C79.1367 32.1172 78.6328 31.209 78.293 30.166C77.9648 29.1113 77.8008 27.998 77.8008 26.8262ZM80.9297 25.2793H90.4043C90.4043 23.8379 89.9648 22.707 89.0859 21.8867C88.2188 21.0547 87.123 20.6387 85.7988 20.6387C84.3809 20.6387 83.2266 21.043 82.3359 21.8516C81.4453 22.6484 80.9766 23.791 80.9297 25.2793ZM96.6094 29.498H99.668C99.668 30.7402 100.031 31.6191 100.758 32.1348C101.496 32.6504 102.416 32.9082 103.518 32.9082C104.525 32.9082 105.322 32.7266 105.908 32.3633C106.506 31.9883 106.805 31.3906 106.805 30.5703C106.805 30.1133 106.682 29.75 106.436 29.4805C106.201 29.1992 105.861 28.9531 105.416 28.7422C104.971 28.5195 104.42 28.3203 103.764 28.1445C103.119 27.957 102.393 27.7227 101.584 27.4414C100.963 27.2539 100.377 27.0547 99.8262 26.8438C99.2871 26.6211 98.8184 26.3398 98.4199 26C98.0332 25.6602 97.7227 25.25 97.4883 24.7695C97.2656 24.2891 97.1543 23.6797 97.1543 22.9414C97.1543 22.168 97.3066 21.4883 97.6113 20.9023C97.9277 20.3164 98.3613 19.8242 98.9121 19.4258C99.4629 19.0273 100.107 18.7285 100.846 18.5293C101.596 18.3301 102.393 18.2305 103.236 18.2305C104.127 18.2305 104.953 18.3652 105.715 18.6348C106.488 18.8926 107.156 19.2676 107.719 19.7598C108.281 20.252 108.721 20.832 109.037 21.5C109.365 22.168 109.529 22.9121 109.529 23.7324H106.506C106.506 22.7715 106.225 22.0332 105.662 21.5176C105.1 21.002 104.279 20.7441 103.201 20.7441C102.334 20.7441 101.613 20.9375 101.039 21.3242C100.465 21.7109 100.178 22.2734 100.178 23.0117C100.178 23.4219 100.277 23.7617 100.477 24.0312C100.676 24.2891 100.98 24.5176 101.391 24.7168C101.801 24.9043 102.293 25.0918 102.867 25.2793C103.441 25.4551 104.115 25.6602 104.889 25.8945C105.51 26.082 106.113 26.2871 106.699 26.5098C107.297 26.7207 107.818 26.9961 108.264 27.3359C108.721 27.6641 109.084 28.0801 109.354 28.584C109.635 29.0879 109.775 29.7266 109.775 30.5C109.775 31.3203 109.611 32.0352 109.283 32.6445C108.967 33.2539 108.521 33.7637 107.947 34.1738C107.373 34.584 106.693 34.8887 105.908 35.0879C105.135 35.2988 104.291 35.4043 103.377 35.4043C102.463 35.4043 101.596 35.2812 100.775 35.0352C99.9668 34.8008 99.252 34.4375 98.6309 33.9453C98.0215 33.4531 97.5293 32.8379 97.1543 32.0996C96.791 31.3496 96.6094 30.4824 96.6094 29.498ZM112.887 29.498H115.945C115.945 30.7402 116.309 31.6191 117.035 32.1348C117.773 32.6504 118.693 32.9082 119.795 32.9082C120.803 32.9082 121.6 32.7266 122.186 32.3633C122.783 31.9883 123.082 31.3906 123.082 30.5703C123.082 30.1133 122.959 29.75 122.713 29.4805C122.479 29.1992 122.139 28.9531 121.693 28.7422C121.248 28.5195 120.697 28.3203 120.041 28.1445C119.396 27.957 118.67 27.7227 117.861 27.4414C117.24 27.2539 116.654 27.0547 116.104 26.8438C115.564 26.6211 115.096 26.3398 114.697 26C114.311 25.6602 114 25.25 113.766 24.7695C113.543 24.2891 113.432 23.6797 113.432 22.9414C113.432 22.168 113.584 21.4883 113.889 20.9023C114.205 20.3164 114.639 19.8242 115.189 19.4258C115.74 19.0273 116.385 18.7285 117.123 18.5293C117.873 18.3301 118.67 18.2305 119.514 18.2305C120.404 18.2305 121.23 18.3652 121.992 18.6348C122.766 18.8926 123.434 19.2676 123.996 19.7598C124.559 20.252 124.998 20.832 125.314 21.5C125.643 22.168 125.807 22.9121 125.807 23.7324H122.783C122.783 22.7715 122.502 22.0332 121.939 21.5176C121.377 21.002 120.557 20.7441 119.479 20.7441C118.611 20.7441 117.891 20.9375 117.316 21.3242C116.742 21.7109 116.455 22.2734 116.455 23.0117C116.455 23.4219 116.555 23.7617 116.754 24.0312C116.953 24.2891 117.258 24.5176 117.668 24.7168C118.078 24.9043 118.57 25.0918 119.145 25.2793C119.719 25.4551 120.393 25.6602 121.166 25.8945C121.787 26.082 122.391 26.2871 122.977 26.5098C123.574 26.7207 124.096 26.9961 124.541 27.3359C124.998 27.6641 125.361 28.0801 125.631 28.584C125.912 29.0879 126.053 29.7266 126.053 30.5C126.053 31.3203 125.889 32.0352 125.561 32.6445C125.244 33.2539 124.799 33.7637 124.225 34.1738C123.65 34.584 122.971 34.8887 122.186 35.0879C121.412 35.2988 120.568 35.4043 119.654 35.4043C118.74 35.4043 117.873 35.2812 117.053 35.0352C116.244 34.8008 115.529 34.4375 114.908 33.9453C114.299 33.4531 113.807 32.8379 113.432 32.0996C113.068 31.3496 112.887 30.4824 112.887 29.498Z" fill="#00B0FF"/>
<path d="M182 31L167 16L152 31" stroke="#00B0FF" stroke-width="4" stroke-linecap="round" stroke-linejoin="round"/>
</svg>
