<svg width="240" height="240" viewBox="0 0 240 240" fill="none" xmlns="http://www.w3.org/2000/svg">
<rect width="240" height="240" rx="120" fill="white"/>
<path d="M67.8175 143.746C67.8175 154.153 59.3159 162.654 48.9087 162.654C38.5016 162.654 30 154.153 30 143.746C30 133.339 38.5016 124.837 48.9087 124.837H67.8175V143.746Z" fill="#E01E5A"/>
<path d="M77.3452 143.746C77.3452 133.339 85.8468 124.837 96.254 124.837C106.661 124.837 115.163 133.339 115.163 143.746V191.091C115.163 201.498 106.661 210 96.254 210C85.8468 210 77.3452 201.498 77.3452 191.091V143.746Z" fill="#E01E5A"/>
<path d="M96.254 67.8175C85.8468 67.8175 77.3452 59.3159 77.3452 48.9087C77.3452 38.5016 85.8468 30 96.254 30C106.661 30 115.163 38.5016 115.163 48.9087V67.8175H96.254Z" fill="#36C5F0"/>
<path d="M96.2539 77.3447C106.661 77.3447 115.163 85.8463 115.163 96.2535C115.163 106.661 106.661 115.162 96.2539 115.162H48.9087C38.5016 115.162 30 106.661 30 96.2535C30 85.8463 38.5016 77.3447 48.9087 77.3447H96.2539Z" fill="#36C5F0"/>
<path d="M172.182 96.2535C172.182 85.8463 180.684 77.3447 191.091 77.3447C201.498 77.3447 209.999 85.8463 209.999 96.2535C209.999 106.661 201.498 115.162 191.091 115.162H172.182V96.2535Z" fill="#2EB67D"/>
<path d="M162.654 96.2539C162.654 106.661 154.153 115.163 143.746 115.163C133.338 115.163 124.837 106.661 124.837 96.2539V48.9087C124.837 38.5016 133.338 30 143.746 30C154.153 30 162.654 38.5016 162.654 48.9087V96.2539Z" fill="#2EB67D"/>
<path d="M143.746 172.182C154.153 172.182 162.654 180.683 162.654 191.09C162.654 201.498 154.153 209.999 143.746 209.999C133.338 209.999 124.837 201.498 124.837 191.09V172.182H143.746Z" fill="#ECB22E"/>
<path d="M143.746 162.654C133.338 162.654 124.837 154.153 124.837 143.746C124.837 133.339 133.338 124.837 143.746 124.837H191.091C201.498 124.837 209.999 133.339 209.999 143.746C209.999 154.153 201.498 162.654 191.091 162.654H143.746Z" fill="#ECB22E"/>
</svg>
