<svg width="240" height="240" viewBox="0 0 240 240" fill="none" xmlns="http://www.w3.org/2000/svg">
<path d="M24.3402 216.514L37.8102 167.339C29.5002 152.949 25.1302 136.619 25.1352 119.894C25.1602 67.569 67.7402 24.999 120.07 24.999C145.465 25.009 169.295 34.894 187.22 52.829C205.14 70.769 215.01 94.609 215 119.969C214.98 172.294 172.39 214.869 120.07 214.869C120.065 214.869 120.07 214.869 120.07 214.869H120.03C104.145 214.864 88.5302 210.879 74.6652 203.314L24.3402 216.514Z" fill="white"/>
<path d="M24.34 219.015C23.68 219.015 23.04 218.755 22.565 218.275C21.94 217.64 21.695 216.715 21.93 215.86L35.125 167.68C26.945 153.15 22.63 136.65 22.64 119.9C22.66 66.19 66.365 22.5 120.07 22.5C146.12 22.51 170.595 32.655 188.99 51.065C207.385 69.48 217.51 93.95 217.5 119.97C217.48 173.675 173.77 217.37 120.07 217.37C104.125 217.365 88.35 213.43 74.35 205.985L24.975 218.93C24.765 218.99 24.555 219.015 24.34 219.015Z" fill="white"/>
<path d="M120.07 25.001C145.465 25.011 169.295 34.896 187.22 52.831C205.14 70.771 215.01 94.611 215 119.971C214.98 172.296 172.39 214.871 120.07 214.871H120.03C104.145 214.866 88.5299 210.881 74.6649 203.316L24.3399 216.516L37.8099 167.341C29.4999 152.951 25.1299 136.621 25.1349 119.896C25.1599 67.571 67.74 25.001 120.07 25.001ZM120.07 20.001C64.99 20.001 20.1599 64.811 20.1349 119.896C20.1299 136.731 24.3799 153.321 32.4399 168.006L19.5149 215.201C19.0449 216.926 19.5249 218.766 20.7849 220.036C21.7349 220.996 23.0199 221.521 24.3399 221.521C24.7649 221.521 25.1899 221.466 25.6099 221.356L74.0449 208.656C88.1849 215.996 104.035 219.871 120.03 219.876C175.15 219.876 219.98 175.061 220.005 119.976C220.015 93.281 209.63 68.181 190.765 49.301C171.89 30.416 146.785 20.011 120.07 20.001Z" fill="#CFD8DC"/>
<path d="M175.88 64.1603C160.98 49.2503 141.175 41.0353 120.095 41.0303C76.5752 41.0303 41.1802 76.4103 41.1602 119.9C41.1552 134.805 45.3252 149.315 53.2252 161.88L55.1052 164.865L47.1302 193.97L76.9952 186.14L79.8802 187.85C91.9902 195.04 105.88 198.84 120.04 198.845H120.07C163.56 198.845 198.955 163.46 198.97 119.965C198.975 98.8903 190.78 79.0703 175.88 64.1603Z" fill="#40C351"/>
<path fill-rule="evenodd" clip-rule="evenodd" d="M96.3401 80.2254C94.5651 76.2754 92.6951 76.1954 91.0001 76.1254C89.6151 76.0654 88.0351 76.0704 86.4551 76.0704C84.8751 76.0704 82.3051 76.6654 80.1301 79.0404C77.9551 81.4154 71.8251 87.1504 71.8251 98.8204C71.8251 110.49 80.3251 121.77 81.5101 123.35C82.6951 124.93 97.9201 149.645 122.03 159.155C142.065 167.055 146.145 165.485 150.495 165.09C154.845 164.695 164.53 159.355 166.505 153.815C168.48 148.275 168.48 143.53 167.89 142.54C167.295 141.55 165.715 140.96 163.345 139.77C160.975 138.58 149.31 132.845 147.135 132.055C144.96 131.265 143.38 130.87 141.795 133.245C140.215 135.615 135.67 140.96 134.285 142.54C132.9 144.125 131.515 144.325 129.145 143.135C126.775 141.945 119.135 139.445 110.07 131.365C103.02 125.08 98.2601 117.315 96.8751 114.94C95.4901 112.57 96.7251 111.285 97.9151 110.1C98.9801 109.035 100.285 107.33 101.475 105.945C102.66 104.56 103.055 103.57 103.845 101.99C104.635 100.405 104.24 99.0204 103.645 97.8354C103.06 96.6454 98.4501 84.9154 96.3401 80.2254Z" fill="white"/>
</svg>
