<svg width="59" height="24" viewBox="0 0 59 24" fill="none" xmlns="http://www.w3.org/2000/svg">
<path d="M14 4L16.29 6.29L13.41 9.17L14.83 10.59L17.71 7.71L20 10V4H14ZM10 4H4V10L6.29 7.71L11 12.41V20H13V11.59L7.71 6.29L10 4Z" fill="black"/>
<path d="M29.36 17V6.52H35.6V7.944H31.04V11.096H34.912V12.52H31.04V17H29.36ZM40.1961 17.192C39.2255 17.192 38.3668 16.8347 37.6201 16.12C36.8841 15.4053 36.5161 14.3973 36.5161 13.096C36.5161 11.7947 36.8841 10.7867 37.6201 10.072C38.3668 9.34667 39.2255 8.984 40.1961 8.984C41.1668 8.984 42.0255 9.34667 42.7721 10.072C43.5188 10.7867 43.8921 11.7947 43.8921 13.096C43.8921 14.3973 43.5188 15.4053 42.7721 16.12C42.0255 16.8347 41.1668 17.192 40.1961 17.192ZM40.1961 15.832C40.8041 15.832 41.2841 15.5813 41.6361 15.08C41.9988 14.5787 42.1801 13.9173 42.1801 13.096C42.1801 12.2747 41.9988 11.6133 41.6361 11.112C41.2841 10.6 40.8041 10.344 40.1961 10.344C39.5881 10.344 39.1028 10.6 38.7401 11.112C38.3881 11.6133 38.2121 12.2747 38.2121 13.096C38.2121 13.9173 38.3881 14.5787 38.7401 15.08C39.1028 15.5813 39.5881 15.832 40.1961 15.832ZM45.7941 17V9.176H47.1701L47.2981 10.568H47.3461C47.9115 9.512 48.6528 8.984 49.5701 8.984C49.9221 8.984 50.2101 9.03733 50.4341 9.144L50.1461 10.584C50.0075 10.5413 49.8795 10.5093 49.7621 10.488C49.6555 10.4667 49.5168 10.456 49.3461 10.456C49.0368 10.456 48.7061 10.584 48.3541 10.84C48.0021 11.0853 47.7035 11.5173 47.4581 12.136V17H45.7941ZM51.6223 17V5.672H53.2543V12.952H53.3023L56.3583 9.176H58.1823L55.5103 12.344L58.4703 17H56.6623L54.5663 13.48L53.2543 14.984V17H51.6223Z" fill="black"/>
</svg>
