<svg width="951" height="395" viewBox="0 0 951 395" fill="none" xmlns="http://www.w3.org/2000/svg">
<g opacity="0.98">
<path d="M68.1256 342.858L46.3343 341.405L53.5981 374.093L78.2947 363.924L68.1256 342.858Z" fill="#FFB9B9"/>
<path d="M267.881 281.842L217.034 232.448L187.978 254.966L130.594 323.973L137.132 334.142L206.864 286.927L254.079 348.669L299.115 326.152L267.881 281.842Z" fill="#2F2E41"/>
<path opacity="0.1" d="M267.881 281.842L217.034 232.448L187.978 254.966L130.594 323.973L137.132 334.142L206.864 286.927L254.079 348.669L299.115 326.152L267.881 281.842Z" fill="black"/>
<path d="M272.239 314.529L265.702 319.614L212.676 301.454L200.327 296.37L175.63 301.454C175.63 301.454 175.63 281.116 198.875 281.842L222.845 287.653L251.174 289.832L272.239 314.529Z" fill="#FFB9B9"/>
<path d="M319.454 368.282L303.474 378.451H284.588L196.695 345.764L68.1256 369.008L64.4933 341.405L182.168 289.833L285.315 323.972L319.454 368.282Z" fill="#2F2E41"/>
<path d="M216.308 238.986L205.412 241.165L203.038 238.395C201.158 236.202 199.967 233.503 199.614 230.636C199.261 227.769 199.762 224.862 201.054 222.279L231.562 182.328C231.562 182.328 240.278 162.715 254.08 170.706C267.881 178.696 242.458 191.771 242.458 191.771L227.203 215.741L228.656 228.09L216.308 238.986Z" fill="#FFB9B9"/>
<path d="M285.314 191.771C300.96 191.771 313.643 179.087 313.643 163.442C313.643 147.796 300.96 135.113 285.314 135.113C269.668 135.113 256.985 147.796 256.985 163.442C256.985 179.087 269.668 191.771 285.314 191.771Z" fill="#FFB9B9"/>
<path d="M272.602 184.144L285.677 215.378L316.912 202.303C316.912 202.303 306.742 177.606 306.742 176.88C306.742 176.153 272.602 184.144 272.602 184.144Z" fill="#FFB9B9"/>
<path d="M358.613 276.547C358.613 293.644 355.919 310.634 350.63 326.892L348.509 333.415L338.34 379.904L327.444 382.809L319.454 372.64L303.474 361.018L291.852 342.132L281.886 325.527L278.777 320.34L267.881 265.862L226.477 242.617L212.676 240.438L215.581 232.448L227.93 215.741L240.278 214.288L243.91 211.383L246.816 212.836L258.438 206.298L262.07 207.751L283.309 209.727L296.21 207.025L314.762 197.066L322.36 198.308L348.509 220.1C355.194 238.168 358.616 257.281 358.613 276.547Z" fill="#575A89"/>
<path d="M53.0232 354.106C53.0232 354.106 59.5292 343.079 56.7812 341.792C54.0332 340.505 42.3629 335.373 42.3629 335.373L25.2486 329.701C25.2486 329.701 0.553726 292.999 0.0116692 324.916C-0.530388 356.832 17.9926 364.504 17.9926 364.504C17.9926 364.504 34.5128 400.057 43.8708 394.387C53.2288 388.718 62.5929 369.473 62.5929 369.473C62.5929 369.473 45.7175 360.402 53.0232 354.106Z" fill="#2F2E41"/>
<path opacity="0.1" d="M350.689 270.22L323.086 288.38L281.886 325.527L278.777 320.34L270.06 276.757H272.239L294.758 235.354L350.689 270.22Z" fill="black"/>
<path d="M294.758 230.995L272.239 272.399H264.249L259.165 286.926L247.543 289.833L278.777 323.972L323.086 284.021L350.689 265.861L294.758 230.995Z" fill="#575A89"/>
<path d="M263.28 142.378L260.211 143.559C259.739 143.239 259.335 142.829 259.024 142.351C258.712 141.873 258.499 141.338 258.397 140.777C258.295 140.217 258.306 139.641 258.429 139.084C258.553 138.528 258.786 138.001 259.115 137.536L253.443 137.27C257.084 132.421 261.714 128.4 267.025 125.473C272.336 122.547 278.209 120.782 284.253 120.295C290.298 119.807 296.377 120.609 302.088 122.647C307.8 124.685 313.014 127.913 317.384 132.116C317.643 131.227 320.458 132.957 321.607 134.712C321.993 133.265 324.633 140.261 325.566 145.206C325.999 143.56 327.66 146.218 326.204 148.769C327.127 148.634 327.544 150.994 326.829 152.309C327.839 151.835 327.669 154.652 326.574 156.535C328.014 156.407 315.217 176.269 310.035 187.877C308.531 180.964 306.839 173.684 301.988 168.535C301.163 167.66 300.26 166.862 299.359 166.066L294.482 161.762C288.812 156.757 283.654 150.58 276.101 148.709C270.91 147.424 267.628 147.134 270.457 141.284C267.901 142.351 265.514 143.937 262.935 144.928C262.97 144.11 263.33 143.196 263.28 142.378Z" fill="#2F2E41"/>
<path d="M299.479 171.795C302.287 171.795 304.563 169.519 304.563 166.71C304.563 163.902 302.287 161.626 299.479 161.626C296.67 161.626 294.394 163.902 294.394 166.71C294.394 169.519 296.67 171.795 299.479 171.795Z" fill="#FFB9B9"/>
<path d="M181.255 52.4261H156.671V77.0104H181.255V52.4261Z" fill="#60B6E9"/>
<path d="M196.182 62.9623H166.329V33.11H196.182V62.9623ZM167.627 61.6644H194.884V34.4079H167.627V61.6644Z" fill="#3F3D56"/>
<path d="M71.412 152.049L64.6617 128.41L41.0223 135.16L47.7726 158.8L71.412 152.049Z" fill="#60B6E9"/>
<path d="M65.3792 169.295L57.1824 140.59L85.8874 132.393L94.0842 161.098L65.3792 169.295ZM58.7869 141.482L66.2709 167.69L92.4797 160.206L84.9957 133.998L58.7869 141.482Z" fill="#3F3D56"/>
<path d="M65.3023 41.9486L82.0884 23.9872L64.127 7.20105L47.3409 25.1625L65.3023 41.9486Z" fill="#60B6E9"/>
<path d="M47.4131 45.6596L67.7962 23.8494L89.6065 44.2325L69.2233 66.0428L47.4131 45.6596ZM67.8583 25.6839L49.2476 45.5976L69.1613 64.2083L87.772 44.2945L67.8583 25.6839Z" fill="#3F3D56"/>
<path d="M901.042 4.70817H672.61V0H569.03V4.70817H339.657C337.628 4.70817 335.619 5.10783 333.744 5.88435C331.87 6.66087 330.166 7.79903 328.731 9.23385C327.297 10.6687 326.158 12.372 325.382 14.2467C324.605 16.1214 324.206 18.1307 324.206 20.1598V332.953C324.206 334.982 324.605 336.991 325.382 338.866C326.158 340.741 327.297 342.444 328.731 343.879C330.166 345.314 331.87 346.452 333.744 347.228C335.619 348.005 337.628 348.404 339.657 348.404H901.042C905.14 348.404 909.07 346.777 911.968 343.879C914.865 340.981 916.493 337.051 916.493 332.953V20.1598C916.493 18.1307 916.094 16.1214 915.317 14.2467C914.541 12.372 913.402 10.6687 911.968 9.23385C910.533 7.79903 908.829 6.66087 906.955 5.88435C905.08 5.10783 903.071 4.70817 901.042 4.70817Z" fill="#3F3D56"/>
<path d="M895.777 32.0155H344.922V342.755H895.777V32.0155Z" fill="#60B6E9"/>
<path d="M619.879 23.5408C622.999 23.5408 625.528 21.0113 625.528 17.891C625.528 14.7707 622.999 12.2412 619.879 12.2412C616.758 12.2412 614.229 14.7707 614.229 17.891C614.229 21.0113 616.758 23.5408 619.879 23.5408Z" fill="#60B6E9"/>
<path opacity="0.1" d="M738.242 342.755H344.922V32.0157L738.242 342.755Z" fill="black"/>
<path d="M431.114 319.502C460.357 319.502 484.064 295.795 484.064 266.552C484.064 237.309 460.357 213.602 431.114 213.602C401.871 213.602 378.164 237.309 378.164 266.552C378.164 295.795 401.871 319.502 431.114 319.502Z" fill="#F2F2F2"/>
<path d="M442.901 306.349C429.874 306.349 417.14 302.486 406.309 295.249C395.477 288.012 387.035 277.725 382.05 265.69C377.065 253.654 375.761 240.411 378.302 227.635C380.844 214.858 387.117 203.122 396.328 193.911C405.539 184.7 417.275 178.427 430.052 175.885C442.828 173.344 456.071 174.648 468.107 179.633C480.142 184.619 490.428 193.061 497.666 203.892C504.903 214.723 508.766 227.458 508.766 240.484C508.746 257.947 501.8 274.688 489.453 287.036C477.105 299.384 460.364 306.329 442.901 306.349ZM442.901 175.481C430.045 175.481 417.477 179.293 406.787 186.436C396.097 193.579 387.766 203.731 382.846 215.609C377.926 227.486 376.638 240.556 379.147 253.166C381.655 265.775 387.846 277.358 396.937 286.449C406.028 295.54 417.61 301.731 430.22 304.239C442.829 306.747 455.899 305.46 467.777 300.54C479.655 295.62 489.807 287.288 496.95 276.598C504.092 265.909 507.905 253.341 507.905 240.484C507.885 223.25 501.031 206.728 488.844 194.541C476.658 182.355 460.135 175.5 442.901 175.481Z" fill="#3F3D56"/>
<path d="M799.864 199.6H748.408V210.352H799.864V199.6Z" fill="#3F3D56"/>
<path d="M862.072 115.888H686.2V120.496H862.072V115.888Z" fill="#3F3D56"/>
<path d="M862.072 130.48H686.2V135.088H862.072V130.48Z" fill="#3F3D56"/>
<path d="M862.072 145.072H686.2V149.68H862.072V145.072Z" fill="#3F3D56"/>
<path d="M862.072 159.664H686.2V164.272H862.072V159.664Z" fill="#3F3D56"/>
<path d="M862.072 174.256H686.2V178.864H862.072V174.256Z" fill="#3F3D56"/>
<path d="M862.072 38.3198H840.568V59.8238H862.072V38.3198Z" fill="#F2F2F2"/>
<path d="M872.056 69.8078H845.944V43.6958H872.056V69.8078ZM847.079 68.6726H870.921V44.8311H847.079V68.6726Z" fill="#3F3D56"/>
<path d="M931.96 337.105H878.2V333.231C878.2 333.131 878.18 333.031 878.142 332.937C878.103 332.844 878.046 332.76 877.975 332.688C877.904 332.617 877.819 332.56 877.726 332.522C877.633 332.483 877.533 332.463 877.432 332.463H859C858.899 332.463 858.799 332.483 858.706 332.522C858.613 332.56 858.528 332.617 858.457 332.688C858.386 332.76 858.329 332.844 858.291 332.937C858.252 333.031 858.232 333.131 858.232 333.231V337.105H846.712V333.231C846.712 333.131 846.692 333.031 846.654 332.937C846.615 332.844 846.559 332.76 846.487 332.688C846.416 332.617 846.331 332.56 846.238 332.522C846.145 332.483 846.045 332.463 845.944 332.463H827.512C827.411 332.463 827.311 332.483 827.218 332.522C827.125 332.56 827.04 332.617 826.969 332.688C826.898 332.76 826.841 332.844 826.803 332.937C826.764 333.031 826.744 333.131 826.744 333.231V337.105H815.224V333.231C815.224 333.131 815.204 333.031 815.166 332.937C815.127 332.844 815.071 332.76 814.999 332.688C814.928 332.617 814.843 332.56 814.75 332.522C814.657 332.483 814.557 332.463 814.456 332.463H796.024C795.923 332.463 795.823 332.483 795.73 332.522C795.637 332.56 795.552 332.617 795.481 332.688C795.41 332.76 795.353 332.844 795.315 332.937C795.276 333.031 795.256 333.131 795.256 333.231V337.105H783.736V333.231C783.736 333.131 783.716 333.031 783.678 332.937C783.639 332.844 783.583 332.76 783.511 332.688C783.44 332.617 783.355 332.56 783.262 332.522C783.169 332.483 783.069 332.463 782.968 332.463H764.536C764.435 332.463 764.335 332.483 764.242 332.522C764.149 332.56 764.064 332.617 763.993 332.688C763.922 332.76 763.865 332.844 763.827 332.937C763.788 333.031 763.768 333.131 763.768 333.231V337.105H752.248V333.231C752.248 333.131 752.228 333.031 752.19 332.937C752.151 332.844 752.095 332.76 752.023 332.688C751.952 332.617 751.867 332.56 751.774 332.522C751.681 332.483 751.581 332.463 751.48 332.463H733.048C732.947 332.463 732.848 332.483 732.754 332.522C732.661 332.56 732.577 332.617 732.505 332.688C732.434 332.76 732.377 332.844 732.339 332.937C732.3 333.031 732.28 333.131 732.28 333.231V337.105H720.76V333.231C720.76 333.131 720.74 333.031 720.702 332.937C720.663 332.844 720.607 332.76 720.535 332.688C720.464 332.617 720.379 332.56 720.286 332.522C720.193 332.483 720.093 332.463 719.992 332.463H701.56C701.459 332.463 701.36 332.483 701.266 332.522C701.173 332.56 701.089 332.617 701.017 332.688C700.946 332.76 700.889 332.844 700.851 332.937C700.812 333.031 700.792 333.131 700.792 333.231V337.105H689.272V333.231C689.272 333.131 689.252 333.031 689.214 332.937C689.175 332.844 689.119 332.76 689.047 332.688C688.976 332.617 688.891 332.56 688.798 332.522C688.705 332.483 688.605 332.463 688.504 332.463H544.12C544.02 332.463 543.92 332.483 543.827 332.522C543.733 332.56 543.649 332.617 543.577 332.688C543.506 332.76 543.45 332.844 543.411 332.937C543.372 333.031 543.353 333.131 543.353 333.231V337.105H531.832V333.231C531.832 333.131 531.813 333.031 531.774 332.937C531.735 332.844 531.679 332.76 531.608 332.688C531.536 332.617 531.452 332.56 531.358 332.522C531.265 332.483 531.165 332.463 531.064 332.463H512.633C512.532 332.463 512.432 332.483 512.339 332.522C512.245 332.56 512.161 332.617 512.089 332.688C512.018 332.76 511.962 332.844 511.923 332.937C511.884 333.031 511.865 333.131 511.865 333.231V337.105H500.345V333.231C500.345 333.131 500.325 333.031 500.286 332.937C500.247 332.844 500.191 332.76 500.12 332.688C500.048 332.617 499.964 332.56 499.87 332.522C499.777 332.483 499.677 332.463 499.577 332.463H481.145C481.044 332.463 480.944 332.483 480.851 332.522C480.757 332.56 480.673 332.617 480.602 332.688C480.53 332.76 480.474 332.844 480.435 332.937C480.396 333.031 480.377 333.131 480.377 333.231V337.105H468.857V333.231C468.857 333.131 468.837 333.031 468.798 332.937C468.76 332.844 468.703 332.76 468.632 332.688C468.56 332.617 468.476 332.56 468.382 332.522C468.289 332.483 468.189 332.463 468.089 332.463H449.657C449.556 332.463 449.456 332.483 449.363 332.522C449.27 332.56 449.185 332.617 449.114 332.688C449.042 332.76 448.986 332.844 448.947 332.937C448.908 333.031 448.889 333.131 448.889 333.231V337.105H437.369V333.231C437.369 333.131 437.349 333.031 437.31 332.937C437.272 332.844 437.215 332.76 437.144 332.688C437.072 332.617 436.988 332.56 436.895 332.522C436.801 332.483 436.701 332.463 436.601 332.463H418.169C418.068 332.463 417.968 332.483 417.875 332.522C417.782 332.56 417.697 332.617 417.626 332.688C417.554 332.76 417.498 332.844 417.459 332.937C417.42 333.031 417.401 333.131 417.401 333.231V337.105H405.881V333.231C405.881 333.131 405.861 333.031 405.822 332.937C405.784 332.844 405.727 332.76 405.656 332.688C405.584 332.617 405.5 332.56 405.407 332.522C405.313 332.483 405.214 332.463 405.113 332.463H386.681C386.58 332.463 386.48 332.483 386.387 332.522C386.294 332.56 386.209 332.617 386.138 332.688C386.066 332.76 386.01 332.844 385.971 332.937C385.933 333.031 385.913 333.131 385.913 333.231V337.105H374.393V333.231C374.393 333.131 374.373 333.031 374.334 332.937C374.296 332.844 374.239 332.76 374.168 332.688C374.096 332.617 374.012 332.56 373.919 332.522C373.825 332.483 373.726 332.463 373.625 332.463H355.193C355.092 332.463 354.992 332.483 354.899 332.522C354.806 332.56 354.721 332.617 354.65 332.688C354.578 332.76 354.522 332.844 354.483 332.937C354.445 333.031 354.425 333.131 354.425 333.231V337.105H319.097C314.208 337.105 309.52 339.047 306.063 342.503C302.607 345.96 300.665 350.648 300.665 355.537V363.871C300.665 368.76 302.607 373.448 306.063 376.905C309.52 380.361 314.208 382.303 319.097 382.303H931.96C936.848 382.303 941.537 380.361 944.993 376.905C948.45 373.448 950.392 368.76 950.392 363.871V355.537C950.392 350.648 948.45 345.96 944.993 342.503C941.537 339.047 936.848 337.105 931.96 337.105Z" fill="#3F3D56"/>
</g>
</svg>
