<svg width="714" height="886" viewBox="0 0 714 886" fill="none" xmlns="http://www.w3.org/2000/svg">
<path d="M229.842 748.903L214.189 807.318L292.076 828.188L307.729 769.772" stroke="#60B6E9" stroke-width="15" stroke-linejoin="round"/>
<path d="M402.666 649.123L418.318 590.708C478.366 582.674 533.775 554.085 575.119 509.803C616.464 465.521 641.189 408.282 645.088 347.826C648.987 287.369 631.819 227.428 596.505 178.203C561.192 128.977 509.914 93.5067 451.396 77.8268C392.877 62.1469 330.734 67.226 275.539 92.1999C220.343 117.174 175.506 160.5 148.654 214.806C121.802 269.113 114.595 331.046 128.26 390.067C141.924 449.088 175.615 501.552 223.601 538.533L207.949 596.948" stroke="#60B6E9" stroke-width="15" stroke-linejoin="round"/>
<path d="M192.296 655.364L171.426 733.25L366.144 785.425L387.014 707.538" stroke="#60B6E9" stroke-width="15" stroke-linejoin="round"/>
<path d="M133.881 639.711L445.429 723.19" stroke="#60B6E9" stroke-width="15" stroke-linejoin="round"/>
<path d="M360.278 262.109C362.341 254.407 362.075 246.266 359.512 238.715C356.949 231.164 352.204 224.543 345.878 219.688C339.551 214.834 331.928 211.965 323.971 211.443C316.014 210.922 308.081 212.772 301.175 216.759C294.27 220.746 288.701 226.691 285.175 233.842C281.648 240.994 280.321 249.031 281.362 256.937C282.403 264.843 285.764 272.262 291.022 278.257C296.28 284.252 303.197 288.554 310.899 290.618L466.673 332.357C474.375 334.421 482.517 334.155 490.068 331.591C497.618 329.028 504.24 324.284 509.094 317.957C513.948 311.631 516.817 304.008 517.339 296.051C517.86 288.094 516.011 280.161 512.024 273.255C508.037 266.349 502.092 260.781 494.94 257.254C487.788 253.728 479.751 252.401 471.846 253.441C463.94 254.482 456.52 257.844 450.525 263.102C444.53 268.359 440.228 275.277 438.165 282.979" stroke="#60B6E9" stroke-width="15" stroke-linejoin="round"/>
<path d="M388.786 311.488L305.307 623.035" stroke="#60B6E9" stroke-width="15" stroke-linejoin="round"/>
</svg>
