<svg width="45" height="45" viewBox="0 0 45 45" fill="none" xmlns="http://www.w3.org/2000/svg">
<path d="M44.8771 13.2302C44.7716 10.8391 44.385 9.19532 43.8311 7.77094C43.2597 6.25899 42.3806 4.90534 41.2289 3.78005C40.1036 2.63724 38.741 1.74923 37.2466 1.18676C35.8139 0.632869 34.1787 0.246211 31.7877 0.14079C29.3788 0.0264411 28.6141 0 22.5045 0C16.3949 0 15.6301 0.0264411 13.2302 0.131862C10.8391 0.237283 9.19532 0.624285 7.77128 1.17783C6.25899 1.74923 4.90534 2.62831 3.78005 3.78005C2.63724 4.90534 1.74958 6.26791 1.18676 7.76235C0.632869 9.19532 0.246211 10.8302 0.14079 13.2212C0.0264411 15.6301 0 16.3949 0 22.5045C0 28.6141 0.0264411 29.3788 0.131862 31.7788C0.237283 34.1698 0.624285 35.8136 1.17817 37.238C1.74958 38.7499 2.63724 40.1036 3.78005 41.2289C4.90534 42.3717 6.26791 43.2597 7.76235 43.8222C9.19532 44.3761 10.8302 44.7627 13.2216 44.8681C15.6212 44.9739 16.3863 45 22.4959 45C28.6055 45 29.3702 44.9739 31.7702 44.8681C34.1612 44.7627 35.805 44.3761 37.2291 43.8222C40.2533 42.6529 42.6443 40.2619 43.8136 37.238C44.3671 35.805 44.7541 34.1698 44.8596 31.7788C44.965 29.3788 44.9914 28.6141 44.9914 22.5045C44.9914 16.3949 44.9825 15.6301 44.8771 13.2302ZM40.8247 31.6029C40.7279 33.8006 40.3587 34.9874 40.051 35.7786C39.2949 37.739 37.739 39.2949 35.7786 40.051C34.9874 40.3587 33.7921 40.7279 31.6029 40.8244C29.2294 40.9301 28.5176 40.9562 22.5134 40.9562C16.5092 40.9562 15.7884 40.9301 13.4235 40.8244C11.2258 40.7279 10.039 40.3587 9.24786 40.051C8.27229 39.6905 7.38428 39.1191 6.6635 38.3719C5.91628 37.6422 5.34488 36.7631 4.98432 35.7875C4.67664 34.9963 4.3075 33.8006 4.211 31.6119C4.10524 29.2384 4.07914 28.5262 4.07914 22.522C4.07914 16.5178 4.10524 15.797 4.211 13.4324C4.3075 11.2347 4.67664 10.048 4.98432 9.25679C5.34488 8.28087 5.91628 7.39321 6.67243 6.67208C7.40179 5.92487 8.28087 5.35346 9.25679 4.99325C10.048 4.68557 11.2436 4.31642 13.4324 4.21959C15.8059 4.11417 16.5181 4.08772 22.522 4.08772C28.5351 4.08772 29.2469 4.11417 31.6119 4.21959C33.8096 4.31642 34.9963 4.68557 35.7875 4.99325C36.7631 5.35346 37.6511 5.92487 38.3719 6.67208C39.1191 7.40179 39.6905 8.28087 40.051 9.25679C40.3587 10.048 40.7279 11.2433 40.8247 13.4324C40.9301 15.8059 40.9566 16.5178 40.9566 22.522C40.9566 28.5262 40.9301 29.2294 40.8247 31.6029Z" fill="white"/>
<path d="M22.5045 10.9453C16.1226 10.9453 10.9446 16.123 10.9446 22.5052C10.9446 28.8875 16.1226 34.0651 22.5045 34.0651C28.8868 34.0651 34.0644 28.8875 34.0644 22.5052C34.0644 16.123 28.8868 10.9453 22.5045 10.9453ZM22.5045 30.0038C18.3642 30.0038 15.0059 26.6458 15.0059 22.5052C15.0059 18.3646 18.3642 15.0066 22.5045 15.0066C26.6451 15.0066 30.0031 18.3646 30.0031 22.5052C30.0031 26.6458 26.6451 30.0038 22.5045 30.0038Z" fill="white"/>
<path d="M37.2205 10.4868C37.2205 11.9771 36.0121 13.1855 34.5215 13.1855C33.0311 13.1855 31.8228 11.9771 31.8228 10.4868C31.8228 8.99613 33.0311 7.78809 34.5215 7.78809C36.0121 7.78809 37.2205 8.99613 37.2205 10.4868Z" fill="white"/>
</svg>
