<svg width="386" height="1875" viewBox="0 0 386 1875" fill="none" xmlns="http://www.w3.org/2000/svg">
<path fill-rule="evenodd" clip-rule="evenodd" d="M-140.712 49.3958L-110.713 134.116C-80.714 218.836 -18.5799 388.562 82.013 563.427C184.742 738.578 328.067 919.153 244.913 1069.46C161.758 1219.77 -145.74 1340.1 -188.299 1495.84C-230.858 1651.57 -496.852 1690.43 -385.662 1786L-330.662 1986.5L-764.663 1903.08L-754.066 1823.79C-743.469 1744.49 -722.276 1585.9 -701.083 1427.31C-679.89 1268.72 -658.696 1110.13 -637.503 951.541C-616.31 792.951 -595.116 634.361 -573.923 475.771C-552.73 317.18 -531.537 158.59 -520.94 79.295L-510.343 -6.79331e-05L-140.712 49.3958Z" fill="url(#paint0_linear)" fill-opacity="0.3"/>
<defs>
<linearGradient id="paint0_linear" x1="-17.857" y1="65.8133" x2="-272.176" y2="1968.9" gradientUnits="userSpaceOnUse">
<stop stop-color="#72C6EF"/>
<stop offset="1" stop-color="#004E8F"/>
</linearGradient>
</defs>
</svg>
