<svg width="26" height="45" viewBox="0 0 26 45" fill="none" xmlns="http://www.w3.org/2000/svg">
<path d="M18.2257 11.1388C18.2873 11.0694 18.5754 10.8428 19.7066 10.8428L23.4156 10.8414C24.6222 10.8414 25.6034 9.86229 25.6034 8.6586V2.19177C25.6034 0.990143 24.6236 0.0109863 23.4191 0.00892635L17.9097 0C14.5094 0 11.6188 1.11889 9.55044 3.23616C7.49133 5.34382 6.40276 8.28609 6.40276 11.7444V15.2322H2.18817C0.981545 15.2322 0 16.2114 0 17.415V24.3797C0 25.5834 0.981545 26.5625 2.18817 26.5625H6.40276V42.8172C6.40276 44.0208 7.3843 45 8.59093 45H15.8148C17.0215 45 18.003 44.0208 18.003 42.8172V26.5629H23.1547C24.3614 26.5629 25.3426 25.5834 25.3426 24.3804L25.3453 17.4154C25.3453 16.6247 24.9141 15.8931 24.2196 15.5062C23.8978 15.327 23.5233 15.2322 23.1372 15.2322H18.003V12.4767C18.003 11.5786 18.1242 11.2534 18.2257 11.1388Z" fill="white"/>
</svg>
