<?xml version="1.0" standalone="no"?>
<!DOCTYPE svg PUBLIC "-//W3C//DTD SVG 20010904//EN"
 "http://www.w3.org/TR/2001/REC-SVG-20010904/DTD/svg10.dtd">
<svg version="1.0" xmlns="http://www.w3.org/2000/svg"
 width="700.000000pt" height="700.000000pt" viewBox="0 0 700.000000 700.000000"
 preserveAspectRatio="xMidYMid meet">
<metadata>
Created by potrace 1.11, written by Peter Selinger 2001-2013
</metadata>
<g transform="translate(0.000000,700.000000) scale(0.100000,-0.100000)"
fill="#000000" stroke="none">
<path d="M3298 6995 c-2 -1 -46 -5 -98 -9 -52 -3 -106 -8 -120 -10 -14 -2 -46
-7 -71 -10 -25 -4 -57 -9 -70 -11 -13 -2 -41 -6 -62 -9 -225 -34 -596 -150
-836 -262 -51 -24 -95 -44 -97 -44 -14 0 -298 -166 -397 -232 -277 -185 -579
-463 -778 -714 -29 -38 -57 -73 -62 -79 -100 -124 -258 -383 -353 -580 -138
-286 -226 -547 -284 -840 -38 -194 -40 -206 -57 -405 -9 -102 -9 -501 0 -585
3 -33 9 -91 13 -130 5 -58 40 -265 57 -340 136 -591 404 -1114 801 -1562 110
-124 208 -221 316 -313 35 -30 71 -61 80 -69 77 -73 378 -276 540 -364 105
-58 314 -157 329 -157 4 0 25 -9 47 -19 80 -39 405 -140 528 -165 11 -3 46
-10 76 -16 88 -18 93 -19 130 -24 31 -4 69 -9 149 -22 160 -24 664 -24 841 0
655 90 1195 308 1695 684 400 300 779 751 994 1181 23 47 45 90 50 95 16 21
121 283 160 401 41 123 85 284 106 390 4 22 10 49 12 60 2 11 6 34 8 50 3 17
7 39 9 50 5 28 14 92 21 145 2 25 7 65 11 90 9 68 11 492 3 600 -11 150 -24
246 -54 405 -64 344 -228 783 -405 1080 -16 28 -32 57 -36 65 -32 67 -213 317
-323 445 -244 286 -531 532 -856 732 -195 120 -583 296 -745 339 -8 2 -62 17
-119 33 -118 34 -341 82 -451 96 -8 1 -42 5 -75 9 -33 4 -80 9 -105 13 -44 5
-516 13 -522 8z"/>
</g>
</svg>
