<svg width="1713" height="83" viewBox="0 0 1713 83" fill="none" xmlns="http://www.w3.org/2000/svg">
<line x1="8.74228e-08" y1="41" x2="1713" y2="41.0001" stroke="black" stroke-opacity="0.6" stroke-width="2"/>
<rect x="80" width="322" height="83" fill="white"/>
<path d="M85.6104 26.0918V21.9902H108.291V26.0918H99.209V57H94.6436V26.0918H85.6104ZM106.729 45.6475C106.729 44.0524 107.013 42.5306 107.583 41.082C108.153 39.6335 108.95 38.3558 109.976 37.249C111.017 36.1423 112.271 35.2796 113.735 34.6611C115.2 34.0264 116.828 33.709 118.618 33.709C120.457 33.709 122.109 34.0264 123.574 34.6611C125.039 35.2796 126.292 36.1423 127.334 37.249C128.392 38.3558 129.206 39.6335 129.775 41.082C130.345 42.5306 130.63 44.0524 130.63 45.6475C130.63 47.2425 130.345 48.7643 129.775 50.2129C129.206 51.6452 128.392 52.9147 127.334 54.0215C126.292 55.112 125.039 55.9746 123.574 56.6094C122.109 57.2441 120.457 57.5615 118.618 57.5615C116.812 57.5615 115.176 57.2441 113.711 56.6094C112.262 55.9746 111.017 55.112 109.976 54.0215C108.95 52.9147 108.153 51.6452 107.583 50.2129C107.013 48.7643 106.729 47.2425 106.729 45.6475ZM111.025 45.6475C111.025 46.7542 111.204 47.7878 111.562 48.748C111.937 49.7083 112.45 50.5547 113.101 51.2871C113.752 52.0033 114.541 52.5811 115.469 53.0205C116.396 53.4437 117.446 53.6553 118.618 53.6553C119.79 53.6553 120.848 53.4437 121.792 53.0205C122.752 52.5811 123.566 52.0033 124.233 51.2871C124.901 50.5547 125.413 49.7083 125.771 48.748C126.146 47.7878 126.333 46.7542 126.333 45.6475C126.333 44.5407 126.146 43.5072 125.771 42.5469C125.413 41.5866 124.901 40.7402 124.233 40.0078C123.566 39.2754 122.752 38.6895 121.792 38.25C120.848 37.8105 119.79 37.5908 118.618 37.5908C117.446 37.5908 116.396 37.8105 115.469 38.25C114.541 38.6895 113.752 39.2754 113.101 40.0078C112.45 40.7402 111.937 41.5947 111.562 42.5713C111.204 43.5316 111.025 44.557 111.025 45.6475ZM136.562 69.3047V34.2949H140.908V38.2012C141.641 36.8014 142.723 35.7028 144.155 34.9053C145.588 34.1077 147.142 33.709 148.818 33.709C150.544 33.709 152.131 34.0264 153.579 34.6611C155.028 35.2796 156.257 36.1423 157.266 37.249C158.291 38.3558 159.089 39.6335 159.658 41.082C160.228 42.5306 160.513 44.0524 160.513 45.6475C160.513 47.2425 160.228 48.7643 159.658 50.2129C159.089 51.6452 158.291 52.9147 157.266 54.0215C156.257 55.112 155.028 55.9746 153.579 56.6094C152.131 57.2441 150.544 57.5615 148.818 57.5615C147.158 57.5615 145.604 57.1628 144.155 56.3652C142.723 55.5514 141.641 54.4447 140.908 53.0449V69.3047H136.562ZM140.908 45.6475C140.908 46.7542 141.087 47.7878 141.445 48.748C141.82 49.7083 142.34 50.5547 143.008 51.2871C143.675 52.0033 144.481 52.5811 145.425 53.0205C146.385 53.4437 147.443 53.6553 148.599 53.6553C149.738 53.6553 150.771 53.4437 151.699 53.0205C152.643 52.5811 153.441 52.0033 154.092 51.2871C154.743 50.5547 155.247 49.7083 155.605 48.748C155.98 47.7878 156.167 46.7542 156.167 45.6475C156.167 44.5407 155.98 43.5072 155.605 42.5469C155.247 41.5866 154.743 40.7402 154.092 40.0078C153.441 39.2754 152.643 38.6895 151.699 38.25C150.771 37.8105 149.738 37.5908 148.599 37.5908C147.427 37.5908 146.369 37.8105 145.425 38.25C144.481 38.6895 143.675 39.2754 143.008 40.0078C142.34 40.7402 141.82 41.5947 141.445 42.5713C141.087 43.5316 140.908 44.557 140.908 45.6475ZM179.141 57V21.9902H189.932C192.829 21.9902 195.4 22.4948 197.646 23.5039C199.909 24.4967 201.813 25.8151 203.359 27.459C204.906 29.0866 206.077 30.9502 206.875 33.0498C207.689 35.1494 208.096 37.2979 208.096 39.4951C208.096 41.6924 207.689 43.8408 206.875 45.9404C206.077 48.04 204.906 49.9118 203.359 51.5557C201.813 53.1833 199.909 54.5016 197.646 55.5107C195.4 56.5036 192.829 57 189.932 57H179.141ZM183.682 52.8984H189.932C192.064 52.8984 193.968 52.516 195.645 51.751C197.337 50.986 198.745 49.9769 199.868 48.7236C201.007 47.4704 201.878 46.0462 202.48 44.4512C203.083 42.8561 203.384 41.2041 203.384 39.4951C203.384 37.8024 203.083 36.1585 202.48 34.5635C201.878 32.9521 201.007 31.528 199.868 30.291C198.745 29.0378 197.337 28.0286 195.645 27.2637C193.968 26.4824 192.064 26.0918 189.932 26.0918H183.682V52.8984ZM212.246 45.6475C212.246 43.9548 212.498 42.376 213.003 40.9111C213.507 39.43 214.232 38.1605 215.176 37.1025C216.12 36.0283 217.284 35.1982 218.667 34.6123C220.05 34.0101 221.646 33.709 223.452 33.709C224.917 33.709 226.292 33.9694 227.578 34.4902C228.864 34.9948 229.979 35.7191 230.923 36.6631C231.867 37.5908 232.607 38.6813 233.145 39.9346C233.682 41.1715 233.95 42.5062 233.95 43.9385C233.95 44.264 233.942 44.6628 233.926 45.1348C233.91 45.6068 233.853 46.1602 233.755 46.7949H216.543C216.576 47.7552 216.73 48.6667 217.007 49.5293C217.3 50.3757 217.723 51.1243 218.276 51.7754C218.83 52.4264 219.538 52.9473 220.4 53.3379C221.263 53.7122 222.329 53.8994 223.599 53.8994C225.291 53.8994 226.577 53.5413 227.456 52.8252C228.351 52.109 228.978 51.2708 229.336 50.3105H233.755C233.56 51.2708 233.193 52.1823 232.656 53.0449C232.119 53.9076 231.411 54.6725 230.532 55.3398C229.67 56.0072 228.652 56.5443 227.48 56.9512C226.325 57.3581 225.031 57.5615 223.599 57.5615C221.694 57.5615 220.026 57.2441 218.594 56.6094C217.161 55.9746 215.973 55.1283 215.029 54.0703C214.102 52.9961 213.402 51.7347 212.93 50.2861C212.474 48.8213 212.246 47.2751 212.246 45.6475ZM216.592 43.499H229.751C229.751 41.4971 229.141 39.9264 227.92 38.7871C226.715 37.6315 225.194 37.0537 223.354 37.0537C221.385 37.0537 219.782 37.6152 218.545 38.7383C217.308 39.8451 216.657 41.432 216.592 43.499ZM238.369 49.3584H242.617C242.617 51.0837 243.122 52.3044 244.131 53.0205C245.156 53.7367 246.434 54.0947 247.964 54.0947C249.364 54.0947 250.47 53.8424 251.284 53.3379C252.114 52.8171 252.529 51.987 252.529 50.8477C252.529 50.2129 252.358 49.7083 252.017 49.334C251.691 48.9434 251.219 48.6016 250.601 48.3086C249.982 47.9993 249.217 47.7227 248.306 47.4785C247.41 47.2181 246.401 46.8926 245.278 46.502C244.416 46.2415 243.602 45.9648 242.837 45.6719C242.088 45.3626 241.437 44.972 240.884 44.5C240.347 44.028 239.915 43.4583 239.59 42.791C239.281 42.1237 239.126 41.2773 239.126 40.252C239.126 39.1777 239.338 38.2337 239.761 37.4199C240.2 36.6061 240.802 35.9225 241.567 35.3691C242.332 34.8158 243.228 34.4007 244.253 34.124C245.295 33.8473 246.401 33.709 247.573 33.709C248.81 33.709 249.958 33.8962 251.016 34.2705C252.09 34.6286 253.018 35.1494 253.799 35.833C254.58 36.5166 255.19 37.3223 255.63 38.25C256.086 39.1777 256.313 40.2113 256.313 41.3506H252.114C252.114 40.016 251.724 38.9906 250.942 38.2744C250.161 37.5583 249.022 37.2002 247.524 37.2002C246.32 37.2002 245.319 37.4688 244.521 38.0059C243.724 38.543 243.325 39.3242 243.325 40.3496C243.325 40.9193 243.464 41.3913 243.74 41.7656C244.017 42.1237 244.44 42.4411 245.01 42.7178C245.579 42.9782 246.263 43.2386 247.061 43.499C247.858 43.7432 248.794 44.028 249.868 44.3535C250.731 44.6139 251.569 44.8988 252.383 45.208C253.213 45.501 253.937 45.8835 254.556 46.3555C255.19 46.8112 255.695 47.389 256.069 48.0889C256.46 48.7887 256.655 49.6758 256.655 50.75C256.655 51.8893 256.427 52.8822 255.972 53.7285C255.532 54.5749 254.914 55.2829 254.116 55.8525C253.319 56.4222 252.375 56.8454 251.284 57.1221C250.21 57.415 249.038 57.5615 247.769 57.5615C246.499 57.5615 245.295 57.3906 244.155 57.0488C243.032 56.7233 242.039 56.2188 241.177 55.5352C240.33 54.8516 239.647 53.9971 239.126 52.9717C238.621 51.93 238.369 50.7256 238.369 49.3584ZM261.562 25.7012C261.562 24.7409 261.896 23.9108 262.563 23.2109C263.231 22.5111 264.053 22.1611 265.029 22.1611C265.99 22.1611 266.82 22.5111 267.52 23.2109C268.219 23.9108 268.569 24.7409 268.569 25.7012C268.569 26.6615 268.219 27.4753 267.52 28.1426C266.82 28.8099 265.99 29.1436 265.029 29.1436C264.069 29.1436 263.247 28.8099 262.563 28.1426C261.896 27.4753 261.562 26.6615 261.562 25.7012ZM262.881 57V34.2949H267.227V57H262.881ZM273.184 45.6475C273.184 44.0524 273.468 42.5306 274.038 41.082C274.608 39.6335 275.397 38.3558 276.406 37.249C277.432 36.1423 278.66 35.2796 280.093 34.6611C281.525 34.0264 283.104 33.709 284.829 33.709C286.489 33.709 288.044 34.1077 289.492 34.9053C290.957 35.7028 292.056 36.8014 292.788 38.2012V34.2949H297.085V58.4404C297.085 60.4749 296.808 62.2083 296.255 63.6406C295.701 65.0729 294.896 66.2448 293.838 67.1562C292.796 68.084 291.535 68.7513 290.054 69.1582C288.573 69.5814 286.88 69.793 284.976 69.793C283.039 69.793 281.362 69.5163 279.946 68.9629C278.53 68.4258 277.358 67.6934 276.431 66.7656C275.503 65.8542 274.795 64.7962 274.307 63.5918C273.818 62.4036 273.542 61.1748 273.477 59.9053H277.871C277.936 60.7028 278.115 61.4678 278.408 62.2002C278.717 62.9326 279.157 63.5755 279.727 64.1289C280.296 64.6823 281.012 65.1217 281.875 65.4473C282.754 65.7891 283.787 65.96 284.976 65.96C287.417 65.96 289.329 65.374 290.713 64.2021C292.096 63.0303 292.788 61.1097 292.788 58.4404V53.0449C292.056 54.4447 290.965 55.5514 289.517 56.3652C288.068 57.1628 286.506 57.5615 284.829 57.5615C283.104 57.5615 281.525 57.2441 280.093 56.6094C278.66 55.9746 277.432 55.112 276.406 54.0215C275.397 52.9147 274.608 51.6452 274.038 50.2129C273.468 48.7643 273.184 47.2425 273.184 45.6475ZM277.48 45.6475C277.48 46.7542 277.66 47.7878 278.018 48.748C278.392 49.7083 278.905 50.5547 279.556 51.2871C280.207 52.0033 280.996 52.5811 281.924 53.0205C282.868 53.4437 283.918 53.6553 285.073 53.6553C286.245 53.6553 287.303 53.4437 288.247 53.0205C289.207 52.5811 290.021 52.0033 290.688 51.2871C291.356 50.5547 291.868 49.7083 292.227 48.748C292.601 47.7878 292.788 46.7542 292.788 45.6475C292.788 44.5407 292.601 43.5072 292.227 42.5469C291.868 41.5866 291.356 40.7402 290.688 40.0078C290.021 39.2754 289.207 38.6895 288.247 38.25C287.303 37.8105 286.245 37.5908 285.073 37.5908C283.901 37.5908 282.852 37.8105 281.924 38.25C280.996 38.6895 280.207 39.2754 279.556 40.0078C278.905 40.7402 278.392 41.5947 278.018 42.5713C277.66 43.5316 277.48 44.557 277.48 45.6475ZM304.775 57V34.2949H309.121V38.2988C309.788 36.8991 310.806 35.7842 312.173 34.9541C313.54 34.124 315.192 33.709 317.129 33.709C318.724 33.709 320.083 33.9694 321.206 34.4902C322.345 34.9948 323.249 35.7354 323.916 36.7119C324.551 37.5745 324.998 38.543 325.259 39.6172C325.535 40.6751 325.674 42.0016 325.674 43.5967V57H321.328V44.9395C321.328 43.9141 321.222 42.9456 321.011 42.0342C320.815 41.1064 320.49 40.3171 320.034 39.666C319.595 39.015 319.009 38.5023 318.276 38.1279C317.544 37.7373 316.641 37.542 315.566 37.542C314.46 37.542 313.507 37.7617 312.71 38.2012C311.912 38.6406 311.245 39.2184 310.708 39.9346C310.187 40.6507 309.788 41.4727 309.512 42.4004C309.251 43.3281 309.121 44.2965 309.121 45.3057V57H304.775ZM331.289 45.6475C331.289 43.9548 331.541 42.376 332.046 40.9111C332.55 39.43 333.275 38.1605 334.219 37.1025C335.163 36.0283 336.326 35.1982 337.71 34.6123C339.093 34.0101 340.688 33.709 342.495 33.709C343.96 33.709 345.335 33.9694 346.621 34.4902C347.907 34.9948 349.022 35.7191 349.966 36.6631C350.91 37.5908 351.65 38.6813 352.188 39.9346C352.725 41.1715 352.993 42.5062 352.993 43.9385C352.993 44.264 352.985 44.6628 352.969 45.1348C352.952 45.6068 352.896 46.1602 352.798 46.7949H335.586C335.618 47.7552 335.773 48.6667 336.05 49.5293C336.343 50.3757 336.766 51.1243 337.319 51.7754C337.873 52.4264 338.581 52.9473 339.443 53.3379C340.306 53.7122 341.372 53.8994 342.642 53.8994C344.334 53.8994 345.62 53.5413 346.499 52.8252C347.394 52.109 348.021 51.2708 348.379 50.3105H352.798C352.603 51.2708 352.236 52.1823 351.699 53.0449C351.162 53.9076 350.454 54.6725 349.575 55.3398C348.713 56.0072 347.695 56.5443 346.523 56.9512C345.368 57.3581 344.074 57.5615 342.642 57.5615C340.737 57.5615 339.069 57.2441 337.637 56.6094C336.204 55.9746 335.016 55.1283 334.072 54.0703C333.145 52.9961 332.445 51.7347 331.973 50.2861C331.517 48.8213 331.289 47.2751 331.289 45.6475ZM335.635 43.499H348.794C348.794 41.4971 348.184 39.9264 346.963 38.7871C345.758 37.6315 344.237 37.0537 342.397 37.0537C340.428 37.0537 338.825 37.6152 337.588 38.7383C336.351 39.8451 335.7 41.432 335.635 43.499ZM359.316 57V34.2949H363.662V38.7383C364.264 37.306 365.273 36.1504 366.689 35.2715C368.105 34.3926 369.611 33.9531 371.206 33.9531C372.069 33.9531 372.785 34.0671 373.354 34.2949V38.2988C372.882 38.2012 372.508 38.1361 372.231 38.1035C371.955 38.071 371.613 38.0547 371.206 38.0547C368.667 38.0547 366.771 38.8766 365.518 40.5205C364.281 42.1481 363.662 44.321 363.662 47.0391V57H359.316ZM375.186 49.3584H379.434C379.434 51.0837 379.938 52.3044 380.947 53.0205C381.973 53.7367 383.25 54.0947 384.78 54.0947C386.18 54.0947 387.287 53.8424 388.101 53.3379C388.931 52.8171 389.346 51.987 389.346 50.8477C389.346 50.2129 389.175 49.7083 388.833 49.334C388.507 48.9434 388.035 48.6016 387.417 48.3086C386.799 47.9993 386.034 47.7227 385.122 47.4785C384.227 47.2181 383.218 46.8926 382.095 46.502C381.232 46.2415 380.418 45.9648 379.653 45.6719C378.905 45.3626 378.254 44.972 377.7 44.5C377.163 44.028 376.732 43.4583 376.406 42.791C376.097 42.1237 375.942 41.2773 375.942 40.252C375.942 39.1777 376.154 38.2337 376.577 37.4199C377.017 36.6061 377.619 35.9225 378.384 35.3691C379.149 34.8158 380.044 34.4007 381.069 34.124C382.111 33.8473 383.218 33.709 384.39 33.709C385.627 33.709 386.774 33.8962 387.832 34.2705C388.906 34.6286 389.834 35.1494 390.615 35.833C391.396 36.5166 392.007 37.3223 392.446 38.25C392.902 39.1777 393.13 40.2113 393.13 41.3506H388.931C388.931 40.016 388.54 38.9906 387.759 38.2744C386.978 37.5583 385.838 37.2002 384.341 37.2002C383.136 37.2002 382.135 37.4688 381.338 38.0059C380.54 38.543 380.142 39.3242 380.142 40.3496C380.142 40.9193 380.28 41.3913 380.557 41.7656C380.833 42.1237 381.257 42.4411 381.826 42.7178C382.396 42.9782 383.079 43.2386 383.877 43.499C384.674 43.7432 385.61 44.028 386.685 44.3535C387.547 44.6139 388.385 44.8988 389.199 45.208C390.029 45.501 390.754 45.8835 391.372 46.3555C392.007 46.8112 392.511 47.389 392.886 48.0889C393.276 48.7887 393.472 49.6758 393.472 50.75C393.472 51.8893 393.244 52.8822 392.788 53.7285C392.349 54.5749 391.73 55.2829 390.933 55.8525C390.135 56.4222 389.191 56.8454 388.101 57.1221C387.026 57.415 385.854 57.5615 384.585 57.5615C383.315 57.5615 382.111 57.3906 380.972 57.0488C379.849 56.7233 378.856 56.2188 377.993 55.5352C377.147 54.8516 376.463 53.9971 375.942 52.9717C375.438 51.93 375.186 50.7256 375.186 49.3584Z" fill="black"/>
</svg>
