<svg width="1713" height="83" viewBox="0 0 1713 83" fill="none" xmlns="http://www.w3.org/2000/svg">
<line x1="8.74228e-08" y1="41" x2="1713" y2="41.0001" stroke="black" stroke-opacity="0.6" stroke-width="2"/>
<rect x="80" width="350" height="83" fill="white"/>
<path d="M85.6104 26.0918V21.9902H108.291V26.0918H99.209V57H94.6436V26.0918H85.6104ZM106.729 45.6475C106.729 44.0524 107.013 42.5306 107.583 41.082C108.153 39.6335 108.95 38.3558 109.976 37.249C111.017 36.1423 112.271 35.2796 113.735 34.6611C115.2 34.0264 116.828 33.709 118.618 33.709C120.457 33.709 122.109 34.0264 123.574 34.6611C125.039 35.2796 126.292 36.1423 127.334 37.249C128.392 38.3558 129.206 39.6335 129.775 41.082C130.345 42.5306 130.63 44.0524 130.63 45.6475C130.63 47.2425 130.345 48.7643 129.775 50.2129C129.206 51.6452 128.392 52.9147 127.334 54.0215C126.292 55.112 125.039 55.9746 123.574 56.6094C122.109 57.2441 120.457 57.5615 118.618 57.5615C116.812 57.5615 115.176 57.2441 113.711 56.6094C112.262 55.9746 111.017 55.112 109.976 54.0215C108.95 52.9147 108.153 51.6452 107.583 50.2129C107.013 48.7643 106.729 47.2425 106.729 45.6475ZM111.025 45.6475C111.025 46.7542 111.204 47.7878 111.562 48.748C111.937 49.7083 112.45 50.5547 113.101 51.2871C113.752 52.0033 114.541 52.5811 115.469 53.0205C116.396 53.4437 117.446 53.6553 118.618 53.6553C119.79 53.6553 120.848 53.4437 121.792 53.0205C122.752 52.5811 123.566 52.0033 124.233 51.2871C124.901 50.5547 125.413 49.7083 125.771 48.748C126.146 47.7878 126.333 46.7542 126.333 45.6475C126.333 44.5407 126.146 43.5072 125.771 42.5469C125.413 41.5866 124.901 40.7402 124.233 40.0078C123.566 39.2754 122.752 38.6895 121.792 38.25C120.848 37.8105 119.79 37.5908 118.618 37.5908C117.446 37.5908 116.396 37.8105 115.469 38.25C114.541 38.6895 113.752 39.2754 113.101 40.0078C112.45 40.7402 111.937 41.5947 111.562 42.5713C111.204 43.5316 111.025 44.557 111.025 45.6475ZM136.562 69.3047V34.2949H140.908V38.2012C141.641 36.8014 142.723 35.7028 144.155 34.9053C145.588 34.1077 147.142 33.709 148.818 33.709C150.544 33.709 152.131 34.0264 153.579 34.6611C155.028 35.2796 156.257 36.1423 157.266 37.249C158.291 38.3558 159.089 39.6335 159.658 41.082C160.228 42.5306 160.513 44.0524 160.513 45.6475C160.513 47.2425 160.228 48.7643 159.658 50.2129C159.089 51.6452 158.291 52.9147 157.266 54.0215C156.257 55.112 155.028 55.9746 153.579 56.6094C152.131 57.2441 150.544 57.5615 148.818 57.5615C147.158 57.5615 145.604 57.1628 144.155 56.3652C142.723 55.5514 141.641 54.4447 140.908 53.0449V69.3047H136.562ZM140.908 45.6475C140.908 46.7542 141.087 47.7878 141.445 48.748C141.82 49.7083 142.34 50.5547 143.008 51.2871C143.675 52.0033 144.481 52.5811 145.425 53.0205C146.385 53.4437 147.443 53.6553 148.599 53.6553C149.738 53.6553 150.771 53.4437 151.699 53.0205C152.643 52.5811 153.441 52.0033 154.092 51.2871C154.743 50.5547 155.247 49.7083 155.605 48.748C155.98 47.7878 156.167 46.7542 156.167 45.6475C156.167 44.5407 155.98 43.5072 155.605 42.5469C155.247 41.5866 154.743 40.7402 154.092 40.0078C153.441 39.2754 152.643 38.6895 151.699 38.25C150.771 37.8105 149.738 37.5908 148.599 37.5908C147.427 37.5908 146.369 37.8105 145.425 38.25C144.481 38.6895 143.675 39.2754 143.008 40.0078C142.34 40.7402 141.82 41.5947 141.445 42.5713C141.087 43.5316 140.908 44.557 140.908 45.6475ZM179.141 57V21.9902H189.932C192.829 21.9902 195.4 22.4948 197.646 23.5039C199.909 24.4967 201.813 25.8151 203.359 27.459C204.906 29.0866 206.077 30.9502 206.875 33.0498C207.689 35.1494 208.096 37.2979 208.096 39.4951C208.096 41.6924 207.689 43.8408 206.875 45.9404C206.077 48.04 204.906 49.9118 203.359 51.5557C201.813 53.1833 199.909 54.5016 197.646 55.5107C195.4 56.5036 192.829 57 189.932 57H179.141ZM183.682 52.8984H189.932C192.064 52.8984 193.968 52.516 195.645 51.751C197.337 50.986 198.745 49.9769 199.868 48.7236C201.007 47.4704 201.878 46.0462 202.48 44.4512C203.083 42.8561 203.384 41.2041 203.384 39.4951C203.384 37.8024 203.083 36.1585 202.48 34.5635C201.878 32.9521 201.007 31.528 199.868 30.291C198.745 29.0378 197.337 28.0286 195.645 27.2637C193.968 26.4824 192.064 26.0918 189.932 26.0918H183.682V52.8984ZM212.246 45.6475C212.246 43.9548 212.498 42.376 213.003 40.9111C213.507 39.43 214.232 38.1605 215.176 37.1025C216.12 36.0283 217.284 35.1982 218.667 34.6123C220.05 34.0101 221.646 33.709 223.452 33.709C224.917 33.709 226.292 33.9694 227.578 34.4902C228.864 34.9948 229.979 35.7191 230.923 36.6631C231.867 37.5908 232.607 38.6813 233.145 39.9346C233.682 41.1715 233.95 42.5062 233.95 43.9385C233.95 44.264 233.942 44.6628 233.926 45.1348C233.91 45.6068 233.853 46.1602 233.755 46.7949H216.543C216.576 47.7552 216.73 48.6667 217.007 49.5293C217.3 50.3757 217.723 51.1243 218.276 51.7754C218.83 52.4264 219.538 52.9473 220.4 53.3379C221.263 53.7122 222.329 53.8994 223.599 53.8994C225.291 53.8994 226.577 53.5413 227.456 52.8252C228.351 52.109 228.978 51.2708 229.336 50.3105H233.755C233.56 51.2708 233.193 52.1823 232.656 53.0449C232.119 53.9076 231.411 54.6725 230.532 55.3398C229.67 56.0072 228.652 56.5443 227.48 56.9512C226.325 57.3581 225.031 57.5615 223.599 57.5615C221.694 57.5615 220.026 57.2441 218.594 56.6094C217.161 55.9746 215.973 55.1283 215.029 54.0703C214.102 52.9961 213.402 51.7347 212.93 50.2861C212.474 48.8213 212.246 47.2751 212.246 45.6475ZM216.592 43.499H229.751C229.751 41.4971 229.141 39.9264 227.92 38.7871C226.715 37.6315 225.194 37.0537 223.354 37.0537C221.385 37.0537 219.782 37.6152 218.545 38.7383C217.308 39.8451 216.657 41.432 216.592 43.499ZM235.293 34.2949H240.005L247.109 50.7988L254.287 34.2949H258.999L248.599 57H245.596L235.293 34.2949ZM260.098 45.6475C260.098 43.9548 260.35 42.376 260.854 40.9111C261.359 39.43 262.083 38.1605 263.027 37.1025C263.971 36.0283 265.135 35.1982 266.519 34.6123C267.902 34.0101 269.497 33.709 271.304 33.709C272.769 33.709 274.144 33.9694 275.43 34.4902C276.715 34.9948 277.83 35.7191 278.774 36.6631C279.718 37.5908 280.459 38.6813 280.996 39.9346C281.533 41.1715 281.802 42.5062 281.802 43.9385C281.802 44.264 281.794 44.6628 281.777 45.1348C281.761 45.6068 281.704 46.1602 281.606 46.7949H264.395C264.427 47.7552 264.582 48.6667 264.858 49.5293C265.151 50.3757 265.575 51.1243 266.128 51.7754C266.681 52.4264 267.389 52.9473 268.252 53.3379C269.115 53.7122 270.181 53.8994 271.45 53.8994C273.143 53.8994 274.429 53.5413 275.308 52.8252C276.203 52.109 276.829 51.2708 277.188 50.3105H281.606C281.411 51.2708 281.045 52.1823 280.508 53.0449C279.971 53.9076 279.263 54.6725 278.384 55.3398C277.521 56.0072 276.504 56.5443 275.332 56.9512C274.176 57.3581 272.882 57.5615 271.45 57.5615C269.546 57.5615 267.878 57.2441 266.445 56.6094C265.013 55.9746 263.825 55.1283 262.881 54.0703C261.953 52.9961 261.253 51.7347 260.781 50.2861C260.326 48.8213 260.098 47.2751 260.098 45.6475ZM264.443 43.499H277.603C277.603 41.4971 276.992 39.9264 275.771 38.7871C274.567 37.6315 273.045 37.0537 271.206 37.0537C269.237 37.0537 267.633 37.6152 266.396 38.7383C265.16 39.8451 264.508 41.432 264.443 43.499ZM288.125 57V21.9902H292.471V57H288.125ZM298.428 45.6475C298.428 44.0524 298.713 42.5306 299.282 41.082C299.852 39.6335 300.649 38.3558 301.675 37.249C302.716 36.1423 303.97 35.2796 305.435 34.6611C306.899 34.0264 308.527 33.709 310.317 33.709C312.157 33.709 313.809 34.0264 315.273 34.6611C316.738 35.2796 317.992 36.1423 319.033 37.249C320.091 38.3558 320.905 39.6335 321.475 41.082C322.044 42.5306 322.329 44.0524 322.329 45.6475C322.329 47.2425 322.044 48.7643 321.475 50.2129C320.905 51.6452 320.091 52.9147 319.033 54.0215C317.992 55.112 316.738 55.9746 315.273 56.6094C313.809 57.2441 312.157 57.5615 310.317 57.5615C308.511 57.5615 306.875 57.2441 305.41 56.6094C303.962 55.9746 302.716 55.112 301.675 54.0215C300.649 52.9147 299.852 51.6452 299.282 50.2129C298.713 48.7643 298.428 47.2425 298.428 45.6475ZM302.725 45.6475C302.725 46.7542 302.904 47.7878 303.262 48.748C303.636 49.7083 304.149 50.5547 304.8 51.2871C305.451 52.0033 306.24 52.5811 307.168 53.0205C308.096 53.4437 309.146 53.6553 310.317 53.6553C311.489 53.6553 312.547 53.4437 313.491 53.0205C314.451 52.5811 315.265 52.0033 315.933 51.2871C316.6 50.5547 317.113 49.7083 317.471 48.748C317.845 47.7878 318.032 46.7542 318.032 45.6475C318.032 44.5407 317.845 43.5072 317.471 42.5469C317.113 41.5866 316.6 40.7402 315.933 40.0078C315.265 39.2754 314.451 38.6895 313.491 38.25C312.547 37.8105 311.489 37.5908 310.317 37.5908C309.146 37.5908 308.096 37.8105 307.168 38.25C306.24 38.6895 305.451 39.2754 304.8 40.0078C304.149 40.7402 303.636 41.5947 303.262 42.5713C302.904 43.5316 302.725 44.557 302.725 45.6475ZM328.262 69.3047V34.2949H332.607V38.2012C333.34 36.8014 334.422 35.7028 335.854 34.9053C337.287 34.1077 338.841 33.709 340.518 33.709C342.243 33.709 343.83 34.0264 345.278 34.6611C346.727 35.2796 347.956 36.1423 348.965 37.249C349.99 38.3558 350.788 39.6335 351.357 41.082C351.927 42.5306 352.212 44.0524 352.212 45.6475C352.212 47.2425 351.927 48.7643 351.357 50.2129C350.788 51.6452 349.99 52.9147 348.965 54.0215C347.956 55.112 346.727 55.9746 345.278 56.6094C343.83 57.2441 342.243 57.5615 340.518 57.5615C338.857 57.5615 337.303 57.1628 335.854 56.3652C334.422 55.5514 333.34 54.4447 332.607 53.0449V69.3047H328.262ZM332.607 45.6475C332.607 46.7542 332.786 47.7878 333.145 48.748C333.519 49.7083 334.04 50.5547 334.707 51.2871C335.374 52.0033 336.18 52.5811 337.124 53.0205C338.084 53.4437 339.142 53.6553 340.298 53.6553C341.437 53.6553 342.471 53.4437 343.398 53.0205C344.342 52.5811 345.14 52.0033 345.791 51.2871C346.442 50.5547 346.947 49.7083 347.305 48.748C347.679 47.7878 347.866 46.7542 347.866 45.6475C347.866 44.5407 347.679 43.5072 347.305 42.5469C346.947 41.5866 346.442 40.7402 345.791 40.0078C345.14 39.2754 344.342 38.6895 343.398 38.25C342.471 37.8105 341.437 37.5908 340.298 37.5908C339.126 37.5908 338.068 37.8105 337.124 38.25C336.18 38.6895 335.374 39.2754 334.707 40.0078C334.04 40.7402 333.519 41.5947 333.145 42.5713C332.786 43.5316 332.607 44.557 332.607 45.6475ZM356.436 45.6475C356.436 43.9548 356.688 42.376 357.192 40.9111C357.697 39.43 358.421 38.1605 359.365 37.1025C360.309 36.0283 361.473 35.1982 362.856 34.6123C364.24 34.0101 365.835 33.709 367.642 33.709C369.106 33.709 370.482 33.9694 371.768 34.4902C373.053 34.9948 374.168 35.7191 375.112 36.6631C376.056 37.5908 376.797 38.6813 377.334 39.9346C377.871 41.1715 378.14 42.5062 378.14 43.9385C378.14 44.264 378.132 44.6628 378.115 45.1348C378.099 45.6068 378.042 46.1602 377.944 46.7949H360.732C360.765 47.7552 360.92 48.6667 361.196 49.5293C361.489 50.3757 361.912 51.1243 362.466 51.7754C363.019 52.4264 363.727 52.9473 364.59 53.3379C365.452 53.7122 366.519 53.8994 367.788 53.8994C369.481 53.8994 370.767 53.5413 371.646 52.8252C372.541 52.109 373.167 51.2708 373.525 50.3105H377.944C377.749 51.2708 377.383 52.1823 376.846 53.0449C376.309 53.9076 375.601 54.6725 374.722 55.3398C373.859 56.0072 372.842 56.5443 371.67 56.9512C370.514 57.3581 369.22 57.5615 367.788 57.5615C365.884 57.5615 364.215 57.2441 362.783 56.6094C361.351 55.9746 360.163 55.1283 359.219 54.0703C358.291 52.9961 357.591 51.7347 357.119 50.2861C356.663 48.8213 356.436 47.2751 356.436 45.6475ZM360.781 43.499H373.94C373.94 41.4971 373.33 39.9264 372.109 38.7871C370.905 37.6315 369.383 37.0537 367.544 37.0537C365.575 37.0537 363.971 37.6152 362.734 38.7383C361.497 39.8451 360.846 41.432 360.781 43.499ZM384.463 57V34.2949H388.809V38.7383C389.411 37.306 390.42 36.1504 391.836 35.2715C393.252 34.3926 394.757 33.9531 396.353 33.9531C397.215 33.9531 397.931 34.0671 398.501 34.2949V38.2988C398.029 38.2012 397.655 38.1361 397.378 38.1035C397.101 38.071 396.759 38.0547 396.353 38.0547C393.813 38.0547 391.917 38.8766 390.664 40.5205C389.427 42.1481 388.809 44.321 388.809 47.0391V57H384.463ZM400.332 49.3584H404.58C404.58 51.0837 405.085 52.3044 406.094 53.0205C407.119 53.7367 408.397 54.0947 409.927 54.0947C411.326 54.0947 412.433 53.8424 413.247 53.3379C414.077 52.8171 414.492 51.987 414.492 50.8477C414.492 50.2129 414.321 49.7083 413.979 49.334C413.654 48.9434 413.182 48.6016 412.563 48.3086C411.945 47.9993 411.18 47.7227 410.269 47.4785C409.373 47.2181 408.364 46.8926 407.241 46.502C406.379 46.2415 405.565 45.9648 404.8 45.6719C404.051 45.3626 403.4 44.972 402.847 44.5C402.31 44.028 401.878 43.4583 401.553 42.791C401.243 42.1237 401.089 41.2773 401.089 40.252C401.089 39.1777 401.3 38.2337 401.724 37.4199C402.163 36.6061 402.765 35.9225 403.53 35.3691C404.295 34.8158 405.19 34.4007 406.216 34.124C407.257 33.8473 408.364 33.709 409.536 33.709C410.773 33.709 411.921 33.8962 412.979 34.2705C414.053 34.6286 414.98 35.1494 415.762 35.833C416.543 36.5166 417.153 37.3223 417.593 38.25C418.049 39.1777 418.276 40.2113 418.276 41.3506H414.077C414.077 40.016 413.687 38.9906 412.905 38.2744C412.124 37.5583 410.985 37.2002 409.487 37.2002C408.283 37.2002 407.282 37.4688 406.484 38.0059C405.687 38.543 405.288 39.3242 405.288 40.3496C405.288 40.9193 405.426 41.3913 405.703 41.7656C405.98 42.1237 406.403 42.4411 406.973 42.7178C407.542 42.9782 408.226 43.2386 409.023 43.499C409.821 43.7432 410.757 44.028 411.831 44.3535C412.694 44.6139 413.532 44.8988 414.346 45.208C415.176 45.501 415.9 45.8835 416.519 46.3555C417.153 46.8112 417.658 47.389 418.032 48.0889C418.423 48.7887 418.618 49.6758 418.618 50.75C418.618 51.8893 418.39 52.8822 417.935 53.7285C417.495 54.5749 416.877 55.2829 416.079 55.8525C415.282 56.4222 414.338 56.8454 413.247 57.1221C412.173 57.415 411.001 57.5615 409.731 57.5615C408.462 57.5615 407.257 57.3906 406.118 57.0488C404.995 56.7233 404.002 56.2188 403.14 55.5352C402.293 54.8516 401.61 53.9971 401.089 52.9717C400.584 51.93 400.332 50.7256 400.332 49.3584Z" fill="black"/>
</svg>
