<svg width="567" height="2139" viewBox="0 0 567 2139" fill="none" xmlns="http://www.w3.org/2000/svg">
<path fill-rule="evenodd" clip-rule="evenodd" d="M-21.2692 120.586L-8.38182 209.532C4.50546 298.477 32.3199 477.066 96.8505 668.201C163.421 860.032 268.747 1065.11 157.856 1196.3C46.9649 1327.49 -278.104 1385.49 -350.239 1529.93C-422.374 1674.36 -237.496 1906.62 -147.097 2022.05L-54.6579 2138.18L-995 1816.85L-969.131 1741.15C-943.263 1665.45 -891.525 1514.04 -839.788 1362.64C-788.051 1211.23 -736.314 1059.83 -684.576 908.426C-632.839 757.021 -581.102 605.617 -529.364 454.213C-477.627 302.808 -425.89 151.404 -400.021 75.702L-374.152 -0.0001149L-21.2692 120.586Z" fill="url(#paint0_linear)" fill-opacity="0.3"/>
<defs>
<linearGradient id="paint0_linear" x1="96.0187" y1="160.665" x2="-524.829" y2="1977.52" gradientUnits="userSpaceOnUse">
<stop stop-color="#72C6EF"/>
<stop offset="1" stop-color="#004E8F"/>
</linearGradient>
</defs>
</svg>
